G04 #@! TF.GenerationSoftware,KiCad,Pcbnew,(5.1.4-0-10_14)*
G04 #@! TF.CreationDate,2020-08-02T20:06:06+03:00*
G04 #@! TF.ProjectId,smart-plug,736d6172-742d-4706-9c75-672e6b696361,rev?*
G04 #@! TF.SameCoordinates,Original*
G04 #@! TF.FileFunction,Paste,Top*
G04 #@! TF.FilePolarity,Positive*
%FSLAX46Y46*%
G04 Gerber Fmt 4.6, Leading zero omitted, Abs format (unit mm)*
G04 Created by KiCad (PCBNEW (5.1.4-0-10_14)) date 2020-08-02 20:06:06*
%MOMM*%
%LPD*%
G04 APERTURE LIST*
%ADD10C,0.100000*%
%ADD11C,1.425000*%
%ADD12R,0.900000X0.800000*%
%ADD13C,2.075000*%
%ADD14R,0.650000X1.060000*%
%ADD15C,0.600000*%
%ADD16R,2.200000X1.200000*%
%ADD17R,3.050000X2.750000*%
%ADD18C,0.920000*%
%ADD19R,1.200000X1.000000*%
%ADD20R,3.050000X1.520000*%
%ADD21R,1.450000X1.000000*%
%ADD22R,4.600000X1.100000*%
%ADD23R,4.550000X5.250000*%
G04 APERTURE END LIST*
D10*
G36*
X160474504Y-84876204D02*
G01*
X160498773Y-84879804D01*
X160522571Y-84885765D01*
X160545671Y-84894030D01*
X160567849Y-84904520D01*
X160588893Y-84917133D01*
X160608598Y-84931747D01*
X160626777Y-84948223D01*
X160643253Y-84966402D01*
X160657867Y-84986107D01*
X160670480Y-85007151D01*
X160680970Y-85029329D01*
X160689235Y-85052429D01*
X160695196Y-85076227D01*
X160698796Y-85100496D01*
X160700000Y-85125000D01*
X160700000Y-86375000D01*
X160698796Y-86399504D01*
X160695196Y-86423773D01*
X160689235Y-86447571D01*
X160680970Y-86470671D01*
X160670480Y-86492849D01*
X160657867Y-86513893D01*
X160643253Y-86533598D01*
X160626777Y-86551777D01*
X160608598Y-86568253D01*
X160588893Y-86582867D01*
X160567849Y-86595480D01*
X160545671Y-86605970D01*
X160522571Y-86614235D01*
X160498773Y-86620196D01*
X160474504Y-86623796D01*
X160450000Y-86625000D01*
X159525000Y-86625000D01*
X159500496Y-86623796D01*
X159476227Y-86620196D01*
X159452429Y-86614235D01*
X159429329Y-86605970D01*
X159407151Y-86595480D01*
X159386107Y-86582867D01*
X159366402Y-86568253D01*
X159348223Y-86551777D01*
X159331747Y-86533598D01*
X159317133Y-86513893D01*
X159304520Y-86492849D01*
X159294030Y-86470671D01*
X159285765Y-86447571D01*
X159279804Y-86423773D01*
X159276204Y-86399504D01*
X159275000Y-86375000D01*
X159275000Y-85125000D01*
X159276204Y-85100496D01*
X159279804Y-85076227D01*
X159285765Y-85052429D01*
X159294030Y-85029329D01*
X159304520Y-85007151D01*
X159317133Y-84986107D01*
X159331747Y-84966402D01*
X159348223Y-84948223D01*
X159366402Y-84931747D01*
X159386107Y-84917133D01*
X159407151Y-84904520D01*
X159429329Y-84894030D01*
X159452429Y-84885765D01*
X159476227Y-84879804D01*
X159500496Y-84876204D01*
X159525000Y-84875000D01*
X160450000Y-84875000D01*
X160474504Y-84876204D01*
X160474504Y-84876204D01*
G37*
D11*
X159987500Y-85750000D03*
D10*
G36*
X157499504Y-84876204D02*
G01*
X157523773Y-84879804D01*
X157547571Y-84885765D01*
X157570671Y-84894030D01*
X157592849Y-84904520D01*
X157613893Y-84917133D01*
X157633598Y-84931747D01*
X157651777Y-84948223D01*
X157668253Y-84966402D01*
X157682867Y-84986107D01*
X157695480Y-85007151D01*
X157705970Y-85029329D01*
X157714235Y-85052429D01*
X157720196Y-85076227D01*
X157723796Y-85100496D01*
X157725000Y-85125000D01*
X157725000Y-86375000D01*
X157723796Y-86399504D01*
X157720196Y-86423773D01*
X157714235Y-86447571D01*
X157705970Y-86470671D01*
X157695480Y-86492849D01*
X157682867Y-86513893D01*
X157668253Y-86533598D01*
X157651777Y-86551777D01*
X157633598Y-86568253D01*
X157613893Y-86582867D01*
X157592849Y-86595480D01*
X157570671Y-86605970D01*
X157547571Y-86614235D01*
X157523773Y-86620196D01*
X157499504Y-86623796D01*
X157475000Y-86625000D01*
X156550000Y-86625000D01*
X156525496Y-86623796D01*
X156501227Y-86620196D01*
X156477429Y-86614235D01*
X156454329Y-86605970D01*
X156432151Y-86595480D01*
X156411107Y-86582867D01*
X156391402Y-86568253D01*
X156373223Y-86551777D01*
X156356747Y-86533598D01*
X156342133Y-86513893D01*
X156329520Y-86492849D01*
X156319030Y-86470671D01*
X156310765Y-86447571D01*
X156304804Y-86423773D01*
X156301204Y-86399504D01*
X156300000Y-86375000D01*
X156300000Y-85125000D01*
X156301204Y-85100496D01*
X156304804Y-85076227D01*
X156310765Y-85052429D01*
X156319030Y-85029329D01*
X156329520Y-85007151D01*
X156342133Y-84986107D01*
X156356747Y-84966402D01*
X156373223Y-84948223D01*
X156391402Y-84931747D01*
X156411107Y-84917133D01*
X156432151Y-84904520D01*
X156454329Y-84894030D01*
X156477429Y-84885765D01*
X156501227Y-84879804D01*
X156525496Y-84876204D01*
X156550000Y-84875000D01*
X157475000Y-84875000D01*
X157499504Y-84876204D01*
X157499504Y-84876204D01*
G37*
D11*
X157012500Y-85750000D03*
D12*
X132750000Y-100700000D03*
X132750000Y-98800000D03*
X130750000Y-99750000D03*
D10*
G36*
X138649504Y-81026204D02*
G01*
X138673773Y-81029804D01*
X138697571Y-81035765D01*
X138720671Y-81044030D01*
X138742849Y-81054520D01*
X138763893Y-81067133D01*
X138783598Y-81081747D01*
X138801777Y-81098223D01*
X138818253Y-81116402D01*
X138832867Y-81136107D01*
X138845480Y-81157151D01*
X138855970Y-81179329D01*
X138864235Y-81202429D01*
X138870196Y-81226227D01*
X138873796Y-81250496D01*
X138875000Y-81275000D01*
X138875000Y-82200000D01*
X138873796Y-82224504D01*
X138870196Y-82248773D01*
X138864235Y-82272571D01*
X138855970Y-82295671D01*
X138845480Y-82317849D01*
X138832867Y-82338893D01*
X138818253Y-82358598D01*
X138801777Y-82376777D01*
X138783598Y-82393253D01*
X138763893Y-82407867D01*
X138742849Y-82420480D01*
X138720671Y-82430970D01*
X138697571Y-82439235D01*
X138673773Y-82445196D01*
X138649504Y-82448796D01*
X138625000Y-82450000D01*
X137375000Y-82450000D01*
X137350496Y-82448796D01*
X137326227Y-82445196D01*
X137302429Y-82439235D01*
X137279329Y-82430970D01*
X137257151Y-82420480D01*
X137236107Y-82407867D01*
X137216402Y-82393253D01*
X137198223Y-82376777D01*
X137181747Y-82358598D01*
X137167133Y-82338893D01*
X137154520Y-82317849D01*
X137144030Y-82295671D01*
X137135765Y-82272571D01*
X137129804Y-82248773D01*
X137126204Y-82224504D01*
X137125000Y-82200000D01*
X137125000Y-81275000D01*
X137126204Y-81250496D01*
X137129804Y-81226227D01*
X137135765Y-81202429D01*
X137144030Y-81179329D01*
X137154520Y-81157151D01*
X137167133Y-81136107D01*
X137181747Y-81116402D01*
X137198223Y-81098223D01*
X137216402Y-81081747D01*
X137236107Y-81067133D01*
X137257151Y-81054520D01*
X137279329Y-81044030D01*
X137302429Y-81035765D01*
X137326227Y-81029804D01*
X137350496Y-81026204D01*
X137375000Y-81025000D01*
X138625000Y-81025000D01*
X138649504Y-81026204D01*
X138649504Y-81026204D01*
G37*
D11*
X138000000Y-81737500D03*
D10*
G36*
X138649504Y-78051204D02*
G01*
X138673773Y-78054804D01*
X138697571Y-78060765D01*
X138720671Y-78069030D01*
X138742849Y-78079520D01*
X138763893Y-78092133D01*
X138783598Y-78106747D01*
X138801777Y-78123223D01*
X138818253Y-78141402D01*
X138832867Y-78161107D01*
X138845480Y-78182151D01*
X138855970Y-78204329D01*
X138864235Y-78227429D01*
X138870196Y-78251227D01*
X138873796Y-78275496D01*
X138875000Y-78300000D01*
X138875000Y-79225000D01*
X138873796Y-79249504D01*
X138870196Y-79273773D01*
X138864235Y-79297571D01*
X138855970Y-79320671D01*
X138845480Y-79342849D01*
X138832867Y-79363893D01*
X138818253Y-79383598D01*
X138801777Y-79401777D01*
X138783598Y-79418253D01*
X138763893Y-79432867D01*
X138742849Y-79445480D01*
X138720671Y-79455970D01*
X138697571Y-79464235D01*
X138673773Y-79470196D01*
X138649504Y-79473796D01*
X138625000Y-79475000D01*
X137375000Y-79475000D01*
X137350496Y-79473796D01*
X137326227Y-79470196D01*
X137302429Y-79464235D01*
X137279329Y-79455970D01*
X137257151Y-79445480D01*
X137236107Y-79432867D01*
X137216402Y-79418253D01*
X137198223Y-79401777D01*
X137181747Y-79383598D01*
X137167133Y-79363893D01*
X137154520Y-79342849D01*
X137144030Y-79320671D01*
X137135765Y-79297571D01*
X137129804Y-79273773D01*
X137126204Y-79249504D01*
X137125000Y-79225000D01*
X137125000Y-78300000D01*
X137126204Y-78275496D01*
X137129804Y-78251227D01*
X137135765Y-78227429D01*
X137144030Y-78204329D01*
X137154520Y-78182151D01*
X137167133Y-78161107D01*
X137181747Y-78141402D01*
X137198223Y-78123223D01*
X137216402Y-78106747D01*
X137236107Y-78092133D01*
X137257151Y-78079520D01*
X137279329Y-78069030D01*
X137302429Y-78060765D01*
X137326227Y-78054804D01*
X137350496Y-78051204D01*
X137375000Y-78050000D01*
X138625000Y-78050000D01*
X138649504Y-78051204D01*
X138649504Y-78051204D01*
G37*
D11*
X138000000Y-78762500D03*
D10*
G36*
X134299504Y-83576204D02*
G01*
X134323773Y-83579804D01*
X134347571Y-83585765D01*
X134370671Y-83594030D01*
X134392849Y-83604520D01*
X134413893Y-83617133D01*
X134433598Y-83631747D01*
X134451777Y-83648223D01*
X134468253Y-83666402D01*
X134482867Y-83686107D01*
X134495480Y-83707151D01*
X134505970Y-83729329D01*
X134514235Y-83752429D01*
X134520196Y-83776227D01*
X134523796Y-83800496D01*
X134525000Y-83825000D01*
X134525000Y-85400000D01*
X134523796Y-85424504D01*
X134520196Y-85448773D01*
X134514235Y-85472571D01*
X134505970Y-85495671D01*
X134495480Y-85517849D01*
X134482867Y-85538893D01*
X134468253Y-85558598D01*
X134451777Y-85576777D01*
X134433598Y-85593253D01*
X134413893Y-85607867D01*
X134392849Y-85620480D01*
X134370671Y-85630970D01*
X134347571Y-85639235D01*
X134323773Y-85645196D01*
X134299504Y-85648796D01*
X134275000Y-85650000D01*
X132225000Y-85650000D01*
X132200496Y-85648796D01*
X132176227Y-85645196D01*
X132152429Y-85639235D01*
X132129329Y-85630970D01*
X132107151Y-85620480D01*
X132086107Y-85607867D01*
X132066402Y-85593253D01*
X132048223Y-85576777D01*
X132031747Y-85558598D01*
X132017133Y-85538893D01*
X132004520Y-85517849D01*
X131994030Y-85495671D01*
X131985765Y-85472571D01*
X131979804Y-85448773D01*
X131976204Y-85424504D01*
X131975000Y-85400000D01*
X131975000Y-83825000D01*
X131976204Y-83800496D01*
X131979804Y-83776227D01*
X131985765Y-83752429D01*
X131994030Y-83729329D01*
X132004520Y-83707151D01*
X132017133Y-83686107D01*
X132031747Y-83666402D01*
X132048223Y-83648223D01*
X132066402Y-83631747D01*
X132086107Y-83617133D01*
X132107151Y-83604520D01*
X132129329Y-83594030D01*
X132152429Y-83585765D01*
X132176227Y-83579804D01*
X132200496Y-83576204D01*
X132225000Y-83575000D01*
X134275000Y-83575000D01*
X134299504Y-83576204D01*
X134299504Y-83576204D01*
G37*
D13*
X133250000Y-84612500D03*
D10*
G36*
X134299504Y-77351204D02*
G01*
X134323773Y-77354804D01*
X134347571Y-77360765D01*
X134370671Y-77369030D01*
X134392849Y-77379520D01*
X134413893Y-77392133D01*
X134433598Y-77406747D01*
X134451777Y-77423223D01*
X134468253Y-77441402D01*
X134482867Y-77461107D01*
X134495480Y-77482151D01*
X134505970Y-77504329D01*
X134514235Y-77527429D01*
X134520196Y-77551227D01*
X134523796Y-77575496D01*
X134525000Y-77600000D01*
X134525000Y-79175000D01*
X134523796Y-79199504D01*
X134520196Y-79223773D01*
X134514235Y-79247571D01*
X134505970Y-79270671D01*
X134495480Y-79292849D01*
X134482867Y-79313893D01*
X134468253Y-79333598D01*
X134451777Y-79351777D01*
X134433598Y-79368253D01*
X134413893Y-79382867D01*
X134392849Y-79395480D01*
X134370671Y-79405970D01*
X134347571Y-79414235D01*
X134323773Y-79420196D01*
X134299504Y-79423796D01*
X134275000Y-79425000D01*
X132225000Y-79425000D01*
X132200496Y-79423796D01*
X132176227Y-79420196D01*
X132152429Y-79414235D01*
X132129329Y-79405970D01*
X132107151Y-79395480D01*
X132086107Y-79382867D01*
X132066402Y-79368253D01*
X132048223Y-79351777D01*
X132031747Y-79333598D01*
X132017133Y-79313893D01*
X132004520Y-79292849D01*
X131994030Y-79270671D01*
X131985765Y-79247571D01*
X131979804Y-79223773D01*
X131976204Y-79199504D01*
X131975000Y-79175000D01*
X131975000Y-77600000D01*
X131976204Y-77575496D01*
X131979804Y-77551227D01*
X131985765Y-77527429D01*
X131994030Y-77504329D01*
X132004520Y-77482151D01*
X132017133Y-77461107D01*
X132031747Y-77441402D01*
X132048223Y-77423223D01*
X132066402Y-77406747D01*
X132086107Y-77392133D01*
X132107151Y-77379520D01*
X132129329Y-77369030D01*
X132152429Y-77360765D01*
X132176227Y-77354804D01*
X132200496Y-77351204D01*
X132225000Y-77350000D01*
X134275000Y-77350000D01*
X134299504Y-77351204D01*
X134299504Y-77351204D01*
G37*
D13*
X133250000Y-78387500D03*
D10*
G36*
X151899504Y-82526204D02*
G01*
X151923773Y-82529804D01*
X151947571Y-82535765D01*
X151970671Y-82544030D01*
X151992849Y-82554520D01*
X152013893Y-82567133D01*
X152033598Y-82581747D01*
X152051777Y-82598223D01*
X152068253Y-82616402D01*
X152082867Y-82636107D01*
X152095480Y-82657151D01*
X152105970Y-82679329D01*
X152114235Y-82702429D01*
X152120196Y-82726227D01*
X152123796Y-82750496D01*
X152125000Y-82775000D01*
X152125000Y-83700000D01*
X152123796Y-83724504D01*
X152120196Y-83748773D01*
X152114235Y-83772571D01*
X152105970Y-83795671D01*
X152095480Y-83817849D01*
X152082867Y-83838893D01*
X152068253Y-83858598D01*
X152051777Y-83876777D01*
X152033598Y-83893253D01*
X152013893Y-83907867D01*
X151992849Y-83920480D01*
X151970671Y-83930970D01*
X151947571Y-83939235D01*
X151923773Y-83945196D01*
X151899504Y-83948796D01*
X151875000Y-83950000D01*
X150625000Y-83950000D01*
X150600496Y-83948796D01*
X150576227Y-83945196D01*
X150552429Y-83939235D01*
X150529329Y-83930970D01*
X150507151Y-83920480D01*
X150486107Y-83907867D01*
X150466402Y-83893253D01*
X150448223Y-83876777D01*
X150431747Y-83858598D01*
X150417133Y-83838893D01*
X150404520Y-83817849D01*
X150394030Y-83795671D01*
X150385765Y-83772571D01*
X150379804Y-83748773D01*
X150376204Y-83724504D01*
X150375000Y-83700000D01*
X150375000Y-82775000D01*
X150376204Y-82750496D01*
X150379804Y-82726227D01*
X150385765Y-82702429D01*
X150394030Y-82679329D01*
X150404520Y-82657151D01*
X150417133Y-82636107D01*
X150431747Y-82616402D01*
X150448223Y-82598223D01*
X150466402Y-82581747D01*
X150486107Y-82567133D01*
X150507151Y-82554520D01*
X150529329Y-82544030D01*
X150552429Y-82535765D01*
X150576227Y-82529804D01*
X150600496Y-82526204D01*
X150625000Y-82525000D01*
X151875000Y-82525000D01*
X151899504Y-82526204D01*
X151899504Y-82526204D01*
G37*
D11*
X151250000Y-83237500D03*
D10*
G36*
X151899504Y-79551204D02*
G01*
X151923773Y-79554804D01*
X151947571Y-79560765D01*
X151970671Y-79569030D01*
X151992849Y-79579520D01*
X152013893Y-79592133D01*
X152033598Y-79606747D01*
X152051777Y-79623223D01*
X152068253Y-79641402D01*
X152082867Y-79661107D01*
X152095480Y-79682151D01*
X152105970Y-79704329D01*
X152114235Y-79727429D01*
X152120196Y-79751227D01*
X152123796Y-79775496D01*
X152125000Y-79800000D01*
X152125000Y-80725000D01*
X152123796Y-80749504D01*
X152120196Y-80773773D01*
X152114235Y-80797571D01*
X152105970Y-80820671D01*
X152095480Y-80842849D01*
X152082867Y-80863893D01*
X152068253Y-80883598D01*
X152051777Y-80901777D01*
X152033598Y-80918253D01*
X152013893Y-80932867D01*
X151992849Y-80945480D01*
X151970671Y-80955970D01*
X151947571Y-80964235D01*
X151923773Y-80970196D01*
X151899504Y-80973796D01*
X151875000Y-80975000D01*
X150625000Y-80975000D01*
X150600496Y-80973796D01*
X150576227Y-80970196D01*
X150552429Y-80964235D01*
X150529329Y-80955970D01*
X150507151Y-80945480D01*
X150486107Y-80932867D01*
X150466402Y-80918253D01*
X150448223Y-80901777D01*
X150431747Y-80883598D01*
X150417133Y-80863893D01*
X150404520Y-80842849D01*
X150394030Y-80820671D01*
X150385765Y-80797571D01*
X150379804Y-80773773D01*
X150376204Y-80749504D01*
X150375000Y-80725000D01*
X150375000Y-79800000D01*
X150376204Y-79775496D01*
X150379804Y-79751227D01*
X150385765Y-79727429D01*
X150394030Y-79704329D01*
X150404520Y-79682151D01*
X150417133Y-79661107D01*
X150431747Y-79641402D01*
X150448223Y-79623223D01*
X150466402Y-79606747D01*
X150486107Y-79592133D01*
X150507151Y-79579520D01*
X150529329Y-79569030D01*
X150552429Y-79560765D01*
X150576227Y-79554804D01*
X150600496Y-79551204D01*
X150625000Y-79550000D01*
X151875000Y-79550000D01*
X151899504Y-79551204D01*
X151899504Y-79551204D01*
G37*
D11*
X151250000Y-80262500D03*
D10*
G36*
X126749504Y-83626204D02*
G01*
X126773773Y-83629804D01*
X126797571Y-83635765D01*
X126820671Y-83644030D01*
X126842849Y-83654520D01*
X126863893Y-83667133D01*
X126883598Y-83681747D01*
X126901777Y-83698223D01*
X126918253Y-83716402D01*
X126932867Y-83736107D01*
X126945480Y-83757151D01*
X126955970Y-83779329D01*
X126964235Y-83802429D01*
X126970196Y-83826227D01*
X126973796Y-83850496D01*
X126975000Y-83875000D01*
X126975000Y-85125000D01*
X126973796Y-85149504D01*
X126970196Y-85173773D01*
X126964235Y-85197571D01*
X126955970Y-85220671D01*
X126945480Y-85242849D01*
X126932867Y-85263893D01*
X126918253Y-85283598D01*
X126901777Y-85301777D01*
X126883598Y-85318253D01*
X126863893Y-85332867D01*
X126842849Y-85345480D01*
X126820671Y-85355970D01*
X126797571Y-85364235D01*
X126773773Y-85370196D01*
X126749504Y-85373796D01*
X126725000Y-85375000D01*
X125800000Y-85375000D01*
X125775496Y-85373796D01*
X125751227Y-85370196D01*
X125727429Y-85364235D01*
X125704329Y-85355970D01*
X125682151Y-85345480D01*
X125661107Y-85332867D01*
X125641402Y-85318253D01*
X125623223Y-85301777D01*
X125606747Y-85283598D01*
X125592133Y-85263893D01*
X125579520Y-85242849D01*
X125569030Y-85220671D01*
X125560765Y-85197571D01*
X125554804Y-85173773D01*
X125551204Y-85149504D01*
X125550000Y-85125000D01*
X125550000Y-83875000D01*
X125551204Y-83850496D01*
X125554804Y-83826227D01*
X125560765Y-83802429D01*
X125569030Y-83779329D01*
X125579520Y-83757151D01*
X125592133Y-83736107D01*
X125606747Y-83716402D01*
X125623223Y-83698223D01*
X125641402Y-83681747D01*
X125661107Y-83667133D01*
X125682151Y-83654520D01*
X125704329Y-83644030D01*
X125727429Y-83635765D01*
X125751227Y-83629804D01*
X125775496Y-83626204D01*
X125800000Y-83625000D01*
X126725000Y-83625000D01*
X126749504Y-83626204D01*
X126749504Y-83626204D01*
G37*
D11*
X126262500Y-84500000D03*
D10*
G36*
X129724504Y-83626204D02*
G01*
X129748773Y-83629804D01*
X129772571Y-83635765D01*
X129795671Y-83644030D01*
X129817849Y-83654520D01*
X129838893Y-83667133D01*
X129858598Y-83681747D01*
X129876777Y-83698223D01*
X129893253Y-83716402D01*
X129907867Y-83736107D01*
X129920480Y-83757151D01*
X129930970Y-83779329D01*
X129939235Y-83802429D01*
X129945196Y-83826227D01*
X129948796Y-83850496D01*
X129950000Y-83875000D01*
X129950000Y-85125000D01*
X129948796Y-85149504D01*
X129945196Y-85173773D01*
X129939235Y-85197571D01*
X129930970Y-85220671D01*
X129920480Y-85242849D01*
X129907867Y-85263893D01*
X129893253Y-85283598D01*
X129876777Y-85301777D01*
X129858598Y-85318253D01*
X129838893Y-85332867D01*
X129817849Y-85345480D01*
X129795671Y-85355970D01*
X129772571Y-85364235D01*
X129748773Y-85370196D01*
X129724504Y-85373796D01*
X129700000Y-85375000D01*
X128775000Y-85375000D01*
X128750496Y-85373796D01*
X128726227Y-85370196D01*
X128702429Y-85364235D01*
X128679329Y-85355970D01*
X128657151Y-85345480D01*
X128636107Y-85332867D01*
X128616402Y-85318253D01*
X128598223Y-85301777D01*
X128581747Y-85283598D01*
X128567133Y-85263893D01*
X128554520Y-85242849D01*
X128544030Y-85220671D01*
X128535765Y-85197571D01*
X128529804Y-85173773D01*
X128526204Y-85149504D01*
X128525000Y-85125000D01*
X128525000Y-83875000D01*
X128526204Y-83850496D01*
X128529804Y-83826227D01*
X128535765Y-83802429D01*
X128544030Y-83779329D01*
X128554520Y-83757151D01*
X128567133Y-83736107D01*
X128581747Y-83716402D01*
X128598223Y-83698223D01*
X128616402Y-83681747D01*
X128636107Y-83667133D01*
X128657151Y-83654520D01*
X128679329Y-83644030D01*
X128702429Y-83635765D01*
X128726227Y-83629804D01*
X128750496Y-83626204D01*
X128775000Y-83625000D01*
X129700000Y-83625000D01*
X129724504Y-83626204D01*
X129724504Y-83626204D01*
G37*
D11*
X129237500Y-84500000D03*
D10*
G36*
X157649504Y-78051204D02*
G01*
X157673773Y-78054804D01*
X157697571Y-78060765D01*
X157720671Y-78069030D01*
X157742849Y-78079520D01*
X157763893Y-78092133D01*
X157783598Y-78106747D01*
X157801777Y-78123223D01*
X157818253Y-78141402D01*
X157832867Y-78161107D01*
X157845480Y-78182151D01*
X157855970Y-78204329D01*
X157864235Y-78227429D01*
X157870196Y-78251227D01*
X157873796Y-78275496D01*
X157875000Y-78300000D01*
X157875000Y-79225000D01*
X157873796Y-79249504D01*
X157870196Y-79273773D01*
X157864235Y-79297571D01*
X157855970Y-79320671D01*
X157845480Y-79342849D01*
X157832867Y-79363893D01*
X157818253Y-79383598D01*
X157801777Y-79401777D01*
X157783598Y-79418253D01*
X157763893Y-79432867D01*
X157742849Y-79445480D01*
X157720671Y-79455970D01*
X157697571Y-79464235D01*
X157673773Y-79470196D01*
X157649504Y-79473796D01*
X157625000Y-79475000D01*
X156375000Y-79475000D01*
X156350496Y-79473796D01*
X156326227Y-79470196D01*
X156302429Y-79464235D01*
X156279329Y-79455970D01*
X156257151Y-79445480D01*
X156236107Y-79432867D01*
X156216402Y-79418253D01*
X156198223Y-79401777D01*
X156181747Y-79383598D01*
X156167133Y-79363893D01*
X156154520Y-79342849D01*
X156144030Y-79320671D01*
X156135765Y-79297571D01*
X156129804Y-79273773D01*
X156126204Y-79249504D01*
X156125000Y-79225000D01*
X156125000Y-78300000D01*
X156126204Y-78275496D01*
X156129804Y-78251227D01*
X156135765Y-78227429D01*
X156144030Y-78204329D01*
X156154520Y-78182151D01*
X156167133Y-78161107D01*
X156181747Y-78141402D01*
X156198223Y-78123223D01*
X156216402Y-78106747D01*
X156236107Y-78092133D01*
X156257151Y-78079520D01*
X156279329Y-78069030D01*
X156302429Y-78060765D01*
X156326227Y-78054804D01*
X156350496Y-78051204D01*
X156375000Y-78050000D01*
X157625000Y-78050000D01*
X157649504Y-78051204D01*
X157649504Y-78051204D01*
G37*
D11*
X157000000Y-78762500D03*
D10*
G36*
X157649504Y-81026204D02*
G01*
X157673773Y-81029804D01*
X157697571Y-81035765D01*
X157720671Y-81044030D01*
X157742849Y-81054520D01*
X157763893Y-81067133D01*
X157783598Y-81081747D01*
X157801777Y-81098223D01*
X157818253Y-81116402D01*
X157832867Y-81136107D01*
X157845480Y-81157151D01*
X157855970Y-81179329D01*
X157864235Y-81202429D01*
X157870196Y-81226227D01*
X157873796Y-81250496D01*
X157875000Y-81275000D01*
X157875000Y-82200000D01*
X157873796Y-82224504D01*
X157870196Y-82248773D01*
X157864235Y-82272571D01*
X157855970Y-82295671D01*
X157845480Y-82317849D01*
X157832867Y-82338893D01*
X157818253Y-82358598D01*
X157801777Y-82376777D01*
X157783598Y-82393253D01*
X157763893Y-82407867D01*
X157742849Y-82420480D01*
X157720671Y-82430970D01*
X157697571Y-82439235D01*
X157673773Y-82445196D01*
X157649504Y-82448796D01*
X157625000Y-82450000D01*
X156375000Y-82450000D01*
X156350496Y-82448796D01*
X156326227Y-82445196D01*
X156302429Y-82439235D01*
X156279329Y-82430970D01*
X156257151Y-82420480D01*
X156236107Y-82407867D01*
X156216402Y-82393253D01*
X156198223Y-82376777D01*
X156181747Y-82358598D01*
X156167133Y-82338893D01*
X156154520Y-82317849D01*
X156144030Y-82295671D01*
X156135765Y-82272571D01*
X156129804Y-82248773D01*
X156126204Y-82224504D01*
X156125000Y-82200000D01*
X156125000Y-81275000D01*
X156126204Y-81250496D01*
X156129804Y-81226227D01*
X156135765Y-81202429D01*
X156144030Y-81179329D01*
X156154520Y-81157151D01*
X156167133Y-81136107D01*
X156181747Y-81116402D01*
X156198223Y-81098223D01*
X156216402Y-81081747D01*
X156236107Y-81067133D01*
X156257151Y-81054520D01*
X156279329Y-81044030D01*
X156302429Y-81035765D01*
X156326227Y-81029804D01*
X156350496Y-81026204D01*
X156375000Y-81025000D01*
X157625000Y-81025000D01*
X157649504Y-81026204D01*
X157649504Y-81026204D01*
G37*
D11*
X157000000Y-81737500D03*
D14*
X166000000Y-78650000D03*
X165050000Y-78650000D03*
X166950000Y-78650000D03*
X166950000Y-80850000D03*
X166000000Y-80850000D03*
X165050000Y-80850000D03*
D10*
G36*
X151614703Y-56545722D02*
G01*
X151629264Y-56547882D01*
X151643543Y-56551459D01*
X151657403Y-56556418D01*
X151670710Y-56562712D01*
X151683336Y-56570280D01*
X151695159Y-56579048D01*
X151706066Y-56588934D01*
X151715952Y-56599841D01*
X151724720Y-56611664D01*
X151732288Y-56624290D01*
X151738582Y-56637597D01*
X151743541Y-56651457D01*
X151747118Y-56665736D01*
X151749278Y-56680297D01*
X151750000Y-56695000D01*
X151750000Y-56995000D01*
X151749278Y-57009703D01*
X151747118Y-57024264D01*
X151743541Y-57038543D01*
X151738582Y-57052403D01*
X151732288Y-57065710D01*
X151724720Y-57078336D01*
X151715952Y-57090159D01*
X151706066Y-57101066D01*
X151695159Y-57110952D01*
X151683336Y-57119720D01*
X151670710Y-57127288D01*
X151657403Y-57133582D01*
X151643543Y-57138541D01*
X151629264Y-57142118D01*
X151614703Y-57144278D01*
X151600000Y-57145000D01*
X149950000Y-57145000D01*
X149935297Y-57144278D01*
X149920736Y-57142118D01*
X149906457Y-57138541D01*
X149892597Y-57133582D01*
X149879290Y-57127288D01*
X149866664Y-57119720D01*
X149854841Y-57110952D01*
X149843934Y-57101066D01*
X149834048Y-57090159D01*
X149825280Y-57078336D01*
X149817712Y-57065710D01*
X149811418Y-57052403D01*
X149806459Y-57038543D01*
X149802882Y-57024264D01*
X149800722Y-57009703D01*
X149800000Y-56995000D01*
X149800000Y-56695000D01*
X149800722Y-56680297D01*
X149802882Y-56665736D01*
X149806459Y-56651457D01*
X149811418Y-56637597D01*
X149817712Y-56624290D01*
X149825280Y-56611664D01*
X149834048Y-56599841D01*
X149843934Y-56588934D01*
X149854841Y-56579048D01*
X149866664Y-56570280D01*
X149879290Y-56562712D01*
X149892597Y-56556418D01*
X149906457Y-56551459D01*
X149920736Y-56547882D01*
X149935297Y-56545722D01*
X149950000Y-56545000D01*
X151600000Y-56545000D01*
X151614703Y-56545722D01*
X151614703Y-56545722D01*
G37*
D15*
X150775000Y-56845000D03*
D10*
G36*
X151614703Y-57815722D02*
G01*
X151629264Y-57817882D01*
X151643543Y-57821459D01*
X151657403Y-57826418D01*
X151670710Y-57832712D01*
X151683336Y-57840280D01*
X151695159Y-57849048D01*
X151706066Y-57858934D01*
X151715952Y-57869841D01*
X151724720Y-57881664D01*
X151732288Y-57894290D01*
X151738582Y-57907597D01*
X151743541Y-57921457D01*
X151747118Y-57935736D01*
X151749278Y-57950297D01*
X151750000Y-57965000D01*
X151750000Y-58265000D01*
X151749278Y-58279703D01*
X151747118Y-58294264D01*
X151743541Y-58308543D01*
X151738582Y-58322403D01*
X151732288Y-58335710D01*
X151724720Y-58348336D01*
X151715952Y-58360159D01*
X151706066Y-58371066D01*
X151695159Y-58380952D01*
X151683336Y-58389720D01*
X151670710Y-58397288D01*
X151657403Y-58403582D01*
X151643543Y-58408541D01*
X151629264Y-58412118D01*
X151614703Y-58414278D01*
X151600000Y-58415000D01*
X149950000Y-58415000D01*
X149935297Y-58414278D01*
X149920736Y-58412118D01*
X149906457Y-58408541D01*
X149892597Y-58403582D01*
X149879290Y-58397288D01*
X149866664Y-58389720D01*
X149854841Y-58380952D01*
X149843934Y-58371066D01*
X149834048Y-58360159D01*
X149825280Y-58348336D01*
X149817712Y-58335710D01*
X149811418Y-58322403D01*
X149806459Y-58308543D01*
X149802882Y-58294264D01*
X149800722Y-58279703D01*
X149800000Y-58265000D01*
X149800000Y-57965000D01*
X149800722Y-57950297D01*
X149802882Y-57935736D01*
X149806459Y-57921457D01*
X149811418Y-57907597D01*
X149817712Y-57894290D01*
X149825280Y-57881664D01*
X149834048Y-57869841D01*
X149843934Y-57858934D01*
X149854841Y-57849048D01*
X149866664Y-57840280D01*
X149879290Y-57832712D01*
X149892597Y-57826418D01*
X149906457Y-57821459D01*
X149920736Y-57817882D01*
X149935297Y-57815722D01*
X149950000Y-57815000D01*
X151600000Y-57815000D01*
X151614703Y-57815722D01*
X151614703Y-57815722D01*
G37*
D15*
X150775000Y-58115000D03*
D10*
G36*
X151614703Y-59085722D02*
G01*
X151629264Y-59087882D01*
X151643543Y-59091459D01*
X151657403Y-59096418D01*
X151670710Y-59102712D01*
X151683336Y-59110280D01*
X151695159Y-59119048D01*
X151706066Y-59128934D01*
X151715952Y-59139841D01*
X151724720Y-59151664D01*
X151732288Y-59164290D01*
X151738582Y-59177597D01*
X151743541Y-59191457D01*
X151747118Y-59205736D01*
X151749278Y-59220297D01*
X151750000Y-59235000D01*
X151750000Y-59535000D01*
X151749278Y-59549703D01*
X151747118Y-59564264D01*
X151743541Y-59578543D01*
X151738582Y-59592403D01*
X151732288Y-59605710D01*
X151724720Y-59618336D01*
X151715952Y-59630159D01*
X151706066Y-59641066D01*
X151695159Y-59650952D01*
X151683336Y-59659720D01*
X151670710Y-59667288D01*
X151657403Y-59673582D01*
X151643543Y-59678541D01*
X151629264Y-59682118D01*
X151614703Y-59684278D01*
X151600000Y-59685000D01*
X149950000Y-59685000D01*
X149935297Y-59684278D01*
X149920736Y-59682118D01*
X149906457Y-59678541D01*
X149892597Y-59673582D01*
X149879290Y-59667288D01*
X149866664Y-59659720D01*
X149854841Y-59650952D01*
X149843934Y-59641066D01*
X149834048Y-59630159D01*
X149825280Y-59618336D01*
X149817712Y-59605710D01*
X149811418Y-59592403D01*
X149806459Y-59578543D01*
X149802882Y-59564264D01*
X149800722Y-59549703D01*
X149800000Y-59535000D01*
X149800000Y-59235000D01*
X149800722Y-59220297D01*
X149802882Y-59205736D01*
X149806459Y-59191457D01*
X149811418Y-59177597D01*
X149817712Y-59164290D01*
X149825280Y-59151664D01*
X149834048Y-59139841D01*
X149843934Y-59128934D01*
X149854841Y-59119048D01*
X149866664Y-59110280D01*
X149879290Y-59102712D01*
X149892597Y-59096418D01*
X149906457Y-59091459D01*
X149920736Y-59087882D01*
X149935297Y-59085722D01*
X149950000Y-59085000D01*
X151600000Y-59085000D01*
X151614703Y-59085722D01*
X151614703Y-59085722D01*
G37*
D15*
X150775000Y-59385000D03*
D10*
G36*
X151614703Y-60355722D02*
G01*
X151629264Y-60357882D01*
X151643543Y-60361459D01*
X151657403Y-60366418D01*
X151670710Y-60372712D01*
X151683336Y-60380280D01*
X151695159Y-60389048D01*
X151706066Y-60398934D01*
X151715952Y-60409841D01*
X151724720Y-60421664D01*
X151732288Y-60434290D01*
X151738582Y-60447597D01*
X151743541Y-60461457D01*
X151747118Y-60475736D01*
X151749278Y-60490297D01*
X151750000Y-60505000D01*
X151750000Y-60805000D01*
X151749278Y-60819703D01*
X151747118Y-60834264D01*
X151743541Y-60848543D01*
X151738582Y-60862403D01*
X151732288Y-60875710D01*
X151724720Y-60888336D01*
X151715952Y-60900159D01*
X151706066Y-60911066D01*
X151695159Y-60920952D01*
X151683336Y-60929720D01*
X151670710Y-60937288D01*
X151657403Y-60943582D01*
X151643543Y-60948541D01*
X151629264Y-60952118D01*
X151614703Y-60954278D01*
X151600000Y-60955000D01*
X149950000Y-60955000D01*
X149935297Y-60954278D01*
X149920736Y-60952118D01*
X149906457Y-60948541D01*
X149892597Y-60943582D01*
X149879290Y-60937288D01*
X149866664Y-60929720D01*
X149854841Y-60920952D01*
X149843934Y-60911066D01*
X149834048Y-60900159D01*
X149825280Y-60888336D01*
X149817712Y-60875710D01*
X149811418Y-60862403D01*
X149806459Y-60848543D01*
X149802882Y-60834264D01*
X149800722Y-60819703D01*
X149800000Y-60805000D01*
X149800000Y-60505000D01*
X149800722Y-60490297D01*
X149802882Y-60475736D01*
X149806459Y-60461457D01*
X149811418Y-60447597D01*
X149817712Y-60434290D01*
X149825280Y-60421664D01*
X149834048Y-60409841D01*
X149843934Y-60398934D01*
X149854841Y-60389048D01*
X149866664Y-60380280D01*
X149879290Y-60372712D01*
X149892597Y-60366418D01*
X149906457Y-60361459D01*
X149920736Y-60357882D01*
X149935297Y-60355722D01*
X149950000Y-60355000D01*
X151600000Y-60355000D01*
X151614703Y-60355722D01*
X151614703Y-60355722D01*
G37*
D15*
X150775000Y-60655000D03*
D10*
G36*
X156564703Y-60355722D02*
G01*
X156579264Y-60357882D01*
X156593543Y-60361459D01*
X156607403Y-60366418D01*
X156620710Y-60372712D01*
X156633336Y-60380280D01*
X156645159Y-60389048D01*
X156656066Y-60398934D01*
X156665952Y-60409841D01*
X156674720Y-60421664D01*
X156682288Y-60434290D01*
X156688582Y-60447597D01*
X156693541Y-60461457D01*
X156697118Y-60475736D01*
X156699278Y-60490297D01*
X156700000Y-60505000D01*
X156700000Y-60805000D01*
X156699278Y-60819703D01*
X156697118Y-60834264D01*
X156693541Y-60848543D01*
X156688582Y-60862403D01*
X156682288Y-60875710D01*
X156674720Y-60888336D01*
X156665952Y-60900159D01*
X156656066Y-60911066D01*
X156645159Y-60920952D01*
X156633336Y-60929720D01*
X156620710Y-60937288D01*
X156607403Y-60943582D01*
X156593543Y-60948541D01*
X156579264Y-60952118D01*
X156564703Y-60954278D01*
X156550000Y-60955000D01*
X154900000Y-60955000D01*
X154885297Y-60954278D01*
X154870736Y-60952118D01*
X154856457Y-60948541D01*
X154842597Y-60943582D01*
X154829290Y-60937288D01*
X154816664Y-60929720D01*
X154804841Y-60920952D01*
X154793934Y-60911066D01*
X154784048Y-60900159D01*
X154775280Y-60888336D01*
X154767712Y-60875710D01*
X154761418Y-60862403D01*
X154756459Y-60848543D01*
X154752882Y-60834264D01*
X154750722Y-60819703D01*
X154750000Y-60805000D01*
X154750000Y-60505000D01*
X154750722Y-60490297D01*
X154752882Y-60475736D01*
X154756459Y-60461457D01*
X154761418Y-60447597D01*
X154767712Y-60434290D01*
X154775280Y-60421664D01*
X154784048Y-60409841D01*
X154793934Y-60398934D01*
X154804841Y-60389048D01*
X154816664Y-60380280D01*
X154829290Y-60372712D01*
X154842597Y-60366418D01*
X154856457Y-60361459D01*
X154870736Y-60357882D01*
X154885297Y-60355722D01*
X154900000Y-60355000D01*
X156550000Y-60355000D01*
X156564703Y-60355722D01*
X156564703Y-60355722D01*
G37*
D15*
X155725000Y-60655000D03*
D10*
G36*
X156564703Y-59085722D02*
G01*
X156579264Y-59087882D01*
X156593543Y-59091459D01*
X156607403Y-59096418D01*
X156620710Y-59102712D01*
X156633336Y-59110280D01*
X156645159Y-59119048D01*
X156656066Y-59128934D01*
X156665952Y-59139841D01*
X156674720Y-59151664D01*
X156682288Y-59164290D01*
X156688582Y-59177597D01*
X156693541Y-59191457D01*
X156697118Y-59205736D01*
X156699278Y-59220297D01*
X156700000Y-59235000D01*
X156700000Y-59535000D01*
X156699278Y-59549703D01*
X156697118Y-59564264D01*
X156693541Y-59578543D01*
X156688582Y-59592403D01*
X156682288Y-59605710D01*
X156674720Y-59618336D01*
X156665952Y-59630159D01*
X156656066Y-59641066D01*
X156645159Y-59650952D01*
X156633336Y-59659720D01*
X156620710Y-59667288D01*
X156607403Y-59673582D01*
X156593543Y-59678541D01*
X156579264Y-59682118D01*
X156564703Y-59684278D01*
X156550000Y-59685000D01*
X154900000Y-59685000D01*
X154885297Y-59684278D01*
X154870736Y-59682118D01*
X154856457Y-59678541D01*
X154842597Y-59673582D01*
X154829290Y-59667288D01*
X154816664Y-59659720D01*
X154804841Y-59650952D01*
X154793934Y-59641066D01*
X154784048Y-59630159D01*
X154775280Y-59618336D01*
X154767712Y-59605710D01*
X154761418Y-59592403D01*
X154756459Y-59578543D01*
X154752882Y-59564264D01*
X154750722Y-59549703D01*
X154750000Y-59535000D01*
X154750000Y-59235000D01*
X154750722Y-59220297D01*
X154752882Y-59205736D01*
X154756459Y-59191457D01*
X154761418Y-59177597D01*
X154767712Y-59164290D01*
X154775280Y-59151664D01*
X154784048Y-59139841D01*
X154793934Y-59128934D01*
X154804841Y-59119048D01*
X154816664Y-59110280D01*
X154829290Y-59102712D01*
X154842597Y-59096418D01*
X154856457Y-59091459D01*
X154870736Y-59087882D01*
X154885297Y-59085722D01*
X154900000Y-59085000D01*
X156550000Y-59085000D01*
X156564703Y-59085722D01*
X156564703Y-59085722D01*
G37*
D15*
X155725000Y-59385000D03*
D10*
G36*
X156564703Y-57815722D02*
G01*
X156579264Y-57817882D01*
X156593543Y-57821459D01*
X156607403Y-57826418D01*
X156620710Y-57832712D01*
X156633336Y-57840280D01*
X156645159Y-57849048D01*
X156656066Y-57858934D01*
X156665952Y-57869841D01*
X156674720Y-57881664D01*
X156682288Y-57894290D01*
X156688582Y-57907597D01*
X156693541Y-57921457D01*
X156697118Y-57935736D01*
X156699278Y-57950297D01*
X156700000Y-57965000D01*
X156700000Y-58265000D01*
X156699278Y-58279703D01*
X156697118Y-58294264D01*
X156693541Y-58308543D01*
X156688582Y-58322403D01*
X156682288Y-58335710D01*
X156674720Y-58348336D01*
X156665952Y-58360159D01*
X156656066Y-58371066D01*
X156645159Y-58380952D01*
X156633336Y-58389720D01*
X156620710Y-58397288D01*
X156607403Y-58403582D01*
X156593543Y-58408541D01*
X156579264Y-58412118D01*
X156564703Y-58414278D01*
X156550000Y-58415000D01*
X154900000Y-58415000D01*
X154885297Y-58414278D01*
X154870736Y-58412118D01*
X154856457Y-58408541D01*
X154842597Y-58403582D01*
X154829290Y-58397288D01*
X154816664Y-58389720D01*
X154804841Y-58380952D01*
X154793934Y-58371066D01*
X154784048Y-58360159D01*
X154775280Y-58348336D01*
X154767712Y-58335710D01*
X154761418Y-58322403D01*
X154756459Y-58308543D01*
X154752882Y-58294264D01*
X154750722Y-58279703D01*
X154750000Y-58265000D01*
X154750000Y-57965000D01*
X154750722Y-57950297D01*
X154752882Y-57935736D01*
X154756459Y-57921457D01*
X154761418Y-57907597D01*
X154767712Y-57894290D01*
X154775280Y-57881664D01*
X154784048Y-57869841D01*
X154793934Y-57858934D01*
X154804841Y-57849048D01*
X154816664Y-57840280D01*
X154829290Y-57832712D01*
X154842597Y-57826418D01*
X154856457Y-57821459D01*
X154870736Y-57817882D01*
X154885297Y-57815722D01*
X154900000Y-57815000D01*
X156550000Y-57815000D01*
X156564703Y-57815722D01*
X156564703Y-57815722D01*
G37*
D15*
X155725000Y-58115000D03*
D10*
G36*
X156564703Y-56545722D02*
G01*
X156579264Y-56547882D01*
X156593543Y-56551459D01*
X156607403Y-56556418D01*
X156620710Y-56562712D01*
X156633336Y-56570280D01*
X156645159Y-56579048D01*
X156656066Y-56588934D01*
X156665952Y-56599841D01*
X156674720Y-56611664D01*
X156682288Y-56624290D01*
X156688582Y-56637597D01*
X156693541Y-56651457D01*
X156697118Y-56665736D01*
X156699278Y-56680297D01*
X156700000Y-56695000D01*
X156700000Y-56995000D01*
X156699278Y-57009703D01*
X156697118Y-57024264D01*
X156693541Y-57038543D01*
X156688582Y-57052403D01*
X156682288Y-57065710D01*
X156674720Y-57078336D01*
X156665952Y-57090159D01*
X156656066Y-57101066D01*
X156645159Y-57110952D01*
X156633336Y-57119720D01*
X156620710Y-57127288D01*
X156607403Y-57133582D01*
X156593543Y-57138541D01*
X156579264Y-57142118D01*
X156564703Y-57144278D01*
X156550000Y-57145000D01*
X154900000Y-57145000D01*
X154885297Y-57144278D01*
X154870736Y-57142118D01*
X154856457Y-57138541D01*
X154842597Y-57133582D01*
X154829290Y-57127288D01*
X154816664Y-57119720D01*
X154804841Y-57110952D01*
X154793934Y-57101066D01*
X154784048Y-57090159D01*
X154775280Y-57078336D01*
X154767712Y-57065710D01*
X154761418Y-57052403D01*
X154756459Y-57038543D01*
X154752882Y-57024264D01*
X154750722Y-57009703D01*
X154750000Y-56995000D01*
X154750000Y-56695000D01*
X154750722Y-56680297D01*
X154752882Y-56665736D01*
X154756459Y-56651457D01*
X154761418Y-56637597D01*
X154767712Y-56624290D01*
X154775280Y-56611664D01*
X154784048Y-56599841D01*
X154793934Y-56588934D01*
X154804841Y-56579048D01*
X154816664Y-56570280D01*
X154829290Y-56562712D01*
X154842597Y-56556418D01*
X154856457Y-56551459D01*
X154870736Y-56547882D01*
X154885297Y-56545722D01*
X154900000Y-56545000D01*
X156550000Y-56545000D01*
X156564703Y-56545722D01*
X156564703Y-56545722D01*
G37*
D15*
X155725000Y-56845000D03*
D10*
G36*
X159137004Y-53966204D02*
G01*
X159161273Y-53969804D01*
X159185071Y-53975765D01*
X159208171Y-53984030D01*
X159230349Y-53994520D01*
X159251393Y-54007133D01*
X159271098Y-54021747D01*
X159289277Y-54038223D01*
X159305753Y-54056402D01*
X159320367Y-54076107D01*
X159332980Y-54097151D01*
X159343470Y-54119329D01*
X159351735Y-54142429D01*
X159357696Y-54166227D01*
X159361296Y-54190496D01*
X159362500Y-54215000D01*
X159362500Y-55465000D01*
X159361296Y-55489504D01*
X159357696Y-55513773D01*
X159351735Y-55537571D01*
X159343470Y-55560671D01*
X159332980Y-55582849D01*
X159320367Y-55603893D01*
X159305753Y-55623598D01*
X159289277Y-55641777D01*
X159271098Y-55658253D01*
X159251393Y-55672867D01*
X159230349Y-55685480D01*
X159208171Y-55695970D01*
X159185071Y-55704235D01*
X159161273Y-55710196D01*
X159137004Y-55713796D01*
X159112500Y-55715000D01*
X158187500Y-55715000D01*
X158162996Y-55713796D01*
X158138727Y-55710196D01*
X158114929Y-55704235D01*
X158091829Y-55695970D01*
X158069651Y-55685480D01*
X158048607Y-55672867D01*
X158028902Y-55658253D01*
X158010723Y-55641777D01*
X157994247Y-55623598D01*
X157979633Y-55603893D01*
X157967020Y-55582849D01*
X157956530Y-55560671D01*
X157948265Y-55537571D01*
X157942304Y-55513773D01*
X157938704Y-55489504D01*
X157937500Y-55465000D01*
X157937500Y-54215000D01*
X157938704Y-54190496D01*
X157942304Y-54166227D01*
X157948265Y-54142429D01*
X157956530Y-54119329D01*
X157967020Y-54097151D01*
X157979633Y-54076107D01*
X157994247Y-54056402D01*
X158010723Y-54038223D01*
X158028902Y-54021747D01*
X158048607Y-54007133D01*
X158069651Y-53994520D01*
X158091829Y-53984030D01*
X158114929Y-53975765D01*
X158138727Y-53969804D01*
X158162996Y-53966204D01*
X158187500Y-53965000D01*
X159112500Y-53965000D01*
X159137004Y-53966204D01*
X159137004Y-53966204D01*
G37*
D11*
X158650000Y-54840000D03*
D10*
G36*
X156162004Y-53966204D02*
G01*
X156186273Y-53969804D01*
X156210071Y-53975765D01*
X156233171Y-53984030D01*
X156255349Y-53994520D01*
X156276393Y-54007133D01*
X156296098Y-54021747D01*
X156314277Y-54038223D01*
X156330753Y-54056402D01*
X156345367Y-54076107D01*
X156357980Y-54097151D01*
X156368470Y-54119329D01*
X156376735Y-54142429D01*
X156382696Y-54166227D01*
X156386296Y-54190496D01*
X156387500Y-54215000D01*
X156387500Y-55465000D01*
X156386296Y-55489504D01*
X156382696Y-55513773D01*
X156376735Y-55537571D01*
X156368470Y-55560671D01*
X156357980Y-55582849D01*
X156345367Y-55603893D01*
X156330753Y-55623598D01*
X156314277Y-55641777D01*
X156296098Y-55658253D01*
X156276393Y-55672867D01*
X156255349Y-55685480D01*
X156233171Y-55695970D01*
X156210071Y-55704235D01*
X156186273Y-55710196D01*
X156162004Y-55713796D01*
X156137500Y-55715000D01*
X155212500Y-55715000D01*
X155187996Y-55713796D01*
X155163727Y-55710196D01*
X155139929Y-55704235D01*
X155116829Y-55695970D01*
X155094651Y-55685480D01*
X155073607Y-55672867D01*
X155053902Y-55658253D01*
X155035723Y-55641777D01*
X155019247Y-55623598D01*
X155004633Y-55603893D01*
X154992020Y-55582849D01*
X154981530Y-55560671D01*
X154973265Y-55537571D01*
X154967304Y-55513773D01*
X154963704Y-55489504D01*
X154962500Y-55465000D01*
X154962500Y-54215000D01*
X154963704Y-54190496D01*
X154967304Y-54166227D01*
X154973265Y-54142429D01*
X154981530Y-54119329D01*
X154992020Y-54097151D01*
X155004633Y-54076107D01*
X155019247Y-54056402D01*
X155035723Y-54038223D01*
X155053902Y-54021747D01*
X155073607Y-54007133D01*
X155094651Y-53994520D01*
X155116829Y-53984030D01*
X155139929Y-53975765D01*
X155163727Y-53969804D01*
X155187996Y-53966204D01*
X155212500Y-53965000D01*
X156137500Y-53965000D01*
X156162004Y-53966204D01*
X156162004Y-53966204D01*
G37*
D11*
X155675000Y-54840000D03*
D16*
X126550000Y-76780000D03*
X126550000Y-72220000D03*
D17*
X118575000Y-72975000D03*
X121925000Y-76025000D03*
X118575000Y-76025000D03*
X121925000Y-72975000D03*
D10*
G36*
X143822544Y-80896108D02*
G01*
X143844871Y-80899419D01*
X143866765Y-80904904D01*
X143888017Y-80912508D01*
X143908421Y-80922158D01*
X143927781Y-80933762D01*
X143945910Y-80947208D01*
X143962635Y-80962365D01*
X143977792Y-80979090D01*
X143991238Y-80997219D01*
X144002842Y-81016579D01*
X144012492Y-81036983D01*
X144020096Y-81058235D01*
X144025581Y-81080129D01*
X144028892Y-81102456D01*
X144030000Y-81125000D01*
X144030000Y-81875000D01*
X144028892Y-81897544D01*
X144025581Y-81919871D01*
X144020096Y-81941765D01*
X144012492Y-81963017D01*
X144002842Y-81983421D01*
X143991238Y-82002781D01*
X143977792Y-82020910D01*
X143962635Y-82037635D01*
X143945910Y-82052792D01*
X143927781Y-82066238D01*
X143908421Y-82077842D01*
X143888017Y-82087492D01*
X143866765Y-82095096D01*
X143844871Y-82100581D01*
X143822544Y-82103892D01*
X143800000Y-82105000D01*
X143340000Y-82105000D01*
X143317456Y-82103892D01*
X143295129Y-82100581D01*
X143273235Y-82095096D01*
X143251983Y-82087492D01*
X143231579Y-82077842D01*
X143212219Y-82066238D01*
X143194090Y-82052792D01*
X143177365Y-82037635D01*
X143162208Y-82020910D01*
X143148762Y-82002781D01*
X143137158Y-81983421D01*
X143127508Y-81963017D01*
X143119904Y-81941765D01*
X143114419Y-81919871D01*
X143111108Y-81897544D01*
X143110000Y-81875000D01*
X143110000Y-81125000D01*
X143111108Y-81102456D01*
X143114419Y-81080129D01*
X143119904Y-81058235D01*
X143127508Y-81036983D01*
X143137158Y-81016579D01*
X143148762Y-80997219D01*
X143162208Y-80979090D01*
X143177365Y-80962365D01*
X143194090Y-80947208D01*
X143212219Y-80933762D01*
X143231579Y-80922158D01*
X143251983Y-80912508D01*
X143273235Y-80904904D01*
X143295129Y-80899419D01*
X143317456Y-80896108D01*
X143340000Y-80895000D01*
X143800000Y-80895000D01*
X143822544Y-80896108D01*
X143822544Y-80896108D01*
G37*
D18*
X143570000Y-81500000D03*
D10*
G36*
X143822544Y-79396108D02*
G01*
X143844871Y-79399419D01*
X143866765Y-79404904D01*
X143888017Y-79412508D01*
X143908421Y-79422158D01*
X143927781Y-79433762D01*
X143945910Y-79447208D01*
X143962635Y-79462365D01*
X143977792Y-79479090D01*
X143991238Y-79497219D01*
X144002842Y-79516579D01*
X144012492Y-79536983D01*
X144020096Y-79558235D01*
X144025581Y-79580129D01*
X144028892Y-79602456D01*
X144030000Y-79625000D01*
X144030000Y-80375000D01*
X144028892Y-80397544D01*
X144025581Y-80419871D01*
X144020096Y-80441765D01*
X144012492Y-80463017D01*
X144002842Y-80483421D01*
X143991238Y-80502781D01*
X143977792Y-80520910D01*
X143962635Y-80537635D01*
X143945910Y-80552792D01*
X143927781Y-80566238D01*
X143908421Y-80577842D01*
X143888017Y-80587492D01*
X143866765Y-80595096D01*
X143844871Y-80600581D01*
X143822544Y-80603892D01*
X143800000Y-80605000D01*
X143340000Y-80605000D01*
X143317456Y-80603892D01*
X143295129Y-80600581D01*
X143273235Y-80595096D01*
X143251983Y-80587492D01*
X143231579Y-80577842D01*
X143212219Y-80566238D01*
X143194090Y-80552792D01*
X143177365Y-80537635D01*
X143162208Y-80520910D01*
X143148762Y-80502781D01*
X143137158Y-80483421D01*
X143127508Y-80463017D01*
X143119904Y-80441765D01*
X143114419Y-80419871D01*
X143111108Y-80397544D01*
X143110000Y-80375000D01*
X143110000Y-79625000D01*
X143111108Y-79602456D01*
X143114419Y-79580129D01*
X143119904Y-79558235D01*
X143127508Y-79536983D01*
X143137158Y-79516579D01*
X143148762Y-79497219D01*
X143162208Y-79479090D01*
X143177365Y-79462365D01*
X143194090Y-79447208D01*
X143212219Y-79433762D01*
X143231579Y-79422158D01*
X143251983Y-79412508D01*
X143273235Y-79404904D01*
X143295129Y-79399419D01*
X143317456Y-79396108D01*
X143340000Y-79395000D01*
X143800000Y-79395000D01*
X143822544Y-79396108D01*
X143822544Y-79396108D01*
G37*
D18*
X143570000Y-80000000D03*
D10*
G36*
X142682544Y-80896108D02*
G01*
X142704871Y-80899419D01*
X142726765Y-80904904D01*
X142748017Y-80912508D01*
X142768421Y-80922158D01*
X142787781Y-80933762D01*
X142805910Y-80947208D01*
X142822635Y-80962365D01*
X142837792Y-80979090D01*
X142851238Y-80997219D01*
X142862842Y-81016579D01*
X142872492Y-81036983D01*
X142880096Y-81058235D01*
X142885581Y-81080129D01*
X142888892Y-81102456D01*
X142890000Y-81125000D01*
X142890000Y-81875000D01*
X142888892Y-81897544D01*
X142885581Y-81919871D01*
X142880096Y-81941765D01*
X142872492Y-81963017D01*
X142862842Y-81983421D01*
X142851238Y-82002781D01*
X142837792Y-82020910D01*
X142822635Y-82037635D01*
X142805910Y-82052792D01*
X142787781Y-82066238D01*
X142768421Y-82077842D01*
X142748017Y-82087492D01*
X142726765Y-82095096D01*
X142704871Y-82100581D01*
X142682544Y-82103892D01*
X142660000Y-82105000D01*
X142200000Y-82105000D01*
X142177456Y-82103892D01*
X142155129Y-82100581D01*
X142133235Y-82095096D01*
X142111983Y-82087492D01*
X142091579Y-82077842D01*
X142072219Y-82066238D01*
X142054090Y-82052792D01*
X142037365Y-82037635D01*
X142022208Y-82020910D01*
X142008762Y-82002781D01*
X141997158Y-81983421D01*
X141987508Y-81963017D01*
X141979904Y-81941765D01*
X141974419Y-81919871D01*
X141971108Y-81897544D01*
X141970000Y-81875000D01*
X141970000Y-81125000D01*
X141971108Y-81102456D01*
X141974419Y-81080129D01*
X141979904Y-81058235D01*
X141987508Y-81036983D01*
X141997158Y-81016579D01*
X142008762Y-80997219D01*
X142022208Y-80979090D01*
X142037365Y-80962365D01*
X142054090Y-80947208D01*
X142072219Y-80933762D01*
X142091579Y-80922158D01*
X142111983Y-80912508D01*
X142133235Y-80904904D01*
X142155129Y-80899419D01*
X142177456Y-80896108D01*
X142200000Y-80895000D01*
X142660000Y-80895000D01*
X142682544Y-80896108D01*
X142682544Y-80896108D01*
G37*
D18*
X142430000Y-81500000D03*
D10*
G36*
X142682544Y-79396108D02*
G01*
X142704871Y-79399419D01*
X142726765Y-79404904D01*
X142748017Y-79412508D01*
X142768421Y-79422158D01*
X142787781Y-79433762D01*
X142805910Y-79447208D01*
X142822635Y-79462365D01*
X142837792Y-79479090D01*
X142851238Y-79497219D01*
X142862842Y-79516579D01*
X142872492Y-79536983D01*
X142880096Y-79558235D01*
X142885581Y-79580129D01*
X142888892Y-79602456D01*
X142890000Y-79625000D01*
X142890000Y-80375000D01*
X142888892Y-80397544D01*
X142885581Y-80419871D01*
X142880096Y-80441765D01*
X142872492Y-80463017D01*
X142862842Y-80483421D01*
X142851238Y-80502781D01*
X142837792Y-80520910D01*
X142822635Y-80537635D01*
X142805910Y-80552792D01*
X142787781Y-80566238D01*
X142768421Y-80577842D01*
X142748017Y-80587492D01*
X142726765Y-80595096D01*
X142704871Y-80600581D01*
X142682544Y-80603892D01*
X142660000Y-80605000D01*
X142200000Y-80605000D01*
X142177456Y-80603892D01*
X142155129Y-80600581D01*
X142133235Y-80595096D01*
X142111983Y-80587492D01*
X142091579Y-80577842D01*
X142072219Y-80566238D01*
X142054090Y-80552792D01*
X142037365Y-80537635D01*
X142022208Y-80520910D01*
X142008762Y-80502781D01*
X141997158Y-80483421D01*
X141987508Y-80463017D01*
X141979904Y-80441765D01*
X141974419Y-80419871D01*
X141971108Y-80397544D01*
X141970000Y-80375000D01*
X141970000Y-79625000D01*
X141971108Y-79602456D01*
X141974419Y-79580129D01*
X141979904Y-79558235D01*
X141987508Y-79536983D01*
X141997158Y-79516579D01*
X142008762Y-79497219D01*
X142022208Y-79479090D01*
X142037365Y-79462365D01*
X142054090Y-79447208D01*
X142072219Y-79433762D01*
X142091579Y-79422158D01*
X142111983Y-79412508D01*
X142133235Y-79404904D01*
X142155129Y-79399419D01*
X142177456Y-79396108D01*
X142200000Y-79395000D01*
X142660000Y-79395000D01*
X142682544Y-79396108D01*
X142682544Y-79396108D01*
G37*
D18*
X142430000Y-80000000D03*
D10*
G36*
X146314703Y-82355722D02*
G01*
X146329264Y-82357882D01*
X146343543Y-82361459D01*
X146357403Y-82366418D01*
X146370710Y-82372712D01*
X146383336Y-82380280D01*
X146395159Y-82389048D01*
X146406066Y-82398934D01*
X146415952Y-82409841D01*
X146424720Y-82421664D01*
X146432288Y-82434290D01*
X146438582Y-82447597D01*
X146443541Y-82461457D01*
X146447118Y-82475736D01*
X146449278Y-82490297D01*
X146450000Y-82505000D01*
X146450000Y-82805000D01*
X146449278Y-82819703D01*
X146447118Y-82834264D01*
X146443541Y-82848543D01*
X146438582Y-82862403D01*
X146432288Y-82875710D01*
X146424720Y-82888336D01*
X146415952Y-82900159D01*
X146406066Y-82911066D01*
X146395159Y-82920952D01*
X146383336Y-82929720D01*
X146370710Y-82937288D01*
X146357403Y-82943582D01*
X146343543Y-82948541D01*
X146329264Y-82952118D01*
X146314703Y-82954278D01*
X146300000Y-82955000D01*
X144650000Y-82955000D01*
X144635297Y-82954278D01*
X144620736Y-82952118D01*
X144606457Y-82948541D01*
X144592597Y-82943582D01*
X144579290Y-82937288D01*
X144566664Y-82929720D01*
X144554841Y-82920952D01*
X144543934Y-82911066D01*
X144534048Y-82900159D01*
X144525280Y-82888336D01*
X144517712Y-82875710D01*
X144511418Y-82862403D01*
X144506459Y-82848543D01*
X144502882Y-82834264D01*
X144500722Y-82819703D01*
X144500000Y-82805000D01*
X144500000Y-82505000D01*
X144500722Y-82490297D01*
X144502882Y-82475736D01*
X144506459Y-82461457D01*
X144511418Y-82447597D01*
X144517712Y-82434290D01*
X144525280Y-82421664D01*
X144534048Y-82409841D01*
X144543934Y-82398934D01*
X144554841Y-82389048D01*
X144566664Y-82380280D01*
X144579290Y-82372712D01*
X144592597Y-82366418D01*
X144606457Y-82361459D01*
X144620736Y-82357882D01*
X144635297Y-82355722D01*
X144650000Y-82355000D01*
X146300000Y-82355000D01*
X146314703Y-82355722D01*
X146314703Y-82355722D01*
G37*
D15*
X145475000Y-82655000D03*
D10*
G36*
X146314703Y-81085722D02*
G01*
X146329264Y-81087882D01*
X146343543Y-81091459D01*
X146357403Y-81096418D01*
X146370710Y-81102712D01*
X146383336Y-81110280D01*
X146395159Y-81119048D01*
X146406066Y-81128934D01*
X146415952Y-81139841D01*
X146424720Y-81151664D01*
X146432288Y-81164290D01*
X146438582Y-81177597D01*
X146443541Y-81191457D01*
X146447118Y-81205736D01*
X146449278Y-81220297D01*
X146450000Y-81235000D01*
X146450000Y-81535000D01*
X146449278Y-81549703D01*
X146447118Y-81564264D01*
X146443541Y-81578543D01*
X146438582Y-81592403D01*
X146432288Y-81605710D01*
X146424720Y-81618336D01*
X146415952Y-81630159D01*
X146406066Y-81641066D01*
X146395159Y-81650952D01*
X146383336Y-81659720D01*
X146370710Y-81667288D01*
X146357403Y-81673582D01*
X146343543Y-81678541D01*
X146329264Y-81682118D01*
X146314703Y-81684278D01*
X146300000Y-81685000D01*
X144650000Y-81685000D01*
X144635297Y-81684278D01*
X144620736Y-81682118D01*
X144606457Y-81678541D01*
X144592597Y-81673582D01*
X144579290Y-81667288D01*
X144566664Y-81659720D01*
X144554841Y-81650952D01*
X144543934Y-81641066D01*
X144534048Y-81630159D01*
X144525280Y-81618336D01*
X144517712Y-81605710D01*
X144511418Y-81592403D01*
X144506459Y-81578543D01*
X144502882Y-81564264D01*
X144500722Y-81549703D01*
X144500000Y-81535000D01*
X144500000Y-81235000D01*
X144500722Y-81220297D01*
X144502882Y-81205736D01*
X144506459Y-81191457D01*
X144511418Y-81177597D01*
X144517712Y-81164290D01*
X144525280Y-81151664D01*
X144534048Y-81139841D01*
X144543934Y-81128934D01*
X144554841Y-81119048D01*
X144566664Y-81110280D01*
X144579290Y-81102712D01*
X144592597Y-81096418D01*
X144606457Y-81091459D01*
X144620736Y-81087882D01*
X144635297Y-81085722D01*
X144650000Y-81085000D01*
X146300000Y-81085000D01*
X146314703Y-81085722D01*
X146314703Y-81085722D01*
G37*
D15*
X145475000Y-81385000D03*
D10*
G36*
X146314703Y-79815722D02*
G01*
X146329264Y-79817882D01*
X146343543Y-79821459D01*
X146357403Y-79826418D01*
X146370710Y-79832712D01*
X146383336Y-79840280D01*
X146395159Y-79849048D01*
X146406066Y-79858934D01*
X146415952Y-79869841D01*
X146424720Y-79881664D01*
X146432288Y-79894290D01*
X146438582Y-79907597D01*
X146443541Y-79921457D01*
X146447118Y-79935736D01*
X146449278Y-79950297D01*
X146450000Y-79965000D01*
X146450000Y-80265000D01*
X146449278Y-80279703D01*
X146447118Y-80294264D01*
X146443541Y-80308543D01*
X146438582Y-80322403D01*
X146432288Y-80335710D01*
X146424720Y-80348336D01*
X146415952Y-80360159D01*
X146406066Y-80371066D01*
X146395159Y-80380952D01*
X146383336Y-80389720D01*
X146370710Y-80397288D01*
X146357403Y-80403582D01*
X146343543Y-80408541D01*
X146329264Y-80412118D01*
X146314703Y-80414278D01*
X146300000Y-80415000D01*
X144650000Y-80415000D01*
X144635297Y-80414278D01*
X144620736Y-80412118D01*
X144606457Y-80408541D01*
X144592597Y-80403582D01*
X144579290Y-80397288D01*
X144566664Y-80389720D01*
X144554841Y-80380952D01*
X144543934Y-80371066D01*
X144534048Y-80360159D01*
X144525280Y-80348336D01*
X144517712Y-80335710D01*
X144511418Y-80322403D01*
X144506459Y-80308543D01*
X144502882Y-80294264D01*
X144500722Y-80279703D01*
X144500000Y-80265000D01*
X144500000Y-79965000D01*
X144500722Y-79950297D01*
X144502882Y-79935736D01*
X144506459Y-79921457D01*
X144511418Y-79907597D01*
X144517712Y-79894290D01*
X144525280Y-79881664D01*
X144534048Y-79869841D01*
X144543934Y-79858934D01*
X144554841Y-79849048D01*
X144566664Y-79840280D01*
X144579290Y-79832712D01*
X144592597Y-79826418D01*
X144606457Y-79821459D01*
X144620736Y-79817882D01*
X144635297Y-79815722D01*
X144650000Y-79815000D01*
X146300000Y-79815000D01*
X146314703Y-79815722D01*
X146314703Y-79815722D01*
G37*
D15*
X145475000Y-80115000D03*
D10*
G36*
X146314703Y-78545722D02*
G01*
X146329264Y-78547882D01*
X146343543Y-78551459D01*
X146357403Y-78556418D01*
X146370710Y-78562712D01*
X146383336Y-78570280D01*
X146395159Y-78579048D01*
X146406066Y-78588934D01*
X146415952Y-78599841D01*
X146424720Y-78611664D01*
X146432288Y-78624290D01*
X146438582Y-78637597D01*
X146443541Y-78651457D01*
X146447118Y-78665736D01*
X146449278Y-78680297D01*
X146450000Y-78695000D01*
X146450000Y-78995000D01*
X146449278Y-79009703D01*
X146447118Y-79024264D01*
X146443541Y-79038543D01*
X146438582Y-79052403D01*
X146432288Y-79065710D01*
X146424720Y-79078336D01*
X146415952Y-79090159D01*
X146406066Y-79101066D01*
X146395159Y-79110952D01*
X146383336Y-79119720D01*
X146370710Y-79127288D01*
X146357403Y-79133582D01*
X146343543Y-79138541D01*
X146329264Y-79142118D01*
X146314703Y-79144278D01*
X146300000Y-79145000D01*
X144650000Y-79145000D01*
X144635297Y-79144278D01*
X144620736Y-79142118D01*
X144606457Y-79138541D01*
X144592597Y-79133582D01*
X144579290Y-79127288D01*
X144566664Y-79119720D01*
X144554841Y-79110952D01*
X144543934Y-79101066D01*
X144534048Y-79090159D01*
X144525280Y-79078336D01*
X144517712Y-79065710D01*
X144511418Y-79052403D01*
X144506459Y-79038543D01*
X144502882Y-79024264D01*
X144500722Y-79009703D01*
X144500000Y-78995000D01*
X144500000Y-78695000D01*
X144500722Y-78680297D01*
X144502882Y-78665736D01*
X144506459Y-78651457D01*
X144511418Y-78637597D01*
X144517712Y-78624290D01*
X144525280Y-78611664D01*
X144534048Y-78599841D01*
X144543934Y-78588934D01*
X144554841Y-78579048D01*
X144566664Y-78570280D01*
X144579290Y-78562712D01*
X144592597Y-78556418D01*
X144606457Y-78551459D01*
X144620736Y-78547882D01*
X144635297Y-78545722D01*
X144650000Y-78545000D01*
X146300000Y-78545000D01*
X146314703Y-78545722D01*
X146314703Y-78545722D01*
G37*
D15*
X145475000Y-78845000D03*
D10*
G36*
X141364703Y-78545722D02*
G01*
X141379264Y-78547882D01*
X141393543Y-78551459D01*
X141407403Y-78556418D01*
X141420710Y-78562712D01*
X141433336Y-78570280D01*
X141445159Y-78579048D01*
X141456066Y-78588934D01*
X141465952Y-78599841D01*
X141474720Y-78611664D01*
X141482288Y-78624290D01*
X141488582Y-78637597D01*
X141493541Y-78651457D01*
X141497118Y-78665736D01*
X141499278Y-78680297D01*
X141500000Y-78695000D01*
X141500000Y-78995000D01*
X141499278Y-79009703D01*
X141497118Y-79024264D01*
X141493541Y-79038543D01*
X141488582Y-79052403D01*
X141482288Y-79065710D01*
X141474720Y-79078336D01*
X141465952Y-79090159D01*
X141456066Y-79101066D01*
X141445159Y-79110952D01*
X141433336Y-79119720D01*
X141420710Y-79127288D01*
X141407403Y-79133582D01*
X141393543Y-79138541D01*
X141379264Y-79142118D01*
X141364703Y-79144278D01*
X141350000Y-79145000D01*
X139700000Y-79145000D01*
X139685297Y-79144278D01*
X139670736Y-79142118D01*
X139656457Y-79138541D01*
X139642597Y-79133582D01*
X139629290Y-79127288D01*
X139616664Y-79119720D01*
X139604841Y-79110952D01*
X139593934Y-79101066D01*
X139584048Y-79090159D01*
X139575280Y-79078336D01*
X139567712Y-79065710D01*
X139561418Y-79052403D01*
X139556459Y-79038543D01*
X139552882Y-79024264D01*
X139550722Y-79009703D01*
X139550000Y-78995000D01*
X139550000Y-78695000D01*
X139550722Y-78680297D01*
X139552882Y-78665736D01*
X139556459Y-78651457D01*
X139561418Y-78637597D01*
X139567712Y-78624290D01*
X139575280Y-78611664D01*
X139584048Y-78599841D01*
X139593934Y-78588934D01*
X139604841Y-78579048D01*
X139616664Y-78570280D01*
X139629290Y-78562712D01*
X139642597Y-78556418D01*
X139656457Y-78551459D01*
X139670736Y-78547882D01*
X139685297Y-78545722D01*
X139700000Y-78545000D01*
X141350000Y-78545000D01*
X141364703Y-78545722D01*
X141364703Y-78545722D01*
G37*
D15*
X140525000Y-78845000D03*
D10*
G36*
X141364703Y-79815722D02*
G01*
X141379264Y-79817882D01*
X141393543Y-79821459D01*
X141407403Y-79826418D01*
X141420710Y-79832712D01*
X141433336Y-79840280D01*
X141445159Y-79849048D01*
X141456066Y-79858934D01*
X141465952Y-79869841D01*
X141474720Y-79881664D01*
X141482288Y-79894290D01*
X141488582Y-79907597D01*
X141493541Y-79921457D01*
X141497118Y-79935736D01*
X141499278Y-79950297D01*
X141500000Y-79965000D01*
X141500000Y-80265000D01*
X141499278Y-80279703D01*
X141497118Y-80294264D01*
X141493541Y-80308543D01*
X141488582Y-80322403D01*
X141482288Y-80335710D01*
X141474720Y-80348336D01*
X141465952Y-80360159D01*
X141456066Y-80371066D01*
X141445159Y-80380952D01*
X141433336Y-80389720D01*
X141420710Y-80397288D01*
X141407403Y-80403582D01*
X141393543Y-80408541D01*
X141379264Y-80412118D01*
X141364703Y-80414278D01*
X141350000Y-80415000D01*
X139700000Y-80415000D01*
X139685297Y-80414278D01*
X139670736Y-80412118D01*
X139656457Y-80408541D01*
X139642597Y-80403582D01*
X139629290Y-80397288D01*
X139616664Y-80389720D01*
X139604841Y-80380952D01*
X139593934Y-80371066D01*
X139584048Y-80360159D01*
X139575280Y-80348336D01*
X139567712Y-80335710D01*
X139561418Y-80322403D01*
X139556459Y-80308543D01*
X139552882Y-80294264D01*
X139550722Y-80279703D01*
X139550000Y-80265000D01*
X139550000Y-79965000D01*
X139550722Y-79950297D01*
X139552882Y-79935736D01*
X139556459Y-79921457D01*
X139561418Y-79907597D01*
X139567712Y-79894290D01*
X139575280Y-79881664D01*
X139584048Y-79869841D01*
X139593934Y-79858934D01*
X139604841Y-79849048D01*
X139616664Y-79840280D01*
X139629290Y-79832712D01*
X139642597Y-79826418D01*
X139656457Y-79821459D01*
X139670736Y-79817882D01*
X139685297Y-79815722D01*
X139700000Y-79815000D01*
X141350000Y-79815000D01*
X141364703Y-79815722D01*
X141364703Y-79815722D01*
G37*
D15*
X140525000Y-80115000D03*
D10*
G36*
X141364703Y-81085722D02*
G01*
X141379264Y-81087882D01*
X141393543Y-81091459D01*
X141407403Y-81096418D01*
X141420710Y-81102712D01*
X141433336Y-81110280D01*
X141445159Y-81119048D01*
X141456066Y-81128934D01*
X141465952Y-81139841D01*
X141474720Y-81151664D01*
X141482288Y-81164290D01*
X141488582Y-81177597D01*
X141493541Y-81191457D01*
X141497118Y-81205736D01*
X141499278Y-81220297D01*
X141500000Y-81235000D01*
X141500000Y-81535000D01*
X141499278Y-81549703D01*
X141497118Y-81564264D01*
X141493541Y-81578543D01*
X141488582Y-81592403D01*
X141482288Y-81605710D01*
X141474720Y-81618336D01*
X141465952Y-81630159D01*
X141456066Y-81641066D01*
X141445159Y-81650952D01*
X141433336Y-81659720D01*
X141420710Y-81667288D01*
X141407403Y-81673582D01*
X141393543Y-81678541D01*
X141379264Y-81682118D01*
X141364703Y-81684278D01*
X141350000Y-81685000D01*
X139700000Y-81685000D01*
X139685297Y-81684278D01*
X139670736Y-81682118D01*
X139656457Y-81678541D01*
X139642597Y-81673582D01*
X139629290Y-81667288D01*
X139616664Y-81659720D01*
X139604841Y-81650952D01*
X139593934Y-81641066D01*
X139584048Y-81630159D01*
X139575280Y-81618336D01*
X139567712Y-81605710D01*
X139561418Y-81592403D01*
X139556459Y-81578543D01*
X139552882Y-81564264D01*
X139550722Y-81549703D01*
X139550000Y-81535000D01*
X139550000Y-81235000D01*
X139550722Y-81220297D01*
X139552882Y-81205736D01*
X139556459Y-81191457D01*
X139561418Y-81177597D01*
X139567712Y-81164290D01*
X139575280Y-81151664D01*
X139584048Y-81139841D01*
X139593934Y-81128934D01*
X139604841Y-81119048D01*
X139616664Y-81110280D01*
X139629290Y-81102712D01*
X139642597Y-81096418D01*
X139656457Y-81091459D01*
X139670736Y-81087882D01*
X139685297Y-81085722D01*
X139700000Y-81085000D01*
X141350000Y-81085000D01*
X141364703Y-81085722D01*
X141364703Y-81085722D01*
G37*
D15*
X140525000Y-81385000D03*
D10*
G36*
X141364703Y-82355722D02*
G01*
X141379264Y-82357882D01*
X141393543Y-82361459D01*
X141407403Y-82366418D01*
X141420710Y-82372712D01*
X141433336Y-82380280D01*
X141445159Y-82389048D01*
X141456066Y-82398934D01*
X141465952Y-82409841D01*
X141474720Y-82421664D01*
X141482288Y-82434290D01*
X141488582Y-82447597D01*
X141493541Y-82461457D01*
X141497118Y-82475736D01*
X141499278Y-82490297D01*
X141500000Y-82505000D01*
X141500000Y-82805000D01*
X141499278Y-82819703D01*
X141497118Y-82834264D01*
X141493541Y-82848543D01*
X141488582Y-82862403D01*
X141482288Y-82875710D01*
X141474720Y-82888336D01*
X141465952Y-82900159D01*
X141456066Y-82911066D01*
X141445159Y-82920952D01*
X141433336Y-82929720D01*
X141420710Y-82937288D01*
X141407403Y-82943582D01*
X141393543Y-82948541D01*
X141379264Y-82952118D01*
X141364703Y-82954278D01*
X141350000Y-82955000D01*
X139700000Y-82955000D01*
X139685297Y-82954278D01*
X139670736Y-82952118D01*
X139656457Y-82948541D01*
X139642597Y-82943582D01*
X139629290Y-82937288D01*
X139616664Y-82929720D01*
X139604841Y-82920952D01*
X139593934Y-82911066D01*
X139584048Y-82900159D01*
X139575280Y-82888336D01*
X139567712Y-82875710D01*
X139561418Y-82862403D01*
X139556459Y-82848543D01*
X139552882Y-82834264D01*
X139550722Y-82819703D01*
X139550000Y-82805000D01*
X139550000Y-82505000D01*
X139550722Y-82490297D01*
X139552882Y-82475736D01*
X139556459Y-82461457D01*
X139561418Y-82447597D01*
X139567712Y-82434290D01*
X139575280Y-82421664D01*
X139584048Y-82409841D01*
X139593934Y-82398934D01*
X139604841Y-82389048D01*
X139616664Y-82380280D01*
X139629290Y-82372712D01*
X139642597Y-82366418D01*
X139656457Y-82361459D01*
X139670736Y-82357882D01*
X139685297Y-82355722D01*
X139700000Y-82355000D01*
X141350000Y-82355000D01*
X141364703Y-82355722D01*
X141364703Y-82355722D01*
G37*
D15*
X140525000Y-82655000D03*
D10*
G36*
X129724504Y-79026204D02*
G01*
X129748773Y-79029804D01*
X129772571Y-79035765D01*
X129795671Y-79044030D01*
X129817849Y-79054520D01*
X129838893Y-79067133D01*
X129858598Y-79081747D01*
X129876777Y-79098223D01*
X129893253Y-79116402D01*
X129907867Y-79136107D01*
X129920480Y-79157151D01*
X129930970Y-79179329D01*
X129939235Y-79202429D01*
X129945196Y-79226227D01*
X129948796Y-79250496D01*
X129950000Y-79275000D01*
X129950000Y-80525000D01*
X129948796Y-80549504D01*
X129945196Y-80573773D01*
X129939235Y-80597571D01*
X129930970Y-80620671D01*
X129920480Y-80642849D01*
X129907867Y-80663893D01*
X129893253Y-80683598D01*
X129876777Y-80701777D01*
X129858598Y-80718253D01*
X129838893Y-80732867D01*
X129817849Y-80745480D01*
X129795671Y-80755970D01*
X129772571Y-80764235D01*
X129748773Y-80770196D01*
X129724504Y-80773796D01*
X129700000Y-80775000D01*
X128775000Y-80775000D01*
X128750496Y-80773796D01*
X128726227Y-80770196D01*
X128702429Y-80764235D01*
X128679329Y-80755970D01*
X128657151Y-80745480D01*
X128636107Y-80732867D01*
X128616402Y-80718253D01*
X128598223Y-80701777D01*
X128581747Y-80683598D01*
X128567133Y-80663893D01*
X128554520Y-80642849D01*
X128544030Y-80620671D01*
X128535765Y-80597571D01*
X128529804Y-80573773D01*
X128526204Y-80549504D01*
X128525000Y-80525000D01*
X128525000Y-79275000D01*
X128526204Y-79250496D01*
X128529804Y-79226227D01*
X128535765Y-79202429D01*
X128544030Y-79179329D01*
X128554520Y-79157151D01*
X128567133Y-79136107D01*
X128581747Y-79116402D01*
X128598223Y-79098223D01*
X128616402Y-79081747D01*
X128636107Y-79067133D01*
X128657151Y-79054520D01*
X128679329Y-79044030D01*
X128702429Y-79035765D01*
X128726227Y-79029804D01*
X128750496Y-79026204D01*
X128775000Y-79025000D01*
X129700000Y-79025000D01*
X129724504Y-79026204D01*
X129724504Y-79026204D01*
G37*
D11*
X129237500Y-79900000D03*
D10*
G36*
X126749504Y-79026204D02*
G01*
X126773773Y-79029804D01*
X126797571Y-79035765D01*
X126820671Y-79044030D01*
X126842849Y-79054520D01*
X126863893Y-79067133D01*
X126883598Y-79081747D01*
X126901777Y-79098223D01*
X126918253Y-79116402D01*
X126932867Y-79136107D01*
X126945480Y-79157151D01*
X126955970Y-79179329D01*
X126964235Y-79202429D01*
X126970196Y-79226227D01*
X126973796Y-79250496D01*
X126975000Y-79275000D01*
X126975000Y-80525000D01*
X126973796Y-80549504D01*
X126970196Y-80573773D01*
X126964235Y-80597571D01*
X126955970Y-80620671D01*
X126945480Y-80642849D01*
X126932867Y-80663893D01*
X126918253Y-80683598D01*
X126901777Y-80701777D01*
X126883598Y-80718253D01*
X126863893Y-80732867D01*
X126842849Y-80745480D01*
X126820671Y-80755970D01*
X126797571Y-80764235D01*
X126773773Y-80770196D01*
X126749504Y-80773796D01*
X126725000Y-80775000D01*
X125800000Y-80775000D01*
X125775496Y-80773796D01*
X125751227Y-80770196D01*
X125727429Y-80764235D01*
X125704329Y-80755970D01*
X125682151Y-80745480D01*
X125661107Y-80732867D01*
X125641402Y-80718253D01*
X125623223Y-80701777D01*
X125606747Y-80683598D01*
X125592133Y-80663893D01*
X125579520Y-80642849D01*
X125569030Y-80620671D01*
X125560765Y-80597571D01*
X125554804Y-80573773D01*
X125551204Y-80549504D01*
X125550000Y-80525000D01*
X125550000Y-79275000D01*
X125551204Y-79250496D01*
X125554804Y-79226227D01*
X125560765Y-79202429D01*
X125569030Y-79179329D01*
X125579520Y-79157151D01*
X125592133Y-79136107D01*
X125606747Y-79116402D01*
X125623223Y-79098223D01*
X125641402Y-79081747D01*
X125661107Y-79067133D01*
X125682151Y-79054520D01*
X125704329Y-79044030D01*
X125727429Y-79035765D01*
X125751227Y-79029804D01*
X125775496Y-79026204D01*
X125800000Y-79025000D01*
X126725000Y-79025000D01*
X126749504Y-79026204D01*
X126749504Y-79026204D01*
G37*
D11*
X126262500Y-79900000D03*
D19*
X143360000Y-71730000D03*
X143360000Y-74270000D03*
X136640000Y-74270000D03*
X136640000Y-71730000D03*
D10*
G36*
X163649504Y-78051204D02*
G01*
X163673773Y-78054804D01*
X163697571Y-78060765D01*
X163720671Y-78069030D01*
X163742849Y-78079520D01*
X163763893Y-78092133D01*
X163783598Y-78106747D01*
X163801777Y-78123223D01*
X163818253Y-78141402D01*
X163832867Y-78161107D01*
X163845480Y-78182151D01*
X163855970Y-78204329D01*
X163864235Y-78227429D01*
X163870196Y-78251227D01*
X163873796Y-78275496D01*
X163875000Y-78300000D01*
X163875000Y-79225000D01*
X163873796Y-79249504D01*
X163870196Y-79273773D01*
X163864235Y-79297571D01*
X163855970Y-79320671D01*
X163845480Y-79342849D01*
X163832867Y-79363893D01*
X163818253Y-79383598D01*
X163801777Y-79401777D01*
X163783598Y-79418253D01*
X163763893Y-79432867D01*
X163742849Y-79445480D01*
X163720671Y-79455970D01*
X163697571Y-79464235D01*
X163673773Y-79470196D01*
X163649504Y-79473796D01*
X163625000Y-79475000D01*
X162375000Y-79475000D01*
X162350496Y-79473796D01*
X162326227Y-79470196D01*
X162302429Y-79464235D01*
X162279329Y-79455970D01*
X162257151Y-79445480D01*
X162236107Y-79432867D01*
X162216402Y-79418253D01*
X162198223Y-79401777D01*
X162181747Y-79383598D01*
X162167133Y-79363893D01*
X162154520Y-79342849D01*
X162144030Y-79320671D01*
X162135765Y-79297571D01*
X162129804Y-79273773D01*
X162126204Y-79249504D01*
X162125000Y-79225000D01*
X162125000Y-78300000D01*
X162126204Y-78275496D01*
X162129804Y-78251227D01*
X162135765Y-78227429D01*
X162144030Y-78204329D01*
X162154520Y-78182151D01*
X162167133Y-78161107D01*
X162181747Y-78141402D01*
X162198223Y-78123223D01*
X162216402Y-78106747D01*
X162236107Y-78092133D01*
X162257151Y-78079520D01*
X162279329Y-78069030D01*
X162302429Y-78060765D01*
X162326227Y-78054804D01*
X162350496Y-78051204D01*
X162375000Y-78050000D01*
X163625000Y-78050000D01*
X163649504Y-78051204D01*
X163649504Y-78051204D01*
G37*
D11*
X163000000Y-78762500D03*
D10*
G36*
X163649504Y-81026204D02*
G01*
X163673773Y-81029804D01*
X163697571Y-81035765D01*
X163720671Y-81044030D01*
X163742849Y-81054520D01*
X163763893Y-81067133D01*
X163783598Y-81081747D01*
X163801777Y-81098223D01*
X163818253Y-81116402D01*
X163832867Y-81136107D01*
X163845480Y-81157151D01*
X163855970Y-81179329D01*
X163864235Y-81202429D01*
X163870196Y-81226227D01*
X163873796Y-81250496D01*
X163875000Y-81275000D01*
X163875000Y-82200000D01*
X163873796Y-82224504D01*
X163870196Y-82248773D01*
X163864235Y-82272571D01*
X163855970Y-82295671D01*
X163845480Y-82317849D01*
X163832867Y-82338893D01*
X163818253Y-82358598D01*
X163801777Y-82376777D01*
X163783598Y-82393253D01*
X163763893Y-82407867D01*
X163742849Y-82420480D01*
X163720671Y-82430970D01*
X163697571Y-82439235D01*
X163673773Y-82445196D01*
X163649504Y-82448796D01*
X163625000Y-82450000D01*
X162375000Y-82450000D01*
X162350496Y-82448796D01*
X162326227Y-82445196D01*
X162302429Y-82439235D01*
X162279329Y-82430970D01*
X162257151Y-82420480D01*
X162236107Y-82407867D01*
X162216402Y-82393253D01*
X162198223Y-82376777D01*
X162181747Y-82358598D01*
X162167133Y-82338893D01*
X162154520Y-82317849D01*
X162144030Y-82295671D01*
X162135765Y-82272571D01*
X162129804Y-82248773D01*
X162126204Y-82224504D01*
X162125000Y-82200000D01*
X162125000Y-81275000D01*
X162126204Y-81250496D01*
X162129804Y-81226227D01*
X162135765Y-81202429D01*
X162144030Y-81179329D01*
X162154520Y-81157151D01*
X162167133Y-81136107D01*
X162181747Y-81116402D01*
X162198223Y-81098223D01*
X162216402Y-81081747D01*
X162236107Y-81067133D01*
X162257151Y-81054520D01*
X162279329Y-81044030D01*
X162302429Y-81035765D01*
X162326227Y-81029804D01*
X162350496Y-81026204D01*
X162375000Y-81025000D01*
X163625000Y-81025000D01*
X163649504Y-81026204D01*
X163649504Y-81026204D01*
G37*
D11*
X163000000Y-81737500D03*
D10*
G36*
X148649504Y-81276204D02*
G01*
X148673773Y-81279804D01*
X148697571Y-81285765D01*
X148720671Y-81294030D01*
X148742849Y-81304520D01*
X148763893Y-81317133D01*
X148783598Y-81331747D01*
X148801777Y-81348223D01*
X148818253Y-81366402D01*
X148832867Y-81386107D01*
X148845480Y-81407151D01*
X148855970Y-81429329D01*
X148864235Y-81452429D01*
X148870196Y-81476227D01*
X148873796Y-81500496D01*
X148875000Y-81525000D01*
X148875000Y-82450000D01*
X148873796Y-82474504D01*
X148870196Y-82498773D01*
X148864235Y-82522571D01*
X148855970Y-82545671D01*
X148845480Y-82567849D01*
X148832867Y-82588893D01*
X148818253Y-82608598D01*
X148801777Y-82626777D01*
X148783598Y-82643253D01*
X148763893Y-82657867D01*
X148742849Y-82670480D01*
X148720671Y-82680970D01*
X148697571Y-82689235D01*
X148673773Y-82695196D01*
X148649504Y-82698796D01*
X148625000Y-82700000D01*
X147375000Y-82700000D01*
X147350496Y-82698796D01*
X147326227Y-82695196D01*
X147302429Y-82689235D01*
X147279329Y-82680970D01*
X147257151Y-82670480D01*
X147236107Y-82657867D01*
X147216402Y-82643253D01*
X147198223Y-82626777D01*
X147181747Y-82608598D01*
X147167133Y-82588893D01*
X147154520Y-82567849D01*
X147144030Y-82545671D01*
X147135765Y-82522571D01*
X147129804Y-82498773D01*
X147126204Y-82474504D01*
X147125000Y-82450000D01*
X147125000Y-81525000D01*
X147126204Y-81500496D01*
X147129804Y-81476227D01*
X147135765Y-81452429D01*
X147144030Y-81429329D01*
X147154520Y-81407151D01*
X147167133Y-81386107D01*
X147181747Y-81366402D01*
X147198223Y-81348223D01*
X147216402Y-81331747D01*
X147236107Y-81317133D01*
X147257151Y-81304520D01*
X147279329Y-81294030D01*
X147302429Y-81285765D01*
X147326227Y-81279804D01*
X147350496Y-81276204D01*
X147375000Y-81275000D01*
X148625000Y-81275000D01*
X148649504Y-81276204D01*
X148649504Y-81276204D01*
G37*
D11*
X148000000Y-81987500D03*
D10*
G36*
X148649504Y-78301204D02*
G01*
X148673773Y-78304804D01*
X148697571Y-78310765D01*
X148720671Y-78319030D01*
X148742849Y-78329520D01*
X148763893Y-78342133D01*
X148783598Y-78356747D01*
X148801777Y-78373223D01*
X148818253Y-78391402D01*
X148832867Y-78411107D01*
X148845480Y-78432151D01*
X148855970Y-78454329D01*
X148864235Y-78477429D01*
X148870196Y-78501227D01*
X148873796Y-78525496D01*
X148875000Y-78550000D01*
X148875000Y-79475000D01*
X148873796Y-79499504D01*
X148870196Y-79523773D01*
X148864235Y-79547571D01*
X148855970Y-79570671D01*
X148845480Y-79592849D01*
X148832867Y-79613893D01*
X148818253Y-79633598D01*
X148801777Y-79651777D01*
X148783598Y-79668253D01*
X148763893Y-79682867D01*
X148742849Y-79695480D01*
X148720671Y-79705970D01*
X148697571Y-79714235D01*
X148673773Y-79720196D01*
X148649504Y-79723796D01*
X148625000Y-79725000D01*
X147375000Y-79725000D01*
X147350496Y-79723796D01*
X147326227Y-79720196D01*
X147302429Y-79714235D01*
X147279329Y-79705970D01*
X147257151Y-79695480D01*
X147236107Y-79682867D01*
X147216402Y-79668253D01*
X147198223Y-79651777D01*
X147181747Y-79633598D01*
X147167133Y-79613893D01*
X147154520Y-79592849D01*
X147144030Y-79570671D01*
X147135765Y-79547571D01*
X147129804Y-79523773D01*
X147126204Y-79499504D01*
X147125000Y-79475000D01*
X147125000Y-78550000D01*
X147126204Y-78525496D01*
X147129804Y-78501227D01*
X147135765Y-78477429D01*
X147144030Y-78454329D01*
X147154520Y-78432151D01*
X147167133Y-78411107D01*
X147181747Y-78391402D01*
X147198223Y-78373223D01*
X147216402Y-78356747D01*
X147236107Y-78342133D01*
X147257151Y-78329520D01*
X147279329Y-78319030D01*
X147302429Y-78310765D01*
X147326227Y-78304804D01*
X147350496Y-78301204D01*
X147375000Y-78300000D01*
X148625000Y-78300000D01*
X148649504Y-78301204D01*
X148649504Y-78301204D01*
G37*
D11*
X148000000Y-79012500D03*
D10*
G36*
X132724504Y-71376204D02*
G01*
X132748773Y-71379804D01*
X132772571Y-71385765D01*
X132795671Y-71394030D01*
X132817849Y-71404520D01*
X132838893Y-71417133D01*
X132858598Y-71431747D01*
X132876777Y-71448223D01*
X132893253Y-71466402D01*
X132907867Y-71486107D01*
X132920480Y-71507151D01*
X132930970Y-71529329D01*
X132939235Y-71552429D01*
X132945196Y-71576227D01*
X132948796Y-71600496D01*
X132950000Y-71625000D01*
X132950000Y-72875000D01*
X132948796Y-72899504D01*
X132945196Y-72923773D01*
X132939235Y-72947571D01*
X132930970Y-72970671D01*
X132920480Y-72992849D01*
X132907867Y-73013893D01*
X132893253Y-73033598D01*
X132876777Y-73051777D01*
X132858598Y-73068253D01*
X132838893Y-73082867D01*
X132817849Y-73095480D01*
X132795671Y-73105970D01*
X132772571Y-73114235D01*
X132748773Y-73120196D01*
X132724504Y-73123796D01*
X132700000Y-73125000D01*
X131775000Y-73125000D01*
X131750496Y-73123796D01*
X131726227Y-73120196D01*
X131702429Y-73114235D01*
X131679329Y-73105970D01*
X131657151Y-73095480D01*
X131636107Y-73082867D01*
X131616402Y-73068253D01*
X131598223Y-73051777D01*
X131581747Y-73033598D01*
X131567133Y-73013893D01*
X131554520Y-72992849D01*
X131544030Y-72970671D01*
X131535765Y-72947571D01*
X131529804Y-72923773D01*
X131526204Y-72899504D01*
X131525000Y-72875000D01*
X131525000Y-71625000D01*
X131526204Y-71600496D01*
X131529804Y-71576227D01*
X131535765Y-71552429D01*
X131544030Y-71529329D01*
X131554520Y-71507151D01*
X131567133Y-71486107D01*
X131581747Y-71466402D01*
X131598223Y-71448223D01*
X131616402Y-71431747D01*
X131636107Y-71417133D01*
X131657151Y-71404520D01*
X131679329Y-71394030D01*
X131702429Y-71385765D01*
X131726227Y-71379804D01*
X131750496Y-71376204D01*
X131775000Y-71375000D01*
X132700000Y-71375000D01*
X132724504Y-71376204D01*
X132724504Y-71376204D01*
G37*
D11*
X132237500Y-72250000D03*
D10*
G36*
X129749504Y-71376204D02*
G01*
X129773773Y-71379804D01*
X129797571Y-71385765D01*
X129820671Y-71394030D01*
X129842849Y-71404520D01*
X129863893Y-71417133D01*
X129883598Y-71431747D01*
X129901777Y-71448223D01*
X129918253Y-71466402D01*
X129932867Y-71486107D01*
X129945480Y-71507151D01*
X129955970Y-71529329D01*
X129964235Y-71552429D01*
X129970196Y-71576227D01*
X129973796Y-71600496D01*
X129975000Y-71625000D01*
X129975000Y-72875000D01*
X129973796Y-72899504D01*
X129970196Y-72923773D01*
X129964235Y-72947571D01*
X129955970Y-72970671D01*
X129945480Y-72992849D01*
X129932867Y-73013893D01*
X129918253Y-73033598D01*
X129901777Y-73051777D01*
X129883598Y-73068253D01*
X129863893Y-73082867D01*
X129842849Y-73095480D01*
X129820671Y-73105970D01*
X129797571Y-73114235D01*
X129773773Y-73120196D01*
X129749504Y-73123796D01*
X129725000Y-73125000D01*
X128800000Y-73125000D01*
X128775496Y-73123796D01*
X128751227Y-73120196D01*
X128727429Y-73114235D01*
X128704329Y-73105970D01*
X128682151Y-73095480D01*
X128661107Y-73082867D01*
X128641402Y-73068253D01*
X128623223Y-73051777D01*
X128606747Y-73033598D01*
X128592133Y-73013893D01*
X128579520Y-72992849D01*
X128569030Y-72970671D01*
X128560765Y-72947571D01*
X128554804Y-72923773D01*
X128551204Y-72899504D01*
X128550000Y-72875000D01*
X128550000Y-71625000D01*
X128551204Y-71600496D01*
X128554804Y-71576227D01*
X128560765Y-71552429D01*
X128569030Y-71529329D01*
X128579520Y-71507151D01*
X128592133Y-71486107D01*
X128606747Y-71466402D01*
X128623223Y-71448223D01*
X128641402Y-71431747D01*
X128661107Y-71417133D01*
X128682151Y-71404520D01*
X128704329Y-71394030D01*
X128727429Y-71385765D01*
X128751227Y-71379804D01*
X128775496Y-71376204D01*
X128800000Y-71375000D01*
X129725000Y-71375000D01*
X129749504Y-71376204D01*
X129749504Y-71376204D01*
G37*
D11*
X129262500Y-72250000D03*
D20*
X160000000Y-81145000D03*
X160000000Y-78855000D03*
D10*
G36*
X119399504Y-80801204D02*
G01*
X119423773Y-80804804D01*
X119447571Y-80810765D01*
X119470671Y-80819030D01*
X119492849Y-80829520D01*
X119513893Y-80842133D01*
X119533598Y-80856747D01*
X119551777Y-80873223D01*
X119568253Y-80891402D01*
X119582867Y-80911107D01*
X119595480Y-80932151D01*
X119605970Y-80954329D01*
X119614235Y-80977429D01*
X119620196Y-81001227D01*
X119623796Y-81025496D01*
X119625000Y-81050000D01*
X119625000Y-81975000D01*
X119623796Y-81999504D01*
X119620196Y-82023773D01*
X119614235Y-82047571D01*
X119605970Y-82070671D01*
X119595480Y-82092849D01*
X119582867Y-82113893D01*
X119568253Y-82133598D01*
X119551777Y-82151777D01*
X119533598Y-82168253D01*
X119513893Y-82182867D01*
X119492849Y-82195480D01*
X119470671Y-82205970D01*
X119447571Y-82214235D01*
X119423773Y-82220196D01*
X119399504Y-82223796D01*
X119375000Y-82225000D01*
X118125000Y-82225000D01*
X118100496Y-82223796D01*
X118076227Y-82220196D01*
X118052429Y-82214235D01*
X118029329Y-82205970D01*
X118007151Y-82195480D01*
X117986107Y-82182867D01*
X117966402Y-82168253D01*
X117948223Y-82151777D01*
X117931747Y-82133598D01*
X117917133Y-82113893D01*
X117904520Y-82092849D01*
X117894030Y-82070671D01*
X117885765Y-82047571D01*
X117879804Y-82023773D01*
X117876204Y-81999504D01*
X117875000Y-81975000D01*
X117875000Y-81050000D01*
X117876204Y-81025496D01*
X117879804Y-81001227D01*
X117885765Y-80977429D01*
X117894030Y-80954329D01*
X117904520Y-80932151D01*
X117917133Y-80911107D01*
X117931747Y-80891402D01*
X117948223Y-80873223D01*
X117966402Y-80856747D01*
X117986107Y-80842133D01*
X118007151Y-80829520D01*
X118029329Y-80819030D01*
X118052429Y-80810765D01*
X118076227Y-80804804D01*
X118100496Y-80801204D01*
X118125000Y-80800000D01*
X119375000Y-80800000D01*
X119399504Y-80801204D01*
X119399504Y-80801204D01*
G37*
D11*
X118750000Y-81512500D03*
D10*
G36*
X119399504Y-83776204D02*
G01*
X119423773Y-83779804D01*
X119447571Y-83785765D01*
X119470671Y-83794030D01*
X119492849Y-83804520D01*
X119513893Y-83817133D01*
X119533598Y-83831747D01*
X119551777Y-83848223D01*
X119568253Y-83866402D01*
X119582867Y-83886107D01*
X119595480Y-83907151D01*
X119605970Y-83929329D01*
X119614235Y-83952429D01*
X119620196Y-83976227D01*
X119623796Y-84000496D01*
X119625000Y-84025000D01*
X119625000Y-84950000D01*
X119623796Y-84974504D01*
X119620196Y-84998773D01*
X119614235Y-85022571D01*
X119605970Y-85045671D01*
X119595480Y-85067849D01*
X119582867Y-85088893D01*
X119568253Y-85108598D01*
X119551777Y-85126777D01*
X119533598Y-85143253D01*
X119513893Y-85157867D01*
X119492849Y-85170480D01*
X119470671Y-85180970D01*
X119447571Y-85189235D01*
X119423773Y-85195196D01*
X119399504Y-85198796D01*
X119375000Y-85200000D01*
X118125000Y-85200000D01*
X118100496Y-85198796D01*
X118076227Y-85195196D01*
X118052429Y-85189235D01*
X118029329Y-85180970D01*
X118007151Y-85170480D01*
X117986107Y-85157867D01*
X117966402Y-85143253D01*
X117948223Y-85126777D01*
X117931747Y-85108598D01*
X117917133Y-85088893D01*
X117904520Y-85067849D01*
X117894030Y-85045671D01*
X117885765Y-85022571D01*
X117879804Y-84998773D01*
X117876204Y-84974504D01*
X117875000Y-84950000D01*
X117875000Y-84025000D01*
X117876204Y-84000496D01*
X117879804Y-83976227D01*
X117885765Y-83952429D01*
X117894030Y-83929329D01*
X117904520Y-83907151D01*
X117917133Y-83886107D01*
X117931747Y-83866402D01*
X117948223Y-83848223D01*
X117966402Y-83831747D01*
X117986107Y-83817133D01*
X118007151Y-83804520D01*
X118029329Y-83794030D01*
X118052429Y-83785765D01*
X118076227Y-83779804D01*
X118100496Y-83776204D01*
X118125000Y-83775000D01*
X119375000Y-83775000D01*
X119399504Y-83776204D01*
X119399504Y-83776204D01*
G37*
D11*
X118750000Y-84487500D03*
D10*
G36*
X124774504Y-83626204D02*
G01*
X124798773Y-83629804D01*
X124822571Y-83635765D01*
X124845671Y-83644030D01*
X124867849Y-83654520D01*
X124888893Y-83667133D01*
X124908598Y-83681747D01*
X124926777Y-83698223D01*
X124943253Y-83716402D01*
X124957867Y-83736107D01*
X124970480Y-83757151D01*
X124980970Y-83779329D01*
X124989235Y-83802429D01*
X124995196Y-83826227D01*
X124998796Y-83850496D01*
X125000000Y-83875000D01*
X125000000Y-85125000D01*
X124998796Y-85149504D01*
X124995196Y-85173773D01*
X124989235Y-85197571D01*
X124980970Y-85220671D01*
X124970480Y-85242849D01*
X124957867Y-85263893D01*
X124943253Y-85283598D01*
X124926777Y-85301777D01*
X124908598Y-85318253D01*
X124888893Y-85332867D01*
X124867849Y-85345480D01*
X124845671Y-85355970D01*
X124822571Y-85364235D01*
X124798773Y-85370196D01*
X124774504Y-85373796D01*
X124750000Y-85375000D01*
X123825000Y-85375000D01*
X123800496Y-85373796D01*
X123776227Y-85370196D01*
X123752429Y-85364235D01*
X123729329Y-85355970D01*
X123707151Y-85345480D01*
X123686107Y-85332867D01*
X123666402Y-85318253D01*
X123648223Y-85301777D01*
X123631747Y-85283598D01*
X123617133Y-85263893D01*
X123604520Y-85242849D01*
X123594030Y-85220671D01*
X123585765Y-85197571D01*
X123579804Y-85173773D01*
X123576204Y-85149504D01*
X123575000Y-85125000D01*
X123575000Y-83875000D01*
X123576204Y-83850496D01*
X123579804Y-83826227D01*
X123585765Y-83802429D01*
X123594030Y-83779329D01*
X123604520Y-83757151D01*
X123617133Y-83736107D01*
X123631747Y-83716402D01*
X123648223Y-83698223D01*
X123666402Y-83681747D01*
X123686107Y-83667133D01*
X123707151Y-83654520D01*
X123729329Y-83644030D01*
X123752429Y-83635765D01*
X123776227Y-83629804D01*
X123800496Y-83626204D01*
X123825000Y-83625000D01*
X124750000Y-83625000D01*
X124774504Y-83626204D01*
X124774504Y-83626204D01*
G37*
D11*
X124287500Y-84500000D03*
D10*
G36*
X121799504Y-83626204D02*
G01*
X121823773Y-83629804D01*
X121847571Y-83635765D01*
X121870671Y-83644030D01*
X121892849Y-83654520D01*
X121913893Y-83667133D01*
X121933598Y-83681747D01*
X121951777Y-83698223D01*
X121968253Y-83716402D01*
X121982867Y-83736107D01*
X121995480Y-83757151D01*
X122005970Y-83779329D01*
X122014235Y-83802429D01*
X122020196Y-83826227D01*
X122023796Y-83850496D01*
X122025000Y-83875000D01*
X122025000Y-85125000D01*
X122023796Y-85149504D01*
X122020196Y-85173773D01*
X122014235Y-85197571D01*
X122005970Y-85220671D01*
X121995480Y-85242849D01*
X121982867Y-85263893D01*
X121968253Y-85283598D01*
X121951777Y-85301777D01*
X121933598Y-85318253D01*
X121913893Y-85332867D01*
X121892849Y-85345480D01*
X121870671Y-85355970D01*
X121847571Y-85364235D01*
X121823773Y-85370196D01*
X121799504Y-85373796D01*
X121775000Y-85375000D01*
X120850000Y-85375000D01*
X120825496Y-85373796D01*
X120801227Y-85370196D01*
X120777429Y-85364235D01*
X120754329Y-85355970D01*
X120732151Y-85345480D01*
X120711107Y-85332867D01*
X120691402Y-85318253D01*
X120673223Y-85301777D01*
X120656747Y-85283598D01*
X120642133Y-85263893D01*
X120629520Y-85242849D01*
X120619030Y-85220671D01*
X120610765Y-85197571D01*
X120604804Y-85173773D01*
X120601204Y-85149504D01*
X120600000Y-85125000D01*
X120600000Y-83875000D01*
X120601204Y-83850496D01*
X120604804Y-83826227D01*
X120610765Y-83802429D01*
X120619030Y-83779329D01*
X120629520Y-83757151D01*
X120642133Y-83736107D01*
X120656747Y-83716402D01*
X120673223Y-83698223D01*
X120691402Y-83681747D01*
X120711107Y-83667133D01*
X120732151Y-83654520D01*
X120754329Y-83644030D01*
X120777429Y-83635765D01*
X120801227Y-83629804D01*
X120825496Y-83626204D01*
X120850000Y-83625000D01*
X121775000Y-83625000D01*
X121799504Y-83626204D01*
X121799504Y-83626204D01*
G37*
D11*
X121312500Y-84500000D03*
D10*
G36*
X121799504Y-79026204D02*
G01*
X121823773Y-79029804D01*
X121847571Y-79035765D01*
X121870671Y-79044030D01*
X121892849Y-79054520D01*
X121913893Y-79067133D01*
X121933598Y-79081747D01*
X121951777Y-79098223D01*
X121968253Y-79116402D01*
X121982867Y-79136107D01*
X121995480Y-79157151D01*
X122005970Y-79179329D01*
X122014235Y-79202429D01*
X122020196Y-79226227D01*
X122023796Y-79250496D01*
X122025000Y-79275000D01*
X122025000Y-80525000D01*
X122023796Y-80549504D01*
X122020196Y-80573773D01*
X122014235Y-80597571D01*
X122005970Y-80620671D01*
X121995480Y-80642849D01*
X121982867Y-80663893D01*
X121968253Y-80683598D01*
X121951777Y-80701777D01*
X121933598Y-80718253D01*
X121913893Y-80732867D01*
X121892849Y-80745480D01*
X121870671Y-80755970D01*
X121847571Y-80764235D01*
X121823773Y-80770196D01*
X121799504Y-80773796D01*
X121775000Y-80775000D01*
X120850000Y-80775000D01*
X120825496Y-80773796D01*
X120801227Y-80770196D01*
X120777429Y-80764235D01*
X120754329Y-80755970D01*
X120732151Y-80745480D01*
X120711107Y-80732867D01*
X120691402Y-80718253D01*
X120673223Y-80701777D01*
X120656747Y-80683598D01*
X120642133Y-80663893D01*
X120629520Y-80642849D01*
X120619030Y-80620671D01*
X120610765Y-80597571D01*
X120604804Y-80573773D01*
X120601204Y-80549504D01*
X120600000Y-80525000D01*
X120600000Y-79275000D01*
X120601204Y-79250496D01*
X120604804Y-79226227D01*
X120610765Y-79202429D01*
X120619030Y-79179329D01*
X120629520Y-79157151D01*
X120642133Y-79136107D01*
X120656747Y-79116402D01*
X120673223Y-79098223D01*
X120691402Y-79081747D01*
X120711107Y-79067133D01*
X120732151Y-79054520D01*
X120754329Y-79044030D01*
X120777429Y-79035765D01*
X120801227Y-79029804D01*
X120825496Y-79026204D01*
X120850000Y-79025000D01*
X121775000Y-79025000D01*
X121799504Y-79026204D01*
X121799504Y-79026204D01*
G37*
D11*
X121312500Y-79900000D03*
D10*
G36*
X124774504Y-79026204D02*
G01*
X124798773Y-79029804D01*
X124822571Y-79035765D01*
X124845671Y-79044030D01*
X124867849Y-79054520D01*
X124888893Y-79067133D01*
X124908598Y-79081747D01*
X124926777Y-79098223D01*
X124943253Y-79116402D01*
X124957867Y-79136107D01*
X124970480Y-79157151D01*
X124980970Y-79179329D01*
X124989235Y-79202429D01*
X124995196Y-79226227D01*
X124998796Y-79250496D01*
X125000000Y-79275000D01*
X125000000Y-80525000D01*
X124998796Y-80549504D01*
X124995196Y-80573773D01*
X124989235Y-80597571D01*
X124980970Y-80620671D01*
X124970480Y-80642849D01*
X124957867Y-80663893D01*
X124943253Y-80683598D01*
X124926777Y-80701777D01*
X124908598Y-80718253D01*
X124888893Y-80732867D01*
X124867849Y-80745480D01*
X124845671Y-80755970D01*
X124822571Y-80764235D01*
X124798773Y-80770196D01*
X124774504Y-80773796D01*
X124750000Y-80775000D01*
X123825000Y-80775000D01*
X123800496Y-80773796D01*
X123776227Y-80770196D01*
X123752429Y-80764235D01*
X123729329Y-80755970D01*
X123707151Y-80745480D01*
X123686107Y-80732867D01*
X123666402Y-80718253D01*
X123648223Y-80701777D01*
X123631747Y-80683598D01*
X123617133Y-80663893D01*
X123604520Y-80642849D01*
X123594030Y-80620671D01*
X123585765Y-80597571D01*
X123579804Y-80573773D01*
X123576204Y-80549504D01*
X123575000Y-80525000D01*
X123575000Y-79275000D01*
X123576204Y-79250496D01*
X123579804Y-79226227D01*
X123585765Y-79202429D01*
X123594030Y-79179329D01*
X123604520Y-79157151D01*
X123617133Y-79136107D01*
X123631747Y-79116402D01*
X123648223Y-79098223D01*
X123666402Y-79081747D01*
X123686107Y-79067133D01*
X123707151Y-79054520D01*
X123729329Y-79044030D01*
X123752429Y-79035765D01*
X123776227Y-79029804D01*
X123800496Y-79026204D01*
X123825000Y-79025000D01*
X124750000Y-79025000D01*
X124774504Y-79026204D01*
X124774504Y-79026204D01*
G37*
D11*
X124287500Y-79900000D03*
D10*
G36*
X135149504Y-71051204D02*
G01*
X135173773Y-71054804D01*
X135197571Y-71060765D01*
X135220671Y-71069030D01*
X135242849Y-71079520D01*
X135263893Y-71092133D01*
X135283598Y-71106747D01*
X135301777Y-71123223D01*
X135318253Y-71141402D01*
X135332867Y-71161107D01*
X135345480Y-71182151D01*
X135355970Y-71204329D01*
X135364235Y-71227429D01*
X135370196Y-71251227D01*
X135373796Y-71275496D01*
X135375000Y-71300000D01*
X135375000Y-72225000D01*
X135373796Y-72249504D01*
X135370196Y-72273773D01*
X135364235Y-72297571D01*
X135355970Y-72320671D01*
X135345480Y-72342849D01*
X135332867Y-72363893D01*
X135318253Y-72383598D01*
X135301777Y-72401777D01*
X135283598Y-72418253D01*
X135263893Y-72432867D01*
X135242849Y-72445480D01*
X135220671Y-72455970D01*
X135197571Y-72464235D01*
X135173773Y-72470196D01*
X135149504Y-72473796D01*
X135125000Y-72475000D01*
X133875000Y-72475000D01*
X133850496Y-72473796D01*
X133826227Y-72470196D01*
X133802429Y-72464235D01*
X133779329Y-72455970D01*
X133757151Y-72445480D01*
X133736107Y-72432867D01*
X133716402Y-72418253D01*
X133698223Y-72401777D01*
X133681747Y-72383598D01*
X133667133Y-72363893D01*
X133654520Y-72342849D01*
X133644030Y-72320671D01*
X133635765Y-72297571D01*
X133629804Y-72273773D01*
X133626204Y-72249504D01*
X133625000Y-72225000D01*
X133625000Y-71300000D01*
X133626204Y-71275496D01*
X133629804Y-71251227D01*
X133635765Y-71227429D01*
X133644030Y-71204329D01*
X133654520Y-71182151D01*
X133667133Y-71161107D01*
X133681747Y-71141402D01*
X133698223Y-71123223D01*
X133716402Y-71106747D01*
X133736107Y-71092133D01*
X133757151Y-71079520D01*
X133779329Y-71069030D01*
X133802429Y-71060765D01*
X133826227Y-71054804D01*
X133850496Y-71051204D01*
X133875000Y-71050000D01*
X135125000Y-71050000D01*
X135149504Y-71051204D01*
X135149504Y-71051204D01*
G37*
D11*
X134500000Y-71762500D03*
D10*
G36*
X135149504Y-74026204D02*
G01*
X135173773Y-74029804D01*
X135197571Y-74035765D01*
X135220671Y-74044030D01*
X135242849Y-74054520D01*
X135263893Y-74067133D01*
X135283598Y-74081747D01*
X135301777Y-74098223D01*
X135318253Y-74116402D01*
X135332867Y-74136107D01*
X135345480Y-74157151D01*
X135355970Y-74179329D01*
X135364235Y-74202429D01*
X135370196Y-74226227D01*
X135373796Y-74250496D01*
X135375000Y-74275000D01*
X135375000Y-75200000D01*
X135373796Y-75224504D01*
X135370196Y-75248773D01*
X135364235Y-75272571D01*
X135355970Y-75295671D01*
X135345480Y-75317849D01*
X135332867Y-75338893D01*
X135318253Y-75358598D01*
X135301777Y-75376777D01*
X135283598Y-75393253D01*
X135263893Y-75407867D01*
X135242849Y-75420480D01*
X135220671Y-75430970D01*
X135197571Y-75439235D01*
X135173773Y-75445196D01*
X135149504Y-75448796D01*
X135125000Y-75450000D01*
X133875000Y-75450000D01*
X133850496Y-75448796D01*
X133826227Y-75445196D01*
X133802429Y-75439235D01*
X133779329Y-75430970D01*
X133757151Y-75420480D01*
X133736107Y-75407867D01*
X133716402Y-75393253D01*
X133698223Y-75376777D01*
X133681747Y-75358598D01*
X133667133Y-75338893D01*
X133654520Y-75317849D01*
X133644030Y-75295671D01*
X133635765Y-75272571D01*
X133629804Y-75248773D01*
X133626204Y-75224504D01*
X133625000Y-75200000D01*
X133625000Y-74275000D01*
X133626204Y-74250496D01*
X133629804Y-74226227D01*
X133635765Y-74202429D01*
X133644030Y-74179329D01*
X133654520Y-74157151D01*
X133667133Y-74136107D01*
X133681747Y-74116402D01*
X133698223Y-74098223D01*
X133716402Y-74081747D01*
X133736107Y-74067133D01*
X133757151Y-74054520D01*
X133779329Y-74044030D01*
X133802429Y-74035765D01*
X133826227Y-74029804D01*
X133850496Y-74026204D01*
X133875000Y-74025000D01*
X135125000Y-74025000D01*
X135149504Y-74026204D01*
X135149504Y-74026204D01*
G37*
D11*
X134500000Y-74737500D03*
D21*
X137775000Y-65500000D03*
X143225000Y-65500000D03*
X137775000Y-69500000D03*
X143225000Y-69500000D03*
D22*
X148225000Y-65460000D03*
X148225000Y-70540000D03*
D23*
X159800000Y-70775000D03*
X154950000Y-65225000D03*
X159800000Y-65225000D03*
X154950000Y-70775000D03*
D10*
G36*
X132724504Y-73626204D02*
G01*
X132748773Y-73629804D01*
X132772571Y-73635765D01*
X132795671Y-73644030D01*
X132817849Y-73654520D01*
X132838893Y-73667133D01*
X132858598Y-73681747D01*
X132876777Y-73698223D01*
X132893253Y-73716402D01*
X132907867Y-73736107D01*
X132920480Y-73757151D01*
X132930970Y-73779329D01*
X132939235Y-73802429D01*
X132945196Y-73826227D01*
X132948796Y-73850496D01*
X132950000Y-73875000D01*
X132950000Y-75125000D01*
X132948796Y-75149504D01*
X132945196Y-75173773D01*
X132939235Y-75197571D01*
X132930970Y-75220671D01*
X132920480Y-75242849D01*
X132907867Y-75263893D01*
X132893253Y-75283598D01*
X132876777Y-75301777D01*
X132858598Y-75318253D01*
X132838893Y-75332867D01*
X132817849Y-75345480D01*
X132795671Y-75355970D01*
X132772571Y-75364235D01*
X132748773Y-75370196D01*
X132724504Y-75373796D01*
X132700000Y-75375000D01*
X131775000Y-75375000D01*
X131750496Y-75373796D01*
X131726227Y-75370196D01*
X131702429Y-75364235D01*
X131679329Y-75355970D01*
X131657151Y-75345480D01*
X131636107Y-75332867D01*
X131616402Y-75318253D01*
X131598223Y-75301777D01*
X131581747Y-75283598D01*
X131567133Y-75263893D01*
X131554520Y-75242849D01*
X131544030Y-75220671D01*
X131535765Y-75197571D01*
X131529804Y-75173773D01*
X131526204Y-75149504D01*
X131525000Y-75125000D01*
X131525000Y-73875000D01*
X131526204Y-73850496D01*
X131529804Y-73826227D01*
X131535765Y-73802429D01*
X131544030Y-73779329D01*
X131554520Y-73757151D01*
X131567133Y-73736107D01*
X131581747Y-73716402D01*
X131598223Y-73698223D01*
X131616402Y-73681747D01*
X131636107Y-73667133D01*
X131657151Y-73654520D01*
X131679329Y-73644030D01*
X131702429Y-73635765D01*
X131726227Y-73629804D01*
X131750496Y-73626204D01*
X131775000Y-73625000D01*
X132700000Y-73625000D01*
X132724504Y-73626204D01*
X132724504Y-73626204D01*
G37*
D11*
X132237500Y-74500000D03*
D10*
G36*
X129749504Y-73626204D02*
G01*
X129773773Y-73629804D01*
X129797571Y-73635765D01*
X129820671Y-73644030D01*
X129842849Y-73654520D01*
X129863893Y-73667133D01*
X129883598Y-73681747D01*
X129901777Y-73698223D01*
X129918253Y-73716402D01*
X129932867Y-73736107D01*
X129945480Y-73757151D01*
X129955970Y-73779329D01*
X129964235Y-73802429D01*
X129970196Y-73826227D01*
X129973796Y-73850496D01*
X129975000Y-73875000D01*
X129975000Y-75125000D01*
X129973796Y-75149504D01*
X129970196Y-75173773D01*
X129964235Y-75197571D01*
X129955970Y-75220671D01*
X129945480Y-75242849D01*
X129932867Y-75263893D01*
X129918253Y-75283598D01*
X129901777Y-75301777D01*
X129883598Y-75318253D01*
X129863893Y-75332867D01*
X129842849Y-75345480D01*
X129820671Y-75355970D01*
X129797571Y-75364235D01*
X129773773Y-75370196D01*
X129749504Y-75373796D01*
X129725000Y-75375000D01*
X128800000Y-75375000D01*
X128775496Y-75373796D01*
X128751227Y-75370196D01*
X128727429Y-75364235D01*
X128704329Y-75355970D01*
X128682151Y-75345480D01*
X128661107Y-75332867D01*
X128641402Y-75318253D01*
X128623223Y-75301777D01*
X128606747Y-75283598D01*
X128592133Y-75263893D01*
X128579520Y-75242849D01*
X128569030Y-75220671D01*
X128560765Y-75197571D01*
X128554804Y-75173773D01*
X128551204Y-75149504D01*
X128550000Y-75125000D01*
X128550000Y-73875000D01*
X128551204Y-73850496D01*
X128554804Y-73826227D01*
X128560765Y-73802429D01*
X128569030Y-73779329D01*
X128579520Y-73757151D01*
X128592133Y-73736107D01*
X128606747Y-73716402D01*
X128623223Y-73698223D01*
X128641402Y-73681747D01*
X128661107Y-73667133D01*
X128682151Y-73654520D01*
X128704329Y-73644030D01*
X128727429Y-73635765D01*
X128751227Y-73629804D01*
X128775496Y-73626204D01*
X128800000Y-73625000D01*
X129725000Y-73625000D01*
X129749504Y-73626204D01*
X129749504Y-73626204D01*
G37*
D11*
X129262500Y-74500000D03*
D10*
G36*
X146249504Y-74126204D02*
G01*
X146273773Y-74129804D01*
X146297571Y-74135765D01*
X146320671Y-74144030D01*
X146342849Y-74154520D01*
X146363893Y-74167133D01*
X146383598Y-74181747D01*
X146401777Y-74198223D01*
X146418253Y-74216402D01*
X146432867Y-74236107D01*
X146445480Y-74257151D01*
X146455970Y-74279329D01*
X146464235Y-74302429D01*
X146470196Y-74326227D01*
X146473796Y-74350496D01*
X146475000Y-74375000D01*
X146475000Y-75625000D01*
X146473796Y-75649504D01*
X146470196Y-75673773D01*
X146464235Y-75697571D01*
X146455970Y-75720671D01*
X146445480Y-75742849D01*
X146432867Y-75763893D01*
X146418253Y-75783598D01*
X146401777Y-75801777D01*
X146383598Y-75818253D01*
X146363893Y-75832867D01*
X146342849Y-75845480D01*
X146320671Y-75855970D01*
X146297571Y-75864235D01*
X146273773Y-75870196D01*
X146249504Y-75873796D01*
X146225000Y-75875000D01*
X145300000Y-75875000D01*
X145275496Y-75873796D01*
X145251227Y-75870196D01*
X145227429Y-75864235D01*
X145204329Y-75855970D01*
X145182151Y-75845480D01*
X145161107Y-75832867D01*
X145141402Y-75818253D01*
X145123223Y-75801777D01*
X145106747Y-75783598D01*
X145092133Y-75763893D01*
X145079520Y-75742849D01*
X145069030Y-75720671D01*
X145060765Y-75697571D01*
X145054804Y-75673773D01*
X145051204Y-75649504D01*
X145050000Y-75625000D01*
X145050000Y-74375000D01*
X145051204Y-74350496D01*
X145054804Y-74326227D01*
X145060765Y-74302429D01*
X145069030Y-74279329D01*
X145079520Y-74257151D01*
X145092133Y-74236107D01*
X145106747Y-74216402D01*
X145123223Y-74198223D01*
X145141402Y-74181747D01*
X145161107Y-74167133D01*
X145182151Y-74154520D01*
X145204329Y-74144030D01*
X145227429Y-74135765D01*
X145251227Y-74129804D01*
X145275496Y-74126204D01*
X145300000Y-74125000D01*
X146225000Y-74125000D01*
X146249504Y-74126204D01*
X146249504Y-74126204D01*
G37*
D11*
X145762500Y-75000000D03*
D10*
G36*
X149224504Y-74126204D02*
G01*
X149248773Y-74129804D01*
X149272571Y-74135765D01*
X149295671Y-74144030D01*
X149317849Y-74154520D01*
X149338893Y-74167133D01*
X149358598Y-74181747D01*
X149376777Y-74198223D01*
X149393253Y-74216402D01*
X149407867Y-74236107D01*
X149420480Y-74257151D01*
X149430970Y-74279329D01*
X149439235Y-74302429D01*
X149445196Y-74326227D01*
X149448796Y-74350496D01*
X149450000Y-74375000D01*
X149450000Y-75625000D01*
X149448796Y-75649504D01*
X149445196Y-75673773D01*
X149439235Y-75697571D01*
X149430970Y-75720671D01*
X149420480Y-75742849D01*
X149407867Y-75763893D01*
X149393253Y-75783598D01*
X149376777Y-75801777D01*
X149358598Y-75818253D01*
X149338893Y-75832867D01*
X149317849Y-75845480D01*
X149295671Y-75855970D01*
X149272571Y-75864235D01*
X149248773Y-75870196D01*
X149224504Y-75873796D01*
X149200000Y-75875000D01*
X148275000Y-75875000D01*
X148250496Y-75873796D01*
X148226227Y-75870196D01*
X148202429Y-75864235D01*
X148179329Y-75855970D01*
X148157151Y-75845480D01*
X148136107Y-75832867D01*
X148116402Y-75818253D01*
X148098223Y-75801777D01*
X148081747Y-75783598D01*
X148067133Y-75763893D01*
X148054520Y-75742849D01*
X148044030Y-75720671D01*
X148035765Y-75697571D01*
X148029804Y-75673773D01*
X148026204Y-75649504D01*
X148025000Y-75625000D01*
X148025000Y-74375000D01*
X148026204Y-74350496D01*
X148029804Y-74326227D01*
X148035765Y-74302429D01*
X148044030Y-74279329D01*
X148054520Y-74257151D01*
X148067133Y-74236107D01*
X148081747Y-74216402D01*
X148098223Y-74198223D01*
X148116402Y-74181747D01*
X148136107Y-74167133D01*
X148157151Y-74154520D01*
X148179329Y-74144030D01*
X148202429Y-74135765D01*
X148226227Y-74129804D01*
X148250496Y-74126204D01*
X148275000Y-74125000D01*
X149200000Y-74125000D01*
X149224504Y-74126204D01*
X149224504Y-74126204D01*
G37*
D11*
X148737500Y-75000000D03*
D10*
G36*
X159149504Y-56301204D02*
G01*
X159173773Y-56304804D01*
X159197571Y-56310765D01*
X159220671Y-56319030D01*
X159242849Y-56329520D01*
X159263893Y-56342133D01*
X159283598Y-56356747D01*
X159301777Y-56373223D01*
X159318253Y-56391402D01*
X159332867Y-56411107D01*
X159345480Y-56432151D01*
X159355970Y-56454329D01*
X159364235Y-56477429D01*
X159370196Y-56501227D01*
X159373796Y-56525496D01*
X159375000Y-56550000D01*
X159375000Y-57475000D01*
X159373796Y-57499504D01*
X159370196Y-57523773D01*
X159364235Y-57547571D01*
X159355970Y-57570671D01*
X159345480Y-57592849D01*
X159332867Y-57613893D01*
X159318253Y-57633598D01*
X159301777Y-57651777D01*
X159283598Y-57668253D01*
X159263893Y-57682867D01*
X159242849Y-57695480D01*
X159220671Y-57705970D01*
X159197571Y-57714235D01*
X159173773Y-57720196D01*
X159149504Y-57723796D01*
X159125000Y-57725000D01*
X157875000Y-57725000D01*
X157850496Y-57723796D01*
X157826227Y-57720196D01*
X157802429Y-57714235D01*
X157779329Y-57705970D01*
X157757151Y-57695480D01*
X157736107Y-57682867D01*
X157716402Y-57668253D01*
X157698223Y-57651777D01*
X157681747Y-57633598D01*
X157667133Y-57613893D01*
X157654520Y-57592849D01*
X157644030Y-57570671D01*
X157635765Y-57547571D01*
X157629804Y-57523773D01*
X157626204Y-57499504D01*
X157625000Y-57475000D01*
X157625000Y-56550000D01*
X157626204Y-56525496D01*
X157629804Y-56501227D01*
X157635765Y-56477429D01*
X157644030Y-56454329D01*
X157654520Y-56432151D01*
X157667133Y-56411107D01*
X157681747Y-56391402D01*
X157698223Y-56373223D01*
X157716402Y-56356747D01*
X157736107Y-56342133D01*
X157757151Y-56329520D01*
X157779329Y-56319030D01*
X157802429Y-56310765D01*
X157826227Y-56304804D01*
X157850496Y-56301204D01*
X157875000Y-56300000D01*
X159125000Y-56300000D01*
X159149504Y-56301204D01*
X159149504Y-56301204D01*
G37*
D11*
X158500000Y-57012500D03*
D10*
G36*
X159149504Y-59276204D02*
G01*
X159173773Y-59279804D01*
X159197571Y-59285765D01*
X159220671Y-59294030D01*
X159242849Y-59304520D01*
X159263893Y-59317133D01*
X159283598Y-59331747D01*
X159301777Y-59348223D01*
X159318253Y-59366402D01*
X159332867Y-59386107D01*
X159345480Y-59407151D01*
X159355970Y-59429329D01*
X159364235Y-59452429D01*
X159370196Y-59476227D01*
X159373796Y-59500496D01*
X159375000Y-59525000D01*
X159375000Y-60450000D01*
X159373796Y-60474504D01*
X159370196Y-60498773D01*
X159364235Y-60522571D01*
X159355970Y-60545671D01*
X159345480Y-60567849D01*
X159332867Y-60588893D01*
X159318253Y-60608598D01*
X159301777Y-60626777D01*
X159283598Y-60643253D01*
X159263893Y-60657867D01*
X159242849Y-60670480D01*
X159220671Y-60680970D01*
X159197571Y-60689235D01*
X159173773Y-60695196D01*
X159149504Y-60698796D01*
X159125000Y-60700000D01*
X157875000Y-60700000D01*
X157850496Y-60698796D01*
X157826227Y-60695196D01*
X157802429Y-60689235D01*
X157779329Y-60680970D01*
X157757151Y-60670480D01*
X157736107Y-60657867D01*
X157716402Y-60643253D01*
X157698223Y-60626777D01*
X157681747Y-60608598D01*
X157667133Y-60588893D01*
X157654520Y-60567849D01*
X157644030Y-60545671D01*
X157635765Y-60522571D01*
X157629804Y-60498773D01*
X157626204Y-60474504D01*
X157625000Y-60450000D01*
X157625000Y-59525000D01*
X157626204Y-59500496D01*
X157629804Y-59476227D01*
X157635765Y-59452429D01*
X157644030Y-59429329D01*
X157654520Y-59407151D01*
X157667133Y-59386107D01*
X157681747Y-59366402D01*
X157698223Y-59348223D01*
X157716402Y-59331747D01*
X157736107Y-59317133D01*
X157757151Y-59304520D01*
X157779329Y-59294030D01*
X157802429Y-59285765D01*
X157826227Y-59279804D01*
X157850496Y-59276204D01*
X157875000Y-59275000D01*
X159125000Y-59275000D01*
X159149504Y-59276204D01*
X159149504Y-59276204D01*
G37*
D11*
X158500000Y-59987500D03*
D10*
G36*
X169649504Y-78051204D02*
G01*
X169673773Y-78054804D01*
X169697571Y-78060765D01*
X169720671Y-78069030D01*
X169742849Y-78079520D01*
X169763893Y-78092133D01*
X169783598Y-78106747D01*
X169801777Y-78123223D01*
X169818253Y-78141402D01*
X169832867Y-78161107D01*
X169845480Y-78182151D01*
X169855970Y-78204329D01*
X169864235Y-78227429D01*
X169870196Y-78251227D01*
X169873796Y-78275496D01*
X169875000Y-78300000D01*
X169875000Y-79225000D01*
X169873796Y-79249504D01*
X169870196Y-79273773D01*
X169864235Y-79297571D01*
X169855970Y-79320671D01*
X169845480Y-79342849D01*
X169832867Y-79363893D01*
X169818253Y-79383598D01*
X169801777Y-79401777D01*
X169783598Y-79418253D01*
X169763893Y-79432867D01*
X169742849Y-79445480D01*
X169720671Y-79455970D01*
X169697571Y-79464235D01*
X169673773Y-79470196D01*
X169649504Y-79473796D01*
X169625000Y-79475000D01*
X168375000Y-79475000D01*
X168350496Y-79473796D01*
X168326227Y-79470196D01*
X168302429Y-79464235D01*
X168279329Y-79455970D01*
X168257151Y-79445480D01*
X168236107Y-79432867D01*
X168216402Y-79418253D01*
X168198223Y-79401777D01*
X168181747Y-79383598D01*
X168167133Y-79363893D01*
X168154520Y-79342849D01*
X168144030Y-79320671D01*
X168135765Y-79297571D01*
X168129804Y-79273773D01*
X168126204Y-79249504D01*
X168125000Y-79225000D01*
X168125000Y-78300000D01*
X168126204Y-78275496D01*
X168129804Y-78251227D01*
X168135765Y-78227429D01*
X168144030Y-78204329D01*
X168154520Y-78182151D01*
X168167133Y-78161107D01*
X168181747Y-78141402D01*
X168198223Y-78123223D01*
X168216402Y-78106747D01*
X168236107Y-78092133D01*
X168257151Y-78079520D01*
X168279329Y-78069030D01*
X168302429Y-78060765D01*
X168326227Y-78054804D01*
X168350496Y-78051204D01*
X168375000Y-78050000D01*
X169625000Y-78050000D01*
X169649504Y-78051204D01*
X169649504Y-78051204D01*
G37*
D11*
X169000000Y-78762500D03*
D10*
G36*
X169649504Y-81026204D02*
G01*
X169673773Y-81029804D01*
X169697571Y-81035765D01*
X169720671Y-81044030D01*
X169742849Y-81054520D01*
X169763893Y-81067133D01*
X169783598Y-81081747D01*
X169801777Y-81098223D01*
X169818253Y-81116402D01*
X169832867Y-81136107D01*
X169845480Y-81157151D01*
X169855970Y-81179329D01*
X169864235Y-81202429D01*
X169870196Y-81226227D01*
X169873796Y-81250496D01*
X169875000Y-81275000D01*
X169875000Y-82200000D01*
X169873796Y-82224504D01*
X169870196Y-82248773D01*
X169864235Y-82272571D01*
X169855970Y-82295671D01*
X169845480Y-82317849D01*
X169832867Y-82338893D01*
X169818253Y-82358598D01*
X169801777Y-82376777D01*
X169783598Y-82393253D01*
X169763893Y-82407867D01*
X169742849Y-82420480D01*
X169720671Y-82430970D01*
X169697571Y-82439235D01*
X169673773Y-82445196D01*
X169649504Y-82448796D01*
X169625000Y-82450000D01*
X168375000Y-82450000D01*
X168350496Y-82448796D01*
X168326227Y-82445196D01*
X168302429Y-82439235D01*
X168279329Y-82430970D01*
X168257151Y-82420480D01*
X168236107Y-82407867D01*
X168216402Y-82393253D01*
X168198223Y-82376777D01*
X168181747Y-82358598D01*
X168167133Y-82338893D01*
X168154520Y-82317849D01*
X168144030Y-82295671D01*
X168135765Y-82272571D01*
X168129804Y-82248773D01*
X168126204Y-82224504D01*
X168125000Y-82200000D01*
X168125000Y-81275000D01*
X168126204Y-81250496D01*
X168129804Y-81226227D01*
X168135765Y-81202429D01*
X168144030Y-81179329D01*
X168154520Y-81157151D01*
X168167133Y-81136107D01*
X168181747Y-81116402D01*
X168198223Y-81098223D01*
X168216402Y-81081747D01*
X168236107Y-81067133D01*
X168257151Y-81054520D01*
X168279329Y-81044030D01*
X168302429Y-81035765D01*
X168326227Y-81029804D01*
X168350496Y-81026204D01*
X168375000Y-81025000D01*
X169625000Y-81025000D01*
X169649504Y-81026204D01*
X169649504Y-81026204D01*
G37*
D11*
X169000000Y-81737500D03*
M02*
