G04 #@! TF.GenerationSoftware,KiCad,Pcbnew,(5.1.4-0-10_14)*
G04 #@! TF.CreationDate,2020-08-02T20:06:06+03:00*
G04 #@! TF.ProjectId,smart-plug,736d6172-742d-4706-9c75-672e6b696361,rev?*
G04 #@! TF.SameCoordinates,Original*
G04 #@! TF.FileFunction,Soldermask,Top*
G04 #@! TF.FilePolarity,Negative*
%FSLAX46Y46*%
G04 Gerber Fmt 4.6, Leading zero omitted, Abs format (unit mm)*
G04 Created by KiCad (PCBNEW (5.1.4-0-10_14)) date 2020-08-02 20:06:06*
%MOMM*%
%LPD*%
G04 APERTURE LIST*
%ADD10C,0.100000*%
%ADD11C,1.825000*%
%ADD12R,1.300000X1.200000*%
%ADD13C,2.475000*%
%ADD14C,1.924000*%
%ADD15R,1.050000X1.460000*%
%ADD16C,1.000000*%
%ADD17R,2.600000X1.600000*%
%ADD18R,6.800000X6.200000*%
%ADD19C,2.690000*%
%ADD20R,1.600000X1.400000*%
%ADD21R,3.450000X1.920000*%
%ADD22R,1.850000X1.400000*%
%ADD23C,2.400000*%
%ADD24R,5.000000X1.500000*%
%ADD25R,9.800000X11.200000*%
%ADD26C,3.000000*%
%ADD27R,3.000000X3.000000*%
G04 APERTURE END LIST*
D10*
G36*
X160611207Y-84676542D02*
G01*
X160642287Y-84681152D01*
X160672766Y-84688787D01*
X160702350Y-84699372D01*
X160730754Y-84712806D01*
X160757704Y-84728959D01*
X160782942Y-84747677D01*
X160806223Y-84768777D01*
X160827323Y-84792058D01*
X160846041Y-84817296D01*
X160862194Y-84844246D01*
X160875628Y-84872650D01*
X160886213Y-84902234D01*
X160893848Y-84932713D01*
X160898458Y-84963793D01*
X160900000Y-84995176D01*
X160900000Y-86504824D01*
X160898458Y-86536207D01*
X160893848Y-86567287D01*
X160886213Y-86597766D01*
X160875628Y-86627350D01*
X160862194Y-86655754D01*
X160846041Y-86682704D01*
X160827323Y-86707942D01*
X160806223Y-86731223D01*
X160782942Y-86752323D01*
X160757704Y-86771041D01*
X160730754Y-86787194D01*
X160702350Y-86800628D01*
X160672766Y-86811213D01*
X160642287Y-86818848D01*
X160611207Y-86823458D01*
X160579824Y-86825000D01*
X159395176Y-86825000D01*
X159363793Y-86823458D01*
X159332713Y-86818848D01*
X159302234Y-86811213D01*
X159272650Y-86800628D01*
X159244246Y-86787194D01*
X159217296Y-86771041D01*
X159192058Y-86752323D01*
X159168777Y-86731223D01*
X159147677Y-86707942D01*
X159128959Y-86682704D01*
X159112806Y-86655754D01*
X159099372Y-86627350D01*
X159088787Y-86597766D01*
X159081152Y-86567287D01*
X159076542Y-86536207D01*
X159075000Y-86504824D01*
X159075000Y-84995176D01*
X159076542Y-84963793D01*
X159081152Y-84932713D01*
X159088787Y-84902234D01*
X159099372Y-84872650D01*
X159112806Y-84844246D01*
X159128959Y-84817296D01*
X159147677Y-84792058D01*
X159168777Y-84768777D01*
X159192058Y-84747677D01*
X159217296Y-84728959D01*
X159244246Y-84712806D01*
X159272650Y-84699372D01*
X159302234Y-84688787D01*
X159332713Y-84681152D01*
X159363793Y-84676542D01*
X159395176Y-84675000D01*
X160579824Y-84675000D01*
X160611207Y-84676542D01*
X160611207Y-84676542D01*
G37*
D11*
X159987500Y-85750000D03*
D10*
G36*
X157636207Y-84676542D02*
G01*
X157667287Y-84681152D01*
X157697766Y-84688787D01*
X157727350Y-84699372D01*
X157755754Y-84712806D01*
X157782704Y-84728959D01*
X157807942Y-84747677D01*
X157831223Y-84768777D01*
X157852323Y-84792058D01*
X157871041Y-84817296D01*
X157887194Y-84844246D01*
X157900628Y-84872650D01*
X157911213Y-84902234D01*
X157918848Y-84932713D01*
X157923458Y-84963793D01*
X157925000Y-84995176D01*
X157925000Y-86504824D01*
X157923458Y-86536207D01*
X157918848Y-86567287D01*
X157911213Y-86597766D01*
X157900628Y-86627350D01*
X157887194Y-86655754D01*
X157871041Y-86682704D01*
X157852323Y-86707942D01*
X157831223Y-86731223D01*
X157807942Y-86752323D01*
X157782704Y-86771041D01*
X157755754Y-86787194D01*
X157727350Y-86800628D01*
X157697766Y-86811213D01*
X157667287Y-86818848D01*
X157636207Y-86823458D01*
X157604824Y-86825000D01*
X156420176Y-86825000D01*
X156388793Y-86823458D01*
X156357713Y-86818848D01*
X156327234Y-86811213D01*
X156297650Y-86800628D01*
X156269246Y-86787194D01*
X156242296Y-86771041D01*
X156217058Y-86752323D01*
X156193777Y-86731223D01*
X156172677Y-86707942D01*
X156153959Y-86682704D01*
X156137806Y-86655754D01*
X156124372Y-86627350D01*
X156113787Y-86597766D01*
X156106152Y-86567287D01*
X156101542Y-86536207D01*
X156100000Y-86504824D01*
X156100000Y-84995176D01*
X156101542Y-84963793D01*
X156106152Y-84932713D01*
X156113787Y-84902234D01*
X156124372Y-84872650D01*
X156137806Y-84844246D01*
X156153959Y-84817296D01*
X156172677Y-84792058D01*
X156193777Y-84768777D01*
X156217058Y-84747677D01*
X156242296Y-84728959D01*
X156269246Y-84712806D01*
X156297650Y-84699372D01*
X156327234Y-84688787D01*
X156357713Y-84681152D01*
X156388793Y-84676542D01*
X156420176Y-84675000D01*
X157604824Y-84675000D01*
X157636207Y-84676542D01*
X157636207Y-84676542D01*
G37*
D11*
X157012500Y-85750000D03*
D12*
X132750000Y-100700000D03*
X132750000Y-98800000D03*
X130750000Y-99750000D03*
D10*
G36*
X138786207Y-80826542D02*
G01*
X138817287Y-80831152D01*
X138847766Y-80838787D01*
X138877350Y-80849372D01*
X138905754Y-80862806D01*
X138932704Y-80878959D01*
X138957942Y-80897677D01*
X138981223Y-80918777D01*
X139002323Y-80942058D01*
X139021041Y-80967296D01*
X139037194Y-80994246D01*
X139050628Y-81022650D01*
X139061213Y-81052234D01*
X139068848Y-81082713D01*
X139073458Y-81113793D01*
X139075000Y-81145176D01*
X139075000Y-82329824D01*
X139073458Y-82361207D01*
X139068848Y-82392287D01*
X139061213Y-82422766D01*
X139050628Y-82452350D01*
X139037194Y-82480754D01*
X139021041Y-82507704D01*
X139002323Y-82532942D01*
X138981223Y-82556223D01*
X138957942Y-82577323D01*
X138932704Y-82596041D01*
X138905754Y-82612194D01*
X138877350Y-82625628D01*
X138847766Y-82636213D01*
X138817287Y-82643848D01*
X138786207Y-82648458D01*
X138754824Y-82650000D01*
X137245176Y-82650000D01*
X137213793Y-82648458D01*
X137182713Y-82643848D01*
X137152234Y-82636213D01*
X137122650Y-82625628D01*
X137094246Y-82612194D01*
X137067296Y-82596041D01*
X137042058Y-82577323D01*
X137018777Y-82556223D01*
X136997677Y-82532942D01*
X136978959Y-82507704D01*
X136962806Y-82480754D01*
X136949372Y-82452350D01*
X136938787Y-82422766D01*
X136931152Y-82392287D01*
X136926542Y-82361207D01*
X136925000Y-82329824D01*
X136925000Y-81145176D01*
X136926542Y-81113793D01*
X136931152Y-81082713D01*
X136938787Y-81052234D01*
X136949372Y-81022650D01*
X136962806Y-80994246D01*
X136978959Y-80967296D01*
X136997677Y-80942058D01*
X137018777Y-80918777D01*
X137042058Y-80897677D01*
X137067296Y-80878959D01*
X137094246Y-80862806D01*
X137122650Y-80849372D01*
X137152234Y-80838787D01*
X137182713Y-80831152D01*
X137213793Y-80826542D01*
X137245176Y-80825000D01*
X138754824Y-80825000D01*
X138786207Y-80826542D01*
X138786207Y-80826542D01*
G37*
D11*
X138000000Y-81737500D03*
D10*
G36*
X138786207Y-77851542D02*
G01*
X138817287Y-77856152D01*
X138847766Y-77863787D01*
X138877350Y-77874372D01*
X138905754Y-77887806D01*
X138932704Y-77903959D01*
X138957942Y-77922677D01*
X138981223Y-77943777D01*
X139002323Y-77967058D01*
X139021041Y-77992296D01*
X139037194Y-78019246D01*
X139050628Y-78047650D01*
X139061213Y-78077234D01*
X139068848Y-78107713D01*
X139073458Y-78138793D01*
X139075000Y-78170176D01*
X139075000Y-79354824D01*
X139073458Y-79386207D01*
X139068848Y-79417287D01*
X139061213Y-79447766D01*
X139050628Y-79477350D01*
X139037194Y-79505754D01*
X139021041Y-79532704D01*
X139002323Y-79557942D01*
X138981223Y-79581223D01*
X138957942Y-79602323D01*
X138932704Y-79621041D01*
X138905754Y-79637194D01*
X138877350Y-79650628D01*
X138847766Y-79661213D01*
X138817287Y-79668848D01*
X138786207Y-79673458D01*
X138754824Y-79675000D01*
X137245176Y-79675000D01*
X137213793Y-79673458D01*
X137182713Y-79668848D01*
X137152234Y-79661213D01*
X137122650Y-79650628D01*
X137094246Y-79637194D01*
X137067296Y-79621041D01*
X137042058Y-79602323D01*
X137018777Y-79581223D01*
X136997677Y-79557942D01*
X136978959Y-79532704D01*
X136962806Y-79505754D01*
X136949372Y-79477350D01*
X136938787Y-79447766D01*
X136931152Y-79417287D01*
X136926542Y-79386207D01*
X136925000Y-79354824D01*
X136925000Y-78170176D01*
X136926542Y-78138793D01*
X136931152Y-78107713D01*
X136938787Y-78077234D01*
X136949372Y-78047650D01*
X136962806Y-78019246D01*
X136978959Y-77992296D01*
X136997677Y-77967058D01*
X137018777Y-77943777D01*
X137042058Y-77922677D01*
X137067296Y-77903959D01*
X137094246Y-77887806D01*
X137122650Y-77874372D01*
X137152234Y-77863787D01*
X137182713Y-77856152D01*
X137213793Y-77851542D01*
X137245176Y-77850000D01*
X138754824Y-77850000D01*
X138786207Y-77851542D01*
X138786207Y-77851542D01*
G37*
D11*
X138000000Y-78762500D03*
D10*
G36*
X134456036Y-83376436D02*
G01*
X134484982Y-83380730D01*
X134513369Y-83387840D01*
X134540921Y-83397699D01*
X134567375Y-83410210D01*
X134592475Y-83425254D01*
X134615979Y-83442686D01*
X134637662Y-83462338D01*
X134657314Y-83484021D01*
X134674746Y-83507525D01*
X134689790Y-83532625D01*
X134702301Y-83559079D01*
X134712160Y-83586631D01*
X134719270Y-83615018D01*
X134723564Y-83643964D01*
X134725000Y-83673192D01*
X134725000Y-85551808D01*
X134723564Y-85581036D01*
X134719270Y-85609982D01*
X134712160Y-85638369D01*
X134702301Y-85665921D01*
X134689790Y-85692375D01*
X134674746Y-85717475D01*
X134657314Y-85740979D01*
X134637662Y-85762662D01*
X134615979Y-85782314D01*
X134592475Y-85799746D01*
X134567375Y-85814790D01*
X134540921Y-85827301D01*
X134513369Y-85837160D01*
X134484982Y-85844270D01*
X134456036Y-85848564D01*
X134426808Y-85850000D01*
X132073192Y-85850000D01*
X132043964Y-85848564D01*
X132015018Y-85844270D01*
X131986631Y-85837160D01*
X131959079Y-85827301D01*
X131932625Y-85814790D01*
X131907525Y-85799746D01*
X131884021Y-85782314D01*
X131862338Y-85762662D01*
X131842686Y-85740979D01*
X131825254Y-85717475D01*
X131810210Y-85692375D01*
X131797699Y-85665921D01*
X131787840Y-85638369D01*
X131780730Y-85609982D01*
X131776436Y-85581036D01*
X131775000Y-85551808D01*
X131775000Y-83673192D01*
X131776436Y-83643964D01*
X131780730Y-83615018D01*
X131787840Y-83586631D01*
X131797699Y-83559079D01*
X131810210Y-83532625D01*
X131825254Y-83507525D01*
X131842686Y-83484021D01*
X131862338Y-83462338D01*
X131884021Y-83442686D01*
X131907525Y-83425254D01*
X131932625Y-83410210D01*
X131959079Y-83397699D01*
X131986631Y-83387840D01*
X132015018Y-83380730D01*
X132043964Y-83376436D01*
X132073192Y-83375000D01*
X134426808Y-83375000D01*
X134456036Y-83376436D01*
X134456036Y-83376436D01*
G37*
D13*
X133250000Y-84612500D03*
D10*
G36*
X134456036Y-77151436D02*
G01*
X134484982Y-77155730D01*
X134513369Y-77162840D01*
X134540921Y-77172699D01*
X134567375Y-77185210D01*
X134592475Y-77200254D01*
X134615979Y-77217686D01*
X134637662Y-77237338D01*
X134657314Y-77259021D01*
X134674746Y-77282525D01*
X134689790Y-77307625D01*
X134702301Y-77334079D01*
X134712160Y-77361631D01*
X134719270Y-77390018D01*
X134723564Y-77418964D01*
X134725000Y-77448192D01*
X134725000Y-79326808D01*
X134723564Y-79356036D01*
X134719270Y-79384982D01*
X134712160Y-79413369D01*
X134702301Y-79440921D01*
X134689790Y-79467375D01*
X134674746Y-79492475D01*
X134657314Y-79515979D01*
X134637662Y-79537662D01*
X134615979Y-79557314D01*
X134592475Y-79574746D01*
X134567375Y-79589790D01*
X134540921Y-79602301D01*
X134513369Y-79612160D01*
X134484982Y-79619270D01*
X134456036Y-79623564D01*
X134426808Y-79625000D01*
X132073192Y-79625000D01*
X132043964Y-79623564D01*
X132015018Y-79619270D01*
X131986631Y-79612160D01*
X131959079Y-79602301D01*
X131932625Y-79589790D01*
X131907525Y-79574746D01*
X131884021Y-79557314D01*
X131862338Y-79537662D01*
X131842686Y-79515979D01*
X131825254Y-79492475D01*
X131810210Y-79467375D01*
X131797699Y-79440921D01*
X131787840Y-79413369D01*
X131780730Y-79384982D01*
X131776436Y-79356036D01*
X131775000Y-79326808D01*
X131775000Y-77448192D01*
X131776436Y-77418964D01*
X131780730Y-77390018D01*
X131787840Y-77361631D01*
X131797699Y-77334079D01*
X131810210Y-77307625D01*
X131825254Y-77282525D01*
X131842686Y-77259021D01*
X131862338Y-77237338D01*
X131884021Y-77217686D01*
X131907525Y-77200254D01*
X131932625Y-77185210D01*
X131959079Y-77172699D01*
X131986631Y-77162840D01*
X132015018Y-77155730D01*
X132043964Y-77151436D01*
X132073192Y-77150000D01*
X134426808Y-77150000D01*
X134456036Y-77151436D01*
X134456036Y-77151436D01*
G37*
D13*
X133250000Y-78387500D03*
D10*
G36*
X152036207Y-82326542D02*
G01*
X152067287Y-82331152D01*
X152097766Y-82338787D01*
X152127350Y-82349372D01*
X152155754Y-82362806D01*
X152182704Y-82378959D01*
X152207942Y-82397677D01*
X152231223Y-82418777D01*
X152252323Y-82442058D01*
X152271041Y-82467296D01*
X152287194Y-82494246D01*
X152300628Y-82522650D01*
X152311213Y-82552234D01*
X152318848Y-82582713D01*
X152323458Y-82613793D01*
X152325000Y-82645176D01*
X152325000Y-83829824D01*
X152323458Y-83861207D01*
X152318848Y-83892287D01*
X152311213Y-83922766D01*
X152300628Y-83952350D01*
X152287194Y-83980754D01*
X152271041Y-84007704D01*
X152252323Y-84032942D01*
X152231223Y-84056223D01*
X152207942Y-84077323D01*
X152182704Y-84096041D01*
X152155754Y-84112194D01*
X152127350Y-84125628D01*
X152097766Y-84136213D01*
X152067287Y-84143848D01*
X152036207Y-84148458D01*
X152004824Y-84150000D01*
X150495176Y-84150000D01*
X150463793Y-84148458D01*
X150432713Y-84143848D01*
X150402234Y-84136213D01*
X150372650Y-84125628D01*
X150344246Y-84112194D01*
X150317296Y-84096041D01*
X150292058Y-84077323D01*
X150268777Y-84056223D01*
X150247677Y-84032942D01*
X150228959Y-84007704D01*
X150212806Y-83980754D01*
X150199372Y-83952350D01*
X150188787Y-83922766D01*
X150181152Y-83892287D01*
X150176542Y-83861207D01*
X150175000Y-83829824D01*
X150175000Y-82645176D01*
X150176542Y-82613793D01*
X150181152Y-82582713D01*
X150188787Y-82552234D01*
X150199372Y-82522650D01*
X150212806Y-82494246D01*
X150228959Y-82467296D01*
X150247677Y-82442058D01*
X150268777Y-82418777D01*
X150292058Y-82397677D01*
X150317296Y-82378959D01*
X150344246Y-82362806D01*
X150372650Y-82349372D01*
X150402234Y-82338787D01*
X150432713Y-82331152D01*
X150463793Y-82326542D01*
X150495176Y-82325000D01*
X152004824Y-82325000D01*
X152036207Y-82326542D01*
X152036207Y-82326542D01*
G37*
D11*
X151250000Y-83237500D03*
D10*
G36*
X152036207Y-79351542D02*
G01*
X152067287Y-79356152D01*
X152097766Y-79363787D01*
X152127350Y-79374372D01*
X152155754Y-79387806D01*
X152182704Y-79403959D01*
X152207942Y-79422677D01*
X152231223Y-79443777D01*
X152252323Y-79467058D01*
X152271041Y-79492296D01*
X152287194Y-79519246D01*
X152300628Y-79547650D01*
X152311213Y-79577234D01*
X152318848Y-79607713D01*
X152323458Y-79638793D01*
X152325000Y-79670176D01*
X152325000Y-80854824D01*
X152323458Y-80886207D01*
X152318848Y-80917287D01*
X152311213Y-80947766D01*
X152300628Y-80977350D01*
X152287194Y-81005754D01*
X152271041Y-81032704D01*
X152252323Y-81057942D01*
X152231223Y-81081223D01*
X152207942Y-81102323D01*
X152182704Y-81121041D01*
X152155754Y-81137194D01*
X152127350Y-81150628D01*
X152097766Y-81161213D01*
X152067287Y-81168848D01*
X152036207Y-81173458D01*
X152004824Y-81175000D01*
X150495176Y-81175000D01*
X150463793Y-81173458D01*
X150432713Y-81168848D01*
X150402234Y-81161213D01*
X150372650Y-81150628D01*
X150344246Y-81137194D01*
X150317296Y-81121041D01*
X150292058Y-81102323D01*
X150268777Y-81081223D01*
X150247677Y-81057942D01*
X150228959Y-81032704D01*
X150212806Y-81005754D01*
X150199372Y-80977350D01*
X150188787Y-80947766D01*
X150181152Y-80917287D01*
X150176542Y-80886207D01*
X150175000Y-80854824D01*
X150175000Y-79670176D01*
X150176542Y-79638793D01*
X150181152Y-79607713D01*
X150188787Y-79577234D01*
X150199372Y-79547650D01*
X150212806Y-79519246D01*
X150228959Y-79492296D01*
X150247677Y-79467058D01*
X150268777Y-79443777D01*
X150292058Y-79422677D01*
X150317296Y-79403959D01*
X150344246Y-79387806D01*
X150372650Y-79374372D01*
X150402234Y-79363787D01*
X150432713Y-79356152D01*
X150463793Y-79351542D01*
X150495176Y-79350000D01*
X152004824Y-79350000D01*
X152036207Y-79351542D01*
X152036207Y-79351542D01*
G37*
D11*
X151250000Y-80262500D03*
D14*
X153760000Y-100740000D03*
X151220000Y-100740000D03*
X148680000Y-100740000D03*
X146140000Y-100740000D03*
X143600000Y-100740000D03*
X141060000Y-100740000D03*
X138520000Y-100740000D03*
X135980000Y-100740000D03*
X153760000Y-87950000D03*
X151220000Y-87950000D03*
X148680000Y-87950000D03*
X146140000Y-87950000D03*
X143600000Y-87950000D03*
X141060000Y-87950000D03*
X138520000Y-87950000D03*
X135980000Y-87950000D03*
D10*
G36*
X126886207Y-83426542D02*
G01*
X126917287Y-83431152D01*
X126947766Y-83438787D01*
X126977350Y-83449372D01*
X127005754Y-83462806D01*
X127032704Y-83478959D01*
X127057942Y-83497677D01*
X127081223Y-83518777D01*
X127102323Y-83542058D01*
X127121041Y-83567296D01*
X127137194Y-83594246D01*
X127150628Y-83622650D01*
X127161213Y-83652234D01*
X127168848Y-83682713D01*
X127173458Y-83713793D01*
X127175000Y-83745176D01*
X127175000Y-85254824D01*
X127173458Y-85286207D01*
X127168848Y-85317287D01*
X127161213Y-85347766D01*
X127150628Y-85377350D01*
X127137194Y-85405754D01*
X127121041Y-85432704D01*
X127102323Y-85457942D01*
X127081223Y-85481223D01*
X127057942Y-85502323D01*
X127032704Y-85521041D01*
X127005754Y-85537194D01*
X126977350Y-85550628D01*
X126947766Y-85561213D01*
X126917287Y-85568848D01*
X126886207Y-85573458D01*
X126854824Y-85575000D01*
X125670176Y-85575000D01*
X125638793Y-85573458D01*
X125607713Y-85568848D01*
X125577234Y-85561213D01*
X125547650Y-85550628D01*
X125519246Y-85537194D01*
X125492296Y-85521041D01*
X125467058Y-85502323D01*
X125443777Y-85481223D01*
X125422677Y-85457942D01*
X125403959Y-85432704D01*
X125387806Y-85405754D01*
X125374372Y-85377350D01*
X125363787Y-85347766D01*
X125356152Y-85317287D01*
X125351542Y-85286207D01*
X125350000Y-85254824D01*
X125350000Y-83745176D01*
X125351542Y-83713793D01*
X125356152Y-83682713D01*
X125363787Y-83652234D01*
X125374372Y-83622650D01*
X125387806Y-83594246D01*
X125403959Y-83567296D01*
X125422677Y-83542058D01*
X125443777Y-83518777D01*
X125467058Y-83497677D01*
X125492296Y-83478959D01*
X125519246Y-83462806D01*
X125547650Y-83449372D01*
X125577234Y-83438787D01*
X125607713Y-83431152D01*
X125638793Y-83426542D01*
X125670176Y-83425000D01*
X126854824Y-83425000D01*
X126886207Y-83426542D01*
X126886207Y-83426542D01*
G37*
D11*
X126262500Y-84500000D03*
D10*
G36*
X129861207Y-83426542D02*
G01*
X129892287Y-83431152D01*
X129922766Y-83438787D01*
X129952350Y-83449372D01*
X129980754Y-83462806D01*
X130007704Y-83478959D01*
X130032942Y-83497677D01*
X130056223Y-83518777D01*
X130077323Y-83542058D01*
X130096041Y-83567296D01*
X130112194Y-83594246D01*
X130125628Y-83622650D01*
X130136213Y-83652234D01*
X130143848Y-83682713D01*
X130148458Y-83713793D01*
X130150000Y-83745176D01*
X130150000Y-85254824D01*
X130148458Y-85286207D01*
X130143848Y-85317287D01*
X130136213Y-85347766D01*
X130125628Y-85377350D01*
X130112194Y-85405754D01*
X130096041Y-85432704D01*
X130077323Y-85457942D01*
X130056223Y-85481223D01*
X130032942Y-85502323D01*
X130007704Y-85521041D01*
X129980754Y-85537194D01*
X129952350Y-85550628D01*
X129922766Y-85561213D01*
X129892287Y-85568848D01*
X129861207Y-85573458D01*
X129829824Y-85575000D01*
X128645176Y-85575000D01*
X128613793Y-85573458D01*
X128582713Y-85568848D01*
X128552234Y-85561213D01*
X128522650Y-85550628D01*
X128494246Y-85537194D01*
X128467296Y-85521041D01*
X128442058Y-85502323D01*
X128418777Y-85481223D01*
X128397677Y-85457942D01*
X128378959Y-85432704D01*
X128362806Y-85405754D01*
X128349372Y-85377350D01*
X128338787Y-85347766D01*
X128331152Y-85317287D01*
X128326542Y-85286207D01*
X128325000Y-85254824D01*
X128325000Y-83745176D01*
X128326542Y-83713793D01*
X128331152Y-83682713D01*
X128338787Y-83652234D01*
X128349372Y-83622650D01*
X128362806Y-83594246D01*
X128378959Y-83567296D01*
X128397677Y-83542058D01*
X128418777Y-83518777D01*
X128442058Y-83497677D01*
X128467296Y-83478959D01*
X128494246Y-83462806D01*
X128522650Y-83449372D01*
X128552234Y-83438787D01*
X128582713Y-83431152D01*
X128613793Y-83426542D01*
X128645176Y-83425000D01*
X129829824Y-83425000D01*
X129861207Y-83426542D01*
X129861207Y-83426542D01*
G37*
D11*
X129237500Y-84500000D03*
D10*
G36*
X157786207Y-77851542D02*
G01*
X157817287Y-77856152D01*
X157847766Y-77863787D01*
X157877350Y-77874372D01*
X157905754Y-77887806D01*
X157932704Y-77903959D01*
X157957942Y-77922677D01*
X157981223Y-77943777D01*
X158002323Y-77967058D01*
X158021041Y-77992296D01*
X158037194Y-78019246D01*
X158050628Y-78047650D01*
X158061213Y-78077234D01*
X158068848Y-78107713D01*
X158073458Y-78138793D01*
X158075000Y-78170176D01*
X158075000Y-79354824D01*
X158073458Y-79386207D01*
X158068848Y-79417287D01*
X158061213Y-79447766D01*
X158050628Y-79477350D01*
X158037194Y-79505754D01*
X158021041Y-79532704D01*
X158002323Y-79557942D01*
X157981223Y-79581223D01*
X157957942Y-79602323D01*
X157932704Y-79621041D01*
X157905754Y-79637194D01*
X157877350Y-79650628D01*
X157847766Y-79661213D01*
X157817287Y-79668848D01*
X157786207Y-79673458D01*
X157754824Y-79675000D01*
X156245176Y-79675000D01*
X156213793Y-79673458D01*
X156182713Y-79668848D01*
X156152234Y-79661213D01*
X156122650Y-79650628D01*
X156094246Y-79637194D01*
X156067296Y-79621041D01*
X156042058Y-79602323D01*
X156018777Y-79581223D01*
X155997677Y-79557942D01*
X155978959Y-79532704D01*
X155962806Y-79505754D01*
X155949372Y-79477350D01*
X155938787Y-79447766D01*
X155931152Y-79417287D01*
X155926542Y-79386207D01*
X155925000Y-79354824D01*
X155925000Y-78170176D01*
X155926542Y-78138793D01*
X155931152Y-78107713D01*
X155938787Y-78077234D01*
X155949372Y-78047650D01*
X155962806Y-78019246D01*
X155978959Y-77992296D01*
X155997677Y-77967058D01*
X156018777Y-77943777D01*
X156042058Y-77922677D01*
X156067296Y-77903959D01*
X156094246Y-77887806D01*
X156122650Y-77874372D01*
X156152234Y-77863787D01*
X156182713Y-77856152D01*
X156213793Y-77851542D01*
X156245176Y-77850000D01*
X157754824Y-77850000D01*
X157786207Y-77851542D01*
X157786207Y-77851542D01*
G37*
D11*
X157000000Y-78762500D03*
D10*
G36*
X157786207Y-80826542D02*
G01*
X157817287Y-80831152D01*
X157847766Y-80838787D01*
X157877350Y-80849372D01*
X157905754Y-80862806D01*
X157932704Y-80878959D01*
X157957942Y-80897677D01*
X157981223Y-80918777D01*
X158002323Y-80942058D01*
X158021041Y-80967296D01*
X158037194Y-80994246D01*
X158050628Y-81022650D01*
X158061213Y-81052234D01*
X158068848Y-81082713D01*
X158073458Y-81113793D01*
X158075000Y-81145176D01*
X158075000Y-82329824D01*
X158073458Y-82361207D01*
X158068848Y-82392287D01*
X158061213Y-82422766D01*
X158050628Y-82452350D01*
X158037194Y-82480754D01*
X158021041Y-82507704D01*
X158002323Y-82532942D01*
X157981223Y-82556223D01*
X157957942Y-82577323D01*
X157932704Y-82596041D01*
X157905754Y-82612194D01*
X157877350Y-82625628D01*
X157847766Y-82636213D01*
X157817287Y-82643848D01*
X157786207Y-82648458D01*
X157754824Y-82650000D01*
X156245176Y-82650000D01*
X156213793Y-82648458D01*
X156182713Y-82643848D01*
X156152234Y-82636213D01*
X156122650Y-82625628D01*
X156094246Y-82612194D01*
X156067296Y-82596041D01*
X156042058Y-82577323D01*
X156018777Y-82556223D01*
X155997677Y-82532942D01*
X155978959Y-82507704D01*
X155962806Y-82480754D01*
X155949372Y-82452350D01*
X155938787Y-82422766D01*
X155931152Y-82392287D01*
X155926542Y-82361207D01*
X155925000Y-82329824D01*
X155925000Y-81145176D01*
X155926542Y-81113793D01*
X155931152Y-81082713D01*
X155938787Y-81052234D01*
X155949372Y-81022650D01*
X155962806Y-80994246D01*
X155978959Y-80967296D01*
X155997677Y-80942058D01*
X156018777Y-80918777D01*
X156042058Y-80897677D01*
X156067296Y-80878959D01*
X156094246Y-80862806D01*
X156122650Y-80849372D01*
X156152234Y-80838787D01*
X156182713Y-80831152D01*
X156213793Y-80826542D01*
X156245176Y-80825000D01*
X157754824Y-80825000D01*
X157786207Y-80826542D01*
X157786207Y-80826542D01*
G37*
D11*
X157000000Y-81737500D03*
D15*
X166000000Y-78650000D03*
X165050000Y-78650000D03*
X166950000Y-78650000D03*
X166950000Y-80850000D03*
X166000000Y-80850000D03*
X165050000Y-80850000D03*
D10*
G36*
X151724504Y-56346204D02*
G01*
X151748773Y-56349804D01*
X151772571Y-56355765D01*
X151795671Y-56364030D01*
X151817849Y-56374520D01*
X151838893Y-56387133D01*
X151858598Y-56401747D01*
X151876777Y-56418223D01*
X151893253Y-56436402D01*
X151907867Y-56456107D01*
X151920480Y-56477151D01*
X151930970Y-56499329D01*
X151939235Y-56522429D01*
X151945196Y-56546227D01*
X151948796Y-56570496D01*
X151950000Y-56595000D01*
X151950000Y-57095000D01*
X151948796Y-57119504D01*
X151945196Y-57143773D01*
X151939235Y-57167571D01*
X151930970Y-57190671D01*
X151920480Y-57212849D01*
X151907867Y-57233893D01*
X151893253Y-57253598D01*
X151876777Y-57271777D01*
X151858598Y-57288253D01*
X151838893Y-57302867D01*
X151817849Y-57315480D01*
X151795671Y-57325970D01*
X151772571Y-57334235D01*
X151748773Y-57340196D01*
X151724504Y-57343796D01*
X151700000Y-57345000D01*
X149850000Y-57345000D01*
X149825496Y-57343796D01*
X149801227Y-57340196D01*
X149777429Y-57334235D01*
X149754329Y-57325970D01*
X149732151Y-57315480D01*
X149711107Y-57302867D01*
X149691402Y-57288253D01*
X149673223Y-57271777D01*
X149656747Y-57253598D01*
X149642133Y-57233893D01*
X149629520Y-57212849D01*
X149619030Y-57190671D01*
X149610765Y-57167571D01*
X149604804Y-57143773D01*
X149601204Y-57119504D01*
X149600000Y-57095000D01*
X149600000Y-56595000D01*
X149601204Y-56570496D01*
X149604804Y-56546227D01*
X149610765Y-56522429D01*
X149619030Y-56499329D01*
X149629520Y-56477151D01*
X149642133Y-56456107D01*
X149656747Y-56436402D01*
X149673223Y-56418223D01*
X149691402Y-56401747D01*
X149711107Y-56387133D01*
X149732151Y-56374520D01*
X149754329Y-56364030D01*
X149777429Y-56355765D01*
X149801227Y-56349804D01*
X149825496Y-56346204D01*
X149850000Y-56345000D01*
X151700000Y-56345000D01*
X151724504Y-56346204D01*
X151724504Y-56346204D01*
G37*
D16*
X150775000Y-56845000D03*
D10*
G36*
X151724504Y-57616204D02*
G01*
X151748773Y-57619804D01*
X151772571Y-57625765D01*
X151795671Y-57634030D01*
X151817849Y-57644520D01*
X151838893Y-57657133D01*
X151858598Y-57671747D01*
X151876777Y-57688223D01*
X151893253Y-57706402D01*
X151907867Y-57726107D01*
X151920480Y-57747151D01*
X151930970Y-57769329D01*
X151939235Y-57792429D01*
X151945196Y-57816227D01*
X151948796Y-57840496D01*
X151950000Y-57865000D01*
X151950000Y-58365000D01*
X151948796Y-58389504D01*
X151945196Y-58413773D01*
X151939235Y-58437571D01*
X151930970Y-58460671D01*
X151920480Y-58482849D01*
X151907867Y-58503893D01*
X151893253Y-58523598D01*
X151876777Y-58541777D01*
X151858598Y-58558253D01*
X151838893Y-58572867D01*
X151817849Y-58585480D01*
X151795671Y-58595970D01*
X151772571Y-58604235D01*
X151748773Y-58610196D01*
X151724504Y-58613796D01*
X151700000Y-58615000D01*
X149850000Y-58615000D01*
X149825496Y-58613796D01*
X149801227Y-58610196D01*
X149777429Y-58604235D01*
X149754329Y-58595970D01*
X149732151Y-58585480D01*
X149711107Y-58572867D01*
X149691402Y-58558253D01*
X149673223Y-58541777D01*
X149656747Y-58523598D01*
X149642133Y-58503893D01*
X149629520Y-58482849D01*
X149619030Y-58460671D01*
X149610765Y-58437571D01*
X149604804Y-58413773D01*
X149601204Y-58389504D01*
X149600000Y-58365000D01*
X149600000Y-57865000D01*
X149601204Y-57840496D01*
X149604804Y-57816227D01*
X149610765Y-57792429D01*
X149619030Y-57769329D01*
X149629520Y-57747151D01*
X149642133Y-57726107D01*
X149656747Y-57706402D01*
X149673223Y-57688223D01*
X149691402Y-57671747D01*
X149711107Y-57657133D01*
X149732151Y-57644520D01*
X149754329Y-57634030D01*
X149777429Y-57625765D01*
X149801227Y-57619804D01*
X149825496Y-57616204D01*
X149850000Y-57615000D01*
X151700000Y-57615000D01*
X151724504Y-57616204D01*
X151724504Y-57616204D01*
G37*
D16*
X150775000Y-58115000D03*
D10*
G36*
X151724504Y-58886204D02*
G01*
X151748773Y-58889804D01*
X151772571Y-58895765D01*
X151795671Y-58904030D01*
X151817849Y-58914520D01*
X151838893Y-58927133D01*
X151858598Y-58941747D01*
X151876777Y-58958223D01*
X151893253Y-58976402D01*
X151907867Y-58996107D01*
X151920480Y-59017151D01*
X151930970Y-59039329D01*
X151939235Y-59062429D01*
X151945196Y-59086227D01*
X151948796Y-59110496D01*
X151950000Y-59135000D01*
X151950000Y-59635000D01*
X151948796Y-59659504D01*
X151945196Y-59683773D01*
X151939235Y-59707571D01*
X151930970Y-59730671D01*
X151920480Y-59752849D01*
X151907867Y-59773893D01*
X151893253Y-59793598D01*
X151876777Y-59811777D01*
X151858598Y-59828253D01*
X151838893Y-59842867D01*
X151817849Y-59855480D01*
X151795671Y-59865970D01*
X151772571Y-59874235D01*
X151748773Y-59880196D01*
X151724504Y-59883796D01*
X151700000Y-59885000D01*
X149850000Y-59885000D01*
X149825496Y-59883796D01*
X149801227Y-59880196D01*
X149777429Y-59874235D01*
X149754329Y-59865970D01*
X149732151Y-59855480D01*
X149711107Y-59842867D01*
X149691402Y-59828253D01*
X149673223Y-59811777D01*
X149656747Y-59793598D01*
X149642133Y-59773893D01*
X149629520Y-59752849D01*
X149619030Y-59730671D01*
X149610765Y-59707571D01*
X149604804Y-59683773D01*
X149601204Y-59659504D01*
X149600000Y-59635000D01*
X149600000Y-59135000D01*
X149601204Y-59110496D01*
X149604804Y-59086227D01*
X149610765Y-59062429D01*
X149619030Y-59039329D01*
X149629520Y-59017151D01*
X149642133Y-58996107D01*
X149656747Y-58976402D01*
X149673223Y-58958223D01*
X149691402Y-58941747D01*
X149711107Y-58927133D01*
X149732151Y-58914520D01*
X149754329Y-58904030D01*
X149777429Y-58895765D01*
X149801227Y-58889804D01*
X149825496Y-58886204D01*
X149850000Y-58885000D01*
X151700000Y-58885000D01*
X151724504Y-58886204D01*
X151724504Y-58886204D01*
G37*
D16*
X150775000Y-59385000D03*
D10*
G36*
X151724504Y-60156204D02*
G01*
X151748773Y-60159804D01*
X151772571Y-60165765D01*
X151795671Y-60174030D01*
X151817849Y-60184520D01*
X151838893Y-60197133D01*
X151858598Y-60211747D01*
X151876777Y-60228223D01*
X151893253Y-60246402D01*
X151907867Y-60266107D01*
X151920480Y-60287151D01*
X151930970Y-60309329D01*
X151939235Y-60332429D01*
X151945196Y-60356227D01*
X151948796Y-60380496D01*
X151950000Y-60405000D01*
X151950000Y-60905000D01*
X151948796Y-60929504D01*
X151945196Y-60953773D01*
X151939235Y-60977571D01*
X151930970Y-61000671D01*
X151920480Y-61022849D01*
X151907867Y-61043893D01*
X151893253Y-61063598D01*
X151876777Y-61081777D01*
X151858598Y-61098253D01*
X151838893Y-61112867D01*
X151817849Y-61125480D01*
X151795671Y-61135970D01*
X151772571Y-61144235D01*
X151748773Y-61150196D01*
X151724504Y-61153796D01*
X151700000Y-61155000D01*
X149850000Y-61155000D01*
X149825496Y-61153796D01*
X149801227Y-61150196D01*
X149777429Y-61144235D01*
X149754329Y-61135970D01*
X149732151Y-61125480D01*
X149711107Y-61112867D01*
X149691402Y-61098253D01*
X149673223Y-61081777D01*
X149656747Y-61063598D01*
X149642133Y-61043893D01*
X149629520Y-61022849D01*
X149619030Y-61000671D01*
X149610765Y-60977571D01*
X149604804Y-60953773D01*
X149601204Y-60929504D01*
X149600000Y-60905000D01*
X149600000Y-60405000D01*
X149601204Y-60380496D01*
X149604804Y-60356227D01*
X149610765Y-60332429D01*
X149619030Y-60309329D01*
X149629520Y-60287151D01*
X149642133Y-60266107D01*
X149656747Y-60246402D01*
X149673223Y-60228223D01*
X149691402Y-60211747D01*
X149711107Y-60197133D01*
X149732151Y-60184520D01*
X149754329Y-60174030D01*
X149777429Y-60165765D01*
X149801227Y-60159804D01*
X149825496Y-60156204D01*
X149850000Y-60155000D01*
X151700000Y-60155000D01*
X151724504Y-60156204D01*
X151724504Y-60156204D01*
G37*
D16*
X150775000Y-60655000D03*
D10*
G36*
X156674504Y-60156204D02*
G01*
X156698773Y-60159804D01*
X156722571Y-60165765D01*
X156745671Y-60174030D01*
X156767849Y-60184520D01*
X156788893Y-60197133D01*
X156808598Y-60211747D01*
X156826777Y-60228223D01*
X156843253Y-60246402D01*
X156857867Y-60266107D01*
X156870480Y-60287151D01*
X156880970Y-60309329D01*
X156889235Y-60332429D01*
X156895196Y-60356227D01*
X156898796Y-60380496D01*
X156900000Y-60405000D01*
X156900000Y-60905000D01*
X156898796Y-60929504D01*
X156895196Y-60953773D01*
X156889235Y-60977571D01*
X156880970Y-61000671D01*
X156870480Y-61022849D01*
X156857867Y-61043893D01*
X156843253Y-61063598D01*
X156826777Y-61081777D01*
X156808598Y-61098253D01*
X156788893Y-61112867D01*
X156767849Y-61125480D01*
X156745671Y-61135970D01*
X156722571Y-61144235D01*
X156698773Y-61150196D01*
X156674504Y-61153796D01*
X156650000Y-61155000D01*
X154800000Y-61155000D01*
X154775496Y-61153796D01*
X154751227Y-61150196D01*
X154727429Y-61144235D01*
X154704329Y-61135970D01*
X154682151Y-61125480D01*
X154661107Y-61112867D01*
X154641402Y-61098253D01*
X154623223Y-61081777D01*
X154606747Y-61063598D01*
X154592133Y-61043893D01*
X154579520Y-61022849D01*
X154569030Y-61000671D01*
X154560765Y-60977571D01*
X154554804Y-60953773D01*
X154551204Y-60929504D01*
X154550000Y-60905000D01*
X154550000Y-60405000D01*
X154551204Y-60380496D01*
X154554804Y-60356227D01*
X154560765Y-60332429D01*
X154569030Y-60309329D01*
X154579520Y-60287151D01*
X154592133Y-60266107D01*
X154606747Y-60246402D01*
X154623223Y-60228223D01*
X154641402Y-60211747D01*
X154661107Y-60197133D01*
X154682151Y-60184520D01*
X154704329Y-60174030D01*
X154727429Y-60165765D01*
X154751227Y-60159804D01*
X154775496Y-60156204D01*
X154800000Y-60155000D01*
X156650000Y-60155000D01*
X156674504Y-60156204D01*
X156674504Y-60156204D01*
G37*
D16*
X155725000Y-60655000D03*
D10*
G36*
X156674504Y-58886204D02*
G01*
X156698773Y-58889804D01*
X156722571Y-58895765D01*
X156745671Y-58904030D01*
X156767849Y-58914520D01*
X156788893Y-58927133D01*
X156808598Y-58941747D01*
X156826777Y-58958223D01*
X156843253Y-58976402D01*
X156857867Y-58996107D01*
X156870480Y-59017151D01*
X156880970Y-59039329D01*
X156889235Y-59062429D01*
X156895196Y-59086227D01*
X156898796Y-59110496D01*
X156900000Y-59135000D01*
X156900000Y-59635000D01*
X156898796Y-59659504D01*
X156895196Y-59683773D01*
X156889235Y-59707571D01*
X156880970Y-59730671D01*
X156870480Y-59752849D01*
X156857867Y-59773893D01*
X156843253Y-59793598D01*
X156826777Y-59811777D01*
X156808598Y-59828253D01*
X156788893Y-59842867D01*
X156767849Y-59855480D01*
X156745671Y-59865970D01*
X156722571Y-59874235D01*
X156698773Y-59880196D01*
X156674504Y-59883796D01*
X156650000Y-59885000D01*
X154800000Y-59885000D01*
X154775496Y-59883796D01*
X154751227Y-59880196D01*
X154727429Y-59874235D01*
X154704329Y-59865970D01*
X154682151Y-59855480D01*
X154661107Y-59842867D01*
X154641402Y-59828253D01*
X154623223Y-59811777D01*
X154606747Y-59793598D01*
X154592133Y-59773893D01*
X154579520Y-59752849D01*
X154569030Y-59730671D01*
X154560765Y-59707571D01*
X154554804Y-59683773D01*
X154551204Y-59659504D01*
X154550000Y-59635000D01*
X154550000Y-59135000D01*
X154551204Y-59110496D01*
X154554804Y-59086227D01*
X154560765Y-59062429D01*
X154569030Y-59039329D01*
X154579520Y-59017151D01*
X154592133Y-58996107D01*
X154606747Y-58976402D01*
X154623223Y-58958223D01*
X154641402Y-58941747D01*
X154661107Y-58927133D01*
X154682151Y-58914520D01*
X154704329Y-58904030D01*
X154727429Y-58895765D01*
X154751227Y-58889804D01*
X154775496Y-58886204D01*
X154800000Y-58885000D01*
X156650000Y-58885000D01*
X156674504Y-58886204D01*
X156674504Y-58886204D01*
G37*
D16*
X155725000Y-59385000D03*
D10*
G36*
X156674504Y-57616204D02*
G01*
X156698773Y-57619804D01*
X156722571Y-57625765D01*
X156745671Y-57634030D01*
X156767849Y-57644520D01*
X156788893Y-57657133D01*
X156808598Y-57671747D01*
X156826777Y-57688223D01*
X156843253Y-57706402D01*
X156857867Y-57726107D01*
X156870480Y-57747151D01*
X156880970Y-57769329D01*
X156889235Y-57792429D01*
X156895196Y-57816227D01*
X156898796Y-57840496D01*
X156900000Y-57865000D01*
X156900000Y-58365000D01*
X156898796Y-58389504D01*
X156895196Y-58413773D01*
X156889235Y-58437571D01*
X156880970Y-58460671D01*
X156870480Y-58482849D01*
X156857867Y-58503893D01*
X156843253Y-58523598D01*
X156826777Y-58541777D01*
X156808598Y-58558253D01*
X156788893Y-58572867D01*
X156767849Y-58585480D01*
X156745671Y-58595970D01*
X156722571Y-58604235D01*
X156698773Y-58610196D01*
X156674504Y-58613796D01*
X156650000Y-58615000D01*
X154800000Y-58615000D01*
X154775496Y-58613796D01*
X154751227Y-58610196D01*
X154727429Y-58604235D01*
X154704329Y-58595970D01*
X154682151Y-58585480D01*
X154661107Y-58572867D01*
X154641402Y-58558253D01*
X154623223Y-58541777D01*
X154606747Y-58523598D01*
X154592133Y-58503893D01*
X154579520Y-58482849D01*
X154569030Y-58460671D01*
X154560765Y-58437571D01*
X154554804Y-58413773D01*
X154551204Y-58389504D01*
X154550000Y-58365000D01*
X154550000Y-57865000D01*
X154551204Y-57840496D01*
X154554804Y-57816227D01*
X154560765Y-57792429D01*
X154569030Y-57769329D01*
X154579520Y-57747151D01*
X154592133Y-57726107D01*
X154606747Y-57706402D01*
X154623223Y-57688223D01*
X154641402Y-57671747D01*
X154661107Y-57657133D01*
X154682151Y-57644520D01*
X154704329Y-57634030D01*
X154727429Y-57625765D01*
X154751227Y-57619804D01*
X154775496Y-57616204D01*
X154800000Y-57615000D01*
X156650000Y-57615000D01*
X156674504Y-57616204D01*
X156674504Y-57616204D01*
G37*
D16*
X155725000Y-58115000D03*
D10*
G36*
X156674504Y-56346204D02*
G01*
X156698773Y-56349804D01*
X156722571Y-56355765D01*
X156745671Y-56364030D01*
X156767849Y-56374520D01*
X156788893Y-56387133D01*
X156808598Y-56401747D01*
X156826777Y-56418223D01*
X156843253Y-56436402D01*
X156857867Y-56456107D01*
X156870480Y-56477151D01*
X156880970Y-56499329D01*
X156889235Y-56522429D01*
X156895196Y-56546227D01*
X156898796Y-56570496D01*
X156900000Y-56595000D01*
X156900000Y-57095000D01*
X156898796Y-57119504D01*
X156895196Y-57143773D01*
X156889235Y-57167571D01*
X156880970Y-57190671D01*
X156870480Y-57212849D01*
X156857867Y-57233893D01*
X156843253Y-57253598D01*
X156826777Y-57271777D01*
X156808598Y-57288253D01*
X156788893Y-57302867D01*
X156767849Y-57315480D01*
X156745671Y-57325970D01*
X156722571Y-57334235D01*
X156698773Y-57340196D01*
X156674504Y-57343796D01*
X156650000Y-57345000D01*
X154800000Y-57345000D01*
X154775496Y-57343796D01*
X154751227Y-57340196D01*
X154727429Y-57334235D01*
X154704329Y-57325970D01*
X154682151Y-57315480D01*
X154661107Y-57302867D01*
X154641402Y-57288253D01*
X154623223Y-57271777D01*
X154606747Y-57253598D01*
X154592133Y-57233893D01*
X154579520Y-57212849D01*
X154569030Y-57190671D01*
X154560765Y-57167571D01*
X154554804Y-57143773D01*
X154551204Y-57119504D01*
X154550000Y-57095000D01*
X154550000Y-56595000D01*
X154551204Y-56570496D01*
X154554804Y-56546227D01*
X154560765Y-56522429D01*
X154569030Y-56499329D01*
X154579520Y-56477151D01*
X154592133Y-56456107D01*
X154606747Y-56436402D01*
X154623223Y-56418223D01*
X154641402Y-56401747D01*
X154661107Y-56387133D01*
X154682151Y-56374520D01*
X154704329Y-56364030D01*
X154727429Y-56355765D01*
X154751227Y-56349804D01*
X154775496Y-56346204D01*
X154800000Y-56345000D01*
X156650000Y-56345000D01*
X156674504Y-56346204D01*
X156674504Y-56346204D01*
G37*
D16*
X155725000Y-56845000D03*
D10*
G36*
X159273707Y-53766542D02*
G01*
X159304787Y-53771152D01*
X159335266Y-53778787D01*
X159364850Y-53789372D01*
X159393254Y-53802806D01*
X159420204Y-53818959D01*
X159445442Y-53837677D01*
X159468723Y-53858777D01*
X159489823Y-53882058D01*
X159508541Y-53907296D01*
X159524694Y-53934246D01*
X159538128Y-53962650D01*
X159548713Y-53992234D01*
X159556348Y-54022713D01*
X159560958Y-54053793D01*
X159562500Y-54085176D01*
X159562500Y-55594824D01*
X159560958Y-55626207D01*
X159556348Y-55657287D01*
X159548713Y-55687766D01*
X159538128Y-55717350D01*
X159524694Y-55745754D01*
X159508541Y-55772704D01*
X159489823Y-55797942D01*
X159468723Y-55821223D01*
X159445442Y-55842323D01*
X159420204Y-55861041D01*
X159393254Y-55877194D01*
X159364850Y-55890628D01*
X159335266Y-55901213D01*
X159304787Y-55908848D01*
X159273707Y-55913458D01*
X159242324Y-55915000D01*
X158057676Y-55915000D01*
X158026293Y-55913458D01*
X157995213Y-55908848D01*
X157964734Y-55901213D01*
X157935150Y-55890628D01*
X157906746Y-55877194D01*
X157879796Y-55861041D01*
X157854558Y-55842323D01*
X157831277Y-55821223D01*
X157810177Y-55797942D01*
X157791459Y-55772704D01*
X157775306Y-55745754D01*
X157761872Y-55717350D01*
X157751287Y-55687766D01*
X157743652Y-55657287D01*
X157739042Y-55626207D01*
X157737500Y-55594824D01*
X157737500Y-54085176D01*
X157739042Y-54053793D01*
X157743652Y-54022713D01*
X157751287Y-53992234D01*
X157761872Y-53962650D01*
X157775306Y-53934246D01*
X157791459Y-53907296D01*
X157810177Y-53882058D01*
X157831277Y-53858777D01*
X157854558Y-53837677D01*
X157879796Y-53818959D01*
X157906746Y-53802806D01*
X157935150Y-53789372D01*
X157964734Y-53778787D01*
X157995213Y-53771152D01*
X158026293Y-53766542D01*
X158057676Y-53765000D01*
X159242324Y-53765000D01*
X159273707Y-53766542D01*
X159273707Y-53766542D01*
G37*
D11*
X158650000Y-54840000D03*
D10*
G36*
X156298707Y-53766542D02*
G01*
X156329787Y-53771152D01*
X156360266Y-53778787D01*
X156389850Y-53789372D01*
X156418254Y-53802806D01*
X156445204Y-53818959D01*
X156470442Y-53837677D01*
X156493723Y-53858777D01*
X156514823Y-53882058D01*
X156533541Y-53907296D01*
X156549694Y-53934246D01*
X156563128Y-53962650D01*
X156573713Y-53992234D01*
X156581348Y-54022713D01*
X156585958Y-54053793D01*
X156587500Y-54085176D01*
X156587500Y-55594824D01*
X156585958Y-55626207D01*
X156581348Y-55657287D01*
X156573713Y-55687766D01*
X156563128Y-55717350D01*
X156549694Y-55745754D01*
X156533541Y-55772704D01*
X156514823Y-55797942D01*
X156493723Y-55821223D01*
X156470442Y-55842323D01*
X156445204Y-55861041D01*
X156418254Y-55877194D01*
X156389850Y-55890628D01*
X156360266Y-55901213D01*
X156329787Y-55908848D01*
X156298707Y-55913458D01*
X156267324Y-55915000D01*
X155082676Y-55915000D01*
X155051293Y-55913458D01*
X155020213Y-55908848D01*
X154989734Y-55901213D01*
X154960150Y-55890628D01*
X154931746Y-55877194D01*
X154904796Y-55861041D01*
X154879558Y-55842323D01*
X154856277Y-55821223D01*
X154835177Y-55797942D01*
X154816459Y-55772704D01*
X154800306Y-55745754D01*
X154786872Y-55717350D01*
X154776287Y-55687766D01*
X154768652Y-55657287D01*
X154764042Y-55626207D01*
X154762500Y-55594824D01*
X154762500Y-54085176D01*
X154764042Y-54053793D01*
X154768652Y-54022713D01*
X154776287Y-53992234D01*
X154786872Y-53962650D01*
X154800306Y-53934246D01*
X154816459Y-53907296D01*
X154835177Y-53882058D01*
X154856277Y-53858777D01*
X154879558Y-53837677D01*
X154904796Y-53818959D01*
X154931746Y-53802806D01*
X154960150Y-53789372D01*
X154989734Y-53778787D01*
X155020213Y-53771152D01*
X155051293Y-53766542D01*
X155082676Y-53765000D01*
X156267324Y-53765000D01*
X156298707Y-53766542D01*
X156298707Y-53766542D01*
G37*
D11*
X155675000Y-54840000D03*
D17*
X126550000Y-76780000D03*
X126550000Y-72220000D03*
D18*
X120250000Y-74500000D03*
D10*
G36*
X144080117Y-79051414D02*
G01*
X144108625Y-79055643D01*
X144136580Y-79062645D01*
X144163714Y-79072354D01*
X144189767Y-79084676D01*
X144214486Y-79099492D01*
X144237633Y-79116659D01*
X144258987Y-79136013D01*
X144278341Y-79157367D01*
X144295508Y-79180514D01*
X144310324Y-79205233D01*
X144322646Y-79231286D01*
X144332355Y-79258420D01*
X144339357Y-79286375D01*
X144343586Y-79314883D01*
X144345000Y-79343667D01*
X144345000Y-82156333D01*
X144343586Y-82185117D01*
X144339357Y-82213625D01*
X144332355Y-82241580D01*
X144322646Y-82268714D01*
X144310324Y-82294767D01*
X144295508Y-82319486D01*
X144278341Y-82342633D01*
X144258987Y-82363987D01*
X144237633Y-82383341D01*
X144214486Y-82400508D01*
X144189767Y-82415324D01*
X144163714Y-82427646D01*
X144136580Y-82437355D01*
X144108625Y-82444357D01*
X144080117Y-82448586D01*
X144051333Y-82450000D01*
X141948667Y-82450000D01*
X141919883Y-82448586D01*
X141891375Y-82444357D01*
X141863420Y-82437355D01*
X141836286Y-82427646D01*
X141810233Y-82415324D01*
X141785514Y-82400508D01*
X141762367Y-82383341D01*
X141741013Y-82363987D01*
X141721659Y-82342633D01*
X141704492Y-82319486D01*
X141689676Y-82294767D01*
X141677354Y-82268714D01*
X141667645Y-82241580D01*
X141660643Y-82213625D01*
X141656414Y-82185117D01*
X141655000Y-82156333D01*
X141655000Y-79343667D01*
X141656414Y-79314883D01*
X141660643Y-79286375D01*
X141667645Y-79258420D01*
X141677354Y-79231286D01*
X141689676Y-79205233D01*
X141704492Y-79180514D01*
X141721659Y-79157367D01*
X141741013Y-79136013D01*
X141762367Y-79116659D01*
X141785514Y-79099492D01*
X141810233Y-79084676D01*
X141836286Y-79072354D01*
X141863420Y-79062645D01*
X141891375Y-79055643D01*
X141919883Y-79051414D01*
X141948667Y-79050000D01*
X144051333Y-79050000D01*
X144080117Y-79051414D01*
X144080117Y-79051414D01*
G37*
D19*
X143000000Y-80750000D03*
D10*
G36*
X146424504Y-82156204D02*
G01*
X146448773Y-82159804D01*
X146472571Y-82165765D01*
X146495671Y-82174030D01*
X146517849Y-82184520D01*
X146538893Y-82197133D01*
X146558598Y-82211747D01*
X146576777Y-82228223D01*
X146593253Y-82246402D01*
X146607867Y-82266107D01*
X146620480Y-82287151D01*
X146630970Y-82309329D01*
X146639235Y-82332429D01*
X146645196Y-82356227D01*
X146648796Y-82380496D01*
X146650000Y-82405000D01*
X146650000Y-82905000D01*
X146648796Y-82929504D01*
X146645196Y-82953773D01*
X146639235Y-82977571D01*
X146630970Y-83000671D01*
X146620480Y-83022849D01*
X146607867Y-83043893D01*
X146593253Y-83063598D01*
X146576777Y-83081777D01*
X146558598Y-83098253D01*
X146538893Y-83112867D01*
X146517849Y-83125480D01*
X146495671Y-83135970D01*
X146472571Y-83144235D01*
X146448773Y-83150196D01*
X146424504Y-83153796D01*
X146400000Y-83155000D01*
X144550000Y-83155000D01*
X144525496Y-83153796D01*
X144501227Y-83150196D01*
X144477429Y-83144235D01*
X144454329Y-83135970D01*
X144432151Y-83125480D01*
X144411107Y-83112867D01*
X144391402Y-83098253D01*
X144373223Y-83081777D01*
X144356747Y-83063598D01*
X144342133Y-83043893D01*
X144329520Y-83022849D01*
X144319030Y-83000671D01*
X144310765Y-82977571D01*
X144304804Y-82953773D01*
X144301204Y-82929504D01*
X144300000Y-82905000D01*
X144300000Y-82405000D01*
X144301204Y-82380496D01*
X144304804Y-82356227D01*
X144310765Y-82332429D01*
X144319030Y-82309329D01*
X144329520Y-82287151D01*
X144342133Y-82266107D01*
X144356747Y-82246402D01*
X144373223Y-82228223D01*
X144391402Y-82211747D01*
X144411107Y-82197133D01*
X144432151Y-82184520D01*
X144454329Y-82174030D01*
X144477429Y-82165765D01*
X144501227Y-82159804D01*
X144525496Y-82156204D01*
X144550000Y-82155000D01*
X146400000Y-82155000D01*
X146424504Y-82156204D01*
X146424504Y-82156204D01*
G37*
D16*
X145475000Y-82655000D03*
D10*
G36*
X146424504Y-80886204D02*
G01*
X146448773Y-80889804D01*
X146472571Y-80895765D01*
X146495671Y-80904030D01*
X146517849Y-80914520D01*
X146538893Y-80927133D01*
X146558598Y-80941747D01*
X146576777Y-80958223D01*
X146593253Y-80976402D01*
X146607867Y-80996107D01*
X146620480Y-81017151D01*
X146630970Y-81039329D01*
X146639235Y-81062429D01*
X146645196Y-81086227D01*
X146648796Y-81110496D01*
X146650000Y-81135000D01*
X146650000Y-81635000D01*
X146648796Y-81659504D01*
X146645196Y-81683773D01*
X146639235Y-81707571D01*
X146630970Y-81730671D01*
X146620480Y-81752849D01*
X146607867Y-81773893D01*
X146593253Y-81793598D01*
X146576777Y-81811777D01*
X146558598Y-81828253D01*
X146538893Y-81842867D01*
X146517849Y-81855480D01*
X146495671Y-81865970D01*
X146472571Y-81874235D01*
X146448773Y-81880196D01*
X146424504Y-81883796D01*
X146400000Y-81885000D01*
X144550000Y-81885000D01*
X144525496Y-81883796D01*
X144501227Y-81880196D01*
X144477429Y-81874235D01*
X144454329Y-81865970D01*
X144432151Y-81855480D01*
X144411107Y-81842867D01*
X144391402Y-81828253D01*
X144373223Y-81811777D01*
X144356747Y-81793598D01*
X144342133Y-81773893D01*
X144329520Y-81752849D01*
X144319030Y-81730671D01*
X144310765Y-81707571D01*
X144304804Y-81683773D01*
X144301204Y-81659504D01*
X144300000Y-81635000D01*
X144300000Y-81135000D01*
X144301204Y-81110496D01*
X144304804Y-81086227D01*
X144310765Y-81062429D01*
X144319030Y-81039329D01*
X144329520Y-81017151D01*
X144342133Y-80996107D01*
X144356747Y-80976402D01*
X144373223Y-80958223D01*
X144391402Y-80941747D01*
X144411107Y-80927133D01*
X144432151Y-80914520D01*
X144454329Y-80904030D01*
X144477429Y-80895765D01*
X144501227Y-80889804D01*
X144525496Y-80886204D01*
X144550000Y-80885000D01*
X146400000Y-80885000D01*
X146424504Y-80886204D01*
X146424504Y-80886204D01*
G37*
D16*
X145475000Y-81385000D03*
D10*
G36*
X146424504Y-79616204D02*
G01*
X146448773Y-79619804D01*
X146472571Y-79625765D01*
X146495671Y-79634030D01*
X146517849Y-79644520D01*
X146538893Y-79657133D01*
X146558598Y-79671747D01*
X146576777Y-79688223D01*
X146593253Y-79706402D01*
X146607867Y-79726107D01*
X146620480Y-79747151D01*
X146630970Y-79769329D01*
X146639235Y-79792429D01*
X146645196Y-79816227D01*
X146648796Y-79840496D01*
X146650000Y-79865000D01*
X146650000Y-80365000D01*
X146648796Y-80389504D01*
X146645196Y-80413773D01*
X146639235Y-80437571D01*
X146630970Y-80460671D01*
X146620480Y-80482849D01*
X146607867Y-80503893D01*
X146593253Y-80523598D01*
X146576777Y-80541777D01*
X146558598Y-80558253D01*
X146538893Y-80572867D01*
X146517849Y-80585480D01*
X146495671Y-80595970D01*
X146472571Y-80604235D01*
X146448773Y-80610196D01*
X146424504Y-80613796D01*
X146400000Y-80615000D01*
X144550000Y-80615000D01*
X144525496Y-80613796D01*
X144501227Y-80610196D01*
X144477429Y-80604235D01*
X144454329Y-80595970D01*
X144432151Y-80585480D01*
X144411107Y-80572867D01*
X144391402Y-80558253D01*
X144373223Y-80541777D01*
X144356747Y-80523598D01*
X144342133Y-80503893D01*
X144329520Y-80482849D01*
X144319030Y-80460671D01*
X144310765Y-80437571D01*
X144304804Y-80413773D01*
X144301204Y-80389504D01*
X144300000Y-80365000D01*
X144300000Y-79865000D01*
X144301204Y-79840496D01*
X144304804Y-79816227D01*
X144310765Y-79792429D01*
X144319030Y-79769329D01*
X144329520Y-79747151D01*
X144342133Y-79726107D01*
X144356747Y-79706402D01*
X144373223Y-79688223D01*
X144391402Y-79671747D01*
X144411107Y-79657133D01*
X144432151Y-79644520D01*
X144454329Y-79634030D01*
X144477429Y-79625765D01*
X144501227Y-79619804D01*
X144525496Y-79616204D01*
X144550000Y-79615000D01*
X146400000Y-79615000D01*
X146424504Y-79616204D01*
X146424504Y-79616204D01*
G37*
D16*
X145475000Y-80115000D03*
D10*
G36*
X146424504Y-78346204D02*
G01*
X146448773Y-78349804D01*
X146472571Y-78355765D01*
X146495671Y-78364030D01*
X146517849Y-78374520D01*
X146538893Y-78387133D01*
X146558598Y-78401747D01*
X146576777Y-78418223D01*
X146593253Y-78436402D01*
X146607867Y-78456107D01*
X146620480Y-78477151D01*
X146630970Y-78499329D01*
X146639235Y-78522429D01*
X146645196Y-78546227D01*
X146648796Y-78570496D01*
X146650000Y-78595000D01*
X146650000Y-79095000D01*
X146648796Y-79119504D01*
X146645196Y-79143773D01*
X146639235Y-79167571D01*
X146630970Y-79190671D01*
X146620480Y-79212849D01*
X146607867Y-79233893D01*
X146593253Y-79253598D01*
X146576777Y-79271777D01*
X146558598Y-79288253D01*
X146538893Y-79302867D01*
X146517849Y-79315480D01*
X146495671Y-79325970D01*
X146472571Y-79334235D01*
X146448773Y-79340196D01*
X146424504Y-79343796D01*
X146400000Y-79345000D01*
X144550000Y-79345000D01*
X144525496Y-79343796D01*
X144501227Y-79340196D01*
X144477429Y-79334235D01*
X144454329Y-79325970D01*
X144432151Y-79315480D01*
X144411107Y-79302867D01*
X144391402Y-79288253D01*
X144373223Y-79271777D01*
X144356747Y-79253598D01*
X144342133Y-79233893D01*
X144329520Y-79212849D01*
X144319030Y-79190671D01*
X144310765Y-79167571D01*
X144304804Y-79143773D01*
X144301204Y-79119504D01*
X144300000Y-79095000D01*
X144300000Y-78595000D01*
X144301204Y-78570496D01*
X144304804Y-78546227D01*
X144310765Y-78522429D01*
X144319030Y-78499329D01*
X144329520Y-78477151D01*
X144342133Y-78456107D01*
X144356747Y-78436402D01*
X144373223Y-78418223D01*
X144391402Y-78401747D01*
X144411107Y-78387133D01*
X144432151Y-78374520D01*
X144454329Y-78364030D01*
X144477429Y-78355765D01*
X144501227Y-78349804D01*
X144525496Y-78346204D01*
X144550000Y-78345000D01*
X146400000Y-78345000D01*
X146424504Y-78346204D01*
X146424504Y-78346204D01*
G37*
D16*
X145475000Y-78845000D03*
D10*
G36*
X141474504Y-78346204D02*
G01*
X141498773Y-78349804D01*
X141522571Y-78355765D01*
X141545671Y-78364030D01*
X141567849Y-78374520D01*
X141588893Y-78387133D01*
X141608598Y-78401747D01*
X141626777Y-78418223D01*
X141643253Y-78436402D01*
X141657867Y-78456107D01*
X141670480Y-78477151D01*
X141680970Y-78499329D01*
X141689235Y-78522429D01*
X141695196Y-78546227D01*
X141698796Y-78570496D01*
X141700000Y-78595000D01*
X141700000Y-79095000D01*
X141698796Y-79119504D01*
X141695196Y-79143773D01*
X141689235Y-79167571D01*
X141680970Y-79190671D01*
X141670480Y-79212849D01*
X141657867Y-79233893D01*
X141643253Y-79253598D01*
X141626777Y-79271777D01*
X141608598Y-79288253D01*
X141588893Y-79302867D01*
X141567849Y-79315480D01*
X141545671Y-79325970D01*
X141522571Y-79334235D01*
X141498773Y-79340196D01*
X141474504Y-79343796D01*
X141450000Y-79345000D01*
X139600000Y-79345000D01*
X139575496Y-79343796D01*
X139551227Y-79340196D01*
X139527429Y-79334235D01*
X139504329Y-79325970D01*
X139482151Y-79315480D01*
X139461107Y-79302867D01*
X139441402Y-79288253D01*
X139423223Y-79271777D01*
X139406747Y-79253598D01*
X139392133Y-79233893D01*
X139379520Y-79212849D01*
X139369030Y-79190671D01*
X139360765Y-79167571D01*
X139354804Y-79143773D01*
X139351204Y-79119504D01*
X139350000Y-79095000D01*
X139350000Y-78595000D01*
X139351204Y-78570496D01*
X139354804Y-78546227D01*
X139360765Y-78522429D01*
X139369030Y-78499329D01*
X139379520Y-78477151D01*
X139392133Y-78456107D01*
X139406747Y-78436402D01*
X139423223Y-78418223D01*
X139441402Y-78401747D01*
X139461107Y-78387133D01*
X139482151Y-78374520D01*
X139504329Y-78364030D01*
X139527429Y-78355765D01*
X139551227Y-78349804D01*
X139575496Y-78346204D01*
X139600000Y-78345000D01*
X141450000Y-78345000D01*
X141474504Y-78346204D01*
X141474504Y-78346204D01*
G37*
D16*
X140525000Y-78845000D03*
D10*
G36*
X141474504Y-79616204D02*
G01*
X141498773Y-79619804D01*
X141522571Y-79625765D01*
X141545671Y-79634030D01*
X141567849Y-79644520D01*
X141588893Y-79657133D01*
X141608598Y-79671747D01*
X141626777Y-79688223D01*
X141643253Y-79706402D01*
X141657867Y-79726107D01*
X141670480Y-79747151D01*
X141680970Y-79769329D01*
X141689235Y-79792429D01*
X141695196Y-79816227D01*
X141698796Y-79840496D01*
X141700000Y-79865000D01*
X141700000Y-80365000D01*
X141698796Y-80389504D01*
X141695196Y-80413773D01*
X141689235Y-80437571D01*
X141680970Y-80460671D01*
X141670480Y-80482849D01*
X141657867Y-80503893D01*
X141643253Y-80523598D01*
X141626777Y-80541777D01*
X141608598Y-80558253D01*
X141588893Y-80572867D01*
X141567849Y-80585480D01*
X141545671Y-80595970D01*
X141522571Y-80604235D01*
X141498773Y-80610196D01*
X141474504Y-80613796D01*
X141450000Y-80615000D01*
X139600000Y-80615000D01*
X139575496Y-80613796D01*
X139551227Y-80610196D01*
X139527429Y-80604235D01*
X139504329Y-80595970D01*
X139482151Y-80585480D01*
X139461107Y-80572867D01*
X139441402Y-80558253D01*
X139423223Y-80541777D01*
X139406747Y-80523598D01*
X139392133Y-80503893D01*
X139379520Y-80482849D01*
X139369030Y-80460671D01*
X139360765Y-80437571D01*
X139354804Y-80413773D01*
X139351204Y-80389504D01*
X139350000Y-80365000D01*
X139350000Y-79865000D01*
X139351204Y-79840496D01*
X139354804Y-79816227D01*
X139360765Y-79792429D01*
X139369030Y-79769329D01*
X139379520Y-79747151D01*
X139392133Y-79726107D01*
X139406747Y-79706402D01*
X139423223Y-79688223D01*
X139441402Y-79671747D01*
X139461107Y-79657133D01*
X139482151Y-79644520D01*
X139504329Y-79634030D01*
X139527429Y-79625765D01*
X139551227Y-79619804D01*
X139575496Y-79616204D01*
X139600000Y-79615000D01*
X141450000Y-79615000D01*
X141474504Y-79616204D01*
X141474504Y-79616204D01*
G37*
D16*
X140525000Y-80115000D03*
D10*
G36*
X141474504Y-80886204D02*
G01*
X141498773Y-80889804D01*
X141522571Y-80895765D01*
X141545671Y-80904030D01*
X141567849Y-80914520D01*
X141588893Y-80927133D01*
X141608598Y-80941747D01*
X141626777Y-80958223D01*
X141643253Y-80976402D01*
X141657867Y-80996107D01*
X141670480Y-81017151D01*
X141680970Y-81039329D01*
X141689235Y-81062429D01*
X141695196Y-81086227D01*
X141698796Y-81110496D01*
X141700000Y-81135000D01*
X141700000Y-81635000D01*
X141698796Y-81659504D01*
X141695196Y-81683773D01*
X141689235Y-81707571D01*
X141680970Y-81730671D01*
X141670480Y-81752849D01*
X141657867Y-81773893D01*
X141643253Y-81793598D01*
X141626777Y-81811777D01*
X141608598Y-81828253D01*
X141588893Y-81842867D01*
X141567849Y-81855480D01*
X141545671Y-81865970D01*
X141522571Y-81874235D01*
X141498773Y-81880196D01*
X141474504Y-81883796D01*
X141450000Y-81885000D01*
X139600000Y-81885000D01*
X139575496Y-81883796D01*
X139551227Y-81880196D01*
X139527429Y-81874235D01*
X139504329Y-81865970D01*
X139482151Y-81855480D01*
X139461107Y-81842867D01*
X139441402Y-81828253D01*
X139423223Y-81811777D01*
X139406747Y-81793598D01*
X139392133Y-81773893D01*
X139379520Y-81752849D01*
X139369030Y-81730671D01*
X139360765Y-81707571D01*
X139354804Y-81683773D01*
X139351204Y-81659504D01*
X139350000Y-81635000D01*
X139350000Y-81135000D01*
X139351204Y-81110496D01*
X139354804Y-81086227D01*
X139360765Y-81062429D01*
X139369030Y-81039329D01*
X139379520Y-81017151D01*
X139392133Y-80996107D01*
X139406747Y-80976402D01*
X139423223Y-80958223D01*
X139441402Y-80941747D01*
X139461107Y-80927133D01*
X139482151Y-80914520D01*
X139504329Y-80904030D01*
X139527429Y-80895765D01*
X139551227Y-80889804D01*
X139575496Y-80886204D01*
X139600000Y-80885000D01*
X141450000Y-80885000D01*
X141474504Y-80886204D01*
X141474504Y-80886204D01*
G37*
D16*
X140525000Y-81385000D03*
D10*
G36*
X141474504Y-82156204D02*
G01*
X141498773Y-82159804D01*
X141522571Y-82165765D01*
X141545671Y-82174030D01*
X141567849Y-82184520D01*
X141588893Y-82197133D01*
X141608598Y-82211747D01*
X141626777Y-82228223D01*
X141643253Y-82246402D01*
X141657867Y-82266107D01*
X141670480Y-82287151D01*
X141680970Y-82309329D01*
X141689235Y-82332429D01*
X141695196Y-82356227D01*
X141698796Y-82380496D01*
X141700000Y-82405000D01*
X141700000Y-82905000D01*
X141698796Y-82929504D01*
X141695196Y-82953773D01*
X141689235Y-82977571D01*
X141680970Y-83000671D01*
X141670480Y-83022849D01*
X141657867Y-83043893D01*
X141643253Y-83063598D01*
X141626777Y-83081777D01*
X141608598Y-83098253D01*
X141588893Y-83112867D01*
X141567849Y-83125480D01*
X141545671Y-83135970D01*
X141522571Y-83144235D01*
X141498773Y-83150196D01*
X141474504Y-83153796D01*
X141450000Y-83155000D01*
X139600000Y-83155000D01*
X139575496Y-83153796D01*
X139551227Y-83150196D01*
X139527429Y-83144235D01*
X139504329Y-83135970D01*
X139482151Y-83125480D01*
X139461107Y-83112867D01*
X139441402Y-83098253D01*
X139423223Y-83081777D01*
X139406747Y-83063598D01*
X139392133Y-83043893D01*
X139379520Y-83022849D01*
X139369030Y-83000671D01*
X139360765Y-82977571D01*
X139354804Y-82953773D01*
X139351204Y-82929504D01*
X139350000Y-82905000D01*
X139350000Y-82405000D01*
X139351204Y-82380496D01*
X139354804Y-82356227D01*
X139360765Y-82332429D01*
X139369030Y-82309329D01*
X139379520Y-82287151D01*
X139392133Y-82266107D01*
X139406747Y-82246402D01*
X139423223Y-82228223D01*
X139441402Y-82211747D01*
X139461107Y-82197133D01*
X139482151Y-82184520D01*
X139504329Y-82174030D01*
X139527429Y-82165765D01*
X139551227Y-82159804D01*
X139575496Y-82156204D01*
X139600000Y-82155000D01*
X141450000Y-82155000D01*
X141474504Y-82156204D01*
X141474504Y-82156204D01*
G37*
D16*
X140525000Y-82655000D03*
D10*
G36*
X129861207Y-78826542D02*
G01*
X129892287Y-78831152D01*
X129922766Y-78838787D01*
X129952350Y-78849372D01*
X129980754Y-78862806D01*
X130007704Y-78878959D01*
X130032942Y-78897677D01*
X130056223Y-78918777D01*
X130077323Y-78942058D01*
X130096041Y-78967296D01*
X130112194Y-78994246D01*
X130125628Y-79022650D01*
X130136213Y-79052234D01*
X130143848Y-79082713D01*
X130148458Y-79113793D01*
X130150000Y-79145176D01*
X130150000Y-80654824D01*
X130148458Y-80686207D01*
X130143848Y-80717287D01*
X130136213Y-80747766D01*
X130125628Y-80777350D01*
X130112194Y-80805754D01*
X130096041Y-80832704D01*
X130077323Y-80857942D01*
X130056223Y-80881223D01*
X130032942Y-80902323D01*
X130007704Y-80921041D01*
X129980754Y-80937194D01*
X129952350Y-80950628D01*
X129922766Y-80961213D01*
X129892287Y-80968848D01*
X129861207Y-80973458D01*
X129829824Y-80975000D01*
X128645176Y-80975000D01*
X128613793Y-80973458D01*
X128582713Y-80968848D01*
X128552234Y-80961213D01*
X128522650Y-80950628D01*
X128494246Y-80937194D01*
X128467296Y-80921041D01*
X128442058Y-80902323D01*
X128418777Y-80881223D01*
X128397677Y-80857942D01*
X128378959Y-80832704D01*
X128362806Y-80805754D01*
X128349372Y-80777350D01*
X128338787Y-80747766D01*
X128331152Y-80717287D01*
X128326542Y-80686207D01*
X128325000Y-80654824D01*
X128325000Y-79145176D01*
X128326542Y-79113793D01*
X128331152Y-79082713D01*
X128338787Y-79052234D01*
X128349372Y-79022650D01*
X128362806Y-78994246D01*
X128378959Y-78967296D01*
X128397677Y-78942058D01*
X128418777Y-78918777D01*
X128442058Y-78897677D01*
X128467296Y-78878959D01*
X128494246Y-78862806D01*
X128522650Y-78849372D01*
X128552234Y-78838787D01*
X128582713Y-78831152D01*
X128613793Y-78826542D01*
X128645176Y-78825000D01*
X129829824Y-78825000D01*
X129861207Y-78826542D01*
X129861207Y-78826542D01*
G37*
D11*
X129237500Y-79900000D03*
D10*
G36*
X126886207Y-78826542D02*
G01*
X126917287Y-78831152D01*
X126947766Y-78838787D01*
X126977350Y-78849372D01*
X127005754Y-78862806D01*
X127032704Y-78878959D01*
X127057942Y-78897677D01*
X127081223Y-78918777D01*
X127102323Y-78942058D01*
X127121041Y-78967296D01*
X127137194Y-78994246D01*
X127150628Y-79022650D01*
X127161213Y-79052234D01*
X127168848Y-79082713D01*
X127173458Y-79113793D01*
X127175000Y-79145176D01*
X127175000Y-80654824D01*
X127173458Y-80686207D01*
X127168848Y-80717287D01*
X127161213Y-80747766D01*
X127150628Y-80777350D01*
X127137194Y-80805754D01*
X127121041Y-80832704D01*
X127102323Y-80857942D01*
X127081223Y-80881223D01*
X127057942Y-80902323D01*
X127032704Y-80921041D01*
X127005754Y-80937194D01*
X126977350Y-80950628D01*
X126947766Y-80961213D01*
X126917287Y-80968848D01*
X126886207Y-80973458D01*
X126854824Y-80975000D01*
X125670176Y-80975000D01*
X125638793Y-80973458D01*
X125607713Y-80968848D01*
X125577234Y-80961213D01*
X125547650Y-80950628D01*
X125519246Y-80937194D01*
X125492296Y-80921041D01*
X125467058Y-80902323D01*
X125443777Y-80881223D01*
X125422677Y-80857942D01*
X125403959Y-80832704D01*
X125387806Y-80805754D01*
X125374372Y-80777350D01*
X125363787Y-80747766D01*
X125356152Y-80717287D01*
X125351542Y-80686207D01*
X125350000Y-80654824D01*
X125350000Y-79145176D01*
X125351542Y-79113793D01*
X125356152Y-79082713D01*
X125363787Y-79052234D01*
X125374372Y-79022650D01*
X125387806Y-78994246D01*
X125403959Y-78967296D01*
X125422677Y-78942058D01*
X125443777Y-78918777D01*
X125467058Y-78897677D01*
X125492296Y-78878959D01*
X125519246Y-78862806D01*
X125547650Y-78849372D01*
X125577234Y-78838787D01*
X125607713Y-78831152D01*
X125638793Y-78826542D01*
X125670176Y-78825000D01*
X126854824Y-78825000D01*
X126886207Y-78826542D01*
X126886207Y-78826542D01*
G37*
D11*
X126262500Y-79900000D03*
D20*
X143360000Y-71730000D03*
X143360000Y-74270000D03*
X136640000Y-74270000D03*
X136640000Y-71730000D03*
D10*
G36*
X163786207Y-77851542D02*
G01*
X163817287Y-77856152D01*
X163847766Y-77863787D01*
X163877350Y-77874372D01*
X163905754Y-77887806D01*
X163932704Y-77903959D01*
X163957942Y-77922677D01*
X163981223Y-77943777D01*
X164002323Y-77967058D01*
X164021041Y-77992296D01*
X164037194Y-78019246D01*
X164050628Y-78047650D01*
X164061213Y-78077234D01*
X164068848Y-78107713D01*
X164073458Y-78138793D01*
X164075000Y-78170176D01*
X164075000Y-79354824D01*
X164073458Y-79386207D01*
X164068848Y-79417287D01*
X164061213Y-79447766D01*
X164050628Y-79477350D01*
X164037194Y-79505754D01*
X164021041Y-79532704D01*
X164002323Y-79557942D01*
X163981223Y-79581223D01*
X163957942Y-79602323D01*
X163932704Y-79621041D01*
X163905754Y-79637194D01*
X163877350Y-79650628D01*
X163847766Y-79661213D01*
X163817287Y-79668848D01*
X163786207Y-79673458D01*
X163754824Y-79675000D01*
X162245176Y-79675000D01*
X162213793Y-79673458D01*
X162182713Y-79668848D01*
X162152234Y-79661213D01*
X162122650Y-79650628D01*
X162094246Y-79637194D01*
X162067296Y-79621041D01*
X162042058Y-79602323D01*
X162018777Y-79581223D01*
X161997677Y-79557942D01*
X161978959Y-79532704D01*
X161962806Y-79505754D01*
X161949372Y-79477350D01*
X161938787Y-79447766D01*
X161931152Y-79417287D01*
X161926542Y-79386207D01*
X161925000Y-79354824D01*
X161925000Y-78170176D01*
X161926542Y-78138793D01*
X161931152Y-78107713D01*
X161938787Y-78077234D01*
X161949372Y-78047650D01*
X161962806Y-78019246D01*
X161978959Y-77992296D01*
X161997677Y-77967058D01*
X162018777Y-77943777D01*
X162042058Y-77922677D01*
X162067296Y-77903959D01*
X162094246Y-77887806D01*
X162122650Y-77874372D01*
X162152234Y-77863787D01*
X162182713Y-77856152D01*
X162213793Y-77851542D01*
X162245176Y-77850000D01*
X163754824Y-77850000D01*
X163786207Y-77851542D01*
X163786207Y-77851542D01*
G37*
D11*
X163000000Y-78762500D03*
D10*
G36*
X163786207Y-80826542D02*
G01*
X163817287Y-80831152D01*
X163847766Y-80838787D01*
X163877350Y-80849372D01*
X163905754Y-80862806D01*
X163932704Y-80878959D01*
X163957942Y-80897677D01*
X163981223Y-80918777D01*
X164002323Y-80942058D01*
X164021041Y-80967296D01*
X164037194Y-80994246D01*
X164050628Y-81022650D01*
X164061213Y-81052234D01*
X164068848Y-81082713D01*
X164073458Y-81113793D01*
X164075000Y-81145176D01*
X164075000Y-82329824D01*
X164073458Y-82361207D01*
X164068848Y-82392287D01*
X164061213Y-82422766D01*
X164050628Y-82452350D01*
X164037194Y-82480754D01*
X164021041Y-82507704D01*
X164002323Y-82532942D01*
X163981223Y-82556223D01*
X163957942Y-82577323D01*
X163932704Y-82596041D01*
X163905754Y-82612194D01*
X163877350Y-82625628D01*
X163847766Y-82636213D01*
X163817287Y-82643848D01*
X163786207Y-82648458D01*
X163754824Y-82650000D01*
X162245176Y-82650000D01*
X162213793Y-82648458D01*
X162182713Y-82643848D01*
X162152234Y-82636213D01*
X162122650Y-82625628D01*
X162094246Y-82612194D01*
X162067296Y-82596041D01*
X162042058Y-82577323D01*
X162018777Y-82556223D01*
X161997677Y-82532942D01*
X161978959Y-82507704D01*
X161962806Y-82480754D01*
X161949372Y-82452350D01*
X161938787Y-82422766D01*
X161931152Y-82392287D01*
X161926542Y-82361207D01*
X161925000Y-82329824D01*
X161925000Y-81145176D01*
X161926542Y-81113793D01*
X161931152Y-81082713D01*
X161938787Y-81052234D01*
X161949372Y-81022650D01*
X161962806Y-80994246D01*
X161978959Y-80967296D01*
X161997677Y-80942058D01*
X162018777Y-80918777D01*
X162042058Y-80897677D01*
X162067296Y-80878959D01*
X162094246Y-80862806D01*
X162122650Y-80849372D01*
X162152234Y-80838787D01*
X162182713Y-80831152D01*
X162213793Y-80826542D01*
X162245176Y-80825000D01*
X163754824Y-80825000D01*
X163786207Y-80826542D01*
X163786207Y-80826542D01*
G37*
D11*
X163000000Y-81737500D03*
D10*
G36*
X148786207Y-81076542D02*
G01*
X148817287Y-81081152D01*
X148847766Y-81088787D01*
X148877350Y-81099372D01*
X148905754Y-81112806D01*
X148932704Y-81128959D01*
X148957942Y-81147677D01*
X148981223Y-81168777D01*
X149002323Y-81192058D01*
X149021041Y-81217296D01*
X149037194Y-81244246D01*
X149050628Y-81272650D01*
X149061213Y-81302234D01*
X149068848Y-81332713D01*
X149073458Y-81363793D01*
X149075000Y-81395176D01*
X149075000Y-82579824D01*
X149073458Y-82611207D01*
X149068848Y-82642287D01*
X149061213Y-82672766D01*
X149050628Y-82702350D01*
X149037194Y-82730754D01*
X149021041Y-82757704D01*
X149002323Y-82782942D01*
X148981223Y-82806223D01*
X148957942Y-82827323D01*
X148932704Y-82846041D01*
X148905754Y-82862194D01*
X148877350Y-82875628D01*
X148847766Y-82886213D01*
X148817287Y-82893848D01*
X148786207Y-82898458D01*
X148754824Y-82900000D01*
X147245176Y-82900000D01*
X147213793Y-82898458D01*
X147182713Y-82893848D01*
X147152234Y-82886213D01*
X147122650Y-82875628D01*
X147094246Y-82862194D01*
X147067296Y-82846041D01*
X147042058Y-82827323D01*
X147018777Y-82806223D01*
X146997677Y-82782942D01*
X146978959Y-82757704D01*
X146962806Y-82730754D01*
X146949372Y-82702350D01*
X146938787Y-82672766D01*
X146931152Y-82642287D01*
X146926542Y-82611207D01*
X146925000Y-82579824D01*
X146925000Y-81395176D01*
X146926542Y-81363793D01*
X146931152Y-81332713D01*
X146938787Y-81302234D01*
X146949372Y-81272650D01*
X146962806Y-81244246D01*
X146978959Y-81217296D01*
X146997677Y-81192058D01*
X147018777Y-81168777D01*
X147042058Y-81147677D01*
X147067296Y-81128959D01*
X147094246Y-81112806D01*
X147122650Y-81099372D01*
X147152234Y-81088787D01*
X147182713Y-81081152D01*
X147213793Y-81076542D01*
X147245176Y-81075000D01*
X148754824Y-81075000D01*
X148786207Y-81076542D01*
X148786207Y-81076542D01*
G37*
D11*
X148000000Y-81987500D03*
D10*
G36*
X148786207Y-78101542D02*
G01*
X148817287Y-78106152D01*
X148847766Y-78113787D01*
X148877350Y-78124372D01*
X148905754Y-78137806D01*
X148932704Y-78153959D01*
X148957942Y-78172677D01*
X148981223Y-78193777D01*
X149002323Y-78217058D01*
X149021041Y-78242296D01*
X149037194Y-78269246D01*
X149050628Y-78297650D01*
X149061213Y-78327234D01*
X149068848Y-78357713D01*
X149073458Y-78388793D01*
X149075000Y-78420176D01*
X149075000Y-79604824D01*
X149073458Y-79636207D01*
X149068848Y-79667287D01*
X149061213Y-79697766D01*
X149050628Y-79727350D01*
X149037194Y-79755754D01*
X149021041Y-79782704D01*
X149002323Y-79807942D01*
X148981223Y-79831223D01*
X148957942Y-79852323D01*
X148932704Y-79871041D01*
X148905754Y-79887194D01*
X148877350Y-79900628D01*
X148847766Y-79911213D01*
X148817287Y-79918848D01*
X148786207Y-79923458D01*
X148754824Y-79925000D01*
X147245176Y-79925000D01*
X147213793Y-79923458D01*
X147182713Y-79918848D01*
X147152234Y-79911213D01*
X147122650Y-79900628D01*
X147094246Y-79887194D01*
X147067296Y-79871041D01*
X147042058Y-79852323D01*
X147018777Y-79831223D01*
X146997677Y-79807942D01*
X146978959Y-79782704D01*
X146962806Y-79755754D01*
X146949372Y-79727350D01*
X146938787Y-79697766D01*
X146931152Y-79667287D01*
X146926542Y-79636207D01*
X146925000Y-79604824D01*
X146925000Y-78420176D01*
X146926542Y-78388793D01*
X146931152Y-78357713D01*
X146938787Y-78327234D01*
X146949372Y-78297650D01*
X146962806Y-78269246D01*
X146978959Y-78242296D01*
X146997677Y-78217058D01*
X147018777Y-78193777D01*
X147042058Y-78172677D01*
X147067296Y-78153959D01*
X147094246Y-78137806D01*
X147122650Y-78124372D01*
X147152234Y-78113787D01*
X147182713Y-78106152D01*
X147213793Y-78101542D01*
X147245176Y-78100000D01*
X148754824Y-78100000D01*
X148786207Y-78101542D01*
X148786207Y-78101542D01*
G37*
D11*
X148000000Y-79012500D03*
D10*
G36*
X132861207Y-71176542D02*
G01*
X132892287Y-71181152D01*
X132922766Y-71188787D01*
X132952350Y-71199372D01*
X132980754Y-71212806D01*
X133007704Y-71228959D01*
X133032942Y-71247677D01*
X133056223Y-71268777D01*
X133077323Y-71292058D01*
X133096041Y-71317296D01*
X133112194Y-71344246D01*
X133125628Y-71372650D01*
X133136213Y-71402234D01*
X133143848Y-71432713D01*
X133148458Y-71463793D01*
X133150000Y-71495176D01*
X133150000Y-73004824D01*
X133148458Y-73036207D01*
X133143848Y-73067287D01*
X133136213Y-73097766D01*
X133125628Y-73127350D01*
X133112194Y-73155754D01*
X133096041Y-73182704D01*
X133077323Y-73207942D01*
X133056223Y-73231223D01*
X133032942Y-73252323D01*
X133007704Y-73271041D01*
X132980754Y-73287194D01*
X132952350Y-73300628D01*
X132922766Y-73311213D01*
X132892287Y-73318848D01*
X132861207Y-73323458D01*
X132829824Y-73325000D01*
X131645176Y-73325000D01*
X131613793Y-73323458D01*
X131582713Y-73318848D01*
X131552234Y-73311213D01*
X131522650Y-73300628D01*
X131494246Y-73287194D01*
X131467296Y-73271041D01*
X131442058Y-73252323D01*
X131418777Y-73231223D01*
X131397677Y-73207942D01*
X131378959Y-73182704D01*
X131362806Y-73155754D01*
X131349372Y-73127350D01*
X131338787Y-73097766D01*
X131331152Y-73067287D01*
X131326542Y-73036207D01*
X131325000Y-73004824D01*
X131325000Y-71495176D01*
X131326542Y-71463793D01*
X131331152Y-71432713D01*
X131338787Y-71402234D01*
X131349372Y-71372650D01*
X131362806Y-71344246D01*
X131378959Y-71317296D01*
X131397677Y-71292058D01*
X131418777Y-71268777D01*
X131442058Y-71247677D01*
X131467296Y-71228959D01*
X131494246Y-71212806D01*
X131522650Y-71199372D01*
X131552234Y-71188787D01*
X131582713Y-71181152D01*
X131613793Y-71176542D01*
X131645176Y-71175000D01*
X132829824Y-71175000D01*
X132861207Y-71176542D01*
X132861207Y-71176542D01*
G37*
D11*
X132237500Y-72250000D03*
D10*
G36*
X129886207Y-71176542D02*
G01*
X129917287Y-71181152D01*
X129947766Y-71188787D01*
X129977350Y-71199372D01*
X130005754Y-71212806D01*
X130032704Y-71228959D01*
X130057942Y-71247677D01*
X130081223Y-71268777D01*
X130102323Y-71292058D01*
X130121041Y-71317296D01*
X130137194Y-71344246D01*
X130150628Y-71372650D01*
X130161213Y-71402234D01*
X130168848Y-71432713D01*
X130173458Y-71463793D01*
X130175000Y-71495176D01*
X130175000Y-73004824D01*
X130173458Y-73036207D01*
X130168848Y-73067287D01*
X130161213Y-73097766D01*
X130150628Y-73127350D01*
X130137194Y-73155754D01*
X130121041Y-73182704D01*
X130102323Y-73207942D01*
X130081223Y-73231223D01*
X130057942Y-73252323D01*
X130032704Y-73271041D01*
X130005754Y-73287194D01*
X129977350Y-73300628D01*
X129947766Y-73311213D01*
X129917287Y-73318848D01*
X129886207Y-73323458D01*
X129854824Y-73325000D01*
X128670176Y-73325000D01*
X128638793Y-73323458D01*
X128607713Y-73318848D01*
X128577234Y-73311213D01*
X128547650Y-73300628D01*
X128519246Y-73287194D01*
X128492296Y-73271041D01*
X128467058Y-73252323D01*
X128443777Y-73231223D01*
X128422677Y-73207942D01*
X128403959Y-73182704D01*
X128387806Y-73155754D01*
X128374372Y-73127350D01*
X128363787Y-73097766D01*
X128356152Y-73067287D01*
X128351542Y-73036207D01*
X128350000Y-73004824D01*
X128350000Y-71495176D01*
X128351542Y-71463793D01*
X128356152Y-71432713D01*
X128363787Y-71402234D01*
X128374372Y-71372650D01*
X128387806Y-71344246D01*
X128403959Y-71317296D01*
X128422677Y-71292058D01*
X128443777Y-71268777D01*
X128467058Y-71247677D01*
X128492296Y-71228959D01*
X128519246Y-71212806D01*
X128547650Y-71199372D01*
X128577234Y-71188787D01*
X128607713Y-71181152D01*
X128638793Y-71176542D01*
X128670176Y-71175000D01*
X129854824Y-71175000D01*
X129886207Y-71176542D01*
X129886207Y-71176542D01*
G37*
D11*
X129262500Y-72250000D03*
D21*
X160000000Y-81145000D03*
X160000000Y-78855000D03*
D10*
G36*
X119536207Y-80601542D02*
G01*
X119567287Y-80606152D01*
X119597766Y-80613787D01*
X119627350Y-80624372D01*
X119655754Y-80637806D01*
X119682704Y-80653959D01*
X119707942Y-80672677D01*
X119731223Y-80693777D01*
X119752323Y-80717058D01*
X119771041Y-80742296D01*
X119787194Y-80769246D01*
X119800628Y-80797650D01*
X119811213Y-80827234D01*
X119818848Y-80857713D01*
X119823458Y-80888793D01*
X119825000Y-80920176D01*
X119825000Y-82104824D01*
X119823458Y-82136207D01*
X119818848Y-82167287D01*
X119811213Y-82197766D01*
X119800628Y-82227350D01*
X119787194Y-82255754D01*
X119771041Y-82282704D01*
X119752323Y-82307942D01*
X119731223Y-82331223D01*
X119707942Y-82352323D01*
X119682704Y-82371041D01*
X119655754Y-82387194D01*
X119627350Y-82400628D01*
X119597766Y-82411213D01*
X119567287Y-82418848D01*
X119536207Y-82423458D01*
X119504824Y-82425000D01*
X117995176Y-82425000D01*
X117963793Y-82423458D01*
X117932713Y-82418848D01*
X117902234Y-82411213D01*
X117872650Y-82400628D01*
X117844246Y-82387194D01*
X117817296Y-82371041D01*
X117792058Y-82352323D01*
X117768777Y-82331223D01*
X117747677Y-82307942D01*
X117728959Y-82282704D01*
X117712806Y-82255754D01*
X117699372Y-82227350D01*
X117688787Y-82197766D01*
X117681152Y-82167287D01*
X117676542Y-82136207D01*
X117675000Y-82104824D01*
X117675000Y-80920176D01*
X117676542Y-80888793D01*
X117681152Y-80857713D01*
X117688787Y-80827234D01*
X117699372Y-80797650D01*
X117712806Y-80769246D01*
X117728959Y-80742296D01*
X117747677Y-80717058D01*
X117768777Y-80693777D01*
X117792058Y-80672677D01*
X117817296Y-80653959D01*
X117844246Y-80637806D01*
X117872650Y-80624372D01*
X117902234Y-80613787D01*
X117932713Y-80606152D01*
X117963793Y-80601542D01*
X117995176Y-80600000D01*
X119504824Y-80600000D01*
X119536207Y-80601542D01*
X119536207Y-80601542D01*
G37*
D11*
X118750000Y-81512500D03*
D10*
G36*
X119536207Y-83576542D02*
G01*
X119567287Y-83581152D01*
X119597766Y-83588787D01*
X119627350Y-83599372D01*
X119655754Y-83612806D01*
X119682704Y-83628959D01*
X119707942Y-83647677D01*
X119731223Y-83668777D01*
X119752323Y-83692058D01*
X119771041Y-83717296D01*
X119787194Y-83744246D01*
X119800628Y-83772650D01*
X119811213Y-83802234D01*
X119818848Y-83832713D01*
X119823458Y-83863793D01*
X119825000Y-83895176D01*
X119825000Y-85079824D01*
X119823458Y-85111207D01*
X119818848Y-85142287D01*
X119811213Y-85172766D01*
X119800628Y-85202350D01*
X119787194Y-85230754D01*
X119771041Y-85257704D01*
X119752323Y-85282942D01*
X119731223Y-85306223D01*
X119707942Y-85327323D01*
X119682704Y-85346041D01*
X119655754Y-85362194D01*
X119627350Y-85375628D01*
X119597766Y-85386213D01*
X119567287Y-85393848D01*
X119536207Y-85398458D01*
X119504824Y-85400000D01*
X117995176Y-85400000D01*
X117963793Y-85398458D01*
X117932713Y-85393848D01*
X117902234Y-85386213D01*
X117872650Y-85375628D01*
X117844246Y-85362194D01*
X117817296Y-85346041D01*
X117792058Y-85327323D01*
X117768777Y-85306223D01*
X117747677Y-85282942D01*
X117728959Y-85257704D01*
X117712806Y-85230754D01*
X117699372Y-85202350D01*
X117688787Y-85172766D01*
X117681152Y-85142287D01*
X117676542Y-85111207D01*
X117675000Y-85079824D01*
X117675000Y-83895176D01*
X117676542Y-83863793D01*
X117681152Y-83832713D01*
X117688787Y-83802234D01*
X117699372Y-83772650D01*
X117712806Y-83744246D01*
X117728959Y-83717296D01*
X117747677Y-83692058D01*
X117768777Y-83668777D01*
X117792058Y-83647677D01*
X117817296Y-83628959D01*
X117844246Y-83612806D01*
X117872650Y-83599372D01*
X117902234Y-83588787D01*
X117932713Y-83581152D01*
X117963793Y-83576542D01*
X117995176Y-83575000D01*
X119504824Y-83575000D01*
X119536207Y-83576542D01*
X119536207Y-83576542D01*
G37*
D11*
X118750000Y-84487500D03*
D10*
G36*
X124911207Y-83426542D02*
G01*
X124942287Y-83431152D01*
X124972766Y-83438787D01*
X125002350Y-83449372D01*
X125030754Y-83462806D01*
X125057704Y-83478959D01*
X125082942Y-83497677D01*
X125106223Y-83518777D01*
X125127323Y-83542058D01*
X125146041Y-83567296D01*
X125162194Y-83594246D01*
X125175628Y-83622650D01*
X125186213Y-83652234D01*
X125193848Y-83682713D01*
X125198458Y-83713793D01*
X125200000Y-83745176D01*
X125200000Y-85254824D01*
X125198458Y-85286207D01*
X125193848Y-85317287D01*
X125186213Y-85347766D01*
X125175628Y-85377350D01*
X125162194Y-85405754D01*
X125146041Y-85432704D01*
X125127323Y-85457942D01*
X125106223Y-85481223D01*
X125082942Y-85502323D01*
X125057704Y-85521041D01*
X125030754Y-85537194D01*
X125002350Y-85550628D01*
X124972766Y-85561213D01*
X124942287Y-85568848D01*
X124911207Y-85573458D01*
X124879824Y-85575000D01*
X123695176Y-85575000D01*
X123663793Y-85573458D01*
X123632713Y-85568848D01*
X123602234Y-85561213D01*
X123572650Y-85550628D01*
X123544246Y-85537194D01*
X123517296Y-85521041D01*
X123492058Y-85502323D01*
X123468777Y-85481223D01*
X123447677Y-85457942D01*
X123428959Y-85432704D01*
X123412806Y-85405754D01*
X123399372Y-85377350D01*
X123388787Y-85347766D01*
X123381152Y-85317287D01*
X123376542Y-85286207D01*
X123375000Y-85254824D01*
X123375000Y-83745176D01*
X123376542Y-83713793D01*
X123381152Y-83682713D01*
X123388787Y-83652234D01*
X123399372Y-83622650D01*
X123412806Y-83594246D01*
X123428959Y-83567296D01*
X123447677Y-83542058D01*
X123468777Y-83518777D01*
X123492058Y-83497677D01*
X123517296Y-83478959D01*
X123544246Y-83462806D01*
X123572650Y-83449372D01*
X123602234Y-83438787D01*
X123632713Y-83431152D01*
X123663793Y-83426542D01*
X123695176Y-83425000D01*
X124879824Y-83425000D01*
X124911207Y-83426542D01*
X124911207Y-83426542D01*
G37*
D11*
X124287500Y-84500000D03*
D10*
G36*
X121936207Y-83426542D02*
G01*
X121967287Y-83431152D01*
X121997766Y-83438787D01*
X122027350Y-83449372D01*
X122055754Y-83462806D01*
X122082704Y-83478959D01*
X122107942Y-83497677D01*
X122131223Y-83518777D01*
X122152323Y-83542058D01*
X122171041Y-83567296D01*
X122187194Y-83594246D01*
X122200628Y-83622650D01*
X122211213Y-83652234D01*
X122218848Y-83682713D01*
X122223458Y-83713793D01*
X122225000Y-83745176D01*
X122225000Y-85254824D01*
X122223458Y-85286207D01*
X122218848Y-85317287D01*
X122211213Y-85347766D01*
X122200628Y-85377350D01*
X122187194Y-85405754D01*
X122171041Y-85432704D01*
X122152323Y-85457942D01*
X122131223Y-85481223D01*
X122107942Y-85502323D01*
X122082704Y-85521041D01*
X122055754Y-85537194D01*
X122027350Y-85550628D01*
X121997766Y-85561213D01*
X121967287Y-85568848D01*
X121936207Y-85573458D01*
X121904824Y-85575000D01*
X120720176Y-85575000D01*
X120688793Y-85573458D01*
X120657713Y-85568848D01*
X120627234Y-85561213D01*
X120597650Y-85550628D01*
X120569246Y-85537194D01*
X120542296Y-85521041D01*
X120517058Y-85502323D01*
X120493777Y-85481223D01*
X120472677Y-85457942D01*
X120453959Y-85432704D01*
X120437806Y-85405754D01*
X120424372Y-85377350D01*
X120413787Y-85347766D01*
X120406152Y-85317287D01*
X120401542Y-85286207D01*
X120400000Y-85254824D01*
X120400000Y-83745176D01*
X120401542Y-83713793D01*
X120406152Y-83682713D01*
X120413787Y-83652234D01*
X120424372Y-83622650D01*
X120437806Y-83594246D01*
X120453959Y-83567296D01*
X120472677Y-83542058D01*
X120493777Y-83518777D01*
X120517058Y-83497677D01*
X120542296Y-83478959D01*
X120569246Y-83462806D01*
X120597650Y-83449372D01*
X120627234Y-83438787D01*
X120657713Y-83431152D01*
X120688793Y-83426542D01*
X120720176Y-83425000D01*
X121904824Y-83425000D01*
X121936207Y-83426542D01*
X121936207Y-83426542D01*
G37*
D11*
X121312500Y-84500000D03*
D10*
G36*
X121936207Y-78826542D02*
G01*
X121967287Y-78831152D01*
X121997766Y-78838787D01*
X122027350Y-78849372D01*
X122055754Y-78862806D01*
X122082704Y-78878959D01*
X122107942Y-78897677D01*
X122131223Y-78918777D01*
X122152323Y-78942058D01*
X122171041Y-78967296D01*
X122187194Y-78994246D01*
X122200628Y-79022650D01*
X122211213Y-79052234D01*
X122218848Y-79082713D01*
X122223458Y-79113793D01*
X122225000Y-79145176D01*
X122225000Y-80654824D01*
X122223458Y-80686207D01*
X122218848Y-80717287D01*
X122211213Y-80747766D01*
X122200628Y-80777350D01*
X122187194Y-80805754D01*
X122171041Y-80832704D01*
X122152323Y-80857942D01*
X122131223Y-80881223D01*
X122107942Y-80902323D01*
X122082704Y-80921041D01*
X122055754Y-80937194D01*
X122027350Y-80950628D01*
X121997766Y-80961213D01*
X121967287Y-80968848D01*
X121936207Y-80973458D01*
X121904824Y-80975000D01*
X120720176Y-80975000D01*
X120688793Y-80973458D01*
X120657713Y-80968848D01*
X120627234Y-80961213D01*
X120597650Y-80950628D01*
X120569246Y-80937194D01*
X120542296Y-80921041D01*
X120517058Y-80902323D01*
X120493777Y-80881223D01*
X120472677Y-80857942D01*
X120453959Y-80832704D01*
X120437806Y-80805754D01*
X120424372Y-80777350D01*
X120413787Y-80747766D01*
X120406152Y-80717287D01*
X120401542Y-80686207D01*
X120400000Y-80654824D01*
X120400000Y-79145176D01*
X120401542Y-79113793D01*
X120406152Y-79082713D01*
X120413787Y-79052234D01*
X120424372Y-79022650D01*
X120437806Y-78994246D01*
X120453959Y-78967296D01*
X120472677Y-78942058D01*
X120493777Y-78918777D01*
X120517058Y-78897677D01*
X120542296Y-78878959D01*
X120569246Y-78862806D01*
X120597650Y-78849372D01*
X120627234Y-78838787D01*
X120657713Y-78831152D01*
X120688793Y-78826542D01*
X120720176Y-78825000D01*
X121904824Y-78825000D01*
X121936207Y-78826542D01*
X121936207Y-78826542D01*
G37*
D11*
X121312500Y-79900000D03*
D10*
G36*
X124911207Y-78826542D02*
G01*
X124942287Y-78831152D01*
X124972766Y-78838787D01*
X125002350Y-78849372D01*
X125030754Y-78862806D01*
X125057704Y-78878959D01*
X125082942Y-78897677D01*
X125106223Y-78918777D01*
X125127323Y-78942058D01*
X125146041Y-78967296D01*
X125162194Y-78994246D01*
X125175628Y-79022650D01*
X125186213Y-79052234D01*
X125193848Y-79082713D01*
X125198458Y-79113793D01*
X125200000Y-79145176D01*
X125200000Y-80654824D01*
X125198458Y-80686207D01*
X125193848Y-80717287D01*
X125186213Y-80747766D01*
X125175628Y-80777350D01*
X125162194Y-80805754D01*
X125146041Y-80832704D01*
X125127323Y-80857942D01*
X125106223Y-80881223D01*
X125082942Y-80902323D01*
X125057704Y-80921041D01*
X125030754Y-80937194D01*
X125002350Y-80950628D01*
X124972766Y-80961213D01*
X124942287Y-80968848D01*
X124911207Y-80973458D01*
X124879824Y-80975000D01*
X123695176Y-80975000D01*
X123663793Y-80973458D01*
X123632713Y-80968848D01*
X123602234Y-80961213D01*
X123572650Y-80950628D01*
X123544246Y-80937194D01*
X123517296Y-80921041D01*
X123492058Y-80902323D01*
X123468777Y-80881223D01*
X123447677Y-80857942D01*
X123428959Y-80832704D01*
X123412806Y-80805754D01*
X123399372Y-80777350D01*
X123388787Y-80747766D01*
X123381152Y-80717287D01*
X123376542Y-80686207D01*
X123375000Y-80654824D01*
X123375000Y-79145176D01*
X123376542Y-79113793D01*
X123381152Y-79082713D01*
X123388787Y-79052234D01*
X123399372Y-79022650D01*
X123412806Y-78994246D01*
X123428959Y-78967296D01*
X123447677Y-78942058D01*
X123468777Y-78918777D01*
X123492058Y-78897677D01*
X123517296Y-78878959D01*
X123544246Y-78862806D01*
X123572650Y-78849372D01*
X123602234Y-78838787D01*
X123632713Y-78831152D01*
X123663793Y-78826542D01*
X123695176Y-78825000D01*
X124879824Y-78825000D01*
X124911207Y-78826542D01*
X124911207Y-78826542D01*
G37*
D11*
X124287500Y-79900000D03*
D10*
G36*
X135286207Y-70851542D02*
G01*
X135317287Y-70856152D01*
X135347766Y-70863787D01*
X135377350Y-70874372D01*
X135405754Y-70887806D01*
X135432704Y-70903959D01*
X135457942Y-70922677D01*
X135481223Y-70943777D01*
X135502323Y-70967058D01*
X135521041Y-70992296D01*
X135537194Y-71019246D01*
X135550628Y-71047650D01*
X135561213Y-71077234D01*
X135568848Y-71107713D01*
X135573458Y-71138793D01*
X135575000Y-71170176D01*
X135575000Y-72354824D01*
X135573458Y-72386207D01*
X135568848Y-72417287D01*
X135561213Y-72447766D01*
X135550628Y-72477350D01*
X135537194Y-72505754D01*
X135521041Y-72532704D01*
X135502323Y-72557942D01*
X135481223Y-72581223D01*
X135457942Y-72602323D01*
X135432704Y-72621041D01*
X135405754Y-72637194D01*
X135377350Y-72650628D01*
X135347766Y-72661213D01*
X135317287Y-72668848D01*
X135286207Y-72673458D01*
X135254824Y-72675000D01*
X133745176Y-72675000D01*
X133713793Y-72673458D01*
X133682713Y-72668848D01*
X133652234Y-72661213D01*
X133622650Y-72650628D01*
X133594246Y-72637194D01*
X133567296Y-72621041D01*
X133542058Y-72602323D01*
X133518777Y-72581223D01*
X133497677Y-72557942D01*
X133478959Y-72532704D01*
X133462806Y-72505754D01*
X133449372Y-72477350D01*
X133438787Y-72447766D01*
X133431152Y-72417287D01*
X133426542Y-72386207D01*
X133425000Y-72354824D01*
X133425000Y-71170176D01*
X133426542Y-71138793D01*
X133431152Y-71107713D01*
X133438787Y-71077234D01*
X133449372Y-71047650D01*
X133462806Y-71019246D01*
X133478959Y-70992296D01*
X133497677Y-70967058D01*
X133518777Y-70943777D01*
X133542058Y-70922677D01*
X133567296Y-70903959D01*
X133594246Y-70887806D01*
X133622650Y-70874372D01*
X133652234Y-70863787D01*
X133682713Y-70856152D01*
X133713793Y-70851542D01*
X133745176Y-70850000D01*
X135254824Y-70850000D01*
X135286207Y-70851542D01*
X135286207Y-70851542D01*
G37*
D11*
X134500000Y-71762500D03*
D10*
G36*
X135286207Y-73826542D02*
G01*
X135317287Y-73831152D01*
X135347766Y-73838787D01*
X135377350Y-73849372D01*
X135405754Y-73862806D01*
X135432704Y-73878959D01*
X135457942Y-73897677D01*
X135481223Y-73918777D01*
X135502323Y-73942058D01*
X135521041Y-73967296D01*
X135537194Y-73994246D01*
X135550628Y-74022650D01*
X135561213Y-74052234D01*
X135568848Y-74082713D01*
X135573458Y-74113793D01*
X135575000Y-74145176D01*
X135575000Y-75329824D01*
X135573458Y-75361207D01*
X135568848Y-75392287D01*
X135561213Y-75422766D01*
X135550628Y-75452350D01*
X135537194Y-75480754D01*
X135521041Y-75507704D01*
X135502323Y-75532942D01*
X135481223Y-75556223D01*
X135457942Y-75577323D01*
X135432704Y-75596041D01*
X135405754Y-75612194D01*
X135377350Y-75625628D01*
X135347766Y-75636213D01*
X135317287Y-75643848D01*
X135286207Y-75648458D01*
X135254824Y-75650000D01*
X133745176Y-75650000D01*
X133713793Y-75648458D01*
X133682713Y-75643848D01*
X133652234Y-75636213D01*
X133622650Y-75625628D01*
X133594246Y-75612194D01*
X133567296Y-75596041D01*
X133542058Y-75577323D01*
X133518777Y-75556223D01*
X133497677Y-75532942D01*
X133478959Y-75507704D01*
X133462806Y-75480754D01*
X133449372Y-75452350D01*
X133438787Y-75422766D01*
X133431152Y-75392287D01*
X133426542Y-75361207D01*
X133425000Y-75329824D01*
X133425000Y-74145176D01*
X133426542Y-74113793D01*
X133431152Y-74082713D01*
X133438787Y-74052234D01*
X133449372Y-74022650D01*
X133462806Y-73994246D01*
X133478959Y-73967296D01*
X133497677Y-73942058D01*
X133518777Y-73918777D01*
X133542058Y-73897677D01*
X133567296Y-73878959D01*
X133594246Y-73862806D01*
X133622650Y-73849372D01*
X133652234Y-73838787D01*
X133682713Y-73831152D01*
X133713793Y-73826542D01*
X133745176Y-73825000D01*
X135254824Y-73825000D01*
X135286207Y-73826542D01*
X135286207Y-73826542D01*
G37*
D11*
X134500000Y-74737500D03*
D22*
X137775000Y-65500000D03*
X143225000Y-65500000D03*
X137775000Y-69500000D03*
X143225000Y-69500000D03*
D23*
X133000000Y-67500000D03*
X121600000Y-67500000D03*
D24*
X148225000Y-65460000D03*
X148225000Y-70540000D03*
D25*
X157375000Y-68000000D03*
D10*
G36*
X132861207Y-73426542D02*
G01*
X132892287Y-73431152D01*
X132922766Y-73438787D01*
X132952350Y-73449372D01*
X132980754Y-73462806D01*
X133007704Y-73478959D01*
X133032942Y-73497677D01*
X133056223Y-73518777D01*
X133077323Y-73542058D01*
X133096041Y-73567296D01*
X133112194Y-73594246D01*
X133125628Y-73622650D01*
X133136213Y-73652234D01*
X133143848Y-73682713D01*
X133148458Y-73713793D01*
X133150000Y-73745176D01*
X133150000Y-75254824D01*
X133148458Y-75286207D01*
X133143848Y-75317287D01*
X133136213Y-75347766D01*
X133125628Y-75377350D01*
X133112194Y-75405754D01*
X133096041Y-75432704D01*
X133077323Y-75457942D01*
X133056223Y-75481223D01*
X133032942Y-75502323D01*
X133007704Y-75521041D01*
X132980754Y-75537194D01*
X132952350Y-75550628D01*
X132922766Y-75561213D01*
X132892287Y-75568848D01*
X132861207Y-75573458D01*
X132829824Y-75575000D01*
X131645176Y-75575000D01*
X131613793Y-75573458D01*
X131582713Y-75568848D01*
X131552234Y-75561213D01*
X131522650Y-75550628D01*
X131494246Y-75537194D01*
X131467296Y-75521041D01*
X131442058Y-75502323D01*
X131418777Y-75481223D01*
X131397677Y-75457942D01*
X131378959Y-75432704D01*
X131362806Y-75405754D01*
X131349372Y-75377350D01*
X131338787Y-75347766D01*
X131331152Y-75317287D01*
X131326542Y-75286207D01*
X131325000Y-75254824D01*
X131325000Y-73745176D01*
X131326542Y-73713793D01*
X131331152Y-73682713D01*
X131338787Y-73652234D01*
X131349372Y-73622650D01*
X131362806Y-73594246D01*
X131378959Y-73567296D01*
X131397677Y-73542058D01*
X131418777Y-73518777D01*
X131442058Y-73497677D01*
X131467296Y-73478959D01*
X131494246Y-73462806D01*
X131522650Y-73449372D01*
X131552234Y-73438787D01*
X131582713Y-73431152D01*
X131613793Y-73426542D01*
X131645176Y-73425000D01*
X132829824Y-73425000D01*
X132861207Y-73426542D01*
X132861207Y-73426542D01*
G37*
D11*
X132237500Y-74500000D03*
D10*
G36*
X129886207Y-73426542D02*
G01*
X129917287Y-73431152D01*
X129947766Y-73438787D01*
X129977350Y-73449372D01*
X130005754Y-73462806D01*
X130032704Y-73478959D01*
X130057942Y-73497677D01*
X130081223Y-73518777D01*
X130102323Y-73542058D01*
X130121041Y-73567296D01*
X130137194Y-73594246D01*
X130150628Y-73622650D01*
X130161213Y-73652234D01*
X130168848Y-73682713D01*
X130173458Y-73713793D01*
X130175000Y-73745176D01*
X130175000Y-75254824D01*
X130173458Y-75286207D01*
X130168848Y-75317287D01*
X130161213Y-75347766D01*
X130150628Y-75377350D01*
X130137194Y-75405754D01*
X130121041Y-75432704D01*
X130102323Y-75457942D01*
X130081223Y-75481223D01*
X130057942Y-75502323D01*
X130032704Y-75521041D01*
X130005754Y-75537194D01*
X129977350Y-75550628D01*
X129947766Y-75561213D01*
X129917287Y-75568848D01*
X129886207Y-75573458D01*
X129854824Y-75575000D01*
X128670176Y-75575000D01*
X128638793Y-75573458D01*
X128607713Y-75568848D01*
X128577234Y-75561213D01*
X128547650Y-75550628D01*
X128519246Y-75537194D01*
X128492296Y-75521041D01*
X128467058Y-75502323D01*
X128443777Y-75481223D01*
X128422677Y-75457942D01*
X128403959Y-75432704D01*
X128387806Y-75405754D01*
X128374372Y-75377350D01*
X128363787Y-75347766D01*
X128356152Y-75317287D01*
X128351542Y-75286207D01*
X128350000Y-75254824D01*
X128350000Y-73745176D01*
X128351542Y-73713793D01*
X128356152Y-73682713D01*
X128363787Y-73652234D01*
X128374372Y-73622650D01*
X128387806Y-73594246D01*
X128403959Y-73567296D01*
X128422677Y-73542058D01*
X128443777Y-73518777D01*
X128467058Y-73497677D01*
X128492296Y-73478959D01*
X128519246Y-73462806D01*
X128547650Y-73449372D01*
X128577234Y-73438787D01*
X128607713Y-73431152D01*
X128638793Y-73426542D01*
X128670176Y-73425000D01*
X129854824Y-73425000D01*
X129886207Y-73426542D01*
X129886207Y-73426542D01*
G37*
D11*
X129262500Y-74500000D03*
D10*
G36*
X146386207Y-73926542D02*
G01*
X146417287Y-73931152D01*
X146447766Y-73938787D01*
X146477350Y-73949372D01*
X146505754Y-73962806D01*
X146532704Y-73978959D01*
X146557942Y-73997677D01*
X146581223Y-74018777D01*
X146602323Y-74042058D01*
X146621041Y-74067296D01*
X146637194Y-74094246D01*
X146650628Y-74122650D01*
X146661213Y-74152234D01*
X146668848Y-74182713D01*
X146673458Y-74213793D01*
X146675000Y-74245176D01*
X146675000Y-75754824D01*
X146673458Y-75786207D01*
X146668848Y-75817287D01*
X146661213Y-75847766D01*
X146650628Y-75877350D01*
X146637194Y-75905754D01*
X146621041Y-75932704D01*
X146602323Y-75957942D01*
X146581223Y-75981223D01*
X146557942Y-76002323D01*
X146532704Y-76021041D01*
X146505754Y-76037194D01*
X146477350Y-76050628D01*
X146447766Y-76061213D01*
X146417287Y-76068848D01*
X146386207Y-76073458D01*
X146354824Y-76075000D01*
X145170176Y-76075000D01*
X145138793Y-76073458D01*
X145107713Y-76068848D01*
X145077234Y-76061213D01*
X145047650Y-76050628D01*
X145019246Y-76037194D01*
X144992296Y-76021041D01*
X144967058Y-76002323D01*
X144943777Y-75981223D01*
X144922677Y-75957942D01*
X144903959Y-75932704D01*
X144887806Y-75905754D01*
X144874372Y-75877350D01*
X144863787Y-75847766D01*
X144856152Y-75817287D01*
X144851542Y-75786207D01*
X144850000Y-75754824D01*
X144850000Y-74245176D01*
X144851542Y-74213793D01*
X144856152Y-74182713D01*
X144863787Y-74152234D01*
X144874372Y-74122650D01*
X144887806Y-74094246D01*
X144903959Y-74067296D01*
X144922677Y-74042058D01*
X144943777Y-74018777D01*
X144967058Y-73997677D01*
X144992296Y-73978959D01*
X145019246Y-73962806D01*
X145047650Y-73949372D01*
X145077234Y-73938787D01*
X145107713Y-73931152D01*
X145138793Y-73926542D01*
X145170176Y-73925000D01*
X146354824Y-73925000D01*
X146386207Y-73926542D01*
X146386207Y-73926542D01*
G37*
D11*
X145762500Y-75000000D03*
D10*
G36*
X149361207Y-73926542D02*
G01*
X149392287Y-73931152D01*
X149422766Y-73938787D01*
X149452350Y-73949372D01*
X149480754Y-73962806D01*
X149507704Y-73978959D01*
X149532942Y-73997677D01*
X149556223Y-74018777D01*
X149577323Y-74042058D01*
X149596041Y-74067296D01*
X149612194Y-74094246D01*
X149625628Y-74122650D01*
X149636213Y-74152234D01*
X149643848Y-74182713D01*
X149648458Y-74213793D01*
X149650000Y-74245176D01*
X149650000Y-75754824D01*
X149648458Y-75786207D01*
X149643848Y-75817287D01*
X149636213Y-75847766D01*
X149625628Y-75877350D01*
X149612194Y-75905754D01*
X149596041Y-75932704D01*
X149577323Y-75957942D01*
X149556223Y-75981223D01*
X149532942Y-76002323D01*
X149507704Y-76021041D01*
X149480754Y-76037194D01*
X149452350Y-76050628D01*
X149422766Y-76061213D01*
X149392287Y-76068848D01*
X149361207Y-76073458D01*
X149329824Y-76075000D01*
X148145176Y-76075000D01*
X148113793Y-76073458D01*
X148082713Y-76068848D01*
X148052234Y-76061213D01*
X148022650Y-76050628D01*
X147994246Y-76037194D01*
X147967296Y-76021041D01*
X147942058Y-76002323D01*
X147918777Y-75981223D01*
X147897677Y-75957942D01*
X147878959Y-75932704D01*
X147862806Y-75905754D01*
X147849372Y-75877350D01*
X147838787Y-75847766D01*
X147831152Y-75817287D01*
X147826542Y-75786207D01*
X147825000Y-75754824D01*
X147825000Y-74245176D01*
X147826542Y-74213793D01*
X147831152Y-74182713D01*
X147838787Y-74152234D01*
X147849372Y-74122650D01*
X147862806Y-74094246D01*
X147878959Y-74067296D01*
X147897677Y-74042058D01*
X147918777Y-74018777D01*
X147942058Y-73997677D01*
X147967296Y-73978959D01*
X147994246Y-73962806D01*
X148022650Y-73949372D01*
X148052234Y-73938787D01*
X148082713Y-73931152D01*
X148113793Y-73926542D01*
X148145176Y-73925000D01*
X149329824Y-73925000D01*
X149361207Y-73926542D01*
X149361207Y-73926542D01*
G37*
D11*
X148737500Y-75000000D03*
D10*
G36*
X159286207Y-56101542D02*
G01*
X159317287Y-56106152D01*
X159347766Y-56113787D01*
X159377350Y-56124372D01*
X159405754Y-56137806D01*
X159432704Y-56153959D01*
X159457942Y-56172677D01*
X159481223Y-56193777D01*
X159502323Y-56217058D01*
X159521041Y-56242296D01*
X159537194Y-56269246D01*
X159550628Y-56297650D01*
X159561213Y-56327234D01*
X159568848Y-56357713D01*
X159573458Y-56388793D01*
X159575000Y-56420176D01*
X159575000Y-57604824D01*
X159573458Y-57636207D01*
X159568848Y-57667287D01*
X159561213Y-57697766D01*
X159550628Y-57727350D01*
X159537194Y-57755754D01*
X159521041Y-57782704D01*
X159502323Y-57807942D01*
X159481223Y-57831223D01*
X159457942Y-57852323D01*
X159432704Y-57871041D01*
X159405754Y-57887194D01*
X159377350Y-57900628D01*
X159347766Y-57911213D01*
X159317287Y-57918848D01*
X159286207Y-57923458D01*
X159254824Y-57925000D01*
X157745176Y-57925000D01*
X157713793Y-57923458D01*
X157682713Y-57918848D01*
X157652234Y-57911213D01*
X157622650Y-57900628D01*
X157594246Y-57887194D01*
X157567296Y-57871041D01*
X157542058Y-57852323D01*
X157518777Y-57831223D01*
X157497677Y-57807942D01*
X157478959Y-57782704D01*
X157462806Y-57755754D01*
X157449372Y-57727350D01*
X157438787Y-57697766D01*
X157431152Y-57667287D01*
X157426542Y-57636207D01*
X157425000Y-57604824D01*
X157425000Y-56420176D01*
X157426542Y-56388793D01*
X157431152Y-56357713D01*
X157438787Y-56327234D01*
X157449372Y-56297650D01*
X157462806Y-56269246D01*
X157478959Y-56242296D01*
X157497677Y-56217058D01*
X157518777Y-56193777D01*
X157542058Y-56172677D01*
X157567296Y-56153959D01*
X157594246Y-56137806D01*
X157622650Y-56124372D01*
X157652234Y-56113787D01*
X157682713Y-56106152D01*
X157713793Y-56101542D01*
X157745176Y-56100000D01*
X159254824Y-56100000D01*
X159286207Y-56101542D01*
X159286207Y-56101542D01*
G37*
D11*
X158500000Y-57012500D03*
D10*
G36*
X159286207Y-59076542D02*
G01*
X159317287Y-59081152D01*
X159347766Y-59088787D01*
X159377350Y-59099372D01*
X159405754Y-59112806D01*
X159432704Y-59128959D01*
X159457942Y-59147677D01*
X159481223Y-59168777D01*
X159502323Y-59192058D01*
X159521041Y-59217296D01*
X159537194Y-59244246D01*
X159550628Y-59272650D01*
X159561213Y-59302234D01*
X159568848Y-59332713D01*
X159573458Y-59363793D01*
X159575000Y-59395176D01*
X159575000Y-60579824D01*
X159573458Y-60611207D01*
X159568848Y-60642287D01*
X159561213Y-60672766D01*
X159550628Y-60702350D01*
X159537194Y-60730754D01*
X159521041Y-60757704D01*
X159502323Y-60782942D01*
X159481223Y-60806223D01*
X159457942Y-60827323D01*
X159432704Y-60846041D01*
X159405754Y-60862194D01*
X159377350Y-60875628D01*
X159347766Y-60886213D01*
X159317287Y-60893848D01*
X159286207Y-60898458D01*
X159254824Y-60900000D01*
X157745176Y-60900000D01*
X157713793Y-60898458D01*
X157682713Y-60893848D01*
X157652234Y-60886213D01*
X157622650Y-60875628D01*
X157594246Y-60862194D01*
X157567296Y-60846041D01*
X157542058Y-60827323D01*
X157518777Y-60806223D01*
X157497677Y-60782942D01*
X157478959Y-60757704D01*
X157462806Y-60730754D01*
X157449372Y-60702350D01*
X157438787Y-60672766D01*
X157431152Y-60642287D01*
X157426542Y-60611207D01*
X157425000Y-60579824D01*
X157425000Y-59395176D01*
X157426542Y-59363793D01*
X157431152Y-59332713D01*
X157438787Y-59302234D01*
X157449372Y-59272650D01*
X157462806Y-59244246D01*
X157478959Y-59217296D01*
X157497677Y-59192058D01*
X157518777Y-59168777D01*
X157542058Y-59147677D01*
X157567296Y-59128959D01*
X157594246Y-59112806D01*
X157622650Y-59099372D01*
X157652234Y-59088787D01*
X157682713Y-59081152D01*
X157713793Y-59076542D01*
X157745176Y-59075000D01*
X159254824Y-59075000D01*
X159286207Y-59076542D01*
X159286207Y-59076542D01*
G37*
D11*
X158500000Y-59987500D03*
D26*
X146250000Y-58750000D03*
X141250000Y-58750000D03*
X136250000Y-58750000D03*
D27*
X131250000Y-58750000D03*
D10*
G36*
X169786207Y-77851542D02*
G01*
X169817287Y-77856152D01*
X169847766Y-77863787D01*
X169877350Y-77874372D01*
X169905754Y-77887806D01*
X169932704Y-77903959D01*
X169957942Y-77922677D01*
X169981223Y-77943777D01*
X170002323Y-77967058D01*
X170021041Y-77992296D01*
X170037194Y-78019246D01*
X170050628Y-78047650D01*
X170061213Y-78077234D01*
X170068848Y-78107713D01*
X170073458Y-78138793D01*
X170075000Y-78170176D01*
X170075000Y-79354824D01*
X170073458Y-79386207D01*
X170068848Y-79417287D01*
X170061213Y-79447766D01*
X170050628Y-79477350D01*
X170037194Y-79505754D01*
X170021041Y-79532704D01*
X170002323Y-79557942D01*
X169981223Y-79581223D01*
X169957942Y-79602323D01*
X169932704Y-79621041D01*
X169905754Y-79637194D01*
X169877350Y-79650628D01*
X169847766Y-79661213D01*
X169817287Y-79668848D01*
X169786207Y-79673458D01*
X169754824Y-79675000D01*
X168245176Y-79675000D01*
X168213793Y-79673458D01*
X168182713Y-79668848D01*
X168152234Y-79661213D01*
X168122650Y-79650628D01*
X168094246Y-79637194D01*
X168067296Y-79621041D01*
X168042058Y-79602323D01*
X168018777Y-79581223D01*
X167997677Y-79557942D01*
X167978959Y-79532704D01*
X167962806Y-79505754D01*
X167949372Y-79477350D01*
X167938787Y-79447766D01*
X167931152Y-79417287D01*
X167926542Y-79386207D01*
X167925000Y-79354824D01*
X167925000Y-78170176D01*
X167926542Y-78138793D01*
X167931152Y-78107713D01*
X167938787Y-78077234D01*
X167949372Y-78047650D01*
X167962806Y-78019246D01*
X167978959Y-77992296D01*
X167997677Y-77967058D01*
X168018777Y-77943777D01*
X168042058Y-77922677D01*
X168067296Y-77903959D01*
X168094246Y-77887806D01*
X168122650Y-77874372D01*
X168152234Y-77863787D01*
X168182713Y-77856152D01*
X168213793Y-77851542D01*
X168245176Y-77850000D01*
X169754824Y-77850000D01*
X169786207Y-77851542D01*
X169786207Y-77851542D01*
G37*
D11*
X169000000Y-78762500D03*
D10*
G36*
X169786207Y-80826542D02*
G01*
X169817287Y-80831152D01*
X169847766Y-80838787D01*
X169877350Y-80849372D01*
X169905754Y-80862806D01*
X169932704Y-80878959D01*
X169957942Y-80897677D01*
X169981223Y-80918777D01*
X170002323Y-80942058D01*
X170021041Y-80967296D01*
X170037194Y-80994246D01*
X170050628Y-81022650D01*
X170061213Y-81052234D01*
X170068848Y-81082713D01*
X170073458Y-81113793D01*
X170075000Y-81145176D01*
X170075000Y-82329824D01*
X170073458Y-82361207D01*
X170068848Y-82392287D01*
X170061213Y-82422766D01*
X170050628Y-82452350D01*
X170037194Y-82480754D01*
X170021041Y-82507704D01*
X170002323Y-82532942D01*
X169981223Y-82556223D01*
X169957942Y-82577323D01*
X169932704Y-82596041D01*
X169905754Y-82612194D01*
X169877350Y-82625628D01*
X169847766Y-82636213D01*
X169817287Y-82643848D01*
X169786207Y-82648458D01*
X169754824Y-82650000D01*
X168245176Y-82650000D01*
X168213793Y-82648458D01*
X168182713Y-82643848D01*
X168152234Y-82636213D01*
X168122650Y-82625628D01*
X168094246Y-82612194D01*
X168067296Y-82596041D01*
X168042058Y-82577323D01*
X168018777Y-82556223D01*
X167997677Y-82532942D01*
X167978959Y-82507704D01*
X167962806Y-82480754D01*
X167949372Y-82452350D01*
X167938787Y-82422766D01*
X167931152Y-82392287D01*
X167926542Y-82361207D01*
X167925000Y-82329824D01*
X167925000Y-81145176D01*
X167926542Y-81113793D01*
X167931152Y-81082713D01*
X167938787Y-81052234D01*
X167949372Y-81022650D01*
X167962806Y-80994246D01*
X167978959Y-80967296D01*
X167997677Y-80942058D01*
X168018777Y-80918777D01*
X168042058Y-80897677D01*
X168067296Y-80878959D01*
X168094246Y-80862806D01*
X168122650Y-80849372D01*
X168152234Y-80838787D01*
X168182713Y-80831152D01*
X168213793Y-80826542D01*
X168245176Y-80825000D01*
X169754824Y-80825000D01*
X169786207Y-80826542D01*
X169786207Y-80826542D01*
G37*
D11*
X169000000Y-81737500D03*
M02*
