G04 #@! TF.GenerationSoftware,KiCad,Pcbnew,(5.1.4-0-10_14)*
G04 #@! TF.CreationDate,2021-06-10T11:06:10+03:00*
G04 #@! TF.ProjectId,smart-plug,736d6172-742d-4706-9c75-672e6b696361,rev?*
G04 #@! TF.SameCoordinates,Original*
G04 #@! TF.FileFunction,Copper,L1,Top*
G04 #@! TF.FilePolarity,Positive*
%FSLAX46Y46*%
G04 Gerber Fmt 4.6, Leading zero omitted, Abs format (unit mm)*
G04 Created by KiCad (PCBNEW (5.1.4-0-10_14)) date 2021-06-10 11:06:10*
%MOMM*%
%LPD*%
G04 APERTURE LIST*
%ADD10C,0.100000*%
%ADD11R,3.050000X1.520000*%
%ADD12C,1.425000*%
%ADD13R,1.950000X3.150000*%
%ADD14C,1.524000*%
%ADD15R,1.450000X1.000000*%
%ADD16C,2.075000*%
%ADD17R,1.200000X2.200000*%
%ADD18R,5.800000X6.400000*%
%ADD19C,2.290000*%
%ADD20C,0.600000*%
%ADD21R,1.000000X1.200000*%
%ADD22R,0.650000X1.060000*%
%ADD23C,4.000000*%
%ADD24R,1.100000X4.600000*%
%ADD25R,10.800000X9.400000*%
%ADD26C,4.500000*%
%ADD27C,1.500000*%
%ADD28C,1.500000*%
%ADD29C,0.508000*%
%ADD30C,4.000000*%
%ADD31C,0.700000*%
%ADD32C,2.000000*%
%ADD33C,0.254000*%
G04 APERTURE END LIST*
D10*
G36*
X173250000Y-75000000D02*
G01*
X165500000Y-79500000D01*
X163500000Y-76000000D01*
X166000000Y-74250000D01*
X169500000Y-72250000D01*
X171000000Y-71750000D01*
X173250000Y-75000000D01*
G37*
X173250000Y-75000000D02*
X165500000Y-79500000D01*
X163500000Y-76000000D01*
X166000000Y-74250000D01*
X169500000Y-72250000D01*
X171000000Y-71750000D01*
X173250000Y-75000000D01*
D11*
X179800000Y-110145000D03*
X179800000Y-107855000D03*
D10*
G36*
X184899504Y-104626204D02*
G01*
X184923773Y-104629804D01*
X184947571Y-104635765D01*
X184970671Y-104644030D01*
X184992849Y-104654520D01*
X185013893Y-104667133D01*
X185033598Y-104681747D01*
X185051777Y-104698223D01*
X185068253Y-104716402D01*
X185082867Y-104736107D01*
X185095480Y-104757151D01*
X185105970Y-104779329D01*
X185114235Y-104802429D01*
X185120196Y-104826227D01*
X185123796Y-104850496D01*
X185125000Y-104875000D01*
X185125000Y-106125000D01*
X185123796Y-106149504D01*
X185120196Y-106173773D01*
X185114235Y-106197571D01*
X185105970Y-106220671D01*
X185095480Y-106242849D01*
X185082867Y-106263893D01*
X185068253Y-106283598D01*
X185051777Y-106301777D01*
X185033598Y-106318253D01*
X185013893Y-106332867D01*
X184992849Y-106345480D01*
X184970671Y-106355970D01*
X184947571Y-106364235D01*
X184923773Y-106370196D01*
X184899504Y-106373796D01*
X184875000Y-106375000D01*
X183950000Y-106375000D01*
X183925496Y-106373796D01*
X183901227Y-106370196D01*
X183877429Y-106364235D01*
X183854329Y-106355970D01*
X183832151Y-106345480D01*
X183811107Y-106332867D01*
X183791402Y-106318253D01*
X183773223Y-106301777D01*
X183756747Y-106283598D01*
X183742133Y-106263893D01*
X183729520Y-106242849D01*
X183719030Y-106220671D01*
X183710765Y-106197571D01*
X183704804Y-106173773D01*
X183701204Y-106149504D01*
X183700000Y-106125000D01*
X183700000Y-104875000D01*
X183701204Y-104850496D01*
X183704804Y-104826227D01*
X183710765Y-104802429D01*
X183719030Y-104779329D01*
X183729520Y-104757151D01*
X183742133Y-104736107D01*
X183756747Y-104716402D01*
X183773223Y-104698223D01*
X183791402Y-104681747D01*
X183811107Y-104667133D01*
X183832151Y-104654520D01*
X183854329Y-104644030D01*
X183877429Y-104635765D01*
X183901227Y-104629804D01*
X183925496Y-104626204D01*
X183950000Y-104625000D01*
X184875000Y-104625000D01*
X184899504Y-104626204D01*
X184899504Y-104626204D01*
G37*
D12*
X184412500Y-105500000D03*
D10*
G36*
X187874504Y-104626204D02*
G01*
X187898773Y-104629804D01*
X187922571Y-104635765D01*
X187945671Y-104644030D01*
X187967849Y-104654520D01*
X187988893Y-104667133D01*
X188008598Y-104681747D01*
X188026777Y-104698223D01*
X188043253Y-104716402D01*
X188057867Y-104736107D01*
X188070480Y-104757151D01*
X188080970Y-104779329D01*
X188089235Y-104802429D01*
X188095196Y-104826227D01*
X188098796Y-104850496D01*
X188100000Y-104875000D01*
X188100000Y-106125000D01*
X188098796Y-106149504D01*
X188095196Y-106173773D01*
X188089235Y-106197571D01*
X188080970Y-106220671D01*
X188070480Y-106242849D01*
X188057867Y-106263893D01*
X188043253Y-106283598D01*
X188026777Y-106301777D01*
X188008598Y-106318253D01*
X187988893Y-106332867D01*
X187967849Y-106345480D01*
X187945671Y-106355970D01*
X187922571Y-106364235D01*
X187898773Y-106370196D01*
X187874504Y-106373796D01*
X187850000Y-106375000D01*
X186925000Y-106375000D01*
X186900496Y-106373796D01*
X186876227Y-106370196D01*
X186852429Y-106364235D01*
X186829329Y-106355970D01*
X186807151Y-106345480D01*
X186786107Y-106332867D01*
X186766402Y-106318253D01*
X186748223Y-106301777D01*
X186731747Y-106283598D01*
X186717133Y-106263893D01*
X186704520Y-106242849D01*
X186694030Y-106220671D01*
X186685765Y-106197571D01*
X186679804Y-106173773D01*
X186676204Y-106149504D01*
X186675000Y-106125000D01*
X186675000Y-104875000D01*
X186676204Y-104850496D01*
X186679804Y-104826227D01*
X186685765Y-104802429D01*
X186694030Y-104779329D01*
X186704520Y-104757151D01*
X186717133Y-104736107D01*
X186731747Y-104716402D01*
X186748223Y-104698223D01*
X186766402Y-104681747D01*
X186786107Y-104667133D01*
X186807151Y-104654520D01*
X186829329Y-104644030D01*
X186852429Y-104635765D01*
X186876227Y-104629804D01*
X186900496Y-104626204D01*
X186925000Y-104625000D01*
X187850000Y-104625000D01*
X187874504Y-104626204D01*
X187874504Y-104626204D01*
G37*
D12*
X187387500Y-105500000D03*
D13*
X173700000Y-80500000D03*
X168800000Y-80500000D03*
D14*
X194541000Y-91619000D03*
X194541000Y-96699000D03*
X194541000Y-83999000D03*
X194541000Y-89079000D03*
X194541000Y-94159000D03*
X194541000Y-86539000D03*
X194541000Y-101779000D03*
X194541000Y-99239000D03*
D15*
X177025000Y-78750000D03*
X182475000Y-78750000D03*
X177025000Y-82750000D03*
X182475000Y-82750000D03*
D10*
G36*
X163724504Y-99126204D02*
G01*
X163748773Y-99129804D01*
X163772571Y-99135765D01*
X163795671Y-99144030D01*
X163817849Y-99154520D01*
X163838893Y-99167133D01*
X163858598Y-99181747D01*
X163876777Y-99198223D01*
X163893253Y-99216402D01*
X163907867Y-99236107D01*
X163920480Y-99257151D01*
X163930970Y-99279329D01*
X163939235Y-99302429D01*
X163945196Y-99326227D01*
X163948796Y-99350496D01*
X163950000Y-99375000D01*
X163950000Y-100625000D01*
X163948796Y-100649504D01*
X163945196Y-100673773D01*
X163939235Y-100697571D01*
X163930970Y-100720671D01*
X163920480Y-100742849D01*
X163907867Y-100763893D01*
X163893253Y-100783598D01*
X163876777Y-100801777D01*
X163858598Y-100818253D01*
X163838893Y-100832867D01*
X163817849Y-100845480D01*
X163795671Y-100855970D01*
X163772571Y-100864235D01*
X163748773Y-100870196D01*
X163724504Y-100873796D01*
X163700000Y-100875000D01*
X162775000Y-100875000D01*
X162750496Y-100873796D01*
X162726227Y-100870196D01*
X162702429Y-100864235D01*
X162679329Y-100855970D01*
X162657151Y-100845480D01*
X162636107Y-100832867D01*
X162616402Y-100818253D01*
X162598223Y-100801777D01*
X162581747Y-100783598D01*
X162567133Y-100763893D01*
X162554520Y-100742849D01*
X162544030Y-100720671D01*
X162535765Y-100697571D01*
X162529804Y-100673773D01*
X162526204Y-100649504D01*
X162525000Y-100625000D01*
X162525000Y-99375000D01*
X162526204Y-99350496D01*
X162529804Y-99326227D01*
X162535765Y-99302429D01*
X162544030Y-99279329D01*
X162554520Y-99257151D01*
X162567133Y-99236107D01*
X162581747Y-99216402D01*
X162598223Y-99198223D01*
X162616402Y-99181747D01*
X162636107Y-99167133D01*
X162657151Y-99154520D01*
X162679329Y-99144030D01*
X162702429Y-99135765D01*
X162726227Y-99129804D01*
X162750496Y-99126204D01*
X162775000Y-99125000D01*
X163700000Y-99125000D01*
X163724504Y-99126204D01*
X163724504Y-99126204D01*
G37*
D12*
X163237500Y-100000000D03*
D10*
G36*
X160749504Y-99126204D02*
G01*
X160773773Y-99129804D01*
X160797571Y-99135765D01*
X160820671Y-99144030D01*
X160842849Y-99154520D01*
X160863893Y-99167133D01*
X160883598Y-99181747D01*
X160901777Y-99198223D01*
X160918253Y-99216402D01*
X160932867Y-99236107D01*
X160945480Y-99257151D01*
X160955970Y-99279329D01*
X160964235Y-99302429D01*
X160970196Y-99326227D01*
X160973796Y-99350496D01*
X160975000Y-99375000D01*
X160975000Y-100625000D01*
X160973796Y-100649504D01*
X160970196Y-100673773D01*
X160964235Y-100697571D01*
X160955970Y-100720671D01*
X160945480Y-100742849D01*
X160932867Y-100763893D01*
X160918253Y-100783598D01*
X160901777Y-100801777D01*
X160883598Y-100818253D01*
X160863893Y-100832867D01*
X160842849Y-100845480D01*
X160820671Y-100855970D01*
X160797571Y-100864235D01*
X160773773Y-100870196D01*
X160749504Y-100873796D01*
X160725000Y-100875000D01*
X159800000Y-100875000D01*
X159775496Y-100873796D01*
X159751227Y-100870196D01*
X159727429Y-100864235D01*
X159704329Y-100855970D01*
X159682151Y-100845480D01*
X159661107Y-100832867D01*
X159641402Y-100818253D01*
X159623223Y-100801777D01*
X159606747Y-100783598D01*
X159592133Y-100763893D01*
X159579520Y-100742849D01*
X159569030Y-100720671D01*
X159560765Y-100697571D01*
X159554804Y-100673773D01*
X159551204Y-100649504D01*
X159550000Y-100625000D01*
X159550000Y-99375000D01*
X159551204Y-99350496D01*
X159554804Y-99326227D01*
X159560765Y-99302429D01*
X159569030Y-99279329D01*
X159579520Y-99257151D01*
X159592133Y-99236107D01*
X159606747Y-99216402D01*
X159623223Y-99198223D01*
X159641402Y-99181747D01*
X159661107Y-99167133D01*
X159682151Y-99154520D01*
X159704329Y-99144030D01*
X159727429Y-99135765D01*
X159751227Y-99129804D01*
X159775496Y-99126204D01*
X159800000Y-99125000D01*
X160725000Y-99125000D01*
X160749504Y-99126204D01*
X160749504Y-99126204D01*
G37*
D12*
X160262500Y-100000000D03*
D10*
G36*
X169499504Y-108726204D02*
G01*
X169523773Y-108729804D01*
X169547571Y-108735765D01*
X169570671Y-108744030D01*
X169592849Y-108754520D01*
X169613893Y-108767133D01*
X169633598Y-108781747D01*
X169651777Y-108798223D01*
X169668253Y-108816402D01*
X169682867Y-108836107D01*
X169695480Y-108857151D01*
X169705970Y-108879329D01*
X169714235Y-108902429D01*
X169720196Y-108926227D01*
X169723796Y-108950496D01*
X169725000Y-108975000D01*
X169725000Y-110225000D01*
X169723796Y-110249504D01*
X169720196Y-110273773D01*
X169714235Y-110297571D01*
X169705970Y-110320671D01*
X169695480Y-110342849D01*
X169682867Y-110363893D01*
X169668253Y-110383598D01*
X169651777Y-110401777D01*
X169633598Y-110418253D01*
X169613893Y-110432867D01*
X169592849Y-110445480D01*
X169570671Y-110455970D01*
X169547571Y-110464235D01*
X169523773Y-110470196D01*
X169499504Y-110473796D01*
X169475000Y-110475000D01*
X168550000Y-110475000D01*
X168525496Y-110473796D01*
X168501227Y-110470196D01*
X168477429Y-110464235D01*
X168454329Y-110455970D01*
X168432151Y-110445480D01*
X168411107Y-110432867D01*
X168391402Y-110418253D01*
X168373223Y-110401777D01*
X168356747Y-110383598D01*
X168342133Y-110363893D01*
X168329520Y-110342849D01*
X168319030Y-110320671D01*
X168310765Y-110297571D01*
X168304804Y-110273773D01*
X168301204Y-110249504D01*
X168300000Y-110225000D01*
X168300000Y-108975000D01*
X168301204Y-108950496D01*
X168304804Y-108926227D01*
X168310765Y-108902429D01*
X168319030Y-108879329D01*
X168329520Y-108857151D01*
X168342133Y-108836107D01*
X168356747Y-108816402D01*
X168373223Y-108798223D01*
X168391402Y-108781747D01*
X168411107Y-108767133D01*
X168432151Y-108754520D01*
X168454329Y-108744030D01*
X168477429Y-108735765D01*
X168501227Y-108729804D01*
X168525496Y-108726204D01*
X168550000Y-108725000D01*
X169475000Y-108725000D01*
X169499504Y-108726204D01*
X169499504Y-108726204D01*
G37*
D12*
X169012500Y-109600000D03*
D10*
G36*
X172474504Y-108726204D02*
G01*
X172498773Y-108729804D01*
X172522571Y-108735765D01*
X172545671Y-108744030D01*
X172567849Y-108754520D01*
X172588893Y-108767133D01*
X172608598Y-108781747D01*
X172626777Y-108798223D01*
X172643253Y-108816402D01*
X172657867Y-108836107D01*
X172670480Y-108857151D01*
X172680970Y-108879329D01*
X172689235Y-108902429D01*
X172695196Y-108926227D01*
X172698796Y-108950496D01*
X172700000Y-108975000D01*
X172700000Y-110225000D01*
X172698796Y-110249504D01*
X172695196Y-110273773D01*
X172689235Y-110297571D01*
X172680970Y-110320671D01*
X172670480Y-110342849D01*
X172657867Y-110363893D01*
X172643253Y-110383598D01*
X172626777Y-110401777D01*
X172608598Y-110418253D01*
X172588893Y-110432867D01*
X172567849Y-110445480D01*
X172545671Y-110455970D01*
X172522571Y-110464235D01*
X172498773Y-110470196D01*
X172474504Y-110473796D01*
X172450000Y-110475000D01*
X171525000Y-110475000D01*
X171500496Y-110473796D01*
X171476227Y-110470196D01*
X171452429Y-110464235D01*
X171429329Y-110455970D01*
X171407151Y-110445480D01*
X171386107Y-110432867D01*
X171366402Y-110418253D01*
X171348223Y-110401777D01*
X171331747Y-110383598D01*
X171317133Y-110363893D01*
X171304520Y-110342849D01*
X171294030Y-110320671D01*
X171285765Y-110297571D01*
X171279804Y-110273773D01*
X171276204Y-110249504D01*
X171275000Y-110225000D01*
X171275000Y-108975000D01*
X171276204Y-108950496D01*
X171279804Y-108926227D01*
X171285765Y-108902429D01*
X171294030Y-108879329D01*
X171304520Y-108857151D01*
X171317133Y-108836107D01*
X171331747Y-108816402D01*
X171348223Y-108798223D01*
X171366402Y-108781747D01*
X171386107Y-108767133D01*
X171407151Y-108754520D01*
X171429329Y-108744030D01*
X171452429Y-108735765D01*
X171476227Y-108729804D01*
X171500496Y-108726204D01*
X171525000Y-108725000D01*
X172450000Y-108725000D01*
X172474504Y-108726204D01*
X172474504Y-108726204D01*
G37*
D12*
X171987500Y-109600000D03*
D10*
G36*
X169599504Y-103226204D02*
G01*
X169623773Y-103229804D01*
X169647571Y-103235765D01*
X169670671Y-103244030D01*
X169692849Y-103254520D01*
X169713893Y-103267133D01*
X169733598Y-103281747D01*
X169751777Y-103298223D01*
X169768253Y-103316402D01*
X169782867Y-103336107D01*
X169795480Y-103357151D01*
X169805970Y-103379329D01*
X169814235Y-103402429D01*
X169820196Y-103426227D01*
X169823796Y-103450496D01*
X169825000Y-103475000D01*
X169825000Y-104725000D01*
X169823796Y-104749504D01*
X169820196Y-104773773D01*
X169814235Y-104797571D01*
X169805970Y-104820671D01*
X169795480Y-104842849D01*
X169782867Y-104863893D01*
X169768253Y-104883598D01*
X169751777Y-104901777D01*
X169733598Y-104918253D01*
X169713893Y-104932867D01*
X169692849Y-104945480D01*
X169670671Y-104955970D01*
X169647571Y-104964235D01*
X169623773Y-104970196D01*
X169599504Y-104973796D01*
X169575000Y-104975000D01*
X168650000Y-104975000D01*
X168625496Y-104973796D01*
X168601227Y-104970196D01*
X168577429Y-104964235D01*
X168554329Y-104955970D01*
X168532151Y-104945480D01*
X168511107Y-104932867D01*
X168491402Y-104918253D01*
X168473223Y-104901777D01*
X168456747Y-104883598D01*
X168442133Y-104863893D01*
X168429520Y-104842849D01*
X168419030Y-104820671D01*
X168410765Y-104797571D01*
X168404804Y-104773773D01*
X168401204Y-104749504D01*
X168400000Y-104725000D01*
X168400000Y-103475000D01*
X168401204Y-103450496D01*
X168404804Y-103426227D01*
X168410765Y-103402429D01*
X168419030Y-103379329D01*
X168429520Y-103357151D01*
X168442133Y-103336107D01*
X168456747Y-103316402D01*
X168473223Y-103298223D01*
X168491402Y-103281747D01*
X168511107Y-103267133D01*
X168532151Y-103254520D01*
X168554329Y-103244030D01*
X168577429Y-103235765D01*
X168601227Y-103229804D01*
X168625496Y-103226204D01*
X168650000Y-103225000D01*
X169575000Y-103225000D01*
X169599504Y-103226204D01*
X169599504Y-103226204D01*
G37*
D12*
X169112500Y-104100000D03*
D10*
G36*
X172574504Y-103226204D02*
G01*
X172598773Y-103229804D01*
X172622571Y-103235765D01*
X172645671Y-103244030D01*
X172667849Y-103254520D01*
X172688893Y-103267133D01*
X172708598Y-103281747D01*
X172726777Y-103298223D01*
X172743253Y-103316402D01*
X172757867Y-103336107D01*
X172770480Y-103357151D01*
X172780970Y-103379329D01*
X172789235Y-103402429D01*
X172795196Y-103426227D01*
X172798796Y-103450496D01*
X172800000Y-103475000D01*
X172800000Y-104725000D01*
X172798796Y-104749504D01*
X172795196Y-104773773D01*
X172789235Y-104797571D01*
X172780970Y-104820671D01*
X172770480Y-104842849D01*
X172757867Y-104863893D01*
X172743253Y-104883598D01*
X172726777Y-104901777D01*
X172708598Y-104918253D01*
X172688893Y-104932867D01*
X172667849Y-104945480D01*
X172645671Y-104955970D01*
X172622571Y-104964235D01*
X172598773Y-104970196D01*
X172574504Y-104973796D01*
X172550000Y-104975000D01*
X171625000Y-104975000D01*
X171600496Y-104973796D01*
X171576227Y-104970196D01*
X171552429Y-104964235D01*
X171529329Y-104955970D01*
X171507151Y-104945480D01*
X171486107Y-104932867D01*
X171466402Y-104918253D01*
X171448223Y-104901777D01*
X171431747Y-104883598D01*
X171417133Y-104863893D01*
X171404520Y-104842849D01*
X171394030Y-104820671D01*
X171385765Y-104797571D01*
X171379804Y-104773773D01*
X171376204Y-104749504D01*
X171375000Y-104725000D01*
X171375000Y-103475000D01*
X171376204Y-103450496D01*
X171379804Y-103426227D01*
X171385765Y-103402429D01*
X171394030Y-103379329D01*
X171404520Y-103357151D01*
X171417133Y-103336107D01*
X171431747Y-103316402D01*
X171448223Y-103298223D01*
X171466402Y-103281747D01*
X171486107Y-103267133D01*
X171507151Y-103254520D01*
X171529329Y-103244030D01*
X171552429Y-103235765D01*
X171576227Y-103229804D01*
X171600496Y-103226204D01*
X171625000Y-103225000D01*
X172550000Y-103225000D01*
X172574504Y-103226204D01*
X172574504Y-103226204D01*
G37*
D12*
X172087500Y-104100000D03*
D10*
G36*
X179599504Y-102526204D02*
G01*
X179623773Y-102529804D01*
X179647571Y-102535765D01*
X179670671Y-102544030D01*
X179692849Y-102554520D01*
X179713893Y-102567133D01*
X179733598Y-102581747D01*
X179751777Y-102598223D01*
X179768253Y-102616402D01*
X179782867Y-102636107D01*
X179795480Y-102657151D01*
X179805970Y-102679329D01*
X179814235Y-102702429D01*
X179820196Y-102726227D01*
X179823796Y-102750496D01*
X179825000Y-102775000D01*
X179825000Y-104025000D01*
X179823796Y-104049504D01*
X179820196Y-104073773D01*
X179814235Y-104097571D01*
X179805970Y-104120671D01*
X179795480Y-104142849D01*
X179782867Y-104163893D01*
X179768253Y-104183598D01*
X179751777Y-104201777D01*
X179733598Y-104218253D01*
X179713893Y-104232867D01*
X179692849Y-104245480D01*
X179670671Y-104255970D01*
X179647571Y-104264235D01*
X179623773Y-104270196D01*
X179599504Y-104273796D01*
X179575000Y-104275000D01*
X178650000Y-104275000D01*
X178625496Y-104273796D01*
X178601227Y-104270196D01*
X178577429Y-104264235D01*
X178554329Y-104255970D01*
X178532151Y-104245480D01*
X178511107Y-104232867D01*
X178491402Y-104218253D01*
X178473223Y-104201777D01*
X178456747Y-104183598D01*
X178442133Y-104163893D01*
X178429520Y-104142849D01*
X178419030Y-104120671D01*
X178410765Y-104097571D01*
X178404804Y-104073773D01*
X178401204Y-104049504D01*
X178400000Y-104025000D01*
X178400000Y-102775000D01*
X178401204Y-102750496D01*
X178404804Y-102726227D01*
X178410765Y-102702429D01*
X178419030Y-102679329D01*
X178429520Y-102657151D01*
X178442133Y-102636107D01*
X178456747Y-102616402D01*
X178473223Y-102598223D01*
X178491402Y-102581747D01*
X178511107Y-102567133D01*
X178532151Y-102554520D01*
X178554329Y-102544030D01*
X178577429Y-102535765D01*
X178601227Y-102529804D01*
X178625496Y-102526204D01*
X178650000Y-102525000D01*
X179575000Y-102525000D01*
X179599504Y-102526204D01*
X179599504Y-102526204D01*
G37*
D12*
X179112500Y-103400000D03*
D10*
G36*
X182574504Y-102526204D02*
G01*
X182598773Y-102529804D01*
X182622571Y-102535765D01*
X182645671Y-102544030D01*
X182667849Y-102554520D01*
X182688893Y-102567133D01*
X182708598Y-102581747D01*
X182726777Y-102598223D01*
X182743253Y-102616402D01*
X182757867Y-102636107D01*
X182770480Y-102657151D01*
X182780970Y-102679329D01*
X182789235Y-102702429D01*
X182795196Y-102726227D01*
X182798796Y-102750496D01*
X182800000Y-102775000D01*
X182800000Y-104025000D01*
X182798796Y-104049504D01*
X182795196Y-104073773D01*
X182789235Y-104097571D01*
X182780970Y-104120671D01*
X182770480Y-104142849D01*
X182757867Y-104163893D01*
X182743253Y-104183598D01*
X182726777Y-104201777D01*
X182708598Y-104218253D01*
X182688893Y-104232867D01*
X182667849Y-104245480D01*
X182645671Y-104255970D01*
X182622571Y-104264235D01*
X182598773Y-104270196D01*
X182574504Y-104273796D01*
X182550000Y-104275000D01*
X181625000Y-104275000D01*
X181600496Y-104273796D01*
X181576227Y-104270196D01*
X181552429Y-104264235D01*
X181529329Y-104255970D01*
X181507151Y-104245480D01*
X181486107Y-104232867D01*
X181466402Y-104218253D01*
X181448223Y-104201777D01*
X181431747Y-104183598D01*
X181417133Y-104163893D01*
X181404520Y-104142849D01*
X181394030Y-104120671D01*
X181385765Y-104097571D01*
X181379804Y-104073773D01*
X181376204Y-104049504D01*
X181375000Y-104025000D01*
X181375000Y-102775000D01*
X181376204Y-102750496D01*
X181379804Y-102726227D01*
X181385765Y-102702429D01*
X181394030Y-102679329D01*
X181404520Y-102657151D01*
X181417133Y-102636107D01*
X181431747Y-102616402D01*
X181448223Y-102598223D01*
X181466402Y-102581747D01*
X181486107Y-102567133D01*
X181507151Y-102554520D01*
X181529329Y-102544030D01*
X181552429Y-102535765D01*
X181576227Y-102529804D01*
X181600496Y-102526204D01*
X181625000Y-102525000D01*
X182550000Y-102525000D01*
X182574504Y-102526204D01*
X182574504Y-102526204D01*
G37*
D12*
X182087500Y-103400000D03*
D10*
G36*
X171974504Y-105926204D02*
G01*
X171998773Y-105929804D01*
X172022571Y-105935765D01*
X172045671Y-105944030D01*
X172067849Y-105954520D01*
X172088893Y-105967133D01*
X172108598Y-105981747D01*
X172126777Y-105998223D01*
X172143253Y-106016402D01*
X172157867Y-106036107D01*
X172170480Y-106057151D01*
X172180970Y-106079329D01*
X172189235Y-106102429D01*
X172195196Y-106126227D01*
X172198796Y-106150496D01*
X172200000Y-106175000D01*
X172200000Y-107425000D01*
X172198796Y-107449504D01*
X172195196Y-107473773D01*
X172189235Y-107497571D01*
X172180970Y-107520671D01*
X172170480Y-107542849D01*
X172157867Y-107563893D01*
X172143253Y-107583598D01*
X172126777Y-107601777D01*
X172108598Y-107618253D01*
X172088893Y-107632867D01*
X172067849Y-107645480D01*
X172045671Y-107655970D01*
X172022571Y-107664235D01*
X171998773Y-107670196D01*
X171974504Y-107673796D01*
X171950000Y-107675000D01*
X171025000Y-107675000D01*
X171000496Y-107673796D01*
X170976227Y-107670196D01*
X170952429Y-107664235D01*
X170929329Y-107655970D01*
X170907151Y-107645480D01*
X170886107Y-107632867D01*
X170866402Y-107618253D01*
X170848223Y-107601777D01*
X170831747Y-107583598D01*
X170817133Y-107563893D01*
X170804520Y-107542849D01*
X170794030Y-107520671D01*
X170785765Y-107497571D01*
X170779804Y-107473773D01*
X170776204Y-107449504D01*
X170775000Y-107425000D01*
X170775000Y-106175000D01*
X170776204Y-106150496D01*
X170779804Y-106126227D01*
X170785765Y-106102429D01*
X170794030Y-106079329D01*
X170804520Y-106057151D01*
X170817133Y-106036107D01*
X170831747Y-106016402D01*
X170848223Y-105998223D01*
X170866402Y-105981747D01*
X170886107Y-105967133D01*
X170907151Y-105954520D01*
X170929329Y-105944030D01*
X170952429Y-105935765D01*
X170976227Y-105929804D01*
X171000496Y-105926204D01*
X171025000Y-105925000D01*
X171950000Y-105925000D01*
X171974504Y-105926204D01*
X171974504Y-105926204D01*
G37*
D12*
X171487500Y-106800000D03*
D10*
G36*
X168999504Y-105926204D02*
G01*
X169023773Y-105929804D01*
X169047571Y-105935765D01*
X169070671Y-105944030D01*
X169092849Y-105954520D01*
X169113893Y-105967133D01*
X169133598Y-105981747D01*
X169151777Y-105998223D01*
X169168253Y-106016402D01*
X169182867Y-106036107D01*
X169195480Y-106057151D01*
X169205970Y-106079329D01*
X169214235Y-106102429D01*
X169220196Y-106126227D01*
X169223796Y-106150496D01*
X169225000Y-106175000D01*
X169225000Y-107425000D01*
X169223796Y-107449504D01*
X169220196Y-107473773D01*
X169214235Y-107497571D01*
X169205970Y-107520671D01*
X169195480Y-107542849D01*
X169182867Y-107563893D01*
X169168253Y-107583598D01*
X169151777Y-107601777D01*
X169133598Y-107618253D01*
X169113893Y-107632867D01*
X169092849Y-107645480D01*
X169070671Y-107655970D01*
X169047571Y-107664235D01*
X169023773Y-107670196D01*
X168999504Y-107673796D01*
X168975000Y-107675000D01*
X168050000Y-107675000D01*
X168025496Y-107673796D01*
X168001227Y-107670196D01*
X167977429Y-107664235D01*
X167954329Y-107655970D01*
X167932151Y-107645480D01*
X167911107Y-107632867D01*
X167891402Y-107618253D01*
X167873223Y-107601777D01*
X167856747Y-107583598D01*
X167842133Y-107563893D01*
X167829520Y-107542849D01*
X167819030Y-107520671D01*
X167810765Y-107497571D01*
X167804804Y-107473773D01*
X167801204Y-107449504D01*
X167800000Y-107425000D01*
X167800000Y-106175000D01*
X167801204Y-106150496D01*
X167804804Y-106126227D01*
X167810765Y-106102429D01*
X167819030Y-106079329D01*
X167829520Y-106057151D01*
X167842133Y-106036107D01*
X167856747Y-106016402D01*
X167873223Y-105998223D01*
X167891402Y-105981747D01*
X167911107Y-105967133D01*
X167932151Y-105954520D01*
X167954329Y-105944030D01*
X167977429Y-105935765D01*
X168001227Y-105929804D01*
X168025496Y-105926204D01*
X168050000Y-105925000D01*
X168975000Y-105925000D01*
X168999504Y-105926204D01*
X168999504Y-105926204D01*
G37*
D12*
X168512500Y-106800000D03*
D10*
G36*
X168799504Y-84826204D02*
G01*
X168823773Y-84829804D01*
X168847571Y-84835765D01*
X168870671Y-84844030D01*
X168892849Y-84854520D01*
X168913893Y-84867133D01*
X168933598Y-84881747D01*
X168951777Y-84898223D01*
X168968253Y-84916402D01*
X168982867Y-84936107D01*
X168995480Y-84957151D01*
X169005970Y-84979329D01*
X169014235Y-85002429D01*
X169020196Y-85026227D01*
X169023796Y-85050496D01*
X169025000Y-85075000D01*
X169025000Y-87125000D01*
X169023796Y-87149504D01*
X169020196Y-87173773D01*
X169014235Y-87197571D01*
X169005970Y-87220671D01*
X168995480Y-87242849D01*
X168982867Y-87263893D01*
X168968253Y-87283598D01*
X168951777Y-87301777D01*
X168933598Y-87318253D01*
X168913893Y-87332867D01*
X168892849Y-87345480D01*
X168870671Y-87355970D01*
X168847571Y-87364235D01*
X168823773Y-87370196D01*
X168799504Y-87373796D01*
X168775000Y-87375000D01*
X167200000Y-87375000D01*
X167175496Y-87373796D01*
X167151227Y-87370196D01*
X167127429Y-87364235D01*
X167104329Y-87355970D01*
X167082151Y-87345480D01*
X167061107Y-87332867D01*
X167041402Y-87318253D01*
X167023223Y-87301777D01*
X167006747Y-87283598D01*
X166992133Y-87263893D01*
X166979520Y-87242849D01*
X166969030Y-87220671D01*
X166960765Y-87197571D01*
X166954804Y-87173773D01*
X166951204Y-87149504D01*
X166950000Y-87125000D01*
X166950000Y-85075000D01*
X166951204Y-85050496D01*
X166954804Y-85026227D01*
X166960765Y-85002429D01*
X166969030Y-84979329D01*
X166979520Y-84957151D01*
X166992133Y-84936107D01*
X167006747Y-84916402D01*
X167023223Y-84898223D01*
X167041402Y-84881747D01*
X167061107Y-84867133D01*
X167082151Y-84854520D01*
X167104329Y-84844030D01*
X167127429Y-84835765D01*
X167151227Y-84829804D01*
X167175496Y-84826204D01*
X167200000Y-84825000D01*
X168775000Y-84825000D01*
X168799504Y-84826204D01*
X168799504Y-84826204D01*
G37*
D16*
X167987500Y-86100000D03*
D10*
G36*
X175024504Y-84826204D02*
G01*
X175048773Y-84829804D01*
X175072571Y-84835765D01*
X175095671Y-84844030D01*
X175117849Y-84854520D01*
X175138893Y-84867133D01*
X175158598Y-84881747D01*
X175176777Y-84898223D01*
X175193253Y-84916402D01*
X175207867Y-84936107D01*
X175220480Y-84957151D01*
X175230970Y-84979329D01*
X175239235Y-85002429D01*
X175245196Y-85026227D01*
X175248796Y-85050496D01*
X175250000Y-85075000D01*
X175250000Y-87125000D01*
X175248796Y-87149504D01*
X175245196Y-87173773D01*
X175239235Y-87197571D01*
X175230970Y-87220671D01*
X175220480Y-87242849D01*
X175207867Y-87263893D01*
X175193253Y-87283598D01*
X175176777Y-87301777D01*
X175158598Y-87318253D01*
X175138893Y-87332867D01*
X175117849Y-87345480D01*
X175095671Y-87355970D01*
X175072571Y-87364235D01*
X175048773Y-87370196D01*
X175024504Y-87373796D01*
X175000000Y-87375000D01*
X173425000Y-87375000D01*
X173400496Y-87373796D01*
X173376227Y-87370196D01*
X173352429Y-87364235D01*
X173329329Y-87355970D01*
X173307151Y-87345480D01*
X173286107Y-87332867D01*
X173266402Y-87318253D01*
X173248223Y-87301777D01*
X173231747Y-87283598D01*
X173217133Y-87263893D01*
X173204520Y-87242849D01*
X173194030Y-87220671D01*
X173185765Y-87197571D01*
X173179804Y-87173773D01*
X173176204Y-87149504D01*
X173175000Y-87125000D01*
X173175000Y-85075000D01*
X173176204Y-85050496D01*
X173179804Y-85026227D01*
X173185765Y-85002429D01*
X173194030Y-84979329D01*
X173204520Y-84957151D01*
X173217133Y-84936107D01*
X173231747Y-84916402D01*
X173248223Y-84898223D01*
X173266402Y-84881747D01*
X173286107Y-84867133D01*
X173307151Y-84854520D01*
X173329329Y-84844030D01*
X173352429Y-84835765D01*
X173376227Y-84829804D01*
X173400496Y-84826204D01*
X173425000Y-84825000D01*
X175000000Y-84825000D01*
X175024504Y-84826204D01*
X175024504Y-84826204D01*
G37*
D16*
X174212500Y-86100000D03*
D10*
G36*
X168099504Y-93626204D02*
G01*
X168123773Y-93629804D01*
X168147571Y-93635765D01*
X168170671Y-93644030D01*
X168192849Y-93654520D01*
X168213893Y-93667133D01*
X168233598Y-93681747D01*
X168251777Y-93698223D01*
X168268253Y-93716402D01*
X168282867Y-93736107D01*
X168295480Y-93757151D01*
X168305970Y-93779329D01*
X168314235Y-93802429D01*
X168320196Y-93826227D01*
X168323796Y-93850496D01*
X168325000Y-93875000D01*
X168325000Y-95125000D01*
X168323796Y-95149504D01*
X168320196Y-95173773D01*
X168314235Y-95197571D01*
X168305970Y-95220671D01*
X168295480Y-95242849D01*
X168282867Y-95263893D01*
X168268253Y-95283598D01*
X168251777Y-95301777D01*
X168233598Y-95318253D01*
X168213893Y-95332867D01*
X168192849Y-95345480D01*
X168170671Y-95355970D01*
X168147571Y-95364235D01*
X168123773Y-95370196D01*
X168099504Y-95373796D01*
X168075000Y-95375000D01*
X167150000Y-95375000D01*
X167125496Y-95373796D01*
X167101227Y-95370196D01*
X167077429Y-95364235D01*
X167054329Y-95355970D01*
X167032151Y-95345480D01*
X167011107Y-95332867D01*
X166991402Y-95318253D01*
X166973223Y-95301777D01*
X166956747Y-95283598D01*
X166942133Y-95263893D01*
X166929520Y-95242849D01*
X166919030Y-95220671D01*
X166910765Y-95197571D01*
X166904804Y-95173773D01*
X166901204Y-95149504D01*
X166900000Y-95125000D01*
X166900000Y-93875000D01*
X166901204Y-93850496D01*
X166904804Y-93826227D01*
X166910765Y-93802429D01*
X166919030Y-93779329D01*
X166929520Y-93757151D01*
X166942133Y-93736107D01*
X166956747Y-93716402D01*
X166973223Y-93698223D01*
X166991402Y-93681747D01*
X167011107Y-93667133D01*
X167032151Y-93654520D01*
X167054329Y-93644030D01*
X167077429Y-93635765D01*
X167101227Y-93629804D01*
X167125496Y-93626204D01*
X167150000Y-93625000D01*
X168075000Y-93625000D01*
X168099504Y-93626204D01*
X168099504Y-93626204D01*
G37*
D12*
X167612500Y-94500000D03*
D10*
G36*
X171074504Y-93626204D02*
G01*
X171098773Y-93629804D01*
X171122571Y-93635765D01*
X171145671Y-93644030D01*
X171167849Y-93654520D01*
X171188893Y-93667133D01*
X171208598Y-93681747D01*
X171226777Y-93698223D01*
X171243253Y-93716402D01*
X171257867Y-93736107D01*
X171270480Y-93757151D01*
X171280970Y-93779329D01*
X171289235Y-93802429D01*
X171295196Y-93826227D01*
X171298796Y-93850496D01*
X171300000Y-93875000D01*
X171300000Y-95125000D01*
X171298796Y-95149504D01*
X171295196Y-95173773D01*
X171289235Y-95197571D01*
X171280970Y-95220671D01*
X171270480Y-95242849D01*
X171257867Y-95263893D01*
X171243253Y-95283598D01*
X171226777Y-95301777D01*
X171208598Y-95318253D01*
X171188893Y-95332867D01*
X171167849Y-95345480D01*
X171145671Y-95355970D01*
X171122571Y-95364235D01*
X171098773Y-95370196D01*
X171074504Y-95373796D01*
X171050000Y-95375000D01*
X170125000Y-95375000D01*
X170100496Y-95373796D01*
X170076227Y-95370196D01*
X170052429Y-95364235D01*
X170029329Y-95355970D01*
X170007151Y-95345480D01*
X169986107Y-95332867D01*
X169966402Y-95318253D01*
X169948223Y-95301777D01*
X169931747Y-95283598D01*
X169917133Y-95263893D01*
X169904520Y-95242849D01*
X169894030Y-95220671D01*
X169885765Y-95197571D01*
X169879804Y-95173773D01*
X169876204Y-95149504D01*
X169875000Y-95125000D01*
X169875000Y-93875000D01*
X169876204Y-93850496D01*
X169879804Y-93826227D01*
X169885765Y-93802429D01*
X169894030Y-93779329D01*
X169904520Y-93757151D01*
X169917133Y-93736107D01*
X169931747Y-93716402D01*
X169948223Y-93698223D01*
X169966402Y-93681747D01*
X169986107Y-93667133D01*
X170007151Y-93654520D01*
X170029329Y-93644030D01*
X170052429Y-93635765D01*
X170076227Y-93629804D01*
X170100496Y-93626204D01*
X170125000Y-93625000D01*
X171050000Y-93625000D01*
X171074504Y-93626204D01*
X171074504Y-93626204D01*
G37*
D12*
X170587500Y-94500000D03*
D10*
G36*
X167649504Y-96051204D02*
G01*
X167673773Y-96054804D01*
X167697571Y-96060765D01*
X167720671Y-96069030D01*
X167742849Y-96079520D01*
X167763893Y-96092133D01*
X167783598Y-96106747D01*
X167801777Y-96123223D01*
X167818253Y-96141402D01*
X167832867Y-96161107D01*
X167845480Y-96182151D01*
X167855970Y-96204329D01*
X167864235Y-96227429D01*
X167870196Y-96251227D01*
X167873796Y-96275496D01*
X167875000Y-96300000D01*
X167875000Y-97225000D01*
X167873796Y-97249504D01*
X167870196Y-97273773D01*
X167864235Y-97297571D01*
X167855970Y-97320671D01*
X167845480Y-97342849D01*
X167832867Y-97363893D01*
X167818253Y-97383598D01*
X167801777Y-97401777D01*
X167783598Y-97418253D01*
X167763893Y-97432867D01*
X167742849Y-97445480D01*
X167720671Y-97455970D01*
X167697571Y-97464235D01*
X167673773Y-97470196D01*
X167649504Y-97473796D01*
X167625000Y-97475000D01*
X166375000Y-97475000D01*
X166350496Y-97473796D01*
X166326227Y-97470196D01*
X166302429Y-97464235D01*
X166279329Y-97455970D01*
X166257151Y-97445480D01*
X166236107Y-97432867D01*
X166216402Y-97418253D01*
X166198223Y-97401777D01*
X166181747Y-97383598D01*
X166167133Y-97363893D01*
X166154520Y-97342849D01*
X166144030Y-97320671D01*
X166135765Y-97297571D01*
X166129804Y-97273773D01*
X166126204Y-97249504D01*
X166125000Y-97225000D01*
X166125000Y-96300000D01*
X166126204Y-96275496D01*
X166129804Y-96251227D01*
X166135765Y-96227429D01*
X166144030Y-96204329D01*
X166154520Y-96182151D01*
X166167133Y-96161107D01*
X166181747Y-96141402D01*
X166198223Y-96123223D01*
X166216402Y-96106747D01*
X166236107Y-96092133D01*
X166257151Y-96079520D01*
X166279329Y-96069030D01*
X166302429Y-96060765D01*
X166326227Y-96054804D01*
X166350496Y-96051204D01*
X166375000Y-96050000D01*
X167625000Y-96050000D01*
X167649504Y-96051204D01*
X167649504Y-96051204D01*
G37*
D12*
X167000000Y-96762500D03*
D10*
G36*
X167649504Y-99026204D02*
G01*
X167673773Y-99029804D01*
X167697571Y-99035765D01*
X167720671Y-99044030D01*
X167742849Y-99054520D01*
X167763893Y-99067133D01*
X167783598Y-99081747D01*
X167801777Y-99098223D01*
X167818253Y-99116402D01*
X167832867Y-99136107D01*
X167845480Y-99157151D01*
X167855970Y-99179329D01*
X167864235Y-99202429D01*
X167870196Y-99226227D01*
X167873796Y-99250496D01*
X167875000Y-99275000D01*
X167875000Y-100200000D01*
X167873796Y-100224504D01*
X167870196Y-100248773D01*
X167864235Y-100272571D01*
X167855970Y-100295671D01*
X167845480Y-100317849D01*
X167832867Y-100338893D01*
X167818253Y-100358598D01*
X167801777Y-100376777D01*
X167783598Y-100393253D01*
X167763893Y-100407867D01*
X167742849Y-100420480D01*
X167720671Y-100430970D01*
X167697571Y-100439235D01*
X167673773Y-100445196D01*
X167649504Y-100448796D01*
X167625000Y-100450000D01*
X166375000Y-100450000D01*
X166350496Y-100448796D01*
X166326227Y-100445196D01*
X166302429Y-100439235D01*
X166279329Y-100430970D01*
X166257151Y-100420480D01*
X166236107Y-100407867D01*
X166216402Y-100393253D01*
X166198223Y-100376777D01*
X166181747Y-100358598D01*
X166167133Y-100338893D01*
X166154520Y-100317849D01*
X166144030Y-100295671D01*
X166135765Y-100272571D01*
X166129804Y-100248773D01*
X166126204Y-100224504D01*
X166125000Y-100200000D01*
X166125000Y-99275000D01*
X166126204Y-99250496D01*
X166129804Y-99226227D01*
X166135765Y-99202429D01*
X166144030Y-99179329D01*
X166154520Y-99157151D01*
X166167133Y-99136107D01*
X166181747Y-99116402D01*
X166198223Y-99098223D01*
X166216402Y-99081747D01*
X166236107Y-99067133D01*
X166257151Y-99054520D01*
X166279329Y-99044030D01*
X166302429Y-99035765D01*
X166326227Y-99029804D01*
X166350496Y-99026204D01*
X166375000Y-99025000D01*
X167625000Y-99025000D01*
X167649504Y-99026204D01*
X167649504Y-99026204D01*
G37*
D12*
X167000000Y-99737500D03*
D10*
G36*
X171074504Y-88826204D02*
G01*
X171098773Y-88829804D01*
X171122571Y-88835765D01*
X171145671Y-88844030D01*
X171167849Y-88854520D01*
X171188893Y-88867133D01*
X171208598Y-88881747D01*
X171226777Y-88898223D01*
X171243253Y-88916402D01*
X171257867Y-88936107D01*
X171270480Y-88957151D01*
X171280970Y-88979329D01*
X171289235Y-89002429D01*
X171295196Y-89026227D01*
X171298796Y-89050496D01*
X171300000Y-89075000D01*
X171300000Y-90325000D01*
X171298796Y-90349504D01*
X171295196Y-90373773D01*
X171289235Y-90397571D01*
X171280970Y-90420671D01*
X171270480Y-90442849D01*
X171257867Y-90463893D01*
X171243253Y-90483598D01*
X171226777Y-90501777D01*
X171208598Y-90518253D01*
X171188893Y-90532867D01*
X171167849Y-90545480D01*
X171145671Y-90555970D01*
X171122571Y-90564235D01*
X171098773Y-90570196D01*
X171074504Y-90573796D01*
X171050000Y-90575000D01*
X170125000Y-90575000D01*
X170100496Y-90573796D01*
X170076227Y-90570196D01*
X170052429Y-90564235D01*
X170029329Y-90555970D01*
X170007151Y-90545480D01*
X169986107Y-90532867D01*
X169966402Y-90518253D01*
X169948223Y-90501777D01*
X169931747Y-90483598D01*
X169917133Y-90463893D01*
X169904520Y-90442849D01*
X169894030Y-90420671D01*
X169885765Y-90397571D01*
X169879804Y-90373773D01*
X169876204Y-90349504D01*
X169875000Y-90325000D01*
X169875000Y-89075000D01*
X169876204Y-89050496D01*
X169879804Y-89026227D01*
X169885765Y-89002429D01*
X169894030Y-88979329D01*
X169904520Y-88957151D01*
X169917133Y-88936107D01*
X169931747Y-88916402D01*
X169948223Y-88898223D01*
X169966402Y-88881747D01*
X169986107Y-88867133D01*
X170007151Y-88854520D01*
X170029329Y-88844030D01*
X170052429Y-88835765D01*
X170076227Y-88829804D01*
X170100496Y-88826204D01*
X170125000Y-88825000D01*
X171050000Y-88825000D01*
X171074504Y-88826204D01*
X171074504Y-88826204D01*
G37*
D12*
X170587500Y-89700000D03*
D10*
G36*
X168099504Y-88826204D02*
G01*
X168123773Y-88829804D01*
X168147571Y-88835765D01*
X168170671Y-88844030D01*
X168192849Y-88854520D01*
X168213893Y-88867133D01*
X168233598Y-88881747D01*
X168251777Y-88898223D01*
X168268253Y-88916402D01*
X168282867Y-88936107D01*
X168295480Y-88957151D01*
X168305970Y-88979329D01*
X168314235Y-89002429D01*
X168320196Y-89026227D01*
X168323796Y-89050496D01*
X168325000Y-89075000D01*
X168325000Y-90325000D01*
X168323796Y-90349504D01*
X168320196Y-90373773D01*
X168314235Y-90397571D01*
X168305970Y-90420671D01*
X168295480Y-90442849D01*
X168282867Y-90463893D01*
X168268253Y-90483598D01*
X168251777Y-90501777D01*
X168233598Y-90518253D01*
X168213893Y-90532867D01*
X168192849Y-90545480D01*
X168170671Y-90555970D01*
X168147571Y-90564235D01*
X168123773Y-90570196D01*
X168099504Y-90573796D01*
X168075000Y-90575000D01*
X167150000Y-90575000D01*
X167125496Y-90573796D01*
X167101227Y-90570196D01*
X167077429Y-90564235D01*
X167054329Y-90555970D01*
X167032151Y-90545480D01*
X167011107Y-90532867D01*
X166991402Y-90518253D01*
X166973223Y-90501777D01*
X166956747Y-90483598D01*
X166942133Y-90463893D01*
X166929520Y-90442849D01*
X166919030Y-90420671D01*
X166910765Y-90397571D01*
X166904804Y-90373773D01*
X166901204Y-90349504D01*
X166900000Y-90325000D01*
X166900000Y-89075000D01*
X166901204Y-89050496D01*
X166904804Y-89026227D01*
X166910765Y-89002429D01*
X166919030Y-88979329D01*
X166929520Y-88957151D01*
X166942133Y-88936107D01*
X166956747Y-88916402D01*
X166973223Y-88898223D01*
X166991402Y-88881747D01*
X167011107Y-88867133D01*
X167032151Y-88854520D01*
X167054329Y-88844030D01*
X167077429Y-88835765D01*
X167101227Y-88829804D01*
X167125496Y-88826204D01*
X167150000Y-88825000D01*
X168075000Y-88825000D01*
X168099504Y-88826204D01*
X168099504Y-88826204D01*
G37*
D12*
X167612500Y-89700000D03*
D10*
G36*
X174399504Y-107026204D02*
G01*
X174423773Y-107029804D01*
X174447571Y-107035765D01*
X174470671Y-107044030D01*
X174492849Y-107054520D01*
X174513893Y-107067133D01*
X174533598Y-107081747D01*
X174551777Y-107098223D01*
X174568253Y-107116402D01*
X174582867Y-107136107D01*
X174595480Y-107157151D01*
X174605970Y-107179329D01*
X174614235Y-107202429D01*
X174620196Y-107226227D01*
X174623796Y-107250496D01*
X174625000Y-107275000D01*
X174625000Y-108525000D01*
X174623796Y-108549504D01*
X174620196Y-108573773D01*
X174614235Y-108597571D01*
X174605970Y-108620671D01*
X174595480Y-108642849D01*
X174582867Y-108663893D01*
X174568253Y-108683598D01*
X174551777Y-108701777D01*
X174533598Y-108718253D01*
X174513893Y-108732867D01*
X174492849Y-108745480D01*
X174470671Y-108755970D01*
X174447571Y-108764235D01*
X174423773Y-108770196D01*
X174399504Y-108773796D01*
X174375000Y-108775000D01*
X173450000Y-108775000D01*
X173425496Y-108773796D01*
X173401227Y-108770196D01*
X173377429Y-108764235D01*
X173354329Y-108755970D01*
X173332151Y-108745480D01*
X173311107Y-108732867D01*
X173291402Y-108718253D01*
X173273223Y-108701777D01*
X173256747Y-108683598D01*
X173242133Y-108663893D01*
X173229520Y-108642849D01*
X173219030Y-108620671D01*
X173210765Y-108597571D01*
X173204804Y-108573773D01*
X173201204Y-108549504D01*
X173200000Y-108525000D01*
X173200000Y-107275000D01*
X173201204Y-107250496D01*
X173204804Y-107226227D01*
X173210765Y-107202429D01*
X173219030Y-107179329D01*
X173229520Y-107157151D01*
X173242133Y-107136107D01*
X173256747Y-107116402D01*
X173273223Y-107098223D01*
X173291402Y-107081747D01*
X173311107Y-107067133D01*
X173332151Y-107054520D01*
X173354329Y-107044030D01*
X173377429Y-107035765D01*
X173401227Y-107029804D01*
X173425496Y-107026204D01*
X173450000Y-107025000D01*
X174375000Y-107025000D01*
X174399504Y-107026204D01*
X174399504Y-107026204D01*
G37*
D12*
X173912500Y-107900000D03*
D10*
G36*
X177374504Y-107026204D02*
G01*
X177398773Y-107029804D01*
X177422571Y-107035765D01*
X177445671Y-107044030D01*
X177467849Y-107054520D01*
X177488893Y-107067133D01*
X177508598Y-107081747D01*
X177526777Y-107098223D01*
X177543253Y-107116402D01*
X177557867Y-107136107D01*
X177570480Y-107157151D01*
X177580970Y-107179329D01*
X177589235Y-107202429D01*
X177595196Y-107226227D01*
X177598796Y-107250496D01*
X177600000Y-107275000D01*
X177600000Y-108525000D01*
X177598796Y-108549504D01*
X177595196Y-108573773D01*
X177589235Y-108597571D01*
X177580970Y-108620671D01*
X177570480Y-108642849D01*
X177557867Y-108663893D01*
X177543253Y-108683598D01*
X177526777Y-108701777D01*
X177508598Y-108718253D01*
X177488893Y-108732867D01*
X177467849Y-108745480D01*
X177445671Y-108755970D01*
X177422571Y-108764235D01*
X177398773Y-108770196D01*
X177374504Y-108773796D01*
X177350000Y-108775000D01*
X176425000Y-108775000D01*
X176400496Y-108773796D01*
X176376227Y-108770196D01*
X176352429Y-108764235D01*
X176329329Y-108755970D01*
X176307151Y-108745480D01*
X176286107Y-108732867D01*
X176266402Y-108718253D01*
X176248223Y-108701777D01*
X176231747Y-108683598D01*
X176217133Y-108663893D01*
X176204520Y-108642849D01*
X176194030Y-108620671D01*
X176185765Y-108597571D01*
X176179804Y-108573773D01*
X176176204Y-108549504D01*
X176175000Y-108525000D01*
X176175000Y-107275000D01*
X176176204Y-107250496D01*
X176179804Y-107226227D01*
X176185765Y-107202429D01*
X176194030Y-107179329D01*
X176204520Y-107157151D01*
X176217133Y-107136107D01*
X176231747Y-107116402D01*
X176248223Y-107098223D01*
X176266402Y-107081747D01*
X176286107Y-107067133D01*
X176307151Y-107054520D01*
X176329329Y-107044030D01*
X176352429Y-107035765D01*
X176376227Y-107029804D01*
X176400496Y-107026204D01*
X176425000Y-107025000D01*
X177350000Y-107025000D01*
X177374504Y-107026204D01*
X177374504Y-107026204D01*
G37*
D12*
X176887500Y-107900000D03*
D10*
G36*
X184899504Y-107026204D02*
G01*
X184923773Y-107029804D01*
X184947571Y-107035765D01*
X184970671Y-107044030D01*
X184992849Y-107054520D01*
X185013893Y-107067133D01*
X185033598Y-107081747D01*
X185051777Y-107098223D01*
X185068253Y-107116402D01*
X185082867Y-107136107D01*
X185095480Y-107157151D01*
X185105970Y-107179329D01*
X185114235Y-107202429D01*
X185120196Y-107226227D01*
X185123796Y-107250496D01*
X185125000Y-107275000D01*
X185125000Y-108525000D01*
X185123796Y-108549504D01*
X185120196Y-108573773D01*
X185114235Y-108597571D01*
X185105970Y-108620671D01*
X185095480Y-108642849D01*
X185082867Y-108663893D01*
X185068253Y-108683598D01*
X185051777Y-108701777D01*
X185033598Y-108718253D01*
X185013893Y-108732867D01*
X184992849Y-108745480D01*
X184970671Y-108755970D01*
X184947571Y-108764235D01*
X184923773Y-108770196D01*
X184899504Y-108773796D01*
X184875000Y-108775000D01*
X183950000Y-108775000D01*
X183925496Y-108773796D01*
X183901227Y-108770196D01*
X183877429Y-108764235D01*
X183854329Y-108755970D01*
X183832151Y-108745480D01*
X183811107Y-108732867D01*
X183791402Y-108718253D01*
X183773223Y-108701777D01*
X183756747Y-108683598D01*
X183742133Y-108663893D01*
X183729520Y-108642849D01*
X183719030Y-108620671D01*
X183710765Y-108597571D01*
X183704804Y-108573773D01*
X183701204Y-108549504D01*
X183700000Y-108525000D01*
X183700000Y-107275000D01*
X183701204Y-107250496D01*
X183704804Y-107226227D01*
X183710765Y-107202429D01*
X183719030Y-107179329D01*
X183729520Y-107157151D01*
X183742133Y-107136107D01*
X183756747Y-107116402D01*
X183773223Y-107098223D01*
X183791402Y-107081747D01*
X183811107Y-107067133D01*
X183832151Y-107054520D01*
X183854329Y-107044030D01*
X183877429Y-107035765D01*
X183901227Y-107029804D01*
X183925496Y-107026204D01*
X183950000Y-107025000D01*
X184875000Y-107025000D01*
X184899504Y-107026204D01*
X184899504Y-107026204D01*
G37*
D12*
X184412500Y-107900000D03*
D10*
G36*
X187874504Y-107026204D02*
G01*
X187898773Y-107029804D01*
X187922571Y-107035765D01*
X187945671Y-107044030D01*
X187967849Y-107054520D01*
X187988893Y-107067133D01*
X188008598Y-107081747D01*
X188026777Y-107098223D01*
X188043253Y-107116402D01*
X188057867Y-107136107D01*
X188070480Y-107157151D01*
X188080970Y-107179329D01*
X188089235Y-107202429D01*
X188095196Y-107226227D01*
X188098796Y-107250496D01*
X188100000Y-107275000D01*
X188100000Y-108525000D01*
X188098796Y-108549504D01*
X188095196Y-108573773D01*
X188089235Y-108597571D01*
X188080970Y-108620671D01*
X188070480Y-108642849D01*
X188057867Y-108663893D01*
X188043253Y-108683598D01*
X188026777Y-108701777D01*
X188008598Y-108718253D01*
X187988893Y-108732867D01*
X187967849Y-108745480D01*
X187945671Y-108755970D01*
X187922571Y-108764235D01*
X187898773Y-108770196D01*
X187874504Y-108773796D01*
X187850000Y-108775000D01*
X186925000Y-108775000D01*
X186900496Y-108773796D01*
X186876227Y-108770196D01*
X186852429Y-108764235D01*
X186829329Y-108755970D01*
X186807151Y-108745480D01*
X186786107Y-108732867D01*
X186766402Y-108718253D01*
X186748223Y-108701777D01*
X186731747Y-108683598D01*
X186717133Y-108663893D01*
X186704520Y-108642849D01*
X186694030Y-108620671D01*
X186685765Y-108597571D01*
X186679804Y-108573773D01*
X186676204Y-108549504D01*
X186675000Y-108525000D01*
X186675000Y-107275000D01*
X186676204Y-107250496D01*
X186679804Y-107226227D01*
X186685765Y-107202429D01*
X186694030Y-107179329D01*
X186704520Y-107157151D01*
X186717133Y-107136107D01*
X186731747Y-107116402D01*
X186748223Y-107098223D01*
X186766402Y-107081747D01*
X186786107Y-107067133D01*
X186807151Y-107054520D01*
X186829329Y-107044030D01*
X186852429Y-107035765D01*
X186876227Y-107029804D01*
X186900496Y-107026204D01*
X186925000Y-107025000D01*
X187850000Y-107025000D01*
X187874504Y-107026204D01*
X187874504Y-107026204D01*
G37*
D12*
X187387500Y-107900000D03*
D17*
X160720000Y-94050000D03*
X165280000Y-94050000D03*
D18*
X163000000Y-87750000D03*
D10*
G36*
X163749504Y-101626204D02*
G01*
X163773773Y-101629804D01*
X163797571Y-101635765D01*
X163820671Y-101644030D01*
X163842849Y-101654520D01*
X163863893Y-101667133D01*
X163883598Y-101681747D01*
X163901777Y-101698223D01*
X163918253Y-101716402D01*
X163932867Y-101736107D01*
X163945480Y-101757151D01*
X163955970Y-101779329D01*
X163964235Y-101802429D01*
X163970196Y-101826227D01*
X163973796Y-101850496D01*
X163975000Y-101875000D01*
X163975000Y-103125000D01*
X163973796Y-103149504D01*
X163970196Y-103173773D01*
X163964235Y-103197571D01*
X163955970Y-103220671D01*
X163945480Y-103242849D01*
X163932867Y-103263893D01*
X163918253Y-103283598D01*
X163901777Y-103301777D01*
X163883598Y-103318253D01*
X163863893Y-103332867D01*
X163842849Y-103345480D01*
X163820671Y-103355970D01*
X163797571Y-103364235D01*
X163773773Y-103370196D01*
X163749504Y-103373796D01*
X163725000Y-103375000D01*
X162800000Y-103375000D01*
X162775496Y-103373796D01*
X162751227Y-103370196D01*
X162727429Y-103364235D01*
X162704329Y-103355970D01*
X162682151Y-103345480D01*
X162661107Y-103332867D01*
X162641402Y-103318253D01*
X162623223Y-103301777D01*
X162606747Y-103283598D01*
X162592133Y-103263893D01*
X162579520Y-103242849D01*
X162569030Y-103220671D01*
X162560765Y-103197571D01*
X162554804Y-103173773D01*
X162551204Y-103149504D01*
X162550000Y-103125000D01*
X162550000Y-101875000D01*
X162551204Y-101850496D01*
X162554804Y-101826227D01*
X162560765Y-101802429D01*
X162569030Y-101779329D01*
X162579520Y-101757151D01*
X162592133Y-101736107D01*
X162606747Y-101716402D01*
X162623223Y-101698223D01*
X162641402Y-101681747D01*
X162661107Y-101667133D01*
X162682151Y-101654520D01*
X162704329Y-101644030D01*
X162727429Y-101635765D01*
X162751227Y-101629804D01*
X162775496Y-101626204D01*
X162800000Y-101625000D01*
X163725000Y-101625000D01*
X163749504Y-101626204D01*
X163749504Y-101626204D01*
G37*
D12*
X163262500Y-102500000D03*
D10*
G36*
X166724504Y-101626204D02*
G01*
X166748773Y-101629804D01*
X166772571Y-101635765D01*
X166795671Y-101644030D01*
X166817849Y-101654520D01*
X166838893Y-101667133D01*
X166858598Y-101681747D01*
X166876777Y-101698223D01*
X166893253Y-101716402D01*
X166907867Y-101736107D01*
X166920480Y-101757151D01*
X166930970Y-101779329D01*
X166939235Y-101802429D01*
X166945196Y-101826227D01*
X166948796Y-101850496D01*
X166950000Y-101875000D01*
X166950000Y-103125000D01*
X166948796Y-103149504D01*
X166945196Y-103173773D01*
X166939235Y-103197571D01*
X166930970Y-103220671D01*
X166920480Y-103242849D01*
X166907867Y-103263893D01*
X166893253Y-103283598D01*
X166876777Y-103301777D01*
X166858598Y-103318253D01*
X166838893Y-103332867D01*
X166817849Y-103345480D01*
X166795671Y-103355970D01*
X166772571Y-103364235D01*
X166748773Y-103370196D01*
X166724504Y-103373796D01*
X166700000Y-103375000D01*
X165775000Y-103375000D01*
X165750496Y-103373796D01*
X165726227Y-103370196D01*
X165702429Y-103364235D01*
X165679329Y-103355970D01*
X165657151Y-103345480D01*
X165636107Y-103332867D01*
X165616402Y-103318253D01*
X165598223Y-103301777D01*
X165581747Y-103283598D01*
X165567133Y-103263893D01*
X165554520Y-103242849D01*
X165544030Y-103220671D01*
X165535765Y-103197571D01*
X165529804Y-103173773D01*
X165526204Y-103149504D01*
X165525000Y-103125000D01*
X165525000Y-101875000D01*
X165526204Y-101850496D01*
X165529804Y-101826227D01*
X165535765Y-101802429D01*
X165544030Y-101779329D01*
X165554520Y-101757151D01*
X165567133Y-101736107D01*
X165581747Y-101716402D01*
X165598223Y-101698223D01*
X165616402Y-101681747D01*
X165636107Y-101667133D01*
X165657151Y-101654520D01*
X165679329Y-101644030D01*
X165702429Y-101635765D01*
X165726227Y-101629804D01*
X165750496Y-101626204D01*
X165775000Y-101625000D01*
X166700000Y-101625000D01*
X166724504Y-101626204D01*
X166724504Y-101626204D01*
G37*
D12*
X166237500Y-102500000D03*
D10*
G36*
X166974504Y-104376204D02*
G01*
X166998773Y-104379804D01*
X167022571Y-104385765D01*
X167045671Y-104394030D01*
X167067849Y-104404520D01*
X167088893Y-104417133D01*
X167108598Y-104431747D01*
X167126777Y-104448223D01*
X167143253Y-104466402D01*
X167157867Y-104486107D01*
X167170480Y-104507151D01*
X167180970Y-104529329D01*
X167189235Y-104552429D01*
X167195196Y-104576227D01*
X167198796Y-104600496D01*
X167200000Y-104625000D01*
X167200000Y-105875000D01*
X167198796Y-105899504D01*
X167195196Y-105923773D01*
X167189235Y-105947571D01*
X167180970Y-105970671D01*
X167170480Y-105992849D01*
X167157867Y-106013893D01*
X167143253Y-106033598D01*
X167126777Y-106051777D01*
X167108598Y-106068253D01*
X167088893Y-106082867D01*
X167067849Y-106095480D01*
X167045671Y-106105970D01*
X167022571Y-106114235D01*
X166998773Y-106120196D01*
X166974504Y-106123796D01*
X166950000Y-106125000D01*
X166025000Y-106125000D01*
X166000496Y-106123796D01*
X165976227Y-106120196D01*
X165952429Y-106114235D01*
X165929329Y-106105970D01*
X165907151Y-106095480D01*
X165886107Y-106082867D01*
X165866402Y-106068253D01*
X165848223Y-106051777D01*
X165831747Y-106033598D01*
X165817133Y-106013893D01*
X165804520Y-105992849D01*
X165794030Y-105970671D01*
X165785765Y-105947571D01*
X165779804Y-105923773D01*
X165776204Y-105899504D01*
X165775000Y-105875000D01*
X165775000Y-104625000D01*
X165776204Y-104600496D01*
X165779804Y-104576227D01*
X165785765Y-104552429D01*
X165794030Y-104529329D01*
X165804520Y-104507151D01*
X165817133Y-104486107D01*
X165831747Y-104466402D01*
X165848223Y-104448223D01*
X165866402Y-104431747D01*
X165886107Y-104417133D01*
X165907151Y-104404520D01*
X165929329Y-104394030D01*
X165952429Y-104385765D01*
X165976227Y-104379804D01*
X166000496Y-104376204D01*
X166025000Y-104375000D01*
X166950000Y-104375000D01*
X166974504Y-104376204D01*
X166974504Y-104376204D01*
G37*
D12*
X166487500Y-105250000D03*
D10*
G36*
X163999504Y-104376204D02*
G01*
X164023773Y-104379804D01*
X164047571Y-104385765D01*
X164070671Y-104394030D01*
X164092849Y-104404520D01*
X164113893Y-104417133D01*
X164133598Y-104431747D01*
X164151777Y-104448223D01*
X164168253Y-104466402D01*
X164182867Y-104486107D01*
X164195480Y-104507151D01*
X164205970Y-104529329D01*
X164214235Y-104552429D01*
X164220196Y-104576227D01*
X164223796Y-104600496D01*
X164225000Y-104625000D01*
X164225000Y-105875000D01*
X164223796Y-105899504D01*
X164220196Y-105923773D01*
X164214235Y-105947571D01*
X164205970Y-105970671D01*
X164195480Y-105992849D01*
X164182867Y-106013893D01*
X164168253Y-106033598D01*
X164151777Y-106051777D01*
X164133598Y-106068253D01*
X164113893Y-106082867D01*
X164092849Y-106095480D01*
X164070671Y-106105970D01*
X164047571Y-106114235D01*
X164023773Y-106120196D01*
X163999504Y-106123796D01*
X163975000Y-106125000D01*
X163050000Y-106125000D01*
X163025496Y-106123796D01*
X163001227Y-106120196D01*
X162977429Y-106114235D01*
X162954329Y-106105970D01*
X162932151Y-106095480D01*
X162911107Y-106082867D01*
X162891402Y-106068253D01*
X162873223Y-106051777D01*
X162856747Y-106033598D01*
X162842133Y-106013893D01*
X162829520Y-105992849D01*
X162819030Y-105970671D01*
X162810765Y-105947571D01*
X162804804Y-105923773D01*
X162801204Y-105899504D01*
X162800000Y-105875000D01*
X162800000Y-104625000D01*
X162801204Y-104600496D01*
X162804804Y-104576227D01*
X162810765Y-104552429D01*
X162819030Y-104529329D01*
X162829520Y-104507151D01*
X162842133Y-104486107D01*
X162856747Y-104466402D01*
X162873223Y-104448223D01*
X162891402Y-104431747D01*
X162911107Y-104417133D01*
X162932151Y-104404520D01*
X162954329Y-104394030D01*
X162977429Y-104385765D01*
X163001227Y-104379804D01*
X163025496Y-104376204D01*
X163050000Y-104375000D01*
X163975000Y-104375000D01*
X163999504Y-104376204D01*
X163999504Y-104376204D01*
G37*
D12*
X163512500Y-105250000D03*
D10*
G36*
X171074504Y-91226204D02*
G01*
X171098773Y-91229804D01*
X171122571Y-91235765D01*
X171145671Y-91244030D01*
X171167849Y-91254520D01*
X171188893Y-91267133D01*
X171208598Y-91281747D01*
X171226777Y-91298223D01*
X171243253Y-91316402D01*
X171257867Y-91336107D01*
X171270480Y-91357151D01*
X171280970Y-91379329D01*
X171289235Y-91402429D01*
X171295196Y-91426227D01*
X171298796Y-91450496D01*
X171300000Y-91475000D01*
X171300000Y-92725000D01*
X171298796Y-92749504D01*
X171295196Y-92773773D01*
X171289235Y-92797571D01*
X171280970Y-92820671D01*
X171270480Y-92842849D01*
X171257867Y-92863893D01*
X171243253Y-92883598D01*
X171226777Y-92901777D01*
X171208598Y-92918253D01*
X171188893Y-92932867D01*
X171167849Y-92945480D01*
X171145671Y-92955970D01*
X171122571Y-92964235D01*
X171098773Y-92970196D01*
X171074504Y-92973796D01*
X171050000Y-92975000D01*
X170125000Y-92975000D01*
X170100496Y-92973796D01*
X170076227Y-92970196D01*
X170052429Y-92964235D01*
X170029329Y-92955970D01*
X170007151Y-92945480D01*
X169986107Y-92932867D01*
X169966402Y-92918253D01*
X169948223Y-92901777D01*
X169931747Y-92883598D01*
X169917133Y-92863893D01*
X169904520Y-92842849D01*
X169894030Y-92820671D01*
X169885765Y-92797571D01*
X169879804Y-92773773D01*
X169876204Y-92749504D01*
X169875000Y-92725000D01*
X169875000Y-91475000D01*
X169876204Y-91450496D01*
X169879804Y-91426227D01*
X169885765Y-91402429D01*
X169894030Y-91379329D01*
X169904520Y-91357151D01*
X169917133Y-91336107D01*
X169931747Y-91316402D01*
X169948223Y-91298223D01*
X169966402Y-91281747D01*
X169986107Y-91267133D01*
X170007151Y-91254520D01*
X170029329Y-91244030D01*
X170052429Y-91235765D01*
X170076227Y-91229804D01*
X170100496Y-91226204D01*
X170125000Y-91225000D01*
X171050000Y-91225000D01*
X171074504Y-91226204D01*
X171074504Y-91226204D01*
G37*
D12*
X170587500Y-92100000D03*
D10*
G36*
X168099504Y-91226204D02*
G01*
X168123773Y-91229804D01*
X168147571Y-91235765D01*
X168170671Y-91244030D01*
X168192849Y-91254520D01*
X168213893Y-91267133D01*
X168233598Y-91281747D01*
X168251777Y-91298223D01*
X168268253Y-91316402D01*
X168282867Y-91336107D01*
X168295480Y-91357151D01*
X168305970Y-91379329D01*
X168314235Y-91402429D01*
X168320196Y-91426227D01*
X168323796Y-91450496D01*
X168325000Y-91475000D01*
X168325000Y-92725000D01*
X168323796Y-92749504D01*
X168320196Y-92773773D01*
X168314235Y-92797571D01*
X168305970Y-92820671D01*
X168295480Y-92842849D01*
X168282867Y-92863893D01*
X168268253Y-92883598D01*
X168251777Y-92901777D01*
X168233598Y-92918253D01*
X168213893Y-92932867D01*
X168192849Y-92945480D01*
X168170671Y-92955970D01*
X168147571Y-92964235D01*
X168123773Y-92970196D01*
X168099504Y-92973796D01*
X168075000Y-92975000D01*
X167150000Y-92975000D01*
X167125496Y-92973796D01*
X167101227Y-92970196D01*
X167077429Y-92964235D01*
X167054329Y-92955970D01*
X167032151Y-92945480D01*
X167011107Y-92932867D01*
X166991402Y-92918253D01*
X166973223Y-92901777D01*
X166956747Y-92883598D01*
X166942133Y-92863893D01*
X166929520Y-92842849D01*
X166919030Y-92820671D01*
X166910765Y-92797571D01*
X166904804Y-92773773D01*
X166901204Y-92749504D01*
X166900000Y-92725000D01*
X166900000Y-91475000D01*
X166901204Y-91450496D01*
X166904804Y-91426227D01*
X166910765Y-91402429D01*
X166919030Y-91379329D01*
X166929520Y-91357151D01*
X166942133Y-91336107D01*
X166956747Y-91316402D01*
X166973223Y-91298223D01*
X166991402Y-91281747D01*
X167011107Y-91267133D01*
X167032151Y-91254520D01*
X167054329Y-91244030D01*
X167077429Y-91235765D01*
X167101227Y-91229804D01*
X167125496Y-91226204D01*
X167150000Y-91225000D01*
X168075000Y-91225000D01*
X168099504Y-91226204D01*
X168099504Y-91226204D01*
G37*
D12*
X167612500Y-92100000D03*
D10*
G36*
X173169505Y-98501204D02*
G01*
X173193773Y-98504804D01*
X173217572Y-98510765D01*
X173240671Y-98519030D01*
X173262850Y-98529520D01*
X173283893Y-98542132D01*
X173303599Y-98556747D01*
X173321777Y-98573223D01*
X173338253Y-98591401D01*
X173352868Y-98611107D01*
X173365480Y-98632150D01*
X173375970Y-98654329D01*
X173384235Y-98677428D01*
X173390196Y-98701227D01*
X173393796Y-98725495D01*
X173395000Y-98749999D01*
X173395000Y-101250001D01*
X173393796Y-101274505D01*
X173390196Y-101298773D01*
X173384235Y-101322572D01*
X173375970Y-101345671D01*
X173365480Y-101367850D01*
X173352868Y-101388893D01*
X173338253Y-101408599D01*
X173321777Y-101426777D01*
X173303599Y-101443253D01*
X173283893Y-101457868D01*
X173262850Y-101470480D01*
X173240671Y-101480970D01*
X173217572Y-101489235D01*
X173193773Y-101495196D01*
X173169505Y-101498796D01*
X173145001Y-101500000D01*
X171354999Y-101500000D01*
X171330495Y-101498796D01*
X171306227Y-101495196D01*
X171282428Y-101489235D01*
X171259329Y-101480970D01*
X171237150Y-101470480D01*
X171216107Y-101457868D01*
X171196401Y-101443253D01*
X171178223Y-101426777D01*
X171161747Y-101408599D01*
X171147132Y-101388893D01*
X171134520Y-101367850D01*
X171124030Y-101345671D01*
X171115765Y-101322572D01*
X171109804Y-101298773D01*
X171106204Y-101274505D01*
X171105000Y-101250001D01*
X171105000Y-98749999D01*
X171106204Y-98725495D01*
X171109804Y-98701227D01*
X171115765Y-98677428D01*
X171124030Y-98654329D01*
X171134520Y-98632150D01*
X171147132Y-98611107D01*
X171161747Y-98591401D01*
X171178223Y-98573223D01*
X171196401Y-98556747D01*
X171216107Y-98542132D01*
X171237150Y-98529520D01*
X171259329Y-98519030D01*
X171282428Y-98510765D01*
X171306227Y-98504804D01*
X171330495Y-98501204D01*
X171354999Y-98500000D01*
X173145001Y-98500000D01*
X173169505Y-98501204D01*
X173169505Y-98501204D01*
G37*
D19*
X172250000Y-100000000D03*
D10*
G36*
X175564703Y-101605722D02*
G01*
X175579264Y-101607882D01*
X175593543Y-101611459D01*
X175607403Y-101616418D01*
X175620710Y-101622712D01*
X175633336Y-101630280D01*
X175645159Y-101639048D01*
X175656066Y-101648934D01*
X175665952Y-101659841D01*
X175674720Y-101671664D01*
X175682288Y-101684290D01*
X175688582Y-101697597D01*
X175693541Y-101711457D01*
X175697118Y-101725736D01*
X175699278Y-101740297D01*
X175700000Y-101755000D01*
X175700000Y-102055000D01*
X175699278Y-102069703D01*
X175697118Y-102084264D01*
X175693541Y-102098543D01*
X175688582Y-102112403D01*
X175682288Y-102125710D01*
X175674720Y-102138336D01*
X175665952Y-102150159D01*
X175656066Y-102161066D01*
X175645159Y-102170952D01*
X175633336Y-102179720D01*
X175620710Y-102187288D01*
X175607403Y-102193582D01*
X175593543Y-102198541D01*
X175579264Y-102202118D01*
X175564703Y-102204278D01*
X175550000Y-102205000D01*
X173900000Y-102205000D01*
X173885297Y-102204278D01*
X173870736Y-102202118D01*
X173856457Y-102198541D01*
X173842597Y-102193582D01*
X173829290Y-102187288D01*
X173816664Y-102179720D01*
X173804841Y-102170952D01*
X173793934Y-102161066D01*
X173784048Y-102150159D01*
X173775280Y-102138336D01*
X173767712Y-102125710D01*
X173761418Y-102112403D01*
X173756459Y-102098543D01*
X173752882Y-102084264D01*
X173750722Y-102069703D01*
X173750000Y-102055000D01*
X173750000Y-101755000D01*
X173750722Y-101740297D01*
X173752882Y-101725736D01*
X173756459Y-101711457D01*
X173761418Y-101697597D01*
X173767712Y-101684290D01*
X173775280Y-101671664D01*
X173784048Y-101659841D01*
X173793934Y-101648934D01*
X173804841Y-101639048D01*
X173816664Y-101630280D01*
X173829290Y-101622712D01*
X173842597Y-101616418D01*
X173856457Y-101611459D01*
X173870736Y-101607882D01*
X173885297Y-101605722D01*
X173900000Y-101605000D01*
X175550000Y-101605000D01*
X175564703Y-101605722D01*
X175564703Y-101605722D01*
G37*
D20*
X174725000Y-101905000D03*
D10*
G36*
X175564703Y-100335722D02*
G01*
X175579264Y-100337882D01*
X175593543Y-100341459D01*
X175607403Y-100346418D01*
X175620710Y-100352712D01*
X175633336Y-100360280D01*
X175645159Y-100369048D01*
X175656066Y-100378934D01*
X175665952Y-100389841D01*
X175674720Y-100401664D01*
X175682288Y-100414290D01*
X175688582Y-100427597D01*
X175693541Y-100441457D01*
X175697118Y-100455736D01*
X175699278Y-100470297D01*
X175700000Y-100485000D01*
X175700000Y-100785000D01*
X175699278Y-100799703D01*
X175697118Y-100814264D01*
X175693541Y-100828543D01*
X175688582Y-100842403D01*
X175682288Y-100855710D01*
X175674720Y-100868336D01*
X175665952Y-100880159D01*
X175656066Y-100891066D01*
X175645159Y-100900952D01*
X175633336Y-100909720D01*
X175620710Y-100917288D01*
X175607403Y-100923582D01*
X175593543Y-100928541D01*
X175579264Y-100932118D01*
X175564703Y-100934278D01*
X175550000Y-100935000D01*
X173900000Y-100935000D01*
X173885297Y-100934278D01*
X173870736Y-100932118D01*
X173856457Y-100928541D01*
X173842597Y-100923582D01*
X173829290Y-100917288D01*
X173816664Y-100909720D01*
X173804841Y-100900952D01*
X173793934Y-100891066D01*
X173784048Y-100880159D01*
X173775280Y-100868336D01*
X173767712Y-100855710D01*
X173761418Y-100842403D01*
X173756459Y-100828543D01*
X173752882Y-100814264D01*
X173750722Y-100799703D01*
X173750000Y-100785000D01*
X173750000Y-100485000D01*
X173750722Y-100470297D01*
X173752882Y-100455736D01*
X173756459Y-100441457D01*
X173761418Y-100427597D01*
X173767712Y-100414290D01*
X173775280Y-100401664D01*
X173784048Y-100389841D01*
X173793934Y-100378934D01*
X173804841Y-100369048D01*
X173816664Y-100360280D01*
X173829290Y-100352712D01*
X173842597Y-100346418D01*
X173856457Y-100341459D01*
X173870736Y-100337882D01*
X173885297Y-100335722D01*
X173900000Y-100335000D01*
X175550000Y-100335000D01*
X175564703Y-100335722D01*
X175564703Y-100335722D01*
G37*
D20*
X174725000Y-100635000D03*
D10*
G36*
X175564703Y-99065722D02*
G01*
X175579264Y-99067882D01*
X175593543Y-99071459D01*
X175607403Y-99076418D01*
X175620710Y-99082712D01*
X175633336Y-99090280D01*
X175645159Y-99099048D01*
X175656066Y-99108934D01*
X175665952Y-99119841D01*
X175674720Y-99131664D01*
X175682288Y-99144290D01*
X175688582Y-99157597D01*
X175693541Y-99171457D01*
X175697118Y-99185736D01*
X175699278Y-99200297D01*
X175700000Y-99215000D01*
X175700000Y-99515000D01*
X175699278Y-99529703D01*
X175697118Y-99544264D01*
X175693541Y-99558543D01*
X175688582Y-99572403D01*
X175682288Y-99585710D01*
X175674720Y-99598336D01*
X175665952Y-99610159D01*
X175656066Y-99621066D01*
X175645159Y-99630952D01*
X175633336Y-99639720D01*
X175620710Y-99647288D01*
X175607403Y-99653582D01*
X175593543Y-99658541D01*
X175579264Y-99662118D01*
X175564703Y-99664278D01*
X175550000Y-99665000D01*
X173900000Y-99665000D01*
X173885297Y-99664278D01*
X173870736Y-99662118D01*
X173856457Y-99658541D01*
X173842597Y-99653582D01*
X173829290Y-99647288D01*
X173816664Y-99639720D01*
X173804841Y-99630952D01*
X173793934Y-99621066D01*
X173784048Y-99610159D01*
X173775280Y-99598336D01*
X173767712Y-99585710D01*
X173761418Y-99572403D01*
X173756459Y-99558543D01*
X173752882Y-99544264D01*
X173750722Y-99529703D01*
X173750000Y-99515000D01*
X173750000Y-99215000D01*
X173750722Y-99200297D01*
X173752882Y-99185736D01*
X173756459Y-99171457D01*
X173761418Y-99157597D01*
X173767712Y-99144290D01*
X173775280Y-99131664D01*
X173784048Y-99119841D01*
X173793934Y-99108934D01*
X173804841Y-99099048D01*
X173816664Y-99090280D01*
X173829290Y-99082712D01*
X173842597Y-99076418D01*
X173856457Y-99071459D01*
X173870736Y-99067882D01*
X173885297Y-99065722D01*
X173900000Y-99065000D01*
X175550000Y-99065000D01*
X175564703Y-99065722D01*
X175564703Y-99065722D01*
G37*
D20*
X174725000Y-99365000D03*
D10*
G36*
X175564703Y-97795722D02*
G01*
X175579264Y-97797882D01*
X175593543Y-97801459D01*
X175607403Y-97806418D01*
X175620710Y-97812712D01*
X175633336Y-97820280D01*
X175645159Y-97829048D01*
X175656066Y-97838934D01*
X175665952Y-97849841D01*
X175674720Y-97861664D01*
X175682288Y-97874290D01*
X175688582Y-97887597D01*
X175693541Y-97901457D01*
X175697118Y-97915736D01*
X175699278Y-97930297D01*
X175700000Y-97945000D01*
X175700000Y-98245000D01*
X175699278Y-98259703D01*
X175697118Y-98274264D01*
X175693541Y-98288543D01*
X175688582Y-98302403D01*
X175682288Y-98315710D01*
X175674720Y-98328336D01*
X175665952Y-98340159D01*
X175656066Y-98351066D01*
X175645159Y-98360952D01*
X175633336Y-98369720D01*
X175620710Y-98377288D01*
X175607403Y-98383582D01*
X175593543Y-98388541D01*
X175579264Y-98392118D01*
X175564703Y-98394278D01*
X175550000Y-98395000D01*
X173900000Y-98395000D01*
X173885297Y-98394278D01*
X173870736Y-98392118D01*
X173856457Y-98388541D01*
X173842597Y-98383582D01*
X173829290Y-98377288D01*
X173816664Y-98369720D01*
X173804841Y-98360952D01*
X173793934Y-98351066D01*
X173784048Y-98340159D01*
X173775280Y-98328336D01*
X173767712Y-98315710D01*
X173761418Y-98302403D01*
X173756459Y-98288543D01*
X173752882Y-98274264D01*
X173750722Y-98259703D01*
X173750000Y-98245000D01*
X173750000Y-97945000D01*
X173750722Y-97930297D01*
X173752882Y-97915736D01*
X173756459Y-97901457D01*
X173761418Y-97887597D01*
X173767712Y-97874290D01*
X173775280Y-97861664D01*
X173784048Y-97849841D01*
X173793934Y-97838934D01*
X173804841Y-97829048D01*
X173816664Y-97820280D01*
X173829290Y-97812712D01*
X173842597Y-97806418D01*
X173856457Y-97801459D01*
X173870736Y-97797882D01*
X173885297Y-97795722D01*
X173900000Y-97795000D01*
X175550000Y-97795000D01*
X175564703Y-97795722D01*
X175564703Y-97795722D01*
G37*
D20*
X174725000Y-98095000D03*
D10*
G36*
X170614703Y-97795722D02*
G01*
X170629264Y-97797882D01*
X170643543Y-97801459D01*
X170657403Y-97806418D01*
X170670710Y-97812712D01*
X170683336Y-97820280D01*
X170695159Y-97829048D01*
X170706066Y-97838934D01*
X170715952Y-97849841D01*
X170724720Y-97861664D01*
X170732288Y-97874290D01*
X170738582Y-97887597D01*
X170743541Y-97901457D01*
X170747118Y-97915736D01*
X170749278Y-97930297D01*
X170750000Y-97945000D01*
X170750000Y-98245000D01*
X170749278Y-98259703D01*
X170747118Y-98274264D01*
X170743541Y-98288543D01*
X170738582Y-98302403D01*
X170732288Y-98315710D01*
X170724720Y-98328336D01*
X170715952Y-98340159D01*
X170706066Y-98351066D01*
X170695159Y-98360952D01*
X170683336Y-98369720D01*
X170670710Y-98377288D01*
X170657403Y-98383582D01*
X170643543Y-98388541D01*
X170629264Y-98392118D01*
X170614703Y-98394278D01*
X170600000Y-98395000D01*
X168950000Y-98395000D01*
X168935297Y-98394278D01*
X168920736Y-98392118D01*
X168906457Y-98388541D01*
X168892597Y-98383582D01*
X168879290Y-98377288D01*
X168866664Y-98369720D01*
X168854841Y-98360952D01*
X168843934Y-98351066D01*
X168834048Y-98340159D01*
X168825280Y-98328336D01*
X168817712Y-98315710D01*
X168811418Y-98302403D01*
X168806459Y-98288543D01*
X168802882Y-98274264D01*
X168800722Y-98259703D01*
X168800000Y-98245000D01*
X168800000Y-97945000D01*
X168800722Y-97930297D01*
X168802882Y-97915736D01*
X168806459Y-97901457D01*
X168811418Y-97887597D01*
X168817712Y-97874290D01*
X168825280Y-97861664D01*
X168834048Y-97849841D01*
X168843934Y-97838934D01*
X168854841Y-97829048D01*
X168866664Y-97820280D01*
X168879290Y-97812712D01*
X168892597Y-97806418D01*
X168906457Y-97801459D01*
X168920736Y-97797882D01*
X168935297Y-97795722D01*
X168950000Y-97795000D01*
X170600000Y-97795000D01*
X170614703Y-97795722D01*
X170614703Y-97795722D01*
G37*
D20*
X169775000Y-98095000D03*
D10*
G36*
X170614703Y-99065722D02*
G01*
X170629264Y-99067882D01*
X170643543Y-99071459D01*
X170657403Y-99076418D01*
X170670710Y-99082712D01*
X170683336Y-99090280D01*
X170695159Y-99099048D01*
X170706066Y-99108934D01*
X170715952Y-99119841D01*
X170724720Y-99131664D01*
X170732288Y-99144290D01*
X170738582Y-99157597D01*
X170743541Y-99171457D01*
X170747118Y-99185736D01*
X170749278Y-99200297D01*
X170750000Y-99215000D01*
X170750000Y-99515000D01*
X170749278Y-99529703D01*
X170747118Y-99544264D01*
X170743541Y-99558543D01*
X170738582Y-99572403D01*
X170732288Y-99585710D01*
X170724720Y-99598336D01*
X170715952Y-99610159D01*
X170706066Y-99621066D01*
X170695159Y-99630952D01*
X170683336Y-99639720D01*
X170670710Y-99647288D01*
X170657403Y-99653582D01*
X170643543Y-99658541D01*
X170629264Y-99662118D01*
X170614703Y-99664278D01*
X170600000Y-99665000D01*
X168950000Y-99665000D01*
X168935297Y-99664278D01*
X168920736Y-99662118D01*
X168906457Y-99658541D01*
X168892597Y-99653582D01*
X168879290Y-99647288D01*
X168866664Y-99639720D01*
X168854841Y-99630952D01*
X168843934Y-99621066D01*
X168834048Y-99610159D01*
X168825280Y-99598336D01*
X168817712Y-99585710D01*
X168811418Y-99572403D01*
X168806459Y-99558543D01*
X168802882Y-99544264D01*
X168800722Y-99529703D01*
X168800000Y-99515000D01*
X168800000Y-99215000D01*
X168800722Y-99200297D01*
X168802882Y-99185736D01*
X168806459Y-99171457D01*
X168811418Y-99157597D01*
X168817712Y-99144290D01*
X168825280Y-99131664D01*
X168834048Y-99119841D01*
X168843934Y-99108934D01*
X168854841Y-99099048D01*
X168866664Y-99090280D01*
X168879290Y-99082712D01*
X168892597Y-99076418D01*
X168906457Y-99071459D01*
X168920736Y-99067882D01*
X168935297Y-99065722D01*
X168950000Y-99065000D01*
X170600000Y-99065000D01*
X170614703Y-99065722D01*
X170614703Y-99065722D01*
G37*
D20*
X169775000Y-99365000D03*
D10*
G36*
X170614703Y-100335722D02*
G01*
X170629264Y-100337882D01*
X170643543Y-100341459D01*
X170657403Y-100346418D01*
X170670710Y-100352712D01*
X170683336Y-100360280D01*
X170695159Y-100369048D01*
X170706066Y-100378934D01*
X170715952Y-100389841D01*
X170724720Y-100401664D01*
X170732288Y-100414290D01*
X170738582Y-100427597D01*
X170743541Y-100441457D01*
X170747118Y-100455736D01*
X170749278Y-100470297D01*
X170750000Y-100485000D01*
X170750000Y-100785000D01*
X170749278Y-100799703D01*
X170747118Y-100814264D01*
X170743541Y-100828543D01*
X170738582Y-100842403D01*
X170732288Y-100855710D01*
X170724720Y-100868336D01*
X170715952Y-100880159D01*
X170706066Y-100891066D01*
X170695159Y-100900952D01*
X170683336Y-100909720D01*
X170670710Y-100917288D01*
X170657403Y-100923582D01*
X170643543Y-100928541D01*
X170629264Y-100932118D01*
X170614703Y-100934278D01*
X170600000Y-100935000D01*
X168950000Y-100935000D01*
X168935297Y-100934278D01*
X168920736Y-100932118D01*
X168906457Y-100928541D01*
X168892597Y-100923582D01*
X168879290Y-100917288D01*
X168866664Y-100909720D01*
X168854841Y-100900952D01*
X168843934Y-100891066D01*
X168834048Y-100880159D01*
X168825280Y-100868336D01*
X168817712Y-100855710D01*
X168811418Y-100842403D01*
X168806459Y-100828543D01*
X168802882Y-100814264D01*
X168800722Y-100799703D01*
X168800000Y-100785000D01*
X168800000Y-100485000D01*
X168800722Y-100470297D01*
X168802882Y-100455736D01*
X168806459Y-100441457D01*
X168811418Y-100427597D01*
X168817712Y-100414290D01*
X168825280Y-100401664D01*
X168834048Y-100389841D01*
X168843934Y-100378934D01*
X168854841Y-100369048D01*
X168866664Y-100360280D01*
X168879290Y-100352712D01*
X168892597Y-100346418D01*
X168906457Y-100341459D01*
X168920736Y-100337882D01*
X168935297Y-100335722D01*
X168950000Y-100335000D01*
X170600000Y-100335000D01*
X170614703Y-100335722D01*
X170614703Y-100335722D01*
G37*
D20*
X169775000Y-100635000D03*
D10*
G36*
X170614703Y-101605722D02*
G01*
X170629264Y-101607882D01*
X170643543Y-101611459D01*
X170657403Y-101616418D01*
X170670710Y-101622712D01*
X170683336Y-101630280D01*
X170695159Y-101639048D01*
X170706066Y-101648934D01*
X170715952Y-101659841D01*
X170724720Y-101671664D01*
X170732288Y-101684290D01*
X170738582Y-101697597D01*
X170743541Y-101711457D01*
X170747118Y-101725736D01*
X170749278Y-101740297D01*
X170750000Y-101755000D01*
X170750000Y-102055000D01*
X170749278Y-102069703D01*
X170747118Y-102084264D01*
X170743541Y-102098543D01*
X170738582Y-102112403D01*
X170732288Y-102125710D01*
X170724720Y-102138336D01*
X170715952Y-102150159D01*
X170706066Y-102161066D01*
X170695159Y-102170952D01*
X170683336Y-102179720D01*
X170670710Y-102187288D01*
X170657403Y-102193582D01*
X170643543Y-102198541D01*
X170629264Y-102202118D01*
X170614703Y-102204278D01*
X170600000Y-102205000D01*
X168950000Y-102205000D01*
X168935297Y-102204278D01*
X168920736Y-102202118D01*
X168906457Y-102198541D01*
X168892597Y-102193582D01*
X168879290Y-102187288D01*
X168866664Y-102179720D01*
X168854841Y-102170952D01*
X168843934Y-102161066D01*
X168834048Y-102150159D01*
X168825280Y-102138336D01*
X168817712Y-102125710D01*
X168811418Y-102112403D01*
X168806459Y-102098543D01*
X168802882Y-102084264D01*
X168800722Y-102069703D01*
X168800000Y-102055000D01*
X168800000Y-101755000D01*
X168800722Y-101740297D01*
X168802882Y-101725736D01*
X168806459Y-101711457D01*
X168811418Y-101697597D01*
X168817712Y-101684290D01*
X168825280Y-101671664D01*
X168834048Y-101659841D01*
X168843934Y-101648934D01*
X168854841Y-101639048D01*
X168866664Y-101630280D01*
X168879290Y-101622712D01*
X168892597Y-101616418D01*
X168906457Y-101611459D01*
X168920736Y-101607882D01*
X168935297Y-101605722D01*
X168950000Y-101605000D01*
X170600000Y-101605000D01*
X170614703Y-101605722D01*
X170614703Y-101605722D01*
G37*
D20*
X169775000Y-101905000D03*
D21*
X172830000Y-89540000D03*
X175370000Y-89540000D03*
X175370000Y-96260000D03*
X172830000Y-96260000D03*
D22*
X175050000Y-112100000D03*
X176000000Y-112100000D03*
X176950000Y-112100000D03*
X176950000Y-109900000D03*
X175050000Y-109900000D03*
X176000000Y-109900000D03*
D23*
X170200000Y-74100000D03*
X166200000Y-76600000D03*
X184700000Y-74100000D03*
X189200000Y-76600000D03*
D24*
X188140000Y-87225000D03*
D25*
X185600000Y-96375000D03*
D24*
X183060000Y-87225000D03*
D20*
X190100000Y-92400000D03*
X190100000Y-93400000D03*
X190100000Y-94400000D03*
X190100000Y-95400000D03*
X190100000Y-96400000D03*
X190100000Y-97400000D03*
X190100000Y-98400000D03*
X190100000Y-99400000D03*
X190100000Y-100400000D03*
X189100000Y-92400000D03*
X188100000Y-92400000D03*
X187100000Y-92400000D03*
X186100000Y-92400000D03*
X185100000Y-92400000D03*
X184100000Y-92400000D03*
X183100000Y-92400000D03*
X182100000Y-92400000D03*
X181100000Y-92400000D03*
X181100000Y-93400000D03*
X182100000Y-93400000D03*
X183100000Y-93400000D03*
X184100000Y-93400000D03*
X185100000Y-93400000D03*
X186100000Y-93400000D03*
X187100000Y-93400000D03*
X188100000Y-93400000D03*
X189100000Y-93400000D03*
X181100000Y-94400000D03*
X182100000Y-94400000D03*
X183100000Y-94400000D03*
X184100000Y-94400000D03*
X185100000Y-94400000D03*
X186100000Y-94400000D03*
X187100000Y-94400000D03*
X188100000Y-94400000D03*
X189100000Y-94400000D03*
X181100000Y-95400000D03*
X182100000Y-95400000D03*
X183100000Y-95400000D03*
X184100000Y-95400000D03*
X185100000Y-95400000D03*
X186100000Y-95400000D03*
X187100000Y-95400000D03*
X188100000Y-95400000D03*
X189100000Y-95400000D03*
X181100000Y-96400000D03*
X182100000Y-96400000D03*
X183100000Y-96400000D03*
X184100000Y-96400000D03*
X185100000Y-96400000D03*
X186100000Y-96400000D03*
X187100000Y-96400000D03*
X188100000Y-96400000D03*
X189100000Y-96400000D03*
X181100000Y-97400000D03*
X182100000Y-97400000D03*
X183100000Y-97400000D03*
X184100000Y-97400000D03*
X185100000Y-97400000D03*
X186100000Y-97400000D03*
X187100000Y-97400000D03*
X188100000Y-97400000D03*
X189100000Y-97400000D03*
X181100000Y-98400000D03*
X182100000Y-98400000D03*
X183100000Y-98400000D03*
X184100000Y-98400000D03*
X185100000Y-98400000D03*
X186100000Y-98400000D03*
X187100000Y-98400000D03*
X188100000Y-98400000D03*
X189100000Y-98400000D03*
X181100000Y-99400000D03*
X182100000Y-99400000D03*
X183100000Y-99400000D03*
X184100000Y-99400000D03*
X185100000Y-99400000D03*
X186100000Y-99400000D03*
X187100000Y-99400000D03*
X188100000Y-99400000D03*
X189100000Y-99400000D03*
X181100000Y-100400000D03*
X182100000Y-100400000D03*
X183100000Y-100400000D03*
X184100000Y-100400000D03*
X185100000Y-100400000D03*
X186100000Y-100400000D03*
X187100000Y-100400000D03*
X188100000Y-100400000D03*
X189100000Y-100400000D03*
D26*
X177500000Y-73100000D03*
D27*
X164300000Y-96400000D03*
X175800000Y-105837500D03*
D28*
X168700000Y-74100000D02*
X166200000Y-76600000D01*
X170200000Y-74100000D02*
X168700000Y-74100000D01*
X166200000Y-77900000D02*
X168800000Y-80500000D01*
X166200000Y-76600000D02*
X166200000Y-77900000D01*
D29*
X172885000Y-100635000D02*
X172250000Y-100000000D01*
X174725000Y-100635000D02*
X172885000Y-100635000D01*
X172885000Y-99365000D02*
X172250000Y-100000000D01*
X174725000Y-99365000D02*
X172885000Y-99365000D01*
X174654432Y-96260000D02*
X175370000Y-96260000D01*
X172250000Y-98664432D02*
X174654432Y-96260000D01*
X172250000Y-100000000D02*
X172250000Y-98664432D01*
X171358847Y-93728653D02*
X170587500Y-94500000D01*
X172200000Y-92887500D02*
X171358847Y-93728653D01*
X172200000Y-91312500D02*
X172200000Y-92887500D01*
X170587500Y-89700000D02*
X172200000Y-91312500D01*
X169283847Y-107571347D02*
X168512500Y-106800000D01*
X172263980Y-108183010D02*
X169895510Y-108183010D01*
X172546990Y-107900000D02*
X172263980Y-108183010D01*
X169895510Y-108183010D02*
X169283847Y-107571347D01*
X173912500Y-107900000D02*
X172546990Y-107900000D01*
X176000000Y-112100000D02*
X176000000Y-113000000D01*
X181255000Y-107855000D02*
X179800000Y-107855000D01*
X182300000Y-108900000D02*
X181255000Y-107855000D01*
X182300000Y-111444402D02*
X182300000Y-108900000D01*
X181644402Y-112100000D02*
X182300000Y-111444402D01*
X176950000Y-112100000D02*
X181644402Y-112100000D01*
X192204001Y-86335999D02*
X194541000Y-83999000D01*
X192254001Y-86385999D02*
X192204001Y-86335999D01*
X192254001Y-102178201D02*
X192254001Y-86385999D01*
X190832202Y-103600000D02*
X192254001Y-102178201D01*
X186700000Y-103600000D02*
X190832202Y-103600000D01*
X185900000Y-104400000D02*
X186700000Y-103600000D01*
X185900000Y-106900000D02*
X185900000Y-104400000D01*
X184900000Y-107900000D02*
X185900000Y-106900000D01*
X184412500Y-107900000D02*
X184900000Y-107900000D01*
X184367500Y-107855000D02*
X184412500Y-107900000D01*
X179800000Y-107855000D02*
X184367500Y-107855000D01*
D30*
X188090000Y-87350000D02*
X188090000Y-81050000D01*
X184278314Y-79249999D02*
X184128316Y-79100001D01*
X189092955Y-77107048D02*
X188920418Y-76980158D01*
X186950003Y-79249999D02*
X189092955Y-77107048D01*
X184278314Y-79249999D02*
X186950003Y-79249999D01*
D29*
X165280000Y-95042500D02*
X167000000Y-96762500D01*
X165280000Y-94050000D02*
X165280000Y-95042500D01*
X167000000Y-97578010D02*
X168500000Y-99078010D01*
X167000000Y-96762500D02*
X167000000Y-97578010D01*
X168700000Y-99365000D02*
X169775000Y-99365000D01*
X168500000Y-99165000D02*
X168700000Y-99365000D01*
X168500000Y-99078010D02*
X168500000Y-99165000D01*
X165662500Y-94050000D02*
X167612500Y-92100000D01*
X165280000Y-94050000D02*
X165662500Y-94050000D01*
X167612500Y-92100000D02*
X167612500Y-89700000D01*
X167612500Y-86475000D02*
X167987500Y-86100000D01*
X167612500Y-89700000D02*
X167612500Y-86475000D01*
X176000000Y-109900000D02*
X176950000Y-109900000D01*
X176950000Y-107962500D02*
X176887500Y-107900000D01*
X176950000Y-109900000D02*
X176950000Y-107962500D01*
X164300000Y-95000000D02*
X164300000Y-96400000D01*
X165250000Y-94050000D02*
X164300000Y-95000000D01*
X165280000Y-94050000D02*
X165250000Y-94050000D01*
X176887500Y-106925000D02*
X175800000Y-105837500D01*
X176887500Y-107900000D02*
X176887500Y-106925000D01*
X160720000Y-95658000D02*
X160720000Y-94050000D01*
X163062000Y-98000000D02*
X160720000Y-95658000D01*
X164400000Y-98000000D02*
X163062000Y-98000000D01*
X165100000Y-98700000D02*
X164400000Y-98000000D01*
X169775000Y-101905000D02*
X168089856Y-101905000D01*
X166020010Y-100917000D02*
X165100000Y-99996990D01*
X166020010Y-100958010D02*
X166020010Y-100917000D01*
X167142866Y-100958010D02*
X166020010Y-100958010D01*
X165100000Y-99996990D02*
X165100000Y-98700000D01*
X168089856Y-101905000D02*
X167142866Y-100958010D01*
D28*
X163262500Y-100025000D02*
X163237500Y-100000000D01*
X163262500Y-102500000D02*
X163262500Y-100025000D01*
D29*
X167897500Y-100635000D02*
X167000000Y-99737500D01*
X169775000Y-100635000D02*
X167897500Y-100635000D01*
X176395000Y-98095000D02*
X174725000Y-98095000D01*
X176600000Y-102787500D02*
X176600000Y-98300000D01*
X172587500Y-106800000D02*
X176600000Y-102787500D01*
X176600000Y-98300000D02*
X176395000Y-98095000D01*
X171487500Y-106800000D02*
X172587500Y-106800000D01*
D28*
X160262500Y-102812500D02*
X160262500Y-100975000D01*
X162700000Y-105250000D02*
X160262500Y-102812500D01*
X160262500Y-100975000D02*
X160262500Y-100000000D01*
X163512500Y-105250000D02*
X162700000Y-105250000D01*
X158600000Y-95894402D02*
X158600000Y-92450000D01*
X160262500Y-97556902D02*
X158600000Y-95894402D01*
X160262500Y-100000000D02*
X160262500Y-97556902D01*
X163000000Y-87142350D02*
X163000000Y-87750000D01*
X166575360Y-83566990D02*
X163000000Y-87142350D01*
X170547412Y-83566990D02*
X166575360Y-83566990D01*
X171200000Y-78185598D02*
X171200000Y-82914402D01*
X172135598Y-77250000D02*
X171200000Y-78185598D01*
X171200000Y-82914402D02*
X170547412Y-83566990D01*
X175525000Y-77250000D02*
X172135598Y-77250000D01*
X177016990Y-78741990D02*
X175525000Y-77250000D01*
X177025000Y-78741990D02*
X177016990Y-78741990D01*
X163000000Y-88050000D02*
X158600000Y-92450000D01*
X163000000Y-87750000D02*
X163000000Y-88050000D01*
X179350000Y-80750000D02*
X173950000Y-80750000D01*
X173950000Y-80750000D02*
X173700000Y-80500000D01*
X181350000Y-82750000D02*
X179350000Y-80750000D01*
X182475000Y-82750000D02*
X181350000Y-82750000D01*
D31*
X177460000Y-87350000D02*
X181760000Y-87350000D01*
X181760000Y-87350000D02*
X183010000Y-87350000D01*
X175370000Y-89440000D02*
X177460000Y-87350000D01*
X175370000Y-89540000D02*
X175370000Y-89440000D01*
D28*
X167992350Y-104100000D02*
X168300000Y-104100000D01*
X168300000Y-104100000D02*
X169112500Y-104100000D01*
X166842350Y-105250000D02*
X167992350Y-104100000D01*
X166487500Y-105250000D02*
X166842350Y-105250000D01*
D31*
X172530000Y-104100000D02*
X174725000Y-101905000D01*
X172087500Y-104100000D02*
X172530000Y-104100000D01*
D29*
X191200000Y-105120000D02*
X194541000Y-101779000D01*
X190820000Y-105500000D02*
X191200000Y-105120000D01*
X187387500Y-105500000D02*
X190820000Y-105500000D01*
X169775000Y-98095000D02*
X170192500Y-98095000D01*
X169775000Y-96662500D02*
X167612500Y-94500000D01*
X169775000Y-98095000D02*
X169775000Y-96662500D01*
X168187500Y-94500000D02*
X170587500Y-92100000D01*
X167612500Y-94500000D02*
X168187500Y-94500000D01*
X174282000Y-93700000D02*
X172830000Y-95152000D01*
X172830000Y-95152000D02*
X172830000Y-96260000D01*
X177637990Y-94737990D02*
X176600000Y-93700000D01*
X177637990Y-104937990D02*
X177637990Y-94737990D01*
X176600000Y-93700000D02*
X174282000Y-93700000D01*
X178971347Y-106271347D02*
X178750000Y-106050000D01*
X183641153Y-106271347D02*
X178971347Y-106271347D01*
X184412500Y-105500000D02*
X183641153Y-106271347D01*
X178750000Y-106050000D02*
X177637990Y-104937990D01*
D31*
X172830000Y-90030000D02*
X172830000Y-89540000D01*
X174300000Y-91500000D02*
X172830000Y-90030000D01*
X178800000Y-93500000D02*
X176800000Y-91500000D01*
X178800000Y-102112500D02*
X178800000Y-93500000D01*
X179112500Y-102425000D02*
X178800000Y-102112500D01*
X176800000Y-91500000D02*
X174300000Y-91500000D01*
X179112500Y-103400000D02*
X179112500Y-102425000D01*
D32*
X182087500Y-99512500D02*
X186100000Y-95500000D01*
X182087500Y-103400000D02*
X182087500Y-99512500D01*
D29*
X172287500Y-109900000D02*
X171987500Y-109600000D01*
X175050000Y-109900000D02*
X172287500Y-109900000D01*
X175268599Y-110938001D02*
X179006999Y-110938001D01*
X179006999Y-110938001D02*
X179800000Y-110145000D01*
X175050000Y-110719402D02*
X175268599Y-110938001D01*
X175050000Y-109900000D02*
X175050000Y-110719402D01*
X174400000Y-111400000D02*
X175050000Y-112050000D01*
X170812500Y-111400000D02*
X174400000Y-111400000D01*
X175050000Y-112050000D02*
X175050000Y-112100000D01*
X169012500Y-109600000D02*
X170812500Y-111400000D01*
D33*
G36*
X164905254Y-79839855D02*
G01*
X164939450Y-79888072D01*
X164982564Y-79948871D01*
X164982580Y-79948886D01*
X164982592Y-79948903D01*
X165027793Y-79991730D01*
X165079605Y-80040827D01*
X165079625Y-80040840D01*
X165079638Y-80040852D01*
X165124880Y-80069403D01*
X165192658Y-80112182D01*
X165192682Y-80112191D01*
X165192696Y-80112200D01*
X165244232Y-80132040D01*
X165317418Y-80160219D01*
X165317441Y-80160223D01*
X165317459Y-80160230D01*
X165379900Y-80171077D01*
X165449133Y-80183109D01*
X165449155Y-80183108D01*
X165449175Y-80183112D01*
X165515532Y-80181554D01*
X165582785Y-80179979D01*
X165582805Y-80179974D01*
X165582826Y-80179974D01*
X165642570Y-80166680D01*
X165713283Y-80150950D01*
X165713305Y-80150940D01*
X165713324Y-80150936D01*
X165770054Y-80125980D01*
X165835658Y-80097125D01*
X165843963Y-80092380D01*
X166217059Y-79875744D01*
X167186928Y-80845614D01*
X167186928Y-82075000D01*
X167197465Y-82181990D01*
X166643389Y-82181990D01*
X166575360Y-82175290D01*
X166507331Y-82181990D01*
X166507323Y-82181990D01*
X166303853Y-82202030D01*
X166042779Y-82281226D01*
X165802172Y-82409833D01*
X165644126Y-82539538D01*
X165644124Y-82539540D01*
X165591279Y-82582909D01*
X165547910Y-82635754D01*
X164271736Y-83911928D01*
X160100000Y-83911928D01*
X159975518Y-83924188D01*
X159855820Y-83960498D01*
X159745506Y-84019463D01*
X159648815Y-84098815D01*
X159569463Y-84195506D01*
X159510498Y-84305820D01*
X159474188Y-84425518D01*
X159461928Y-84550000D01*
X159461928Y-89629387D01*
X157668764Y-91422551D01*
X157615920Y-91465919D01*
X157572551Y-91518764D01*
X157572548Y-91518767D01*
X157442844Y-91676812D01*
X157314236Y-91917420D01*
X157235040Y-92178493D01*
X157208300Y-92450000D01*
X157215001Y-92518039D01*
X157215000Y-95826373D01*
X157208300Y-95894402D01*
X157215000Y-95962431D01*
X157215000Y-95962438D01*
X157225078Y-96064759D01*
X157235040Y-96165909D01*
X157308247Y-96407239D01*
X157314236Y-96426982D01*
X157442843Y-96667589D01*
X157456894Y-96684710D01*
X157564332Y-96815623D01*
X157615919Y-96878482D01*
X157668765Y-96921852D01*
X158877501Y-98130588D01*
X158877500Y-99931962D01*
X158877500Y-101043036D01*
X158877501Y-101043045D01*
X158877500Y-102744470D01*
X158870800Y-102812500D01*
X158877500Y-102880529D01*
X158877500Y-102880536D01*
X158889489Y-103002260D01*
X158897540Y-103084007D01*
X158954900Y-103273097D01*
X158976736Y-103345080D01*
X159105343Y-103585687D01*
X159132830Y-103619180D01*
X159229464Y-103736928D01*
X159278419Y-103796580D01*
X159331265Y-103839950D01*
X161672550Y-106181236D01*
X161715919Y-106234081D01*
X161768764Y-106277450D01*
X161768766Y-106277452D01*
X161926812Y-106407157D01*
X162167419Y-106535764D01*
X162428493Y-106614960D01*
X162589121Y-106630780D01*
X162710150Y-106695472D01*
X162876746Y-106746008D01*
X163050000Y-106763072D01*
X163975000Y-106763072D01*
X164148254Y-106746008D01*
X164314850Y-106695472D01*
X164468386Y-106613405D01*
X164602962Y-106502962D01*
X164713405Y-106368386D01*
X164795472Y-106214850D01*
X164846008Y-106048254D01*
X164863072Y-105875000D01*
X164863072Y-105568938D01*
X164877460Y-105521507D01*
X164904201Y-105250000D01*
X164877460Y-104978493D01*
X164863072Y-104931062D01*
X164863072Y-104625000D01*
X164846008Y-104451746D01*
X164795472Y-104285150D01*
X164713405Y-104131614D01*
X164602962Y-103997038D01*
X164468386Y-103886595D01*
X164314850Y-103804528D01*
X164296800Y-103799053D01*
X164352962Y-103752962D01*
X164463405Y-103618386D01*
X164545472Y-103464850D01*
X164596008Y-103298254D01*
X164613072Y-103125000D01*
X164613072Y-102818938D01*
X164627460Y-102771507D01*
X164647500Y-102568037D01*
X164647500Y-100801725D01*
X165049373Y-101203598D01*
X164994463Y-101270506D01*
X164935498Y-101380820D01*
X164899188Y-101500518D01*
X164886928Y-101625000D01*
X164890000Y-102214250D01*
X165048750Y-102373000D01*
X166110500Y-102373000D01*
X166110500Y-102353000D01*
X166364500Y-102353000D01*
X166364500Y-102373000D01*
X166384500Y-102373000D01*
X166384500Y-102627000D01*
X166364500Y-102627000D01*
X166364500Y-102647000D01*
X166110500Y-102647000D01*
X166110500Y-102627000D01*
X165048750Y-102627000D01*
X164890000Y-102785750D01*
X164886928Y-103375000D01*
X164899188Y-103499482D01*
X164935498Y-103619180D01*
X164994463Y-103729494D01*
X165073815Y-103826185D01*
X165170506Y-103905537D01*
X165280820Y-103964502D01*
X165395252Y-103999215D01*
X165286595Y-104131614D01*
X165204528Y-104285150D01*
X165153992Y-104451746D01*
X165136928Y-104625000D01*
X165136928Y-104931062D01*
X165122540Y-104978493D01*
X165095799Y-105250000D01*
X165122540Y-105521507D01*
X165136928Y-105568938D01*
X165136928Y-105875000D01*
X165153992Y-106048254D01*
X165204528Y-106214850D01*
X165286595Y-106368386D01*
X165397038Y-106502962D01*
X165531614Y-106613405D01*
X165685150Y-106695472D01*
X165851746Y-106746008D01*
X166025000Y-106763072D01*
X166950000Y-106763072D01*
X167123254Y-106746008D01*
X167289850Y-106695472D01*
X167331892Y-106673000D01*
X168385500Y-106673000D01*
X168385500Y-106653000D01*
X168639500Y-106653000D01*
X168639500Y-106673000D01*
X169701250Y-106673000D01*
X169860000Y-106514250D01*
X169863072Y-105925000D01*
X169850812Y-105800518D01*
X169814502Y-105680820D01*
X169766250Y-105590549D01*
X169914850Y-105545472D01*
X170068386Y-105463405D01*
X170202962Y-105352962D01*
X170313405Y-105218386D01*
X170395472Y-105064850D01*
X170446008Y-104898254D01*
X170463072Y-104725000D01*
X170463072Y-104418938D01*
X170477460Y-104371507D01*
X170504201Y-104100000D01*
X170477460Y-103828493D01*
X170463072Y-103781062D01*
X170463072Y-103475000D01*
X170446008Y-103301746D01*
X170395472Y-103135150D01*
X170313405Y-102981614D01*
X170202962Y-102847038D01*
X170198129Y-102843072D01*
X170600000Y-102843072D01*
X170753745Y-102827929D01*
X170901582Y-102783084D01*
X171037829Y-102710258D01*
X171157251Y-102612251D01*
X171255258Y-102492829D01*
X171328084Y-102356582D01*
X171372929Y-102208745D01*
X171379987Y-102137089D01*
X171964250Y-102135000D01*
X172123000Y-101976250D01*
X172123000Y-100127000D01*
X172103000Y-100127000D01*
X172103000Y-99873000D01*
X172123000Y-99873000D01*
X172123000Y-98023750D01*
X171964250Y-97865000D01*
X171379987Y-97862911D01*
X171372929Y-97791255D01*
X171328084Y-97643418D01*
X171255258Y-97507171D01*
X171157251Y-97387749D01*
X171037829Y-97289742D01*
X170901582Y-97216916D01*
X170753745Y-97172071D01*
X170664000Y-97163232D01*
X170664000Y-96706160D01*
X170668300Y-96662500D01*
X170664000Y-96618840D01*
X170664000Y-96618833D01*
X170651136Y-96488226D01*
X170642694Y-96460394D01*
X170600302Y-96320647D01*
X170557170Y-96239953D01*
X170517753Y-96166209D01*
X170406659Y-96030841D01*
X170372742Y-96003006D01*
X170340743Y-95971007D01*
X170460500Y-95851250D01*
X170460500Y-94627000D01*
X170440500Y-94627000D01*
X170440500Y-94373000D01*
X170460500Y-94373000D01*
X170460500Y-94353000D01*
X170714500Y-94353000D01*
X170714500Y-94373000D01*
X171776250Y-94373000D01*
X171935000Y-94214250D01*
X171938072Y-93625000D01*
X171925812Y-93500518D01*
X171889502Y-93380820D01*
X171830537Y-93270506D01*
X171788084Y-93218777D01*
X171788405Y-93218386D01*
X171870472Y-93064850D01*
X171921008Y-92898254D01*
X171938072Y-92725000D01*
X171938072Y-91475000D01*
X171921008Y-91301746D01*
X171870472Y-91135150D01*
X171788405Y-90981614D01*
X171788084Y-90981223D01*
X171830537Y-90929494D01*
X171889502Y-90819180D01*
X171925812Y-90699482D01*
X171932166Y-90634969D01*
X171975506Y-90670537D01*
X172085820Y-90729502D01*
X172155401Y-90750609D01*
X172167715Y-90760716D01*
X173569289Y-92162290D01*
X173600130Y-92199870D01*
X173750116Y-92322960D01*
X173921233Y-92414424D01*
X174106906Y-92470747D01*
X174300000Y-92489765D01*
X174348380Y-92485000D01*
X176392000Y-92485000D01*
X176726121Y-92819121D01*
X176643667Y-92811000D01*
X176643660Y-92811000D01*
X176600000Y-92806700D01*
X176556340Y-92811000D01*
X174325659Y-92811000D01*
X174281999Y-92806700D01*
X174238339Y-92811000D01*
X174238333Y-92811000D01*
X174151404Y-92819562D01*
X174107724Y-92823864D01*
X174006058Y-92854704D01*
X173940149Y-92874697D01*
X173785709Y-92957247D01*
X173650341Y-93068341D01*
X173622506Y-93102259D01*
X172232264Y-94492501D01*
X172198341Y-94520341D01*
X172087247Y-94655710D01*
X172037042Y-94749637D01*
X172007238Y-94805397D01*
X172004697Y-94810150D01*
X171980720Y-94889194D01*
X171960354Y-94956333D01*
X171953864Y-94977727D01*
X171941000Y-95108334D01*
X171941000Y-95108340D01*
X171936899Y-95149981D01*
X171935000Y-94785750D01*
X171776250Y-94627000D01*
X170714500Y-94627000D01*
X170714500Y-95851250D01*
X170873250Y-96010000D01*
X171300000Y-96013072D01*
X171424482Y-96000812D01*
X171544180Y-95964502D01*
X171654494Y-95905537D01*
X171691928Y-95874816D01*
X171691928Y-96860000D01*
X171704188Y-96984482D01*
X171740498Y-97104180D01*
X171799463Y-97214494D01*
X171878815Y-97311185D01*
X171975506Y-97390537D01*
X172085820Y-97449502D01*
X172205518Y-97485812D01*
X172330000Y-97498072D01*
X173252209Y-97498072D01*
X173244742Y-97507171D01*
X173171916Y-97643418D01*
X173127071Y-97791255D01*
X173120013Y-97862911D01*
X172535750Y-97865000D01*
X172377000Y-98023750D01*
X172377000Y-99873000D01*
X172397000Y-99873000D01*
X172397000Y-100127000D01*
X172377000Y-100127000D01*
X172377000Y-101976250D01*
X172535750Y-102135000D01*
X173099982Y-102137017D01*
X172641099Y-102595900D01*
X172550000Y-102586928D01*
X171625000Y-102586928D01*
X171451746Y-102603992D01*
X171285150Y-102654528D01*
X171131614Y-102736595D01*
X170997038Y-102847038D01*
X170886595Y-102981614D01*
X170804528Y-103135150D01*
X170753992Y-103301746D01*
X170736928Y-103475000D01*
X170736928Y-104725000D01*
X170753992Y-104898254D01*
X170804528Y-105064850D01*
X170886595Y-105218386D01*
X170948989Y-105294414D01*
X170851746Y-105303992D01*
X170685150Y-105354528D01*
X170531614Y-105436595D01*
X170397038Y-105547038D01*
X170286595Y-105681614D01*
X170204528Y-105835150D01*
X170153992Y-106001746D01*
X170136928Y-106175000D01*
X170136928Y-107425000D01*
X170153992Y-107598254D01*
X170204528Y-107764850D01*
X170286595Y-107918386D01*
X170397038Y-108052962D01*
X170531614Y-108163405D01*
X170685150Y-108245472D01*
X170851746Y-108296008D01*
X170947703Y-108305459D01*
X170897038Y-108347038D01*
X170786595Y-108481614D01*
X170704528Y-108635150D01*
X170653992Y-108801746D01*
X170636928Y-108975000D01*
X170636928Y-109967193D01*
X170363072Y-109693337D01*
X170363072Y-108975000D01*
X170346008Y-108801746D01*
X170295472Y-108635150D01*
X170213405Y-108481614D01*
X170102962Y-108347038D01*
X169968386Y-108236595D01*
X169814850Y-108154528D01*
X169685201Y-108115200D01*
X169755537Y-108029494D01*
X169814502Y-107919180D01*
X169850812Y-107799482D01*
X169863072Y-107675000D01*
X169860000Y-107085750D01*
X169701250Y-106927000D01*
X168639500Y-106927000D01*
X168639500Y-106947000D01*
X168385500Y-106947000D01*
X168385500Y-106927000D01*
X167323750Y-106927000D01*
X167165000Y-107085750D01*
X167161928Y-107675000D01*
X167174188Y-107799482D01*
X167210498Y-107919180D01*
X167269463Y-108029494D01*
X167348815Y-108126185D01*
X167445506Y-108205537D01*
X167555820Y-108264502D01*
X167675518Y-108300812D01*
X167800000Y-108313072D01*
X167964872Y-108311885D01*
X167922038Y-108347038D01*
X167811595Y-108481614D01*
X167729528Y-108635150D01*
X167678992Y-108801746D01*
X167661928Y-108975000D01*
X167661928Y-110225000D01*
X167678992Y-110398254D01*
X167729528Y-110564850D01*
X167811595Y-110718386D01*
X167922038Y-110852962D01*
X168056614Y-110963405D01*
X168210150Y-111045472D01*
X168376746Y-111096008D01*
X168550000Y-111113072D01*
X169268337Y-111113072D01*
X170153001Y-111997736D01*
X170180841Y-112031659D01*
X170316209Y-112142753D01*
X170470649Y-112225303D01*
X170536558Y-112245296D01*
X170638224Y-112276136D01*
X170670888Y-112279353D01*
X170768833Y-112289000D01*
X170768839Y-112289000D01*
X170812499Y-112293300D01*
X170856159Y-112289000D01*
X174031765Y-112289000D01*
X174086928Y-112344163D01*
X174086928Y-112630000D01*
X174099188Y-112754482D01*
X174135498Y-112874180D01*
X174194463Y-112984494D01*
X174273815Y-113081185D01*
X174370506Y-113160537D01*
X174480820Y-113219502D01*
X174600518Y-113255812D01*
X174725000Y-113268072D01*
X175375000Y-113268072D01*
X175499482Y-113255812D01*
X175525000Y-113248071D01*
X175550518Y-113255812D01*
X175675000Y-113268072D01*
X175714250Y-113265000D01*
X175873000Y-113106250D01*
X175873000Y-113024141D01*
X175905537Y-112984494D01*
X175964502Y-112874180D01*
X176000000Y-112757159D01*
X176035498Y-112874180D01*
X176094463Y-112984494D01*
X176127000Y-113024141D01*
X176127000Y-113106250D01*
X176285750Y-113265000D01*
X176325000Y-113268072D01*
X176449482Y-113255812D01*
X176475000Y-113248071D01*
X176500518Y-113255812D01*
X176625000Y-113268072D01*
X177275000Y-113268072D01*
X177399482Y-113255812D01*
X177519180Y-113219502D01*
X177629494Y-113160537D01*
X177726185Y-113081185D01*
X177801839Y-112989000D01*
X181600742Y-112989000D01*
X181644402Y-112993300D01*
X181688062Y-112989000D01*
X181688069Y-112989000D01*
X181818676Y-112976136D01*
X181986253Y-112925303D01*
X182140693Y-112842753D01*
X182276061Y-112731659D01*
X182303900Y-112697737D01*
X182897742Y-112103896D01*
X182931659Y-112076061D01*
X183042753Y-111940693D01*
X183125303Y-111786253D01*
X183171462Y-111634085D01*
X183176136Y-111618677D01*
X183193301Y-111444402D01*
X183189000Y-111400734D01*
X183189000Y-108976114D01*
X183211595Y-109018386D01*
X183322038Y-109152962D01*
X183456614Y-109263405D01*
X183610150Y-109345472D01*
X183776746Y-109396008D01*
X183950000Y-109413072D01*
X184875000Y-109413072D01*
X185048254Y-109396008D01*
X185214850Y-109345472D01*
X185368386Y-109263405D01*
X185502962Y-109152962D01*
X185613405Y-109018386D01*
X185695472Y-108864850D01*
X185746008Y-108698254D01*
X185763072Y-108525000D01*
X185763072Y-108294163D01*
X186040000Y-108017236D01*
X186040000Y-108027002D01*
X186198748Y-108027002D01*
X186040000Y-108185750D01*
X186036928Y-108775000D01*
X186049188Y-108899482D01*
X186085498Y-109019180D01*
X186144463Y-109129494D01*
X186223815Y-109226185D01*
X186320506Y-109305537D01*
X186430820Y-109364502D01*
X186550518Y-109400812D01*
X186675000Y-109413072D01*
X187101750Y-109410000D01*
X187260500Y-109251250D01*
X187260500Y-108027000D01*
X187514500Y-108027000D01*
X187514500Y-109251250D01*
X187673250Y-109410000D01*
X188100000Y-109413072D01*
X188224482Y-109400812D01*
X188344180Y-109364502D01*
X188454494Y-109305537D01*
X188551185Y-109226185D01*
X188630537Y-109129494D01*
X188689502Y-109019180D01*
X188725812Y-108899482D01*
X188738072Y-108775000D01*
X188735000Y-108185750D01*
X188576250Y-108027000D01*
X187514500Y-108027000D01*
X187260500Y-108027000D01*
X187240500Y-108027000D01*
X187240500Y-107773000D01*
X187260500Y-107773000D01*
X187260500Y-107753000D01*
X187514500Y-107753000D01*
X187514500Y-107773000D01*
X188576250Y-107773000D01*
X188735000Y-107614250D01*
X188738072Y-107025000D01*
X188725812Y-106900518D01*
X188689502Y-106780820D01*
X188630537Y-106670506D01*
X188588084Y-106618777D01*
X188588405Y-106618386D01*
X188670472Y-106464850D01*
X188693481Y-106389000D01*
X190776340Y-106389000D01*
X190820000Y-106393300D01*
X190863660Y-106389000D01*
X190863667Y-106389000D01*
X190994274Y-106376136D01*
X191161851Y-106325303D01*
X191316291Y-106242753D01*
X191451659Y-106131659D01*
X191479499Y-106097736D01*
X191859495Y-105717740D01*
X194401596Y-103175640D01*
X194403408Y-103176000D01*
X194678592Y-103176000D01*
X194948490Y-103122314D01*
X195202727Y-103017005D01*
X195431535Y-102864120D01*
X195626120Y-102669535D01*
X195779005Y-102440727D01*
X195884314Y-102186490D01*
X195938000Y-101916592D01*
X195938000Y-101641408D01*
X195884314Y-101371510D01*
X195779005Y-101117273D01*
X195626120Y-100888465D01*
X195431535Y-100693880D01*
X195202727Y-100540995D01*
X195125485Y-100509000D01*
X195202727Y-100477005D01*
X195431535Y-100324120D01*
X195626120Y-100129535D01*
X195779005Y-99900727D01*
X195884314Y-99646490D01*
X195938000Y-99376592D01*
X195938000Y-99101408D01*
X195884314Y-98831510D01*
X195779005Y-98577273D01*
X195626120Y-98348465D01*
X195431535Y-98153880D01*
X195202727Y-98000995D01*
X195125485Y-97969000D01*
X195202727Y-97937005D01*
X195431535Y-97784120D01*
X195626120Y-97589535D01*
X195779005Y-97360727D01*
X195884314Y-97106490D01*
X195938000Y-96836592D01*
X195938000Y-96561408D01*
X195884314Y-96291510D01*
X195779005Y-96037273D01*
X195626120Y-95808465D01*
X195431535Y-95613880D01*
X195202727Y-95460995D01*
X195125485Y-95429000D01*
X195202727Y-95397005D01*
X195431535Y-95244120D01*
X195626120Y-95049535D01*
X195779005Y-94820727D01*
X195884314Y-94566490D01*
X195938000Y-94296592D01*
X195938000Y-94021408D01*
X195884314Y-93751510D01*
X195779005Y-93497273D01*
X195626120Y-93268465D01*
X195431535Y-93073880D01*
X195202727Y-92920995D01*
X195125485Y-92889000D01*
X195202727Y-92857005D01*
X195431535Y-92704120D01*
X195626120Y-92509535D01*
X195779005Y-92280727D01*
X195884314Y-92026490D01*
X195938000Y-91756592D01*
X195938000Y-91481408D01*
X195884314Y-91211510D01*
X195779005Y-90957273D01*
X195626120Y-90728465D01*
X195431535Y-90533880D01*
X195202727Y-90380995D01*
X195125485Y-90349000D01*
X195202727Y-90317005D01*
X195431535Y-90164120D01*
X195626120Y-89969535D01*
X195779005Y-89740727D01*
X195884314Y-89486490D01*
X195938000Y-89216592D01*
X195938000Y-88941408D01*
X195884314Y-88671510D01*
X195779005Y-88417273D01*
X195626120Y-88188465D01*
X195431535Y-87993880D01*
X195202727Y-87840995D01*
X195131057Y-87811308D01*
X195144023Y-87806636D01*
X195259980Y-87744656D01*
X195326960Y-87504565D01*
X194541000Y-86718605D01*
X193755040Y-87504565D01*
X193822020Y-87744656D01*
X193957760Y-87808485D01*
X193879273Y-87840995D01*
X193650465Y-87993880D01*
X193455880Y-88188465D01*
X193302995Y-88417273D01*
X193197686Y-88671510D01*
X193144000Y-88941408D01*
X193144000Y-89216592D01*
X193197686Y-89486490D01*
X193302995Y-89740727D01*
X193455880Y-89969535D01*
X193650465Y-90164120D01*
X193879273Y-90317005D01*
X193956515Y-90349000D01*
X193879273Y-90380995D01*
X193650465Y-90533880D01*
X193455880Y-90728465D01*
X193302995Y-90957273D01*
X193197686Y-91211510D01*
X193144000Y-91481408D01*
X193144000Y-91756592D01*
X193197686Y-92026490D01*
X193302995Y-92280727D01*
X193455880Y-92509535D01*
X193650465Y-92704120D01*
X193879273Y-92857005D01*
X193956515Y-92889000D01*
X193879273Y-92920995D01*
X193650465Y-93073880D01*
X193455880Y-93268465D01*
X193302995Y-93497273D01*
X193197686Y-93751510D01*
X193144000Y-94021408D01*
X193144000Y-94296592D01*
X193197686Y-94566490D01*
X193302995Y-94820727D01*
X193455880Y-95049535D01*
X193650465Y-95244120D01*
X193879273Y-95397005D01*
X193956515Y-95429000D01*
X193879273Y-95460995D01*
X193650465Y-95613880D01*
X193455880Y-95808465D01*
X193302995Y-96037273D01*
X193197686Y-96291510D01*
X193144000Y-96561408D01*
X193144000Y-96836592D01*
X193197686Y-97106490D01*
X193302995Y-97360727D01*
X193455880Y-97589535D01*
X193650465Y-97784120D01*
X193879273Y-97937005D01*
X193956515Y-97969000D01*
X193879273Y-98000995D01*
X193650465Y-98153880D01*
X193455880Y-98348465D01*
X193302995Y-98577273D01*
X193197686Y-98831510D01*
X193144000Y-99101408D01*
X193144000Y-99376592D01*
X193197686Y-99646490D01*
X193302995Y-99900727D01*
X193455880Y-100129535D01*
X193650465Y-100324120D01*
X193879273Y-100477005D01*
X193956515Y-100509000D01*
X193879273Y-100540995D01*
X193650465Y-100693880D01*
X193455880Y-100888465D01*
X193302995Y-101117273D01*
X193197686Y-101371510D01*
X193144000Y-101641408D01*
X193144000Y-101916592D01*
X193144360Y-101918404D01*
X193143001Y-101919763D01*
X193143001Y-86654234D01*
X193145259Y-86651976D01*
X193180078Y-86883133D01*
X193273364Y-87142023D01*
X193335344Y-87257980D01*
X193575435Y-87324960D01*
X194361395Y-86539000D01*
X194720605Y-86539000D01*
X195506565Y-87324960D01*
X195746656Y-87257980D01*
X195863756Y-87008952D01*
X195930023Y-86741865D01*
X195942910Y-86466983D01*
X195901922Y-86194867D01*
X195808636Y-85935977D01*
X195746656Y-85820020D01*
X195506565Y-85753040D01*
X194720605Y-86539000D01*
X194361395Y-86539000D01*
X194347253Y-86524858D01*
X194526858Y-86345253D01*
X194541000Y-86359395D01*
X195326960Y-85573435D01*
X195259980Y-85333344D01*
X195124240Y-85269515D01*
X195202727Y-85237005D01*
X195431535Y-85084120D01*
X195626120Y-84889535D01*
X195779005Y-84660727D01*
X195884314Y-84406490D01*
X195938000Y-84136592D01*
X195938000Y-83861408D01*
X195884314Y-83591510D01*
X195779005Y-83337273D01*
X195626120Y-83108465D01*
X195431535Y-82913880D01*
X195202727Y-82760995D01*
X194948490Y-82655686D01*
X194678592Y-82602000D01*
X194403408Y-82602000D01*
X194133510Y-82655686D01*
X193879273Y-82760995D01*
X193650465Y-82913880D01*
X193455880Y-83108465D01*
X193302995Y-83337273D01*
X193197686Y-83591510D01*
X193144000Y-83861408D01*
X193144000Y-84136592D01*
X193144360Y-84138404D01*
X191606263Y-85676502D01*
X191572342Y-85704340D01*
X191461249Y-85839708D01*
X191378699Y-85994147D01*
X191327865Y-86161725D01*
X191310701Y-86335999D01*
X191327865Y-86510273D01*
X191365002Y-86632698D01*
X191365002Y-90608010D01*
X191220931Y-90564307D01*
X191000000Y-90542547D01*
X189177070Y-90542547D01*
X189319157Y-90466600D01*
X189490765Y-90325765D01*
X189631600Y-90154157D01*
X189693329Y-90038670D01*
X189835673Y-89962586D01*
X190311821Y-89571821D01*
X190702586Y-89095674D01*
X190992950Y-88552441D01*
X191171755Y-87962999D01*
X191217000Y-87503618D01*
X191217000Y-80896382D01*
X191171755Y-80437001D01*
X190992950Y-79847559D01*
X190916924Y-79705324D01*
X191145449Y-79476800D01*
X191212424Y-79426709D01*
X191362792Y-79259457D01*
X191412701Y-79209548D01*
X191465461Y-79145260D01*
X191624243Y-78968649D01*
X191660496Y-78907609D01*
X191705540Y-78852723D01*
X191817512Y-78643239D01*
X191938785Y-78439049D01*
X191962432Y-78372112D01*
X191995904Y-78309491D01*
X192064857Y-78082185D01*
X192143964Y-77858261D01*
X192154098Y-77787996D01*
X192174710Y-77720049D01*
X192191558Y-77548984D01*
X192206831Y-77512112D01*
X192327000Y-76907983D01*
X192327000Y-76751179D01*
X193091309Y-77470749D01*
X194310979Y-78828807D01*
X195412730Y-80284160D01*
X196388837Y-81826600D01*
X197232454Y-83445311D01*
X197937664Y-85128942D01*
X198499515Y-86865672D01*
X198914070Y-88643328D01*
X199178488Y-90449890D01*
X199243926Y-91490000D01*
X199034877Y-91490000D01*
X199000000Y-91486565D01*
X198965123Y-91490000D01*
X198860816Y-91500273D01*
X198726980Y-91540872D01*
X198603637Y-91606800D01*
X198495525Y-91695525D01*
X198406800Y-91803637D01*
X198340872Y-91926980D01*
X198300273Y-92060816D01*
X198286565Y-92200000D01*
X198290001Y-92234887D01*
X198290000Y-93165122D01*
X198286565Y-93200000D01*
X198300273Y-93339184D01*
X198340872Y-93473020D01*
X198406800Y-93596363D01*
X198495525Y-93704475D01*
X198578002Y-93772162D01*
X198603637Y-93793200D01*
X198726980Y-93859128D01*
X198860816Y-93899727D01*
X199000000Y-93913435D01*
X199034877Y-93910000D01*
X199242959Y-93910000D01*
X199172613Y-95005819D01*
X198903658Y-96811251D01*
X198484573Y-98587842D01*
X197918296Y-100323134D01*
X197208797Y-102004960D01*
X196361054Y-103621520D01*
X195381014Y-105161475D01*
X194275565Y-106614000D01*
X193052430Y-107968953D01*
X191720214Y-109216795D01*
X190288261Y-110348779D01*
X188766584Y-111356984D01*
X187165904Y-112234311D01*
X185497416Y-112974622D01*
X183772837Y-113572721D01*
X182004233Y-114024420D01*
X180204060Y-114326536D01*
X178384915Y-114476959D01*
X176559576Y-114474632D01*
X174740811Y-114319571D01*
X172941411Y-114012865D01*
X171173987Y-113556668D01*
X169450928Y-112954170D01*
X167784328Y-112209606D01*
X166185884Y-111328199D01*
X164666800Y-110316128D01*
X163237724Y-109180489D01*
X161908691Y-107929251D01*
X160689021Y-106571193D01*
X159587270Y-105115840D01*
X158611160Y-103573395D01*
X157767546Y-101954689D01*
X157062335Y-100271054D01*
X156500485Y-98534328D01*
X156085930Y-96756672D01*
X155821512Y-94950110D01*
X155756074Y-93910000D01*
X155965123Y-93910000D01*
X156000000Y-93913435D01*
X156034877Y-93910000D01*
X156139184Y-93899727D01*
X156273020Y-93859128D01*
X156396363Y-93793200D01*
X156504475Y-93704475D01*
X156593200Y-93596363D01*
X156659128Y-93473020D01*
X156699727Y-93339184D01*
X156713435Y-93200000D01*
X156710000Y-93165123D01*
X156710000Y-92234877D01*
X156713435Y-92200000D01*
X156699727Y-92060816D01*
X156659128Y-91926980D01*
X156593200Y-91803637D01*
X156504475Y-91695525D01*
X156396363Y-91606800D01*
X156273020Y-91540872D01*
X156139184Y-91500273D01*
X156034877Y-91490000D01*
X156000000Y-91486565D01*
X155965123Y-91490000D01*
X155757041Y-91490000D01*
X155827387Y-90394182D01*
X156096342Y-88588749D01*
X156515427Y-86812158D01*
X157081704Y-85076865D01*
X157791198Y-83395049D01*
X158638941Y-81778488D01*
X159618986Y-80238525D01*
X160724441Y-78785993D01*
X161947570Y-77431047D01*
X162977522Y-76466325D01*
X164905254Y-79839855D01*
X164905254Y-79839855D01*
G37*
X164905254Y-79839855D02*
X164939450Y-79888072D01*
X164982564Y-79948871D01*
X164982580Y-79948886D01*
X164982592Y-79948903D01*
X165027793Y-79991730D01*
X165079605Y-80040827D01*
X165079625Y-80040840D01*
X165079638Y-80040852D01*
X165124880Y-80069403D01*
X165192658Y-80112182D01*
X165192682Y-80112191D01*
X165192696Y-80112200D01*
X165244232Y-80132040D01*
X165317418Y-80160219D01*
X165317441Y-80160223D01*
X165317459Y-80160230D01*
X165379900Y-80171077D01*
X165449133Y-80183109D01*
X165449155Y-80183108D01*
X165449175Y-80183112D01*
X165515532Y-80181554D01*
X165582785Y-80179979D01*
X165582805Y-80179974D01*
X165582826Y-80179974D01*
X165642570Y-80166680D01*
X165713283Y-80150950D01*
X165713305Y-80150940D01*
X165713324Y-80150936D01*
X165770054Y-80125980D01*
X165835658Y-80097125D01*
X165843963Y-80092380D01*
X166217059Y-79875744D01*
X167186928Y-80845614D01*
X167186928Y-82075000D01*
X167197465Y-82181990D01*
X166643389Y-82181990D01*
X166575360Y-82175290D01*
X166507331Y-82181990D01*
X166507323Y-82181990D01*
X166303853Y-82202030D01*
X166042779Y-82281226D01*
X165802172Y-82409833D01*
X165644126Y-82539538D01*
X165644124Y-82539540D01*
X165591279Y-82582909D01*
X165547910Y-82635754D01*
X164271736Y-83911928D01*
X160100000Y-83911928D01*
X159975518Y-83924188D01*
X159855820Y-83960498D01*
X159745506Y-84019463D01*
X159648815Y-84098815D01*
X159569463Y-84195506D01*
X159510498Y-84305820D01*
X159474188Y-84425518D01*
X159461928Y-84550000D01*
X159461928Y-89629387D01*
X157668764Y-91422551D01*
X157615920Y-91465919D01*
X157572551Y-91518764D01*
X157572548Y-91518767D01*
X157442844Y-91676812D01*
X157314236Y-91917420D01*
X157235040Y-92178493D01*
X157208300Y-92450000D01*
X157215001Y-92518039D01*
X157215000Y-95826373D01*
X157208300Y-95894402D01*
X157215000Y-95962431D01*
X157215000Y-95962438D01*
X157225078Y-96064759D01*
X157235040Y-96165909D01*
X157308247Y-96407239D01*
X157314236Y-96426982D01*
X157442843Y-96667589D01*
X157456894Y-96684710D01*
X157564332Y-96815623D01*
X157615919Y-96878482D01*
X157668765Y-96921852D01*
X158877501Y-98130588D01*
X158877500Y-99931962D01*
X158877500Y-101043036D01*
X158877501Y-101043045D01*
X158877500Y-102744470D01*
X158870800Y-102812500D01*
X158877500Y-102880529D01*
X158877500Y-102880536D01*
X158889489Y-103002260D01*
X158897540Y-103084007D01*
X158954900Y-103273097D01*
X158976736Y-103345080D01*
X159105343Y-103585687D01*
X159132830Y-103619180D01*
X159229464Y-103736928D01*
X159278419Y-103796580D01*
X159331265Y-103839950D01*
X161672550Y-106181236D01*
X161715919Y-106234081D01*
X161768764Y-106277450D01*
X161768766Y-106277452D01*
X161926812Y-106407157D01*
X162167419Y-106535764D01*
X162428493Y-106614960D01*
X162589121Y-106630780D01*
X162710150Y-106695472D01*
X162876746Y-106746008D01*
X163050000Y-106763072D01*
X163975000Y-106763072D01*
X164148254Y-106746008D01*
X164314850Y-106695472D01*
X164468386Y-106613405D01*
X164602962Y-106502962D01*
X164713405Y-106368386D01*
X164795472Y-106214850D01*
X164846008Y-106048254D01*
X164863072Y-105875000D01*
X164863072Y-105568938D01*
X164877460Y-105521507D01*
X164904201Y-105250000D01*
X164877460Y-104978493D01*
X164863072Y-104931062D01*
X164863072Y-104625000D01*
X164846008Y-104451746D01*
X164795472Y-104285150D01*
X164713405Y-104131614D01*
X164602962Y-103997038D01*
X164468386Y-103886595D01*
X164314850Y-103804528D01*
X164296800Y-103799053D01*
X164352962Y-103752962D01*
X164463405Y-103618386D01*
X164545472Y-103464850D01*
X164596008Y-103298254D01*
X164613072Y-103125000D01*
X164613072Y-102818938D01*
X164627460Y-102771507D01*
X164647500Y-102568037D01*
X164647500Y-100801725D01*
X165049373Y-101203598D01*
X164994463Y-101270506D01*
X164935498Y-101380820D01*
X164899188Y-101500518D01*
X164886928Y-101625000D01*
X164890000Y-102214250D01*
X165048750Y-102373000D01*
X166110500Y-102373000D01*
X166110500Y-102353000D01*
X166364500Y-102353000D01*
X166364500Y-102373000D01*
X166384500Y-102373000D01*
X166384500Y-102627000D01*
X166364500Y-102627000D01*
X166364500Y-102647000D01*
X166110500Y-102647000D01*
X166110500Y-102627000D01*
X165048750Y-102627000D01*
X164890000Y-102785750D01*
X164886928Y-103375000D01*
X164899188Y-103499482D01*
X164935498Y-103619180D01*
X164994463Y-103729494D01*
X165073815Y-103826185D01*
X165170506Y-103905537D01*
X165280820Y-103964502D01*
X165395252Y-103999215D01*
X165286595Y-104131614D01*
X165204528Y-104285150D01*
X165153992Y-104451746D01*
X165136928Y-104625000D01*
X165136928Y-104931062D01*
X165122540Y-104978493D01*
X165095799Y-105250000D01*
X165122540Y-105521507D01*
X165136928Y-105568938D01*
X165136928Y-105875000D01*
X165153992Y-106048254D01*
X165204528Y-106214850D01*
X165286595Y-106368386D01*
X165397038Y-106502962D01*
X165531614Y-106613405D01*
X165685150Y-106695472D01*
X165851746Y-106746008D01*
X166025000Y-106763072D01*
X166950000Y-106763072D01*
X167123254Y-106746008D01*
X167289850Y-106695472D01*
X167331892Y-106673000D01*
X168385500Y-106673000D01*
X168385500Y-106653000D01*
X168639500Y-106653000D01*
X168639500Y-106673000D01*
X169701250Y-106673000D01*
X169860000Y-106514250D01*
X169863072Y-105925000D01*
X169850812Y-105800518D01*
X169814502Y-105680820D01*
X169766250Y-105590549D01*
X169914850Y-105545472D01*
X170068386Y-105463405D01*
X170202962Y-105352962D01*
X170313405Y-105218386D01*
X170395472Y-105064850D01*
X170446008Y-104898254D01*
X170463072Y-104725000D01*
X170463072Y-104418938D01*
X170477460Y-104371507D01*
X170504201Y-104100000D01*
X170477460Y-103828493D01*
X170463072Y-103781062D01*
X170463072Y-103475000D01*
X170446008Y-103301746D01*
X170395472Y-103135150D01*
X170313405Y-102981614D01*
X170202962Y-102847038D01*
X170198129Y-102843072D01*
X170600000Y-102843072D01*
X170753745Y-102827929D01*
X170901582Y-102783084D01*
X171037829Y-102710258D01*
X171157251Y-102612251D01*
X171255258Y-102492829D01*
X171328084Y-102356582D01*
X171372929Y-102208745D01*
X171379987Y-102137089D01*
X171964250Y-102135000D01*
X172123000Y-101976250D01*
X172123000Y-100127000D01*
X172103000Y-100127000D01*
X172103000Y-99873000D01*
X172123000Y-99873000D01*
X172123000Y-98023750D01*
X171964250Y-97865000D01*
X171379987Y-97862911D01*
X171372929Y-97791255D01*
X171328084Y-97643418D01*
X171255258Y-97507171D01*
X171157251Y-97387749D01*
X171037829Y-97289742D01*
X170901582Y-97216916D01*
X170753745Y-97172071D01*
X170664000Y-97163232D01*
X170664000Y-96706160D01*
X170668300Y-96662500D01*
X170664000Y-96618840D01*
X170664000Y-96618833D01*
X170651136Y-96488226D01*
X170642694Y-96460394D01*
X170600302Y-96320647D01*
X170557170Y-96239953D01*
X170517753Y-96166209D01*
X170406659Y-96030841D01*
X170372742Y-96003006D01*
X170340743Y-95971007D01*
X170460500Y-95851250D01*
X170460500Y-94627000D01*
X170440500Y-94627000D01*
X170440500Y-94373000D01*
X170460500Y-94373000D01*
X170460500Y-94353000D01*
X170714500Y-94353000D01*
X170714500Y-94373000D01*
X171776250Y-94373000D01*
X171935000Y-94214250D01*
X171938072Y-93625000D01*
X171925812Y-93500518D01*
X171889502Y-93380820D01*
X171830537Y-93270506D01*
X171788084Y-93218777D01*
X171788405Y-93218386D01*
X171870472Y-93064850D01*
X171921008Y-92898254D01*
X171938072Y-92725000D01*
X171938072Y-91475000D01*
X171921008Y-91301746D01*
X171870472Y-91135150D01*
X171788405Y-90981614D01*
X171788084Y-90981223D01*
X171830537Y-90929494D01*
X171889502Y-90819180D01*
X171925812Y-90699482D01*
X171932166Y-90634969D01*
X171975506Y-90670537D01*
X172085820Y-90729502D01*
X172155401Y-90750609D01*
X172167715Y-90760716D01*
X173569289Y-92162290D01*
X173600130Y-92199870D01*
X173750116Y-92322960D01*
X173921233Y-92414424D01*
X174106906Y-92470747D01*
X174300000Y-92489765D01*
X174348380Y-92485000D01*
X176392000Y-92485000D01*
X176726121Y-92819121D01*
X176643667Y-92811000D01*
X176643660Y-92811000D01*
X176600000Y-92806700D01*
X176556340Y-92811000D01*
X174325659Y-92811000D01*
X174281999Y-92806700D01*
X174238339Y-92811000D01*
X174238333Y-92811000D01*
X174151404Y-92819562D01*
X174107724Y-92823864D01*
X174006058Y-92854704D01*
X173940149Y-92874697D01*
X173785709Y-92957247D01*
X173650341Y-93068341D01*
X173622506Y-93102259D01*
X172232264Y-94492501D01*
X172198341Y-94520341D01*
X172087247Y-94655710D01*
X172037042Y-94749637D01*
X172007238Y-94805397D01*
X172004697Y-94810150D01*
X171980720Y-94889194D01*
X171960354Y-94956333D01*
X171953864Y-94977727D01*
X171941000Y-95108334D01*
X171941000Y-95108340D01*
X171936899Y-95149981D01*
X171935000Y-94785750D01*
X171776250Y-94627000D01*
X170714500Y-94627000D01*
X170714500Y-95851250D01*
X170873250Y-96010000D01*
X171300000Y-96013072D01*
X171424482Y-96000812D01*
X171544180Y-95964502D01*
X171654494Y-95905537D01*
X171691928Y-95874816D01*
X171691928Y-96860000D01*
X171704188Y-96984482D01*
X171740498Y-97104180D01*
X171799463Y-97214494D01*
X171878815Y-97311185D01*
X171975506Y-97390537D01*
X172085820Y-97449502D01*
X172205518Y-97485812D01*
X172330000Y-97498072D01*
X173252209Y-97498072D01*
X173244742Y-97507171D01*
X173171916Y-97643418D01*
X173127071Y-97791255D01*
X173120013Y-97862911D01*
X172535750Y-97865000D01*
X172377000Y-98023750D01*
X172377000Y-99873000D01*
X172397000Y-99873000D01*
X172397000Y-100127000D01*
X172377000Y-100127000D01*
X172377000Y-101976250D01*
X172535750Y-102135000D01*
X173099982Y-102137017D01*
X172641099Y-102595900D01*
X172550000Y-102586928D01*
X171625000Y-102586928D01*
X171451746Y-102603992D01*
X171285150Y-102654528D01*
X171131614Y-102736595D01*
X170997038Y-102847038D01*
X170886595Y-102981614D01*
X170804528Y-103135150D01*
X170753992Y-103301746D01*
X170736928Y-103475000D01*
X170736928Y-104725000D01*
X170753992Y-104898254D01*
X170804528Y-105064850D01*
X170886595Y-105218386D01*
X170948989Y-105294414D01*
X170851746Y-105303992D01*
X170685150Y-105354528D01*
X170531614Y-105436595D01*
X170397038Y-105547038D01*
X170286595Y-105681614D01*
X170204528Y-105835150D01*
X170153992Y-106001746D01*
X170136928Y-106175000D01*
X170136928Y-107425000D01*
X170153992Y-107598254D01*
X170204528Y-107764850D01*
X170286595Y-107918386D01*
X170397038Y-108052962D01*
X170531614Y-108163405D01*
X170685150Y-108245472D01*
X170851746Y-108296008D01*
X170947703Y-108305459D01*
X170897038Y-108347038D01*
X170786595Y-108481614D01*
X170704528Y-108635150D01*
X170653992Y-108801746D01*
X170636928Y-108975000D01*
X170636928Y-109967193D01*
X170363072Y-109693337D01*
X170363072Y-108975000D01*
X170346008Y-108801746D01*
X170295472Y-108635150D01*
X170213405Y-108481614D01*
X170102962Y-108347038D01*
X169968386Y-108236595D01*
X169814850Y-108154528D01*
X169685201Y-108115200D01*
X169755537Y-108029494D01*
X169814502Y-107919180D01*
X169850812Y-107799482D01*
X169863072Y-107675000D01*
X169860000Y-107085750D01*
X169701250Y-106927000D01*
X168639500Y-106927000D01*
X168639500Y-106947000D01*
X168385500Y-106947000D01*
X168385500Y-106927000D01*
X167323750Y-106927000D01*
X167165000Y-107085750D01*
X167161928Y-107675000D01*
X167174188Y-107799482D01*
X167210498Y-107919180D01*
X167269463Y-108029494D01*
X167348815Y-108126185D01*
X167445506Y-108205537D01*
X167555820Y-108264502D01*
X167675518Y-108300812D01*
X167800000Y-108313072D01*
X167964872Y-108311885D01*
X167922038Y-108347038D01*
X167811595Y-108481614D01*
X167729528Y-108635150D01*
X167678992Y-108801746D01*
X167661928Y-108975000D01*
X167661928Y-110225000D01*
X167678992Y-110398254D01*
X167729528Y-110564850D01*
X167811595Y-110718386D01*
X167922038Y-110852962D01*
X168056614Y-110963405D01*
X168210150Y-111045472D01*
X168376746Y-111096008D01*
X168550000Y-111113072D01*
X169268337Y-111113072D01*
X170153001Y-111997736D01*
X170180841Y-112031659D01*
X170316209Y-112142753D01*
X170470649Y-112225303D01*
X170536558Y-112245296D01*
X170638224Y-112276136D01*
X170670888Y-112279353D01*
X170768833Y-112289000D01*
X170768839Y-112289000D01*
X170812499Y-112293300D01*
X170856159Y-112289000D01*
X174031765Y-112289000D01*
X174086928Y-112344163D01*
X174086928Y-112630000D01*
X174099188Y-112754482D01*
X174135498Y-112874180D01*
X174194463Y-112984494D01*
X174273815Y-113081185D01*
X174370506Y-113160537D01*
X174480820Y-113219502D01*
X174600518Y-113255812D01*
X174725000Y-113268072D01*
X175375000Y-113268072D01*
X175499482Y-113255812D01*
X175525000Y-113248071D01*
X175550518Y-113255812D01*
X175675000Y-113268072D01*
X175714250Y-113265000D01*
X175873000Y-113106250D01*
X175873000Y-113024141D01*
X175905537Y-112984494D01*
X175964502Y-112874180D01*
X176000000Y-112757159D01*
X176035498Y-112874180D01*
X176094463Y-112984494D01*
X176127000Y-113024141D01*
X176127000Y-113106250D01*
X176285750Y-113265000D01*
X176325000Y-113268072D01*
X176449482Y-113255812D01*
X176475000Y-113248071D01*
X176500518Y-113255812D01*
X176625000Y-113268072D01*
X177275000Y-113268072D01*
X177399482Y-113255812D01*
X177519180Y-113219502D01*
X177629494Y-113160537D01*
X177726185Y-113081185D01*
X177801839Y-112989000D01*
X181600742Y-112989000D01*
X181644402Y-112993300D01*
X181688062Y-112989000D01*
X181688069Y-112989000D01*
X181818676Y-112976136D01*
X181986253Y-112925303D01*
X182140693Y-112842753D01*
X182276061Y-112731659D01*
X182303900Y-112697737D01*
X182897742Y-112103896D01*
X182931659Y-112076061D01*
X183042753Y-111940693D01*
X183125303Y-111786253D01*
X183171462Y-111634085D01*
X183176136Y-111618677D01*
X183193301Y-111444402D01*
X183189000Y-111400734D01*
X183189000Y-108976114D01*
X183211595Y-109018386D01*
X183322038Y-109152962D01*
X183456614Y-109263405D01*
X183610150Y-109345472D01*
X183776746Y-109396008D01*
X183950000Y-109413072D01*
X184875000Y-109413072D01*
X185048254Y-109396008D01*
X185214850Y-109345472D01*
X185368386Y-109263405D01*
X185502962Y-109152962D01*
X185613405Y-109018386D01*
X185695472Y-108864850D01*
X185746008Y-108698254D01*
X185763072Y-108525000D01*
X185763072Y-108294163D01*
X186040000Y-108017236D01*
X186040000Y-108027002D01*
X186198748Y-108027002D01*
X186040000Y-108185750D01*
X186036928Y-108775000D01*
X186049188Y-108899482D01*
X186085498Y-109019180D01*
X186144463Y-109129494D01*
X186223815Y-109226185D01*
X186320506Y-109305537D01*
X186430820Y-109364502D01*
X186550518Y-109400812D01*
X186675000Y-109413072D01*
X187101750Y-109410000D01*
X187260500Y-109251250D01*
X187260500Y-108027000D01*
X187514500Y-108027000D01*
X187514500Y-109251250D01*
X187673250Y-109410000D01*
X188100000Y-109413072D01*
X188224482Y-109400812D01*
X188344180Y-109364502D01*
X188454494Y-109305537D01*
X188551185Y-109226185D01*
X188630537Y-109129494D01*
X188689502Y-109019180D01*
X188725812Y-108899482D01*
X188738072Y-108775000D01*
X188735000Y-108185750D01*
X188576250Y-108027000D01*
X187514500Y-108027000D01*
X187260500Y-108027000D01*
X187240500Y-108027000D01*
X187240500Y-107773000D01*
X187260500Y-107773000D01*
X187260500Y-107753000D01*
X187514500Y-107753000D01*
X187514500Y-107773000D01*
X188576250Y-107773000D01*
X188735000Y-107614250D01*
X188738072Y-107025000D01*
X188725812Y-106900518D01*
X188689502Y-106780820D01*
X188630537Y-106670506D01*
X188588084Y-106618777D01*
X188588405Y-106618386D01*
X188670472Y-106464850D01*
X188693481Y-106389000D01*
X190776340Y-106389000D01*
X190820000Y-106393300D01*
X190863660Y-106389000D01*
X190863667Y-106389000D01*
X190994274Y-106376136D01*
X191161851Y-106325303D01*
X191316291Y-106242753D01*
X191451659Y-106131659D01*
X191479499Y-106097736D01*
X191859495Y-105717740D01*
X194401596Y-103175640D01*
X194403408Y-103176000D01*
X194678592Y-103176000D01*
X194948490Y-103122314D01*
X195202727Y-103017005D01*
X195431535Y-102864120D01*
X195626120Y-102669535D01*
X195779005Y-102440727D01*
X195884314Y-102186490D01*
X195938000Y-101916592D01*
X195938000Y-101641408D01*
X195884314Y-101371510D01*
X195779005Y-101117273D01*
X195626120Y-100888465D01*
X195431535Y-100693880D01*
X195202727Y-100540995D01*
X195125485Y-100509000D01*
X195202727Y-100477005D01*
X195431535Y-100324120D01*
X195626120Y-100129535D01*
X195779005Y-99900727D01*
X195884314Y-99646490D01*
X195938000Y-99376592D01*
X195938000Y-99101408D01*
X195884314Y-98831510D01*
X195779005Y-98577273D01*
X195626120Y-98348465D01*
X195431535Y-98153880D01*
X195202727Y-98000995D01*
X195125485Y-97969000D01*
X195202727Y-97937005D01*
X195431535Y-97784120D01*
X195626120Y-97589535D01*
X195779005Y-97360727D01*
X195884314Y-97106490D01*
X195938000Y-96836592D01*
X195938000Y-96561408D01*
X195884314Y-96291510D01*
X195779005Y-96037273D01*
X195626120Y-95808465D01*
X195431535Y-95613880D01*
X195202727Y-95460995D01*
X195125485Y-95429000D01*
X195202727Y-95397005D01*
X195431535Y-95244120D01*
X195626120Y-95049535D01*
X195779005Y-94820727D01*
X195884314Y-94566490D01*
X195938000Y-94296592D01*
X195938000Y-94021408D01*
X195884314Y-93751510D01*
X195779005Y-93497273D01*
X195626120Y-93268465D01*
X195431535Y-93073880D01*
X195202727Y-92920995D01*
X195125485Y-92889000D01*
X195202727Y-92857005D01*
X195431535Y-92704120D01*
X195626120Y-92509535D01*
X195779005Y-92280727D01*
X195884314Y-92026490D01*
X195938000Y-91756592D01*
X195938000Y-91481408D01*
X195884314Y-91211510D01*
X195779005Y-90957273D01*
X195626120Y-90728465D01*
X195431535Y-90533880D01*
X195202727Y-90380995D01*
X195125485Y-90349000D01*
X195202727Y-90317005D01*
X195431535Y-90164120D01*
X195626120Y-89969535D01*
X195779005Y-89740727D01*
X195884314Y-89486490D01*
X195938000Y-89216592D01*
X195938000Y-88941408D01*
X195884314Y-88671510D01*
X195779005Y-88417273D01*
X195626120Y-88188465D01*
X195431535Y-87993880D01*
X195202727Y-87840995D01*
X195131057Y-87811308D01*
X195144023Y-87806636D01*
X195259980Y-87744656D01*
X195326960Y-87504565D01*
X194541000Y-86718605D01*
X193755040Y-87504565D01*
X193822020Y-87744656D01*
X193957760Y-87808485D01*
X193879273Y-87840995D01*
X193650465Y-87993880D01*
X193455880Y-88188465D01*
X193302995Y-88417273D01*
X193197686Y-88671510D01*
X193144000Y-88941408D01*
X193144000Y-89216592D01*
X193197686Y-89486490D01*
X193302995Y-89740727D01*
X193455880Y-89969535D01*
X193650465Y-90164120D01*
X193879273Y-90317005D01*
X193956515Y-90349000D01*
X193879273Y-90380995D01*
X193650465Y-90533880D01*
X193455880Y-90728465D01*
X193302995Y-90957273D01*
X193197686Y-91211510D01*
X193144000Y-91481408D01*
X193144000Y-91756592D01*
X193197686Y-92026490D01*
X193302995Y-92280727D01*
X193455880Y-92509535D01*
X193650465Y-92704120D01*
X193879273Y-92857005D01*
X193956515Y-92889000D01*
X193879273Y-92920995D01*
X193650465Y-93073880D01*
X193455880Y-93268465D01*
X193302995Y-93497273D01*
X193197686Y-93751510D01*
X193144000Y-94021408D01*
X193144000Y-94296592D01*
X193197686Y-94566490D01*
X193302995Y-94820727D01*
X193455880Y-95049535D01*
X193650465Y-95244120D01*
X193879273Y-95397005D01*
X193956515Y-95429000D01*
X193879273Y-95460995D01*
X193650465Y-95613880D01*
X193455880Y-95808465D01*
X193302995Y-96037273D01*
X193197686Y-96291510D01*
X193144000Y-96561408D01*
X193144000Y-96836592D01*
X193197686Y-97106490D01*
X193302995Y-97360727D01*
X193455880Y-97589535D01*
X193650465Y-97784120D01*
X193879273Y-97937005D01*
X193956515Y-97969000D01*
X193879273Y-98000995D01*
X193650465Y-98153880D01*
X193455880Y-98348465D01*
X193302995Y-98577273D01*
X193197686Y-98831510D01*
X193144000Y-99101408D01*
X193144000Y-99376592D01*
X193197686Y-99646490D01*
X193302995Y-99900727D01*
X193455880Y-100129535D01*
X193650465Y-100324120D01*
X193879273Y-100477005D01*
X193956515Y-100509000D01*
X193879273Y-100540995D01*
X193650465Y-100693880D01*
X193455880Y-100888465D01*
X193302995Y-101117273D01*
X193197686Y-101371510D01*
X193144000Y-101641408D01*
X193144000Y-101916592D01*
X193144360Y-101918404D01*
X193143001Y-101919763D01*
X193143001Y-86654234D01*
X193145259Y-86651976D01*
X193180078Y-86883133D01*
X193273364Y-87142023D01*
X193335344Y-87257980D01*
X193575435Y-87324960D01*
X194361395Y-86539000D01*
X194720605Y-86539000D01*
X195506565Y-87324960D01*
X195746656Y-87257980D01*
X195863756Y-87008952D01*
X195930023Y-86741865D01*
X195942910Y-86466983D01*
X195901922Y-86194867D01*
X195808636Y-85935977D01*
X195746656Y-85820020D01*
X195506565Y-85753040D01*
X194720605Y-86539000D01*
X194361395Y-86539000D01*
X194347253Y-86524858D01*
X194526858Y-86345253D01*
X194541000Y-86359395D01*
X195326960Y-85573435D01*
X195259980Y-85333344D01*
X195124240Y-85269515D01*
X195202727Y-85237005D01*
X195431535Y-85084120D01*
X195626120Y-84889535D01*
X195779005Y-84660727D01*
X195884314Y-84406490D01*
X195938000Y-84136592D01*
X195938000Y-83861408D01*
X195884314Y-83591510D01*
X195779005Y-83337273D01*
X195626120Y-83108465D01*
X195431535Y-82913880D01*
X195202727Y-82760995D01*
X194948490Y-82655686D01*
X194678592Y-82602000D01*
X194403408Y-82602000D01*
X194133510Y-82655686D01*
X193879273Y-82760995D01*
X193650465Y-82913880D01*
X193455880Y-83108465D01*
X193302995Y-83337273D01*
X193197686Y-83591510D01*
X193144000Y-83861408D01*
X193144000Y-84136592D01*
X193144360Y-84138404D01*
X191606263Y-85676502D01*
X191572342Y-85704340D01*
X191461249Y-85839708D01*
X191378699Y-85994147D01*
X191327865Y-86161725D01*
X191310701Y-86335999D01*
X191327865Y-86510273D01*
X191365002Y-86632698D01*
X191365002Y-90608010D01*
X191220931Y-90564307D01*
X191000000Y-90542547D01*
X189177070Y-90542547D01*
X189319157Y-90466600D01*
X189490765Y-90325765D01*
X189631600Y-90154157D01*
X189693329Y-90038670D01*
X189835673Y-89962586D01*
X190311821Y-89571821D01*
X190702586Y-89095674D01*
X190992950Y-88552441D01*
X191171755Y-87962999D01*
X191217000Y-87503618D01*
X191217000Y-80896382D01*
X191171755Y-80437001D01*
X190992950Y-79847559D01*
X190916924Y-79705324D01*
X191145449Y-79476800D01*
X191212424Y-79426709D01*
X191362792Y-79259457D01*
X191412701Y-79209548D01*
X191465461Y-79145260D01*
X191624243Y-78968649D01*
X191660496Y-78907609D01*
X191705540Y-78852723D01*
X191817512Y-78643239D01*
X191938785Y-78439049D01*
X191962432Y-78372112D01*
X191995904Y-78309491D01*
X192064857Y-78082185D01*
X192143964Y-77858261D01*
X192154098Y-77787996D01*
X192174710Y-77720049D01*
X192191558Y-77548984D01*
X192206831Y-77512112D01*
X192327000Y-76907983D01*
X192327000Y-76751179D01*
X193091309Y-77470749D01*
X194310979Y-78828807D01*
X195412730Y-80284160D01*
X196388837Y-81826600D01*
X197232454Y-83445311D01*
X197937664Y-85128942D01*
X198499515Y-86865672D01*
X198914070Y-88643328D01*
X199178488Y-90449890D01*
X199243926Y-91490000D01*
X199034877Y-91490000D01*
X199000000Y-91486565D01*
X198965123Y-91490000D01*
X198860816Y-91500273D01*
X198726980Y-91540872D01*
X198603637Y-91606800D01*
X198495525Y-91695525D01*
X198406800Y-91803637D01*
X198340872Y-91926980D01*
X198300273Y-92060816D01*
X198286565Y-92200000D01*
X198290001Y-92234887D01*
X198290000Y-93165122D01*
X198286565Y-93200000D01*
X198300273Y-93339184D01*
X198340872Y-93473020D01*
X198406800Y-93596363D01*
X198495525Y-93704475D01*
X198578002Y-93772162D01*
X198603637Y-93793200D01*
X198726980Y-93859128D01*
X198860816Y-93899727D01*
X199000000Y-93913435D01*
X199034877Y-93910000D01*
X199242959Y-93910000D01*
X199172613Y-95005819D01*
X198903658Y-96811251D01*
X198484573Y-98587842D01*
X197918296Y-100323134D01*
X197208797Y-102004960D01*
X196361054Y-103621520D01*
X195381014Y-105161475D01*
X194275565Y-106614000D01*
X193052430Y-107968953D01*
X191720214Y-109216795D01*
X190288261Y-110348779D01*
X188766584Y-111356984D01*
X187165904Y-112234311D01*
X185497416Y-112974622D01*
X183772837Y-113572721D01*
X182004233Y-114024420D01*
X180204060Y-114326536D01*
X178384915Y-114476959D01*
X176559576Y-114474632D01*
X174740811Y-114319571D01*
X172941411Y-114012865D01*
X171173987Y-113556668D01*
X169450928Y-112954170D01*
X167784328Y-112209606D01*
X166185884Y-111328199D01*
X164666800Y-110316128D01*
X163237724Y-109180489D01*
X161908691Y-107929251D01*
X160689021Y-106571193D01*
X159587270Y-105115840D01*
X158611160Y-103573395D01*
X157767546Y-101954689D01*
X157062335Y-100271054D01*
X156500485Y-98534328D01*
X156085930Y-96756672D01*
X155821512Y-94950110D01*
X155756074Y-93910000D01*
X155965123Y-93910000D01*
X156000000Y-93913435D01*
X156034877Y-93910000D01*
X156139184Y-93899727D01*
X156273020Y-93859128D01*
X156396363Y-93793200D01*
X156504475Y-93704475D01*
X156593200Y-93596363D01*
X156659128Y-93473020D01*
X156699727Y-93339184D01*
X156713435Y-93200000D01*
X156710000Y-93165123D01*
X156710000Y-92234877D01*
X156713435Y-92200000D01*
X156699727Y-92060816D01*
X156659128Y-91926980D01*
X156593200Y-91803637D01*
X156504475Y-91695525D01*
X156396363Y-91606800D01*
X156273020Y-91540872D01*
X156139184Y-91500273D01*
X156034877Y-91490000D01*
X156000000Y-91486565D01*
X155965123Y-91490000D01*
X155757041Y-91490000D01*
X155827387Y-90394182D01*
X156096342Y-88588749D01*
X156515427Y-86812158D01*
X157081704Y-85076865D01*
X157791198Y-83395049D01*
X158638941Y-81778488D01*
X159618986Y-80238525D01*
X160724441Y-78785993D01*
X161947570Y-77431047D01*
X162977522Y-76466325D01*
X164905254Y-79839855D01*
G36*
X175396011Y-107169275D02*
G01*
X175544433Y-107198798D01*
X175536928Y-107275000D01*
X175536928Y-108525000D01*
X175553992Y-108698254D01*
X175567421Y-108742523D01*
X175550518Y-108744188D01*
X175525000Y-108751929D01*
X175499482Y-108744188D01*
X175375000Y-108731928D01*
X175262847Y-108731928D01*
X175260000Y-108185750D01*
X175101250Y-108027000D01*
X174039500Y-108027000D01*
X174039500Y-108047000D01*
X173785500Y-108047000D01*
X173785500Y-108027000D01*
X173765500Y-108027000D01*
X173765500Y-107773000D01*
X173785500Y-107773000D01*
X173785500Y-107753000D01*
X174039500Y-107753000D01*
X174039500Y-107773000D01*
X175101250Y-107773000D01*
X175260000Y-107614250D01*
X175262608Y-107114018D01*
X175396011Y-107169275D01*
X175396011Y-107169275D01*
G37*
X175396011Y-107169275D02*
X175544433Y-107198798D01*
X175536928Y-107275000D01*
X175536928Y-108525000D01*
X175553992Y-108698254D01*
X175567421Y-108742523D01*
X175550518Y-108744188D01*
X175525000Y-108751929D01*
X175499482Y-108744188D01*
X175375000Y-108731928D01*
X175262847Y-108731928D01*
X175260000Y-108185750D01*
X175101250Y-108027000D01*
X174039500Y-108027000D01*
X174039500Y-108047000D01*
X173785500Y-108047000D01*
X173785500Y-108027000D01*
X173765500Y-108027000D01*
X173765500Y-107773000D01*
X173785500Y-107773000D01*
X173785500Y-107753000D01*
X174039500Y-107753000D01*
X174039500Y-107773000D01*
X175101250Y-107773000D01*
X175260000Y-107614250D01*
X175262608Y-107114018D01*
X175396011Y-107169275D01*
G36*
X172641288Y-108109462D02*
G01*
X172623254Y-108103992D01*
X172527297Y-108094541D01*
X172577962Y-108052962D01*
X172599267Y-108027002D01*
X172723748Y-108027002D01*
X172641288Y-108109462D01*
X172641288Y-108109462D01*
G37*
X172641288Y-108109462D02*
X172623254Y-108103992D01*
X172527297Y-108094541D01*
X172577962Y-108052962D01*
X172599267Y-108027002D01*
X172723748Y-108027002D01*
X172641288Y-108109462D01*
G36*
X174852000Y-99238000D02*
G01*
X174872000Y-99238000D01*
X174872000Y-99492000D01*
X174852000Y-99492000D01*
X174852000Y-100508000D01*
X174872000Y-100508000D01*
X174872000Y-100762000D01*
X174852000Y-100762000D01*
X174852000Y-100782000D01*
X174598000Y-100782000D01*
X174598000Y-100762000D01*
X174578000Y-100762000D01*
X174578000Y-100508000D01*
X174598000Y-100508000D01*
X174598000Y-99492000D01*
X174578000Y-99492000D01*
X174578000Y-99238000D01*
X174598000Y-99238000D01*
X174598000Y-99218000D01*
X174852000Y-99218000D01*
X174852000Y-99238000D01*
X174852000Y-99238000D01*
G37*
X174852000Y-99238000D02*
X174872000Y-99238000D01*
X174872000Y-99492000D01*
X174852000Y-99492000D01*
X174852000Y-100508000D01*
X174872000Y-100508000D01*
X174872000Y-100762000D01*
X174852000Y-100762000D01*
X174852000Y-100782000D01*
X174598000Y-100782000D01*
X174598000Y-100762000D01*
X174578000Y-100762000D01*
X174578000Y-100508000D01*
X174598000Y-100508000D01*
X174598000Y-99492000D01*
X174578000Y-99492000D01*
X174578000Y-99238000D01*
X174598000Y-99238000D01*
X174598000Y-99218000D01*
X174852000Y-99218000D01*
X174852000Y-99238000D01*
G36*
X176748991Y-95106227D02*
G01*
X176748991Y-97276186D01*
X176736851Y-97269697D01*
X176569274Y-97218864D01*
X176438667Y-97206000D01*
X176438660Y-97206000D01*
X176406757Y-97202858D01*
X176459502Y-97104180D01*
X176495812Y-96984482D01*
X176508072Y-96860000D01*
X176505000Y-96545750D01*
X176346250Y-96387000D01*
X175497000Y-96387000D01*
X175497000Y-96407000D01*
X175243000Y-96407000D01*
X175243000Y-96387000D01*
X174393750Y-96387000D01*
X174235000Y-96545750D01*
X174231928Y-96860000D01*
X174244188Y-96984482D01*
X174280498Y-97104180D01*
X174308693Y-97156928D01*
X173900000Y-97156928D01*
X173890824Y-97157832D01*
X173919502Y-97104180D01*
X173955812Y-96984482D01*
X173968072Y-96860000D01*
X173968072Y-95660000D01*
X174231928Y-95660000D01*
X174235000Y-95974250D01*
X174393750Y-96133000D01*
X175243000Y-96133000D01*
X175243000Y-95183750D01*
X175497000Y-95183750D01*
X175497000Y-96133000D01*
X176346250Y-96133000D01*
X176505000Y-95974250D01*
X176508072Y-95660000D01*
X176495812Y-95535518D01*
X176459502Y-95415820D01*
X176400537Y-95305506D01*
X176321185Y-95208815D01*
X176224494Y-95129463D01*
X176114180Y-95070498D01*
X175994482Y-95034188D01*
X175870000Y-95021928D01*
X175655750Y-95025000D01*
X175497000Y-95183750D01*
X175243000Y-95183750D01*
X175084250Y-95025000D01*
X174870000Y-95021928D01*
X174745518Y-95034188D01*
X174625820Y-95070498D01*
X174515506Y-95129463D01*
X174418815Y-95208815D01*
X174339463Y-95305506D01*
X174280498Y-95415820D01*
X174244188Y-95535518D01*
X174231928Y-95660000D01*
X173968072Y-95660000D01*
X173955812Y-95535518D01*
X173919502Y-95415820D01*
X173886032Y-95353203D01*
X174650236Y-94589000D01*
X176231765Y-94589000D01*
X176748991Y-95106227D01*
X176748991Y-95106227D01*
G37*
X176748991Y-95106227D02*
X176748991Y-97276186D01*
X176736851Y-97269697D01*
X176569274Y-97218864D01*
X176438667Y-97206000D01*
X176438660Y-97206000D01*
X176406757Y-97202858D01*
X176459502Y-97104180D01*
X176495812Y-96984482D01*
X176508072Y-96860000D01*
X176505000Y-96545750D01*
X176346250Y-96387000D01*
X175497000Y-96387000D01*
X175497000Y-96407000D01*
X175243000Y-96407000D01*
X175243000Y-96387000D01*
X174393750Y-96387000D01*
X174235000Y-96545750D01*
X174231928Y-96860000D01*
X174244188Y-96984482D01*
X174280498Y-97104180D01*
X174308693Y-97156928D01*
X173900000Y-97156928D01*
X173890824Y-97157832D01*
X173919502Y-97104180D01*
X173955812Y-96984482D01*
X173968072Y-96860000D01*
X173968072Y-95660000D01*
X174231928Y-95660000D01*
X174235000Y-95974250D01*
X174393750Y-96133000D01*
X175243000Y-96133000D01*
X175243000Y-95183750D01*
X175497000Y-95183750D01*
X175497000Y-96133000D01*
X176346250Y-96133000D01*
X176505000Y-95974250D01*
X176508072Y-95660000D01*
X176495812Y-95535518D01*
X176459502Y-95415820D01*
X176400537Y-95305506D01*
X176321185Y-95208815D01*
X176224494Y-95129463D01*
X176114180Y-95070498D01*
X175994482Y-95034188D01*
X175870000Y-95021928D01*
X175655750Y-95025000D01*
X175497000Y-95183750D01*
X175243000Y-95183750D01*
X175084250Y-95025000D01*
X174870000Y-95021928D01*
X174745518Y-95034188D01*
X174625820Y-95070498D01*
X174515506Y-95129463D01*
X174418815Y-95208815D01*
X174339463Y-95305506D01*
X174280498Y-95415820D01*
X174244188Y-95535518D01*
X174231928Y-95660000D01*
X173968072Y-95660000D01*
X173955812Y-95535518D01*
X173919502Y-95415820D01*
X173886032Y-95353203D01*
X174650236Y-94589000D01*
X176231765Y-94589000D01*
X176748991Y-95106227D01*
G36*
X175661928Y-82250000D02*
G01*
X175665000Y-82464250D01*
X175823750Y-82623000D01*
X176898000Y-82623000D01*
X176898000Y-82603000D01*
X177152000Y-82603000D01*
X177152000Y-82623000D01*
X178226250Y-82623000D01*
X178385000Y-82464250D01*
X178388072Y-82250000D01*
X178376746Y-82135000D01*
X178776315Y-82135000D01*
X180322550Y-83681236D01*
X180365919Y-83734081D01*
X180418764Y-83777450D01*
X180418766Y-83777452D01*
X180493150Y-83838497D01*
X180576812Y-83907157D01*
X180817419Y-84035764D01*
X181078493Y-84114960D01*
X181281963Y-84135000D01*
X181281972Y-84135000D01*
X181349999Y-84141700D01*
X181418026Y-84135000D01*
X182543037Y-84135000D01*
X182746507Y-84114960D01*
X183007581Y-84035764D01*
X183248188Y-83907157D01*
X183281186Y-83880076D01*
X183324482Y-83875812D01*
X183444180Y-83839502D01*
X183554494Y-83780537D01*
X183651185Y-83701185D01*
X183730537Y-83604494D01*
X183789502Y-83494180D01*
X183825812Y-83374482D01*
X183838072Y-83250000D01*
X183838072Y-83027731D01*
X183839960Y-83021507D01*
X183866701Y-82750000D01*
X183839960Y-82478493D01*
X183838072Y-82472269D01*
X183838072Y-82348769D01*
X184124696Y-82376999D01*
X184124703Y-82376999D01*
X184278313Y-82392128D01*
X184431923Y-82376999D01*
X184963001Y-82376999D01*
X184963000Y-87503617D01*
X185008245Y-87962998D01*
X185187050Y-88552440D01*
X185477414Y-89095673D01*
X185868179Y-89571821D01*
X186344326Y-89962586D01*
X186626669Y-90113502D01*
X186648400Y-90154157D01*
X186789235Y-90325765D01*
X186960843Y-90466600D01*
X187102930Y-90542547D01*
X180200000Y-90542547D01*
X179979069Y-90564307D01*
X179766629Y-90628750D01*
X179570843Y-90733400D01*
X179399235Y-90874235D01*
X179258400Y-91045843D01*
X179153750Y-91241629D01*
X179089307Y-91454069D01*
X179067547Y-91675000D01*
X179067547Y-92374547D01*
X177530716Y-90837716D01*
X177499870Y-90800130D01*
X177349884Y-90677040D01*
X177178767Y-90585576D01*
X176993094Y-90529253D01*
X176848380Y-90515000D01*
X176800000Y-90510235D01*
X176751620Y-90515000D01*
X176383708Y-90515000D01*
X176400537Y-90494494D01*
X176459502Y-90384180D01*
X176495812Y-90264482D01*
X176508072Y-90140000D01*
X176508072Y-89694928D01*
X177868000Y-88335000D01*
X181871928Y-88335000D01*
X181871928Y-89525000D01*
X181884188Y-89649482D01*
X181920498Y-89769180D01*
X181979463Y-89879494D01*
X182058815Y-89976185D01*
X182155506Y-90055537D01*
X182265820Y-90114502D01*
X182385518Y-90150812D01*
X182510000Y-90163072D01*
X183610000Y-90163072D01*
X183734482Y-90150812D01*
X183854180Y-90114502D01*
X183964494Y-90055537D01*
X184061185Y-89976185D01*
X184140537Y-89879494D01*
X184199502Y-89769180D01*
X184235812Y-89649482D01*
X184248072Y-89525000D01*
X184248072Y-84925000D01*
X184235812Y-84800518D01*
X184199502Y-84680820D01*
X184140537Y-84570506D01*
X184061185Y-84473815D01*
X183964494Y-84394463D01*
X183854180Y-84335498D01*
X183734482Y-84299188D01*
X183610000Y-84286928D01*
X182510000Y-84286928D01*
X182385518Y-84299188D01*
X182265820Y-84335498D01*
X182155506Y-84394463D01*
X182058815Y-84473815D01*
X181979463Y-84570506D01*
X181920498Y-84680820D01*
X181884188Y-84800518D01*
X181871928Y-84925000D01*
X181871928Y-86365000D01*
X177508379Y-86365000D01*
X177459999Y-86360235D01*
X177266905Y-86379253D01*
X177245488Y-86385750D01*
X177081233Y-86435576D01*
X176910116Y-86527040D01*
X176760130Y-86650130D01*
X176729284Y-86687716D01*
X175857652Y-87559348D01*
X175875812Y-87499482D01*
X175888072Y-87375000D01*
X175885000Y-86385750D01*
X175726250Y-86227000D01*
X174339500Y-86227000D01*
X174339500Y-87851250D01*
X174498250Y-88010000D01*
X175250000Y-88013072D01*
X175374482Y-88000812D01*
X175434348Y-87982652D01*
X175115072Y-88301928D01*
X174870000Y-88301928D01*
X174745518Y-88314188D01*
X174625820Y-88350498D01*
X174515506Y-88409463D01*
X174418815Y-88488815D01*
X174339463Y-88585506D01*
X174280498Y-88695820D01*
X174244188Y-88815518D01*
X174231928Y-88940000D01*
X174231928Y-90038928D01*
X173968072Y-89775072D01*
X173968072Y-88940000D01*
X173955812Y-88815518D01*
X173919502Y-88695820D01*
X173860537Y-88585506D01*
X173781185Y-88488815D01*
X173684494Y-88409463D01*
X173574180Y-88350498D01*
X173454482Y-88314188D01*
X173330000Y-88301928D01*
X172330000Y-88301928D01*
X172205518Y-88314188D01*
X172085820Y-88350498D01*
X171975506Y-88409463D01*
X171878815Y-88488815D01*
X171855505Y-88517218D01*
X171830537Y-88470506D01*
X171751185Y-88373815D01*
X171654494Y-88294463D01*
X171544180Y-88235498D01*
X171424482Y-88199188D01*
X171300000Y-88186928D01*
X170873250Y-88190000D01*
X170714500Y-88348750D01*
X170714500Y-89573000D01*
X170734500Y-89573000D01*
X170734500Y-89827000D01*
X170714500Y-89827000D01*
X170714500Y-89847000D01*
X170460500Y-89847000D01*
X170460500Y-89827000D01*
X169398750Y-89827000D01*
X169240000Y-89985750D01*
X169236928Y-90575000D01*
X169249188Y-90699482D01*
X169285498Y-90819180D01*
X169344463Y-90929494D01*
X169386916Y-90981223D01*
X169386595Y-90981614D01*
X169304528Y-91135150D01*
X169253992Y-91301746D01*
X169236928Y-91475000D01*
X169236928Y-92193336D01*
X168963072Y-92467192D01*
X168963072Y-91475000D01*
X168946008Y-91301746D01*
X168895472Y-91135150D01*
X168813405Y-90981614D01*
X168746427Y-90900000D01*
X168813405Y-90818386D01*
X168895472Y-90664850D01*
X168946008Y-90498254D01*
X168963072Y-90325000D01*
X168963072Y-89075000D01*
X168946008Y-88901746D01*
X168922728Y-88825000D01*
X169236928Y-88825000D01*
X169240000Y-89414250D01*
X169398750Y-89573000D01*
X170460500Y-89573000D01*
X170460500Y-88348750D01*
X170301750Y-88190000D01*
X169875000Y-88186928D01*
X169750518Y-88199188D01*
X169630820Y-88235498D01*
X169520506Y-88294463D01*
X169423815Y-88373815D01*
X169344463Y-88470506D01*
X169285498Y-88580820D01*
X169249188Y-88700518D01*
X169236928Y-88825000D01*
X168922728Y-88825000D01*
X168895472Y-88735150D01*
X168813405Y-88581614D01*
X168702962Y-88447038D01*
X168568386Y-88336595D01*
X168501500Y-88300844D01*
X168501500Y-88013072D01*
X168775000Y-88013072D01*
X168948254Y-87996008D01*
X169114850Y-87945472D01*
X169268386Y-87863405D01*
X169402962Y-87752962D01*
X169513405Y-87618386D01*
X169595472Y-87464850D01*
X169622727Y-87375000D01*
X172536928Y-87375000D01*
X172549188Y-87499482D01*
X172585498Y-87619180D01*
X172644463Y-87729494D01*
X172723815Y-87826185D01*
X172820506Y-87905537D01*
X172930820Y-87964502D01*
X173050518Y-88000812D01*
X173175000Y-88013072D01*
X173926750Y-88010000D01*
X174085500Y-87851250D01*
X174085500Y-86227000D01*
X172698750Y-86227000D01*
X172540000Y-86385750D01*
X172536928Y-87375000D01*
X169622727Y-87375000D01*
X169646008Y-87298254D01*
X169663072Y-87125000D01*
X169663072Y-85075000D01*
X169650957Y-84951990D01*
X170479383Y-84951990D01*
X170547412Y-84958690D01*
X170615441Y-84951990D01*
X170615449Y-84951990D01*
X170818919Y-84931950D01*
X171079993Y-84852754D01*
X171131917Y-84825000D01*
X172536928Y-84825000D01*
X172540000Y-85814250D01*
X172698750Y-85973000D01*
X174085500Y-85973000D01*
X174085500Y-84348750D01*
X174339500Y-84348750D01*
X174339500Y-85973000D01*
X175726250Y-85973000D01*
X175885000Y-85814250D01*
X175888072Y-84825000D01*
X175875812Y-84700518D01*
X175839502Y-84580820D01*
X175780537Y-84470506D01*
X175701185Y-84373815D01*
X175604494Y-84294463D01*
X175494180Y-84235498D01*
X175374482Y-84199188D01*
X175250000Y-84186928D01*
X174498250Y-84190000D01*
X174339500Y-84348750D01*
X174085500Y-84348750D01*
X173926750Y-84190000D01*
X173175000Y-84186928D01*
X173050518Y-84199188D01*
X172930820Y-84235498D01*
X172820506Y-84294463D01*
X172723815Y-84373815D01*
X172644463Y-84470506D01*
X172585498Y-84580820D01*
X172549188Y-84700518D01*
X172536928Y-84825000D01*
X171131917Y-84825000D01*
X171320600Y-84724147D01*
X171531493Y-84551071D01*
X171574866Y-84498221D01*
X172131231Y-83941856D01*
X172184081Y-83898483D01*
X172357157Y-83687590D01*
X172485764Y-83446983D01*
X172545518Y-83250000D01*
X175661928Y-83250000D01*
X175674188Y-83374482D01*
X175710498Y-83494180D01*
X175769463Y-83604494D01*
X175848815Y-83701185D01*
X175945506Y-83780537D01*
X176055820Y-83839502D01*
X176175518Y-83875812D01*
X176300000Y-83888072D01*
X176739250Y-83885000D01*
X176898000Y-83726250D01*
X176898000Y-82877000D01*
X177152000Y-82877000D01*
X177152000Y-83726250D01*
X177310750Y-83885000D01*
X177750000Y-83888072D01*
X177874482Y-83875812D01*
X177994180Y-83839502D01*
X178104494Y-83780537D01*
X178201185Y-83701185D01*
X178280537Y-83604494D01*
X178339502Y-83494180D01*
X178375812Y-83374482D01*
X178388072Y-83250000D01*
X178385000Y-83035750D01*
X178226250Y-82877000D01*
X177152000Y-82877000D01*
X176898000Y-82877000D01*
X175823750Y-82877000D01*
X175665000Y-83035750D01*
X175661928Y-83250000D01*
X172545518Y-83250000D01*
X172564960Y-83185909D01*
X172585000Y-82982439D01*
X172585000Y-82982431D01*
X172591700Y-82914402D01*
X172585000Y-82846373D01*
X172585000Y-82696105D01*
X172600518Y-82700812D01*
X172725000Y-82713072D01*
X174675000Y-82713072D01*
X174799482Y-82700812D01*
X174919180Y-82664502D01*
X175029494Y-82605537D01*
X175126185Y-82526185D01*
X175205537Y-82429494D01*
X175264502Y-82319180D01*
X175300812Y-82199482D01*
X175307163Y-82135000D01*
X175673254Y-82135000D01*
X175661928Y-82250000D01*
X175661928Y-82250000D01*
G37*
X175661928Y-82250000D02*
X175665000Y-82464250D01*
X175823750Y-82623000D01*
X176898000Y-82623000D01*
X176898000Y-82603000D01*
X177152000Y-82603000D01*
X177152000Y-82623000D01*
X178226250Y-82623000D01*
X178385000Y-82464250D01*
X178388072Y-82250000D01*
X178376746Y-82135000D01*
X178776315Y-82135000D01*
X180322550Y-83681236D01*
X180365919Y-83734081D01*
X180418764Y-83777450D01*
X180418766Y-83777452D01*
X180493150Y-83838497D01*
X180576812Y-83907157D01*
X180817419Y-84035764D01*
X181078493Y-84114960D01*
X181281963Y-84135000D01*
X181281972Y-84135000D01*
X181349999Y-84141700D01*
X181418026Y-84135000D01*
X182543037Y-84135000D01*
X182746507Y-84114960D01*
X183007581Y-84035764D01*
X183248188Y-83907157D01*
X183281186Y-83880076D01*
X183324482Y-83875812D01*
X183444180Y-83839502D01*
X183554494Y-83780537D01*
X183651185Y-83701185D01*
X183730537Y-83604494D01*
X183789502Y-83494180D01*
X183825812Y-83374482D01*
X183838072Y-83250000D01*
X183838072Y-83027731D01*
X183839960Y-83021507D01*
X183866701Y-82750000D01*
X183839960Y-82478493D01*
X183838072Y-82472269D01*
X183838072Y-82348769D01*
X184124696Y-82376999D01*
X184124703Y-82376999D01*
X184278313Y-82392128D01*
X184431923Y-82376999D01*
X184963001Y-82376999D01*
X184963000Y-87503617D01*
X185008245Y-87962998D01*
X185187050Y-88552440D01*
X185477414Y-89095673D01*
X185868179Y-89571821D01*
X186344326Y-89962586D01*
X186626669Y-90113502D01*
X186648400Y-90154157D01*
X186789235Y-90325765D01*
X186960843Y-90466600D01*
X187102930Y-90542547D01*
X180200000Y-90542547D01*
X179979069Y-90564307D01*
X179766629Y-90628750D01*
X179570843Y-90733400D01*
X179399235Y-90874235D01*
X179258400Y-91045843D01*
X179153750Y-91241629D01*
X179089307Y-91454069D01*
X179067547Y-91675000D01*
X179067547Y-92374547D01*
X177530716Y-90837716D01*
X177499870Y-90800130D01*
X177349884Y-90677040D01*
X177178767Y-90585576D01*
X176993094Y-90529253D01*
X176848380Y-90515000D01*
X176800000Y-90510235D01*
X176751620Y-90515000D01*
X176383708Y-90515000D01*
X176400537Y-90494494D01*
X176459502Y-90384180D01*
X176495812Y-90264482D01*
X176508072Y-90140000D01*
X176508072Y-89694928D01*
X177868000Y-88335000D01*
X181871928Y-88335000D01*
X181871928Y-89525000D01*
X181884188Y-89649482D01*
X181920498Y-89769180D01*
X181979463Y-89879494D01*
X182058815Y-89976185D01*
X182155506Y-90055537D01*
X182265820Y-90114502D01*
X182385518Y-90150812D01*
X182510000Y-90163072D01*
X183610000Y-90163072D01*
X183734482Y-90150812D01*
X183854180Y-90114502D01*
X183964494Y-90055537D01*
X184061185Y-89976185D01*
X184140537Y-89879494D01*
X184199502Y-89769180D01*
X184235812Y-89649482D01*
X184248072Y-89525000D01*
X184248072Y-84925000D01*
X184235812Y-84800518D01*
X184199502Y-84680820D01*
X184140537Y-84570506D01*
X184061185Y-84473815D01*
X183964494Y-84394463D01*
X183854180Y-84335498D01*
X183734482Y-84299188D01*
X183610000Y-84286928D01*
X182510000Y-84286928D01*
X182385518Y-84299188D01*
X182265820Y-84335498D01*
X182155506Y-84394463D01*
X182058815Y-84473815D01*
X181979463Y-84570506D01*
X181920498Y-84680820D01*
X181884188Y-84800518D01*
X181871928Y-84925000D01*
X181871928Y-86365000D01*
X177508379Y-86365000D01*
X177459999Y-86360235D01*
X177266905Y-86379253D01*
X177245488Y-86385750D01*
X177081233Y-86435576D01*
X176910116Y-86527040D01*
X176760130Y-86650130D01*
X176729284Y-86687716D01*
X175857652Y-87559348D01*
X175875812Y-87499482D01*
X175888072Y-87375000D01*
X175885000Y-86385750D01*
X175726250Y-86227000D01*
X174339500Y-86227000D01*
X174339500Y-87851250D01*
X174498250Y-88010000D01*
X175250000Y-88013072D01*
X175374482Y-88000812D01*
X175434348Y-87982652D01*
X175115072Y-88301928D01*
X174870000Y-88301928D01*
X174745518Y-88314188D01*
X174625820Y-88350498D01*
X174515506Y-88409463D01*
X174418815Y-88488815D01*
X174339463Y-88585506D01*
X174280498Y-88695820D01*
X174244188Y-88815518D01*
X174231928Y-88940000D01*
X174231928Y-90038928D01*
X173968072Y-89775072D01*
X173968072Y-88940000D01*
X173955812Y-88815518D01*
X173919502Y-88695820D01*
X173860537Y-88585506D01*
X173781185Y-88488815D01*
X173684494Y-88409463D01*
X173574180Y-88350498D01*
X173454482Y-88314188D01*
X173330000Y-88301928D01*
X172330000Y-88301928D01*
X172205518Y-88314188D01*
X172085820Y-88350498D01*
X171975506Y-88409463D01*
X171878815Y-88488815D01*
X171855505Y-88517218D01*
X171830537Y-88470506D01*
X171751185Y-88373815D01*
X171654494Y-88294463D01*
X171544180Y-88235498D01*
X171424482Y-88199188D01*
X171300000Y-88186928D01*
X170873250Y-88190000D01*
X170714500Y-88348750D01*
X170714500Y-89573000D01*
X170734500Y-89573000D01*
X170734500Y-89827000D01*
X170714500Y-89827000D01*
X170714500Y-89847000D01*
X170460500Y-89847000D01*
X170460500Y-89827000D01*
X169398750Y-89827000D01*
X169240000Y-89985750D01*
X169236928Y-90575000D01*
X169249188Y-90699482D01*
X169285498Y-90819180D01*
X169344463Y-90929494D01*
X169386916Y-90981223D01*
X169386595Y-90981614D01*
X169304528Y-91135150D01*
X169253992Y-91301746D01*
X169236928Y-91475000D01*
X169236928Y-92193336D01*
X168963072Y-92467192D01*
X168963072Y-91475000D01*
X168946008Y-91301746D01*
X168895472Y-91135150D01*
X168813405Y-90981614D01*
X168746427Y-90900000D01*
X168813405Y-90818386D01*
X168895472Y-90664850D01*
X168946008Y-90498254D01*
X168963072Y-90325000D01*
X168963072Y-89075000D01*
X168946008Y-88901746D01*
X168922728Y-88825000D01*
X169236928Y-88825000D01*
X169240000Y-89414250D01*
X169398750Y-89573000D01*
X170460500Y-89573000D01*
X170460500Y-88348750D01*
X170301750Y-88190000D01*
X169875000Y-88186928D01*
X169750518Y-88199188D01*
X169630820Y-88235498D01*
X169520506Y-88294463D01*
X169423815Y-88373815D01*
X169344463Y-88470506D01*
X169285498Y-88580820D01*
X169249188Y-88700518D01*
X169236928Y-88825000D01*
X168922728Y-88825000D01*
X168895472Y-88735150D01*
X168813405Y-88581614D01*
X168702962Y-88447038D01*
X168568386Y-88336595D01*
X168501500Y-88300844D01*
X168501500Y-88013072D01*
X168775000Y-88013072D01*
X168948254Y-87996008D01*
X169114850Y-87945472D01*
X169268386Y-87863405D01*
X169402962Y-87752962D01*
X169513405Y-87618386D01*
X169595472Y-87464850D01*
X169622727Y-87375000D01*
X172536928Y-87375000D01*
X172549188Y-87499482D01*
X172585498Y-87619180D01*
X172644463Y-87729494D01*
X172723815Y-87826185D01*
X172820506Y-87905537D01*
X172930820Y-87964502D01*
X173050518Y-88000812D01*
X173175000Y-88013072D01*
X173926750Y-88010000D01*
X174085500Y-87851250D01*
X174085500Y-86227000D01*
X172698750Y-86227000D01*
X172540000Y-86385750D01*
X172536928Y-87375000D01*
X169622727Y-87375000D01*
X169646008Y-87298254D01*
X169663072Y-87125000D01*
X169663072Y-85075000D01*
X169650957Y-84951990D01*
X170479383Y-84951990D01*
X170547412Y-84958690D01*
X170615441Y-84951990D01*
X170615449Y-84951990D01*
X170818919Y-84931950D01*
X171079993Y-84852754D01*
X171131917Y-84825000D01*
X172536928Y-84825000D01*
X172540000Y-85814250D01*
X172698750Y-85973000D01*
X174085500Y-85973000D01*
X174085500Y-84348750D01*
X174339500Y-84348750D01*
X174339500Y-85973000D01*
X175726250Y-85973000D01*
X175885000Y-85814250D01*
X175888072Y-84825000D01*
X175875812Y-84700518D01*
X175839502Y-84580820D01*
X175780537Y-84470506D01*
X175701185Y-84373815D01*
X175604494Y-84294463D01*
X175494180Y-84235498D01*
X175374482Y-84199188D01*
X175250000Y-84186928D01*
X174498250Y-84190000D01*
X174339500Y-84348750D01*
X174085500Y-84348750D01*
X173926750Y-84190000D01*
X173175000Y-84186928D01*
X173050518Y-84199188D01*
X172930820Y-84235498D01*
X172820506Y-84294463D01*
X172723815Y-84373815D01*
X172644463Y-84470506D01*
X172585498Y-84580820D01*
X172549188Y-84700518D01*
X172536928Y-84825000D01*
X171131917Y-84825000D01*
X171320600Y-84724147D01*
X171531493Y-84551071D01*
X171574866Y-84498221D01*
X172131231Y-83941856D01*
X172184081Y-83898483D01*
X172357157Y-83687590D01*
X172485764Y-83446983D01*
X172545518Y-83250000D01*
X175661928Y-83250000D01*
X175674188Y-83374482D01*
X175710498Y-83494180D01*
X175769463Y-83604494D01*
X175848815Y-83701185D01*
X175945506Y-83780537D01*
X176055820Y-83839502D01*
X176175518Y-83875812D01*
X176300000Y-83888072D01*
X176739250Y-83885000D01*
X176898000Y-83726250D01*
X176898000Y-82877000D01*
X177152000Y-82877000D01*
X177152000Y-83726250D01*
X177310750Y-83885000D01*
X177750000Y-83888072D01*
X177874482Y-83875812D01*
X177994180Y-83839502D01*
X178104494Y-83780537D01*
X178201185Y-83701185D01*
X178280537Y-83604494D01*
X178339502Y-83494180D01*
X178375812Y-83374482D01*
X178388072Y-83250000D01*
X178385000Y-83035750D01*
X178226250Y-82877000D01*
X177152000Y-82877000D01*
X176898000Y-82877000D01*
X175823750Y-82877000D01*
X175665000Y-83035750D01*
X175661928Y-83250000D01*
X172545518Y-83250000D01*
X172564960Y-83185909D01*
X172585000Y-82982439D01*
X172585000Y-82982431D01*
X172591700Y-82914402D01*
X172585000Y-82846373D01*
X172585000Y-82696105D01*
X172600518Y-82700812D01*
X172725000Y-82713072D01*
X174675000Y-82713072D01*
X174799482Y-82700812D01*
X174919180Y-82664502D01*
X175029494Y-82605537D01*
X175126185Y-82526185D01*
X175205537Y-82429494D01*
X175264502Y-82319180D01*
X175300812Y-82199482D01*
X175307163Y-82135000D01*
X175673254Y-82135000D01*
X175661928Y-82250000D01*
M02*
