G04 #@! TF.GenerationSoftware,KiCad,Pcbnew,(5.1.4-0-10_14)*
G04 #@! TF.CreationDate,2021-06-10T11:06:10+03:00*
G04 #@! TF.ProjectId,smart-plug,736d6172-742d-4706-9c75-672e6b696361,rev?*
G04 #@! TF.SameCoordinates,Original*
G04 #@! TF.FileFunction,Copper,L2,Bot*
G04 #@! TF.FilePolarity,Positive*
%FSLAX46Y46*%
G04 Gerber Fmt 4.6, Leading zero omitted, Abs format (unit mm)*
G04 Created by KiCad (PCBNEW (5.1.4-0-10_14)) date 2021-06-10 11:06:10*
%MOMM*%
%LPD*%
G04 APERTURE LIST*
%ADD10C,0.100000*%
%ADD11C,1.524000*%
%ADD12C,4.000000*%
%ADD13C,0.600000*%
%ADD14R,10.800000X9.400000*%
%ADD15C,4.500000*%
%ADD16C,1.500000*%
%ADD17C,0.508000*%
%ADD18C,4.000000*%
%ADD19C,12.000000*%
%ADD20C,0.254000*%
G04 APERTURE END LIST*
D10*
G36*
X173250000Y-75000000D02*
G01*
X165500000Y-79500000D01*
X163500000Y-76000000D01*
X166000000Y-74250000D01*
X169500000Y-72250000D01*
X171000000Y-71750000D01*
X173250000Y-75000000D01*
G37*
X173250000Y-75000000D02*
X165500000Y-79500000D01*
X163500000Y-76000000D01*
X166000000Y-74250000D01*
X169500000Y-72250000D01*
X171000000Y-71750000D01*
X173250000Y-75000000D01*
D11*
X194541000Y-91619000D03*
X194541000Y-96699000D03*
X194541000Y-83999000D03*
X194541000Y-89079000D03*
X194541000Y-94159000D03*
X194541000Y-86539000D03*
X194541000Y-101779000D03*
X194541000Y-99239000D03*
D12*
X170200000Y-74100000D03*
X166200000Y-76600000D03*
X184700000Y-74100000D03*
X189200000Y-76600000D03*
D13*
X190100000Y-92400000D03*
X190100000Y-93400000D03*
X190100000Y-94400000D03*
X190100000Y-95400000D03*
X190100000Y-96400000D03*
X190100000Y-97400000D03*
X190100000Y-98400000D03*
X190100000Y-99400000D03*
X190100000Y-100400000D03*
X189100000Y-92400000D03*
X188100000Y-92400000D03*
X187100000Y-92400000D03*
X186100000Y-92400000D03*
X185100000Y-92400000D03*
X184100000Y-92400000D03*
X183100000Y-92400000D03*
X182100000Y-92400000D03*
X181100000Y-92400000D03*
D14*
X185600000Y-96400000D03*
D13*
X181100000Y-93400000D03*
X182100000Y-93400000D03*
X183100000Y-93400000D03*
X184100000Y-93400000D03*
X185100000Y-93400000D03*
X186100000Y-93400000D03*
X187100000Y-93400000D03*
X188100000Y-93400000D03*
X189100000Y-93400000D03*
X181100000Y-94400000D03*
X182100000Y-94400000D03*
X183100000Y-94400000D03*
X184100000Y-94400000D03*
X185100000Y-94400000D03*
X186100000Y-94400000D03*
X187100000Y-94400000D03*
X188100000Y-94400000D03*
X189100000Y-94400000D03*
X181100000Y-95400000D03*
X182100000Y-95400000D03*
X183100000Y-95400000D03*
X184100000Y-95400000D03*
X185100000Y-95400000D03*
X186100000Y-95400000D03*
X187100000Y-95400000D03*
X188100000Y-95400000D03*
X189100000Y-95400000D03*
X181100000Y-96400000D03*
X182100000Y-96400000D03*
X183100000Y-96400000D03*
X184100000Y-96400000D03*
X185100000Y-96400000D03*
X186100000Y-96400000D03*
X187100000Y-96400000D03*
X188100000Y-96400000D03*
X189100000Y-96400000D03*
X181100000Y-97400000D03*
X182100000Y-97400000D03*
X183100000Y-97400000D03*
X184100000Y-97400000D03*
X185100000Y-97400000D03*
X186100000Y-97400000D03*
X187100000Y-97400000D03*
X188100000Y-97400000D03*
X189100000Y-97400000D03*
X181100000Y-98400000D03*
X182100000Y-98400000D03*
X183100000Y-98400000D03*
X184100000Y-98400000D03*
X185100000Y-98400000D03*
X186100000Y-98400000D03*
X187100000Y-98400000D03*
X188100000Y-98400000D03*
X189100000Y-98400000D03*
X181100000Y-99400000D03*
X182100000Y-99400000D03*
X183100000Y-99400000D03*
X184100000Y-99400000D03*
X185100000Y-99400000D03*
X186100000Y-99400000D03*
X187100000Y-99400000D03*
X188100000Y-99400000D03*
X189100000Y-99400000D03*
X181100000Y-100400000D03*
X182100000Y-100400000D03*
X183100000Y-100400000D03*
X184100000Y-100400000D03*
X185100000Y-100400000D03*
X186100000Y-100400000D03*
X187100000Y-100400000D03*
X188100000Y-100400000D03*
X189100000Y-100400000D03*
D15*
X177500000Y-73100000D03*
D16*
X164300000Y-96400000D03*
X175800000Y-105837500D03*
D17*
X166362500Y-96400000D02*
X175800000Y-105837500D01*
X164300000Y-96400000D02*
X166362500Y-96400000D01*
D18*
X180295998Y-78504002D02*
X184199999Y-74600002D01*
D19*
X180295998Y-82795998D02*
X180295998Y-82350001D01*
X185600000Y-88100000D02*
X180295998Y-82795998D01*
X185600000Y-96500000D02*
X185600000Y-88100000D01*
X180295998Y-91095998D02*
X185600000Y-96400000D01*
X180295998Y-82795998D02*
X180295998Y-91095998D01*
D20*
G36*
X175259074Y-71260920D02*
G01*
X174943346Y-71733440D01*
X174725869Y-72258477D01*
X174615000Y-72815852D01*
X174615000Y-73384148D01*
X174725869Y-73941523D01*
X174943346Y-74466560D01*
X175259074Y-74939080D01*
X175660920Y-75340926D01*
X176133440Y-75656654D01*
X176658477Y-75874131D01*
X177120620Y-75966057D01*
X176317292Y-76395445D01*
X175232064Y-77286067D01*
X174341442Y-78371294D01*
X173679650Y-79609420D01*
X173272120Y-80952865D01*
X173168998Y-81999879D01*
X173168998Y-82445876D01*
X173134514Y-82795998D01*
X173168998Y-83146118D01*
X173168999Y-90745870D01*
X173134514Y-91095998D01*
X173272121Y-92493134D01*
X173679651Y-93836579D01*
X174341442Y-95074705D01*
X174928746Y-95790337D01*
X175232065Y-96159932D01*
X175504022Y-96383121D01*
X179067547Y-99946647D01*
X179067547Y-101100000D01*
X179089307Y-101320931D01*
X179153750Y-101533371D01*
X179258400Y-101729157D01*
X179399235Y-101900765D01*
X179570843Y-102041600D01*
X179766629Y-102146250D01*
X179979069Y-102210693D01*
X180200000Y-102232453D01*
X181350659Y-102232453D01*
X181621293Y-102454556D01*
X182859419Y-103116348D01*
X184202864Y-103523878D01*
X185600000Y-103661484D01*
X186997135Y-103523878D01*
X188340580Y-103116348D01*
X189578706Y-102454556D01*
X189849340Y-102232453D01*
X191000000Y-102232453D01*
X191220931Y-102210693D01*
X191433371Y-102146250D01*
X191629157Y-102041600D01*
X191800765Y-101900765D01*
X191941600Y-101729157D01*
X192046250Y-101533371D01*
X192110693Y-101320931D01*
X192132453Y-101100000D01*
X192132453Y-99397538D01*
X192216348Y-99240581D01*
X192623878Y-97897136D01*
X192727000Y-96850122D01*
X192727000Y-96750119D01*
X192761484Y-96400000D01*
X192727000Y-96049881D01*
X192727000Y-88941408D01*
X193144000Y-88941408D01*
X193144000Y-89216592D01*
X193197686Y-89486490D01*
X193302995Y-89740727D01*
X193455880Y-89969535D01*
X193650465Y-90164120D01*
X193879273Y-90317005D01*
X193956515Y-90349000D01*
X193879273Y-90380995D01*
X193650465Y-90533880D01*
X193455880Y-90728465D01*
X193302995Y-90957273D01*
X193197686Y-91211510D01*
X193144000Y-91481408D01*
X193144000Y-91756592D01*
X193197686Y-92026490D01*
X193302995Y-92280727D01*
X193455880Y-92509535D01*
X193650465Y-92704120D01*
X193879273Y-92857005D01*
X193956515Y-92889000D01*
X193879273Y-92920995D01*
X193650465Y-93073880D01*
X193455880Y-93268465D01*
X193302995Y-93497273D01*
X193197686Y-93751510D01*
X193144000Y-94021408D01*
X193144000Y-94296592D01*
X193197686Y-94566490D01*
X193302995Y-94820727D01*
X193455880Y-95049535D01*
X193650465Y-95244120D01*
X193879273Y-95397005D01*
X193956515Y-95429000D01*
X193879273Y-95460995D01*
X193650465Y-95613880D01*
X193455880Y-95808465D01*
X193302995Y-96037273D01*
X193197686Y-96291510D01*
X193144000Y-96561408D01*
X193144000Y-96836592D01*
X193197686Y-97106490D01*
X193302995Y-97360727D01*
X193455880Y-97589535D01*
X193650465Y-97784120D01*
X193879273Y-97937005D01*
X193956515Y-97969000D01*
X193879273Y-98000995D01*
X193650465Y-98153880D01*
X193455880Y-98348465D01*
X193302995Y-98577273D01*
X193197686Y-98831510D01*
X193144000Y-99101408D01*
X193144000Y-99376592D01*
X193197686Y-99646490D01*
X193302995Y-99900727D01*
X193455880Y-100129535D01*
X193650465Y-100324120D01*
X193879273Y-100477005D01*
X193956515Y-100509000D01*
X193879273Y-100540995D01*
X193650465Y-100693880D01*
X193455880Y-100888465D01*
X193302995Y-101117273D01*
X193197686Y-101371510D01*
X193144000Y-101641408D01*
X193144000Y-101916592D01*
X193197686Y-102186490D01*
X193302995Y-102440727D01*
X193455880Y-102669535D01*
X193650465Y-102864120D01*
X193879273Y-103017005D01*
X194133510Y-103122314D01*
X194403408Y-103176000D01*
X194678592Y-103176000D01*
X194948490Y-103122314D01*
X195202727Y-103017005D01*
X195431535Y-102864120D01*
X195626120Y-102669535D01*
X195779005Y-102440727D01*
X195884314Y-102186490D01*
X195938000Y-101916592D01*
X195938000Y-101641408D01*
X195884314Y-101371510D01*
X195779005Y-101117273D01*
X195626120Y-100888465D01*
X195431535Y-100693880D01*
X195202727Y-100540995D01*
X195125485Y-100509000D01*
X195202727Y-100477005D01*
X195431535Y-100324120D01*
X195626120Y-100129535D01*
X195779005Y-99900727D01*
X195884314Y-99646490D01*
X195938000Y-99376592D01*
X195938000Y-99101408D01*
X195884314Y-98831510D01*
X195779005Y-98577273D01*
X195626120Y-98348465D01*
X195431535Y-98153880D01*
X195202727Y-98000995D01*
X195125485Y-97969000D01*
X195202727Y-97937005D01*
X195431535Y-97784120D01*
X195626120Y-97589535D01*
X195779005Y-97360727D01*
X195884314Y-97106490D01*
X195938000Y-96836592D01*
X195938000Y-96561408D01*
X195884314Y-96291510D01*
X195779005Y-96037273D01*
X195626120Y-95808465D01*
X195431535Y-95613880D01*
X195202727Y-95460995D01*
X195125485Y-95429000D01*
X195202727Y-95397005D01*
X195431535Y-95244120D01*
X195626120Y-95049535D01*
X195779005Y-94820727D01*
X195884314Y-94566490D01*
X195938000Y-94296592D01*
X195938000Y-94021408D01*
X195884314Y-93751510D01*
X195779005Y-93497273D01*
X195626120Y-93268465D01*
X195431535Y-93073880D01*
X195202727Y-92920995D01*
X195125485Y-92889000D01*
X195202727Y-92857005D01*
X195431535Y-92704120D01*
X195626120Y-92509535D01*
X195779005Y-92280727D01*
X195884314Y-92026490D01*
X195938000Y-91756592D01*
X195938000Y-91481408D01*
X195884314Y-91211510D01*
X195779005Y-90957273D01*
X195626120Y-90728465D01*
X195431535Y-90533880D01*
X195202727Y-90380995D01*
X195125485Y-90349000D01*
X195202727Y-90317005D01*
X195431535Y-90164120D01*
X195626120Y-89969535D01*
X195779005Y-89740727D01*
X195884314Y-89486490D01*
X195938000Y-89216592D01*
X195938000Y-88941408D01*
X195884314Y-88671510D01*
X195779005Y-88417273D01*
X195626120Y-88188465D01*
X195431535Y-87993880D01*
X195202727Y-87840995D01*
X195131057Y-87811308D01*
X195144023Y-87806636D01*
X195259980Y-87744656D01*
X195326960Y-87504565D01*
X194541000Y-86718605D01*
X193755040Y-87504565D01*
X193822020Y-87744656D01*
X193957760Y-87808485D01*
X193879273Y-87840995D01*
X193650465Y-87993880D01*
X193455880Y-88188465D01*
X193302995Y-88417273D01*
X193197686Y-88671510D01*
X193144000Y-88941408D01*
X192727000Y-88941408D01*
X192727000Y-88450119D01*
X192761484Y-88100000D01*
X192727000Y-87749878D01*
X192623878Y-86702864D01*
X192596017Y-86611017D01*
X193139090Y-86611017D01*
X193180078Y-86883133D01*
X193273364Y-87142023D01*
X193335344Y-87257980D01*
X193575435Y-87324960D01*
X194361395Y-86539000D01*
X194720605Y-86539000D01*
X195506565Y-87324960D01*
X195746656Y-87257980D01*
X195863756Y-87008952D01*
X195930023Y-86741865D01*
X195942910Y-86466983D01*
X195901922Y-86194867D01*
X195808636Y-85935977D01*
X195746656Y-85820020D01*
X195506565Y-85753040D01*
X194720605Y-86539000D01*
X194361395Y-86539000D01*
X193575435Y-85753040D01*
X193335344Y-85820020D01*
X193218244Y-86069048D01*
X193151977Y-86336135D01*
X193139090Y-86611017D01*
X192596017Y-86611017D01*
X192216348Y-85359419D01*
X192093612Y-85129796D01*
X191554556Y-84121292D01*
X191341275Y-83861408D01*
X193144000Y-83861408D01*
X193144000Y-84136592D01*
X193197686Y-84406490D01*
X193302995Y-84660727D01*
X193455880Y-84889535D01*
X193650465Y-85084120D01*
X193879273Y-85237005D01*
X193950943Y-85266692D01*
X193937977Y-85271364D01*
X193822020Y-85333344D01*
X193755040Y-85573435D01*
X194541000Y-86359395D01*
X195326960Y-85573435D01*
X195259980Y-85333344D01*
X195124240Y-85269515D01*
X195202727Y-85237005D01*
X195431535Y-85084120D01*
X195626120Y-84889535D01*
X195779005Y-84660727D01*
X195884314Y-84406490D01*
X195938000Y-84136592D01*
X195938000Y-83861408D01*
X195884314Y-83591510D01*
X195779005Y-83337273D01*
X195626120Y-83108465D01*
X195431535Y-82913880D01*
X195202727Y-82760995D01*
X194948490Y-82655686D01*
X194678592Y-82602000D01*
X194403408Y-82602000D01*
X194133510Y-82655686D01*
X193879273Y-82760995D01*
X193650465Y-82913880D01*
X193455880Y-83108465D01*
X193302995Y-83337273D01*
X193197686Y-83591510D01*
X193144000Y-83861408D01*
X191341275Y-83861408D01*
X190977271Y-83417868D01*
X190663934Y-83036066D01*
X190391976Y-82812876D01*
X186595222Y-79016122D01*
X186250554Y-78371294D01*
X185619678Y-77602569D01*
X186113028Y-77109218D01*
X186193169Y-77512112D01*
X186428889Y-78081190D01*
X186771101Y-78593346D01*
X187206654Y-79028899D01*
X187718810Y-79371111D01*
X188287888Y-79606831D01*
X188892017Y-79727000D01*
X189507983Y-79727000D01*
X190112112Y-79606831D01*
X190681190Y-79371111D01*
X191193346Y-79028899D01*
X191628899Y-78593346D01*
X191971111Y-78081190D01*
X192206831Y-77512112D01*
X192327000Y-76907983D01*
X192327000Y-76751179D01*
X193091309Y-77470749D01*
X194310979Y-78828807D01*
X195412730Y-80284160D01*
X196388837Y-81826600D01*
X197232454Y-83445311D01*
X197937664Y-85128942D01*
X198499515Y-86865672D01*
X198914070Y-88643328D01*
X199178488Y-90449890D01*
X199243926Y-91490000D01*
X199034877Y-91490000D01*
X199000000Y-91486565D01*
X198965123Y-91490000D01*
X198860816Y-91500273D01*
X198726980Y-91540872D01*
X198603637Y-91606800D01*
X198495525Y-91695525D01*
X198406800Y-91803637D01*
X198340872Y-91926980D01*
X198300273Y-92060816D01*
X198286565Y-92200000D01*
X198290001Y-92234887D01*
X198290000Y-93165122D01*
X198286565Y-93200000D01*
X198300273Y-93339184D01*
X198340872Y-93473020D01*
X198406800Y-93596363D01*
X198495525Y-93704475D01*
X198578002Y-93772162D01*
X198603637Y-93793200D01*
X198726980Y-93859128D01*
X198860816Y-93899727D01*
X199000000Y-93913435D01*
X199034877Y-93910000D01*
X199242959Y-93910000D01*
X199172613Y-95005819D01*
X198903658Y-96811251D01*
X198484573Y-98587842D01*
X197918296Y-100323134D01*
X197208797Y-102004960D01*
X196361054Y-103621520D01*
X195381014Y-105161475D01*
X194275565Y-106614000D01*
X193052430Y-107968953D01*
X191720214Y-109216795D01*
X190288261Y-110348779D01*
X188766584Y-111356984D01*
X187165904Y-112234311D01*
X185497416Y-112974622D01*
X183772837Y-113572721D01*
X182004233Y-114024420D01*
X180204060Y-114326536D01*
X178384915Y-114476959D01*
X176559576Y-114474632D01*
X174740811Y-114319571D01*
X172941411Y-114012865D01*
X171173987Y-113556668D01*
X169450928Y-112954170D01*
X167784328Y-112209606D01*
X166185884Y-111328199D01*
X164666800Y-110316128D01*
X163237724Y-109180489D01*
X161908691Y-107929251D01*
X160689021Y-106571193D01*
X159587270Y-105115840D01*
X158611160Y-103573395D01*
X157767546Y-101954689D01*
X157062335Y-100271054D01*
X156500485Y-98534328D01*
X156085930Y-96756672D01*
X156013760Y-96263589D01*
X162915000Y-96263589D01*
X162915000Y-96536411D01*
X162968225Y-96803989D01*
X163072629Y-97056043D01*
X163224201Y-97282886D01*
X163417114Y-97475799D01*
X163643957Y-97627371D01*
X163896011Y-97731775D01*
X164163589Y-97785000D01*
X164436411Y-97785000D01*
X164703989Y-97731775D01*
X164956043Y-97627371D01*
X165182886Y-97475799D01*
X165369685Y-97289000D01*
X165994265Y-97289000D01*
X174415000Y-105709736D01*
X174415000Y-105973911D01*
X174468225Y-106241489D01*
X174572629Y-106493543D01*
X174724201Y-106720386D01*
X174917114Y-106913299D01*
X175143957Y-107064871D01*
X175396011Y-107169275D01*
X175663589Y-107222500D01*
X175936411Y-107222500D01*
X176203989Y-107169275D01*
X176456043Y-107064871D01*
X176682886Y-106913299D01*
X176875799Y-106720386D01*
X177027371Y-106493543D01*
X177131775Y-106241489D01*
X177185000Y-105973911D01*
X177185000Y-105701089D01*
X177131775Y-105433511D01*
X177027371Y-105181457D01*
X176875799Y-104954614D01*
X176682886Y-104761701D01*
X176456043Y-104610129D01*
X176203989Y-104505725D01*
X175936411Y-104452500D01*
X175672236Y-104452500D01*
X167021999Y-95802264D01*
X166994159Y-95768341D01*
X166858791Y-95657247D01*
X166704351Y-95574697D01*
X166536774Y-95523864D01*
X166406167Y-95511000D01*
X166406160Y-95511000D01*
X166362500Y-95506700D01*
X166318840Y-95511000D01*
X165369685Y-95511000D01*
X165182886Y-95324201D01*
X164956043Y-95172629D01*
X164703989Y-95068225D01*
X164436411Y-95015000D01*
X164163589Y-95015000D01*
X163896011Y-95068225D01*
X163643957Y-95172629D01*
X163417114Y-95324201D01*
X163224201Y-95517114D01*
X163072629Y-95743957D01*
X162968225Y-95996011D01*
X162915000Y-96263589D01*
X156013760Y-96263589D01*
X155821512Y-94950110D01*
X155756074Y-93910000D01*
X155965123Y-93910000D01*
X156000000Y-93913435D01*
X156034877Y-93910000D01*
X156139184Y-93899727D01*
X156273020Y-93859128D01*
X156396363Y-93793200D01*
X156504475Y-93704475D01*
X156593200Y-93596363D01*
X156659128Y-93473020D01*
X156699727Y-93339184D01*
X156713435Y-93200000D01*
X156710000Y-93165123D01*
X156710000Y-92234877D01*
X156713435Y-92200000D01*
X156699727Y-92060816D01*
X156659128Y-91926980D01*
X156593200Y-91803637D01*
X156504475Y-91695525D01*
X156396363Y-91606800D01*
X156273020Y-91540872D01*
X156139184Y-91500273D01*
X156034877Y-91490000D01*
X156000000Y-91486565D01*
X155965123Y-91490000D01*
X155757041Y-91490000D01*
X155827387Y-90394182D01*
X156096342Y-88588749D01*
X156515427Y-86812158D01*
X157081704Y-85076865D01*
X157791198Y-83395049D01*
X158638941Y-81778488D01*
X159618986Y-80238525D01*
X160724441Y-78785993D01*
X161947570Y-77431047D01*
X162977522Y-76466325D01*
X164905254Y-79839855D01*
X164940857Y-79890056D01*
X164982564Y-79948871D01*
X164982580Y-79948886D01*
X164982592Y-79948903D01*
X165027793Y-79991730D01*
X165079605Y-80040827D01*
X165079625Y-80040840D01*
X165079638Y-80040852D01*
X165124880Y-80069403D01*
X165192658Y-80112182D01*
X165192682Y-80112191D01*
X165192696Y-80112200D01*
X165244232Y-80132040D01*
X165317418Y-80160219D01*
X165317441Y-80160223D01*
X165317459Y-80160230D01*
X165379900Y-80171077D01*
X165449133Y-80183109D01*
X165449155Y-80183108D01*
X165449175Y-80183112D01*
X165515532Y-80181554D01*
X165582785Y-80179979D01*
X165582805Y-80179974D01*
X165582826Y-80179974D01*
X165642570Y-80166680D01*
X165713283Y-80150950D01*
X165713305Y-80150940D01*
X165713324Y-80150936D01*
X165770054Y-80125980D01*
X165835658Y-80097125D01*
X165843963Y-80092380D01*
X173593963Y-75592381D01*
X173614155Y-75577849D01*
X173635967Y-75565910D01*
X173668280Y-75538897D01*
X173702473Y-75514289D01*
X173719455Y-75496116D01*
X173738536Y-75480164D01*
X173764991Y-75447384D01*
X173793748Y-75416609D01*
X173806874Y-75395488D01*
X173822497Y-75376129D01*
X173842085Y-75338827D01*
X173864312Y-75303060D01*
X173873084Y-75279794D01*
X173884651Y-75257767D01*
X173896621Y-75217370D01*
X173911477Y-75177968D01*
X173915563Y-75153441D01*
X173922631Y-75129588D01*
X173926526Y-75087639D01*
X173933447Y-75046097D01*
X173932691Y-75021240D01*
X173934991Y-74996471D01*
X173930664Y-74954564D01*
X173929384Y-74912470D01*
X173923815Y-74888236D01*
X173921260Y-74863489D01*
X173908875Y-74823220D01*
X173899444Y-74782177D01*
X173889273Y-74759484D01*
X173881961Y-74735708D01*
X173861994Y-74698619D01*
X173844767Y-74660181D01*
X173830378Y-74639889D01*
X173818590Y-74617993D01*
X173813202Y-74610091D01*
X171787554Y-71684155D01*
X172995749Y-71375584D01*
X174795940Y-71073464D01*
X175505176Y-71014818D01*
X175259074Y-71260920D01*
X175259074Y-71260920D01*
G37*
X175259074Y-71260920D02*
X174943346Y-71733440D01*
X174725869Y-72258477D01*
X174615000Y-72815852D01*
X174615000Y-73384148D01*
X174725869Y-73941523D01*
X174943346Y-74466560D01*
X175259074Y-74939080D01*
X175660920Y-75340926D01*
X176133440Y-75656654D01*
X176658477Y-75874131D01*
X177120620Y-75966057D01*
X176317292Y-76395445D01*
X175232064Y-77286067D01*
X174341442Y-78371294D01*
X173679650Y-79609420D01*
X173272120Y-80952865D01*
X173168998Y-81999879D01*
X173168998Y-82445876D01*
X173134514Y-82795998D01*
X173168998Y-83146118D01*
X173168999Y-90745870D01*
X173134514Y-91095998D01*
X173272121Y-92493134D01*
X173679651Y-93836579D01*
X174341442Y-95074705D01*
X174928746Y-95790337D01*
X175232065Y-96159932D01*
X175504022Y-96383121D01*
X179067547Y-99946647D01*
X179067547Y-101100000D01*
X179089307Y-101320931D01*
X179153750Y-101533371D01*
X179258400Y-101729157D01*
X179399235Y-101900765D01*
X179570843Y-102041600D01*
X179766629Y-102146250D01*
X179979069Y-102210693D01*
X180200000Y-102232453D01*
X181350659Y-102232453D01*
X181621293Y-102454556D01*
X182859419Y-103116348D01*
X184202864Y-103523878D01*
X185600000Y-103661484D01*
X186997135Y-103523878D01*
X188340580Y-103116348D01*
X189578706Y-102454556D01*
X189849340Y-102232453D01*
X191000000Y-102232453D01*
X191220931Y-102210693D01*
X191433371Y-102146250D01*
X191629157Y-102041600D01*
X191800765Y-101900765D01*
X191941600Y-101729157D01*
X192046250Y-101533371D01*
X192110693Y-101320931D01*
X192132453Y-101100000D01*
X192132453Y-99397538D01*
X192216348Y-99240581D01*
X192623878Y-97897136D01*
X192727000Y-96850122D01*
X192727000Y-96750119D01*
X192761484Y-96400000D01*
X192727000Y-96049881D01*
X192727000Y-88941408D01*
X193144000Y-88941408D01*
X193144000Y-89216592D01*
X193197686Y-89486490D01*
X193302995Y-89740727D01*
X193455880Y-89969535D01*
X193650465Y-90164120D01*
X193879273Y-90317005D01*
X193956515Y-90349000D01*
X193879273Y-90380995D01*
X193650465Y-90533880D01*
X193455880Y-90728465D01*
X193302995Y-90957273D01*
X193197686Y-91211510D01*
X193144000Y-91481408D01*
X193144000Y-91756592D01*
X193197686Y-92026490D01*
X193302995Y-92280727D01*
X193455880Y-92509535D01*
X193650465Y-92704120D01*
X193879273Y-92857005D01*
X193956515Y-92889000D01*
X193879273Y-92920995D01*
X193650465Y-93073880D01*
X193455880Y-93268465D01*
X193302995Y-93497273D01*
X193197686Y-93751510D01*
X193144000Y-94021408D01*
X193144000Y-94296592D01*
X193197686Y-94566490D01*
X193302995Y-94820727D01*
X193455880Y-95049535D01*
X193650465Y-95244120D01*
X193879273Y-95397005D01*
X193956515Y-95429000D01*
X193879273Y-95460995D01*
X193650465Y-95613880D01*
X193455880Y-95808465D01*
X193302995Y-96037273D01*
X193197686Y-96291510D01*
X193144000Y-96561408D01*
X193144000Y-96836592D01*
X193197686Y-97106490D01*
X193302995Y-97360727D01*
X193455880Y-97589535D01*
X193650465Y-97784120D01*
X193879273Y-97937005D01*
X193956515Y-97969000D01*
X193879273Y-98000995D01*
X193650465Y-98153880D01*
X193455880Y-98348465D01*
X193302995Y-98577273D01*
X193197686Y-98831510D01*
X193144000Y-99101408D01*
X193144000Y-99376592D01*
X193197686Y-99646490D01*
X193302995Y-99900727D01*
X193455880Y-100129535D01*
X193650465Y-100324120D01*
X193879273Y-100477005D01*
X193956515Y-100509000D01*
X193879273Y-100540995D01*
X193650465Y-100693880D01*
X193455880Y-100888465D01*
X193302995Y-101117273D01*
X193197686Y-101371510D01*
X193144000Y-101641408D01*
X193144000Y-101916592D01*
X193197686Y-102186490D01*
X193302995Y-102440727D01*
X193455880Y-102669535D01*
X193650465Y-102864120D01*
X193879273Y-103017005D01*
X194133510Y-103122314D01*
X194403408Y-103176000D01*
X194678592Y-103176000D01*
X194948490Y-103122314D01*
X195202727Y-103017005D01*
X195431535Y-102864120D01*
X195626120Y-102669535D01*
X195779005Y-102440727D01*
X195884314Y-102186490D01*
X195938000Y-101916592D01*
X195938000Y-101641408D01*
X195884314Y-101371510D01*
X195779005Y-101117273D01*
X195626120Y-100888465D01*
X195431535Y-100693880D01*
X195202727Y-100540995D01*
X195125485Y-100509000D01*
X195202727Y-100477005D01*
X195431535Y-100324120D01*
X195626120Y-100129535D01*
X195779005Y-99900727D01*
X195884314Y-99646490D01*
X195938000Y-99376592D01*
X195938000Y-99101408D01*
X195884314Y-98831510D01*
X195779005Y-98577273D01*
X195626120Y-98348465D01*
X195431535Y-98153880D01*
X195202727Y-98000995D01*
X195125485Y-97969000D01*
X195202727Y-97937005D01*
X195431535Y-97784120D01*
X195626120Y-97589535D01*
X195779005Y-97360727D01*
X195884314Y-97106490D01*
X195938000Y-96836592D01*
X195938000Y-96561408D01*
X195884314Y-96291510D01*
X195779005Y-96037273D01*
X195626120Y-95808465D01*
X195431535Y-95613880D01*
X195202727Y-95460995D01*
X195125485Y-95429000D01*
X195202727Y-95397005D01*
X195431535Y-95244120D01*
X195626120Y-95049535D01*
X195779005Y-94820727D01*
X195884314Y-94566490D01*
X195938000Y-94296592D01*
X195938000Y-94021408D01*
X195884314Y-93751510D01*
X195779005Y-93497273D01*
X195626120Y-93268465D01*
X195431535Y-93073880D01*
X195202727Y-92920995D01*
X195125485Y-92889000D01*
X195202727Y-92857005D01*
X195431535Y-92704120D01*
X195626120Y-92509535D01*
X195779005Y-92280727D01*
X195884314Y-92026490D01*
X195938000Y-91756592D01*
X195938000Y-91481408D01*
X195884314Y-91211510D01*
X195779005Y-90957273D01*
X195626120Y-90728465D01*
X195431535Y-90533880D01*
X195202727Y-90380995D01*
X195125485Y-90349000D01*
X195202727Y-90317005D01*
X195431535Y-90164120D01*
X195626120Y-89969535D01*
X195779005Y-89740727D01*
X195884314Y-89486490D01*
X195938000Y-89216592D01*
X195938000Y-88941408D01*
X195884314Y-88671510D01*
X195779005Y-88417273D01*
X195626120Y-88188465D01*
X195431535Y-87993880D01*
X195202727Y-87840995D01*
X195131057Y-87811308D01*
X195144023Y-87806636D01*
X195259980Y-87744656D01*
X195326960Y-87504565D01*
X194541000Y-86718605D01*
X193755040Y-87504565D01*
X193822020Y-87744656D01*
X193957760Y-87808485D01*
X193879273Y-87840995D01*
X193650465Y-87993880D01*
X193455880Y-88188465D01*
X193302995Y-88417273D01*
X193197686Y-88671510D01*
X193144000Y-88941408D01*
X192727000Y-88941408D01*
X192727000Y-88450119D01*
X192761484Y-88100000D01*
X192727000Y-87749878D01*
X192623878Y-86702864D01*
X192596017Y-86611017D01*
X193139090Y-86611017D01*
X193180078Y-86883133D01*
X193273364Y-87142023D01*
X193335344Y-87257980D01*
X193575435Y-87324960D01*
X194361395Y-86539000D01*
X194720605Y-86539000D01*
X195506565Y-87324960D01*
X195746656Y-87257980D01*
X195863756Y-87008952D01*
X195930023Y-86741865D01*
X195942910Y-86466983D01*
X195901922Y-86194867D01*
X195808636Y-85935977D01*
X195746656Y-85820020D01*
X195506565Y-85753040D01*
X194720605Y-86539000D01*
X194361395Y-86539000D01*
X193575435Y-85753040D01*
X193335344Y-85820020D01*
X193218244Y-86069048D01*
X193151977Y-86336135D01*
X193139090Y-86611017D01*
X192596017Y-86611017D01*
X192216348Y-85359419D01*
X192093612Y-85129796D01*
X191554556Y-84121292D01*
X191341275Y-83861408D01*
X193144000Y-83861408D01*
X193144000Y-84136592D01*
X193197686Y-84406490D01*
X193302995Y-84660727D01*
X193455880Y-84889535D01*
X193650465Y-85084120D01*
X193879273Y-85237005D01*
X193950943Y-85266692D01*
X193937977Y-85271364D01*
X193822020Y-85333344D01*
X193755040Y-85573435D01*
X194541000Y-86359395D01*
X195326960Y-85573435D01*
X195259980Y-85333344D01*
X195124240Y-85269515D01*
X195202727Y-85237005D01*
X195431535Y-85084120D01*
X195626120Y-84889535D01*
X195779005Y-84660727D01*
X195884314Y-84406490D01*
X195938000Y-84136592D01*
X195938000Y-83861408D01*
X195884314Y-83591510D01*
X195779005Y-83337273D01*
X195626120Y-83108465D01*
X195431535Y-82913880D01*
X195202727Y-82760995D01*
X194948490Y-82655686D01*
X194678592Y-82602000D01*
X194403408Y-82602000D01*
X194133510Y-82655686D01*
X193879273Y-82760995D01*
X193650465Y-82913880D01*
X193455880Y-83108465D01*
X193302995Y-83337273D01*
X193197686Y-83591510D01*
X193144000Y-83861408D01*
X191341275Y-83861408D01*
X190977271Y-83417868D01*
X190663934Y-83036066D01*
X190391976Y-82812876D01*
X186595222Y-79016122D01*
X186250554Y-78371294D01*
X185619678Y-77602569D01*
X186113028Y-77109218D01*
X186193169Y-77512112D01*
X186428889Y-78081190D01*
X186771101Y-78593346D01*
X187206654Y-79028899D01*
X187718810Y-79371111D01*
X188287888Y-79606831D01*
X188892017Y-79727000D01*
X189507983Y-79727000D01*
X190112112Y-79606831D01*
X190681190Y-79371111D01*
X191193346Y-79028899D01*
X191628899Y-78593346D01*
X191971111Y-78081190D01*
X192206831Y-77512112D01*
X192327000Y-76907983D01*
X192327000Y-76751179D01*
X193091309Y-77470749D01*
X194310979Y-78828807D01*
X195412730Y-80284160D01*
X196388837Y-81826600D01*
X197232454Y-83445311D01*
X197937664Y-85128942D01*
X198499515Y-86865672D01*
X198914070Y-88643328D01*
X199178488Y-90449890D01*
X199243926Y-91490000D01*
X199034877Y-91490000D01*
X199000000Y-91486565D01*
X198965123Y-91490000D01*
X198860816Y-91500273D01*
X198726980Y-91540872D01*
X198603637Y-91606800D01*
X198495525Y-91695525D01*
X198406800Y-91803637D01*
X198340872Y-91926980D01*
X198300273Y-92060816D01*
X198286565Y-92200000D01*
X198290001Y-92234887D01*
X198290000Y-93165122D01*
X198286565Y-93200000D01*
X198300273Y-93339184D01*
X198340872Y-93473020D01*
X198406800Y-93596363D01*
X198495525Y-93704475D01*
X198578002Y-93772162D01*
X198603637Y-93793200D01*
X198726980Y-93859128D01*
X198860816Y-93899727D01*
X199000000Y-93913435D01*
X199034877Y-93910000D01*
X199242959Y-93910000D01*
X199172613Y-95005819D01*
X198903658Y-96811251D01*
X198484573Y-98587842D01*
X197918296Y-100323134D01*
X197208797Y-102004960D01*
X196361054Y-103621520D01*
X195381014Y-105161475D01*
X194275565Y-106614000D01*
X193052430Y-107968953D01*
X191720214Y-109216795D01*
X190288261Y-110348779D01*
X188766584Y-111356984D01*
X187165904Y-112234311D01*
X185497416Y-112974622D01*
X183772837Y-113572721D01*
X182004233Y-114024420D01*
X180204060Y-114326536D01*
X178384915Y-114476959D01*
X176559576Y-114474632D01*
X174740811Y-114319571D01*
X172941411Y-114012865D01*
X171173987Y-113556668D01*
X169450928Y-112954170D01*
X167784328Y-112209606D01*
X166185884Y-111328199D01*
X164666800Y-110316128D01*
X163237724Y-109180489D01*
X161908691Y-107929251D01*
X160689021Y-106571193D01*
X159587270Y-105115840D01*
X158611160Y-103573395D01*
X157767546Y-101954689D01*
X157062335Y-100271054D01*
X156500485Y-98534328D01*
X156085930Y-96756672D01*
X156013760Y-96263589D01*
X162915000Y-96263589D01*
X162915000Y-96536411D01*
X162968225Y-96803989D01*
X163072629Y-97056043D01*
X163224201Y-97282886D01*
X163417114Y-97475799D01*
X163643957Y-97627371D01*
X163896011Y-97731775D01*
X164163589Y-97785000D01*
X164436411Y-97785000D01*
X164703989Y-97731775D01*
X164956043Y-97627371D01*
X165182886Y-97475799D01*
X165369685Y-97289000D01*
X165994265Y-97289000D01*
X174415000Y-105709736D01*
X174415000Y-105973911D01*
X174468225Y-106241489D01*
X174572629Y-106493543D01*
X174724201Y-106720386D01*
X174917114Y-106913299D01*
X175143957Y-107064871D01*
X175396011Y-107169275D01*
X175663589Y-107222500D01*
X175936411Y-107222500D01*
X176203989Y-107169275D01*
X176456043Y-107064871D01*
X176682886Y-106913299D01*
X176875799Y-106720386D01*
X177027371Y-106493543D01*
X177131775Y-106241489D01*
X177185000Y-105973911D01*
X177185000Y-105701089D01*
X177131775Y-105433511D01*
X177027371Y-105181457D01*
X176875799Y-104954614D01*
X176682886Y-104761701D01*
X176456043Y-104610129D01*
X176203989Y-104505725D01*
X175936411Y-104452500D01*
X175672236Y-104452500D01*
X167021999Y-95802264D01*
X166994159Y-95768341D01*
X166858791Y-95657247D01*
X166704351Y-95574697D01*
X166536774Y-95523864D01*
X166406167Y-95511000D01*
X166406160Y-95511000D01*
X166362500Y-95506700D01*
X166318840Y-95511000D01*
X165369685Y-95511000D01*
X165182886Y-95324201D01*
X164956043Y-95172629D01*
X164703989Y-95068225D01*
X164436411Y-95015000D01*
X164163589Y-95015000D01*
X163896011Y-95068225D01*
X163643957Y-95172629D01*
X163417114Y-95324201D01*
X163224201Y-95517114D01*
X163072629Y-95743957D01*
X162968225Y-95996011D01*
X162915000Y-96263589D01*
X156013760Y-96263589D01*
X155821512Y-94950110D01*
X155756074Y-93910000D01*
X155965123Y-93910000D01*
X156000000Y-93913435D01*
X156034877Y-93910000D01*
X156139184Y-93899727D01*
X156273020Y-93859128D01*
X156396363Y-93793200D01*
X156504475Y-93704475D01*
X156593200Y-93596363D01*
X156659128Y-93473020D01*
X156699727Y-93339184D01*
X156713435Y-93200000D01*
X156710000Y-93165123D01*
X156710000Y-92234877D01*
X156713435Y-92200000D01*
X156699727Y-92060816D01*
X156659128Y-91926980D01*
X156593200Y-91803637D01*
X156504475Y-91695525D01*
X156396363Y-91606800D01*
X156273020Y-91540872D01*
X156139184Y-91500273D01*
X156034877Y-91490000D01*
X156000000Y-91486565D01*
X155965123Y-91490000D01*
X155757041Y-91490000D01*
X155827387Y-90394182D01*
X156096342Y-88588749D01*
X156515427Y-86812158D01*
X157081704Y-85076865D01*
X157791198Y-83395049D01*
X158638941Y-81778488D01*
X159618986Y-80238525D01*
X160724441Y-78785993D01*
X161947570Y-77431047D01*
X162977522Y-76466325D01*
X164905254Y-79839855D01*
X164940857Y-79890056D01*
X164982564Y-79948871D01*
X164982580Y-79948886D01*
X164982592Y-79948903D01*
X165027793Y-79991730D01*
X165079605Y-80040827D01*
X165079625Y-80040840D01*
X165079638Y-80040852D01*
X165124880Y-80069403D01*
X165192658Y-80112182D01*
X165192682Y-80112191D01*
X165192696Y-80112200D01*
X165244232Y-80132040D01*
X165317418Y-80160219D01*
X165317441Y-80160223D01*
X165317459Y-80160230D01*
X165379900Y-80171077D01*
X165449133Y-80183109D01*
X165449155Y-80183108D01*
X165449175Y-80183112D01*
X165515532Y-80181554D01*
X165582785Y-80179979D01*
X165582805Y-80179974D01*
X165582826Y-80179974D01*
X165642570Y-80166680D01*
X165713283Y-80150950D01*
X165713305Y-80150940D01*
X165713324Y-80150936D01*
X165770054Y-80125980D01*
X165835658Y-80097125D01*
X165843963Y-80092380D01*
X173593963Y-75592381D01*
X173614155Y-75577849D01*
X173635967Y-75565910D01*
X173668280Y-75538897D01*
X173702473Y-75514289D01*
X173719455Y-75496116D01*
X173738536Y-75480164D01*
X173764991Y-75447384D01*
X173793748Y-75416609D01*
X173806874Y-75395488D01*
X173822497Y-75376129D01*
X173842085Y-75338827D01*
X173864312Y-75303060D01*
X173873084Y-75279794D01*
X173884651Y-75257767D01*
X173896621Y-75217370D01*
X173911477Y-75177968D01*
X173915563Y-75153441D01*
X173922631Y-75129588D01*
X173926526Y-75087639D01*
X173933447Y-75046097D01*
X173932691Y-75021240D01*
X173934991Y-74996471D01*
X173930664Y-74954564D01*
X173929384Y-74912470D01*
X173923815Y-74888236D01*
X173921260Y-74863489D01*
X173908875Y-74823220D01*
X173899444Y-74782177D01*
X173889273Y-74759484D01*
X173881961Y-74735708D01*
X173861994Y-74698619D01*
X173844767Y-74660181D01*
X173830378Y-74639889D01*
X173818590Y-74617993D01*
X173813202Y-74610091D01*
X171787554Y-71684155D01*
X172995749Y-71375584D01*
X174795940Y-71073464D01*
X175505176Y-71014818D01*
X175259074Y-71260920D01*
M02*
