G04 #@! TF.GenerationSoftware,KiCad,Pcbnew,(5.1.4-0-10_14)*
G04 #@! TF.CreationDate,2021-06-10T11:06:10+03:00*
G04 #@! TF.ProjectId,smart-plug,736d6172-742d-4706-9c75-672e6b696361,rev?*
G04 #@! TF.SameCoordinates,Original*
G04 #@! TF.FileFunction,Soldermask,Top*
G04 #@! TF.FilePolarity,Negative*
%FSLAX46Y46*%
G04 Gerber Fmt 4.6, Leading zero omitted, Abs format (unit mm)*
G04 Created by KiCad (PCBNEW (5.1.4-0-10_14)) date 2021-06-10 11:06:10*
%MOMM*%
%LPD*%
G04 APERTURE LIST*
%ADD10R,3.450000X1.920000*%
%ADD11C,0.100000*%
%ADD12C,1.825000*%
%ADD13R,2.350000X3.550000*%
%ADD14C,1.924000*%
%ADD15R,1.850000X1.400000*%
%ADD16C,2.475000*%
%ADD17R,1.600000X2.600000*%
%ADD18R,6.200000X6.800000*%
%ADD19C,2.690000*%
%ADD20C,1.000000*%
%ADD21R,1.400000X1.600000*%
%ADD22R,1.050000X1.460000*%
%ADD23C,4.400000*%
%ADD24R,1.500000X5.000000*%
%ADD25R,11.200000X9.800000*%
G04 APERTURE END LIST*
D10*
X179800000Y-110145000D03*
X179800000Y-107855000D03*
D11*
G36*
X185036207Y-104426542D02*
G01*
X185067287Y-104431152D01*
X185097766Y-104438787D01*
X185127350Y-104449372D01*
X185155754Y-104462806D01*
X185182704Y-104478959D01*
X185207942Y-104497677D01*
X185231223Y-104518777D01*
X185252323Y-104542058D01*
X185271041Y-104567296D01*
X185287194Y-104594246D01*
X185300628Y-104622650D01*
X185311213Y-104652234D01*
X185318848Y-104682713D01*
X185323458Y-104713793D01*
X185325000Y-104745176D01*
X185325000Y-106254824D01*
X185323458Y-106286207D01*
X185318848Y-106317287D01*
X185311213Y-106347766D01*
X185300628Y-106377350D01*
X185287194Y-106405754D01*
X185271041Y-106432704D01*
X185252323Y-106457942D01*
X185231223Y-106481223D01*
X185207942Y-106502323D01*
X185182704Y-106521041D01*
X185155754Y-106537194D01*
X185127350Y-106550628D01*
X185097766Y-106561213D01*
X185067287Y-106568848D01*
X185036207Y-106573458D01*
X185004824Y-106575000D01*
X183820176Y-106575000D01*
X183788793Y-106573458D01*
X183757713Y-106568848D01*
X183727234Y-106561213D01*
X183697650Y-106550628D01*
X183669246Y-106537194D01*
X183642296Y-106521041D01*
X183617058Y-106502323D01*
X183593777Y-106481223D01*
X183572677Y-106457942D01*
X183553959Y-106432704D01*
X183537806Y-106405754D01*
X183524372Y-106377350D01*
X183513787Y-106347766D01*
X183506152Y-106317287D01*
X183501542Y-106286207D01*
X183500000Y-106254824D01*
X183500000Y-104745176D01*
X183501542Y-104713793D01*
X183506152Y-104682713D01*
X183513787Y-104652234D01*
X183524372Y-104622650D01*
X183537806Y-104594246D01*
X183553959Y-104567296D01*
X183572677Y-104542058D01*
X183593777Y-104518777D01*
X183617058Y-104497677D01*
X183642296Y-104478959D01*
X183669246Y-104462806D01*
X183697650Y-104449372D01*
X183727234Y-104438787D01*
X183757713Y-104431152D01*
X183788793Y-104426542D01*
X183820176Y-104425000D01*
X185004824Y-104425000D01*
X185036207Y-104426542D01*
X185036207Y-104426542D01*
G37*
D12*
X184412500Y-105500000D03*
D11*
G36*
X188011207Y-104426542D02*
G01*
X188042287Y-104431152D01*
X188072766Y-104438787D01*
X188102350Y-104449372D01*
X188130754Y-104462806D01*
X188157704Y-104478959D01*
X188182942Y-104497677D01*
X188206223Y-104518777D01*
X188227323Y-104542058D01*
X188246041Y-104567296D01*
X188262194Y-104594246D01*
X188275628Y-104622650D01*
X188286213Y-104652234D01*
X188293848Y-104682713D01*
X188298458Y-104713793D01*
X188300000Y-104745176D01*
X188300000Y-106254824D01*
X188298458Y-106286207D01*
X188293848Y-106317287D01*
X188286213Y-106347766D01*
X188275628Y-106377350D01*
X188262194Y-106405754D01*
X188246041Y-106432704D01*
X188227323Y-106457942D01*
X188206223Y-106481223D01*
X188182942Y-106502323D01*
X188157704Y-106521041D01*
X188130754Y-106537194D01*
X188102350Y-106550628D01*
X188072766Y-106561213D01*
X188042287Y-106568848D01*
X188011207Y-106573458D01*
X187979824Y-106575000D01*
X186795176Y-106575000D01*
X186763793Y-106573458D01*
X186732713Y-106568848D01*
X186702234Y-106561213D01*
X186672650Y-106550628D01*
X186644246Y-106537194D01*
X186617296Y-106521041D01*
X186592058Y-106502323D01*
X186568777Y-106481223D01*
X186547677Y-106457942D01*
X186528959Y-106432704D01*
X186512806Y-106405754D01*
X186499372Y-106377350D01*
X186488787Y-106347766D01*
X186481152Y-106317287D01*
X186476542Y-106286207D01*
X186475000Y-106254824D01*
X186475000Y-104745176D01*
X186476542Y-104713793D01*
X186481152Y-104682713D01*
X186488787Y-104652234D01*
X186499372Y-104622650D01*
X186512806Y-104594246D01*
X186528959Y-104567296D01*
X186547677Y-104542058D01*
X186568777Y-104518777D01*
X186592058Y-104497677D01*
X186617296Y-104478959D01*
X186644246Y-104462806D01*
X186672650Y-104449372D01*
X186702234Y-104438787D01*
X186732713Y-104431152D01*
X186763793Y-104426542D01*
X186795176Y-104425000D01*
X187979824Y-104425000D01*
X188011207Y-104426542D01*
X188011207Y-104426542D01*
G37*
D12*
X187387500Y-105500000D03*
D13*
X173700000Y-80500000D03*
X168800000Y-80500000D03*
D14*
X194541000Y-91619000D03*
X194541000Y-96699000D03*
X194541000Y-83999000D03*
X194541000Y-89079000D03*
X194541000Y-94159000D03*
X194541000Y-86539000D03*
X194541000Y-101779000D03*
X194541000Y-99239000D03*
D15*
X177025000Y-78750000D03*
X182475000Y-78750000D03*
X177025000Y-82750000D03*
X182475000Y-82750000D03*
D11*
G36*
X163861207Y-98926542D02*
G01*
X163892287Y-98931152D01*
X163922766Y-98938787D01*
X163952350Y-98949372D01*
X163980754Y-98962806D01*
X164007704Y-98978959D01*
X164032942Y-98997677D01*
X164056223Y-99018777D01*
X164077323Y-99042058D01*
X164096041Y-99067296D01*
X164112194Y-99094246D01*
X164125628Y-99122650D01*
X164136213Y-99152234D01*
X164143848Y-99182713D01*
X164148458Y-99213793D01*
X164150000Y-99245176D01*
X164150000Y-100754824D01*
X164148458Y-100786207D01*
X164143848Y-100817287D01*
X164136213Y-100847766D01*
X164125628Y-100877350D01*
X164112194Y-100905754D01*
X164096041Y-100932704D01*
X164077323Y-100957942D01*
X164056223Y-100981223D01*
X164032942Y-101002323D01*
X164007704Y-101021041D01*
X163980754Y-101037194D01*
X163952350Y-101050628D01*
X163922766Y-101061213D01*
X163892287Y-101068848D01*
X163861207Y-101073458D01*
X163829824Y-101075000D01*
X162645176Y-101075000D01*
X162613793Y-101073458D01*
X162582713Y-101068848D01*
X162552234Y-101061213D01*
X162522650Y-101050628D01*
X162494246Y-101037194D01*
X162467296Y-101021041D01*
X162442058Y-101002323D01*
X162418777Y-100981223D01*
X162397677Y-100957942D01*
X162378959Y-100932704D01*
X162362806Y-100905754D01*
X162349372Y-100877350D01*
X162338787Y-100847766D01*
X162331152Y-100817287D01*
X162326542Y-100786207D01*
X162325000Y-100754824D01*
X162325000Y-99245176D01*
X162326542Y-99213793D01*
X162331152Y-99182713D01*
X162338787Y-99152234D01*
X162349372Y-99122650D01*
X162362806Y-99094246D01*
X162378959Y-99067296D01*
X162397677Y-99042058D01*
X162418777Y-99018777D01*
X162442058Y-98997677D01*
X162467296Y-98978959D01*
X162494246Y-98962806D01*
X162522650Y-98949372D01*
X162552234Y-98938787D01*
X162582713Y-98931152D01*
X162613793Y-98926542D01*
X162645176Y-98925000D01*
X163829824Y-98925000D01*
X163861207Y-98926542D01*
X163861207Y-98926542D01*
G37*
D12*
X163237500Y-100000000D03*
D11*
G36*
X160886207Y-98926542D02*
G01*
X160917287Y-98931152D01*
X160947766Y-98938787D01*
X160977350Y-98949372D01*
X161005754Y-98962806D01*
X161032704Y-98978959D01*
X161057942Y-98997677D01*
X161081223Y-99018777D01*
X161102323Y-99042058D01*
X161121041Y-99067296D01*
X161137194Y-99094246D01*
X161150628Y-99122650D01*
X161161213Y-99152234D01*
X161168848Y-99182713D01*
X161173458Y-99213793D01*
X161175000Y-99245176D01*
X161175000Y-100754824D01*
X161173458Y-100786207D01*
X161168848Y-100817287D01*
X161161213Y-100847766D01*
X161150628Y-100877350D01*
X161137194Y-100905754D01*
X161121041Y-100932704D01*
X161102323Y-100957942D01*
X161081223Y-100981223D01*
X161057942Y-101002323D01*
X161032704Y-101021041D01*
X161005754Y-101037194D01*
X160977350Y-101050628D01*
X160947766Y-101061213D01*
X160917287Y-101068848D01*
X160886207Y-101073458D01*
X160854824Y-101075000D01*
X159670176Y-101075000D01*
X159638793Y-101073458D01*
X159607713Y-101068848D01*
X159577234Y-101061213D01*
X159547650Y-101050628D01*
X159519246Y-101037194D01*
X159492296Y-101021041D01*
X159467058Y-101002323D01*
X159443777Y-100981223D01*
X159422677Y-100957942D01*
X159403959Y-100932704D01*
X159387806Y-100905754D01*
X159374372Y-100877350D01*
X159363787Y-100847766D01*
X159356152Y-100817287D01*
X159351542Y-100786207D01*
X159350000Y-100754824D01*
X159350000Y-99245176D01*
X159351542Y-99213793D01*
X159356152Y-99182713D01*
X159363787Y-99152234D01*
X159374372Y-99122650D01*
X159387806Y-99094246D01*
X159403959Y-99067296D01*
X159422677Y-99042058D01*
X159443777Y-99018777D01*
X159467058Y-98997677D01*
X159492296Y-98978959D01*
X159519246Y-98962806D01*
X159547650Y-98949372D01*
X159577234Y-98938787D01*
X159607713Y-98931152D01*
X159638793Y-98926542D01*
X159670176Y-98925000D01*
X160854824Y-98925000D01*
X160886207Y-98926542D01*
X160886207Y-98926542D01*
G37*
D12*
X160262500Y-100000000D03*
D11*
G36*
X169636207Y-108526542D02*
G01*
X169667287Y-108531152D01*
X169697766Y-108538787D01*
X169727350Y-108549372D01*
X169755754Y-108562806D01*
X169782704Y-108578959D01*
X169807942Y-108597677D01*
X169831223Y-108618777D01*
X169852323Y-108642058D01*
X169871041Y-108667296D01*
X169887194Y-108694246D01*
X169900628Y-108722650D01*
X169911213Y-108752234D01*
X169918848Y-108782713D01*
X169923458Y-108813793D01*
X169925000Y-108845176D01*
X169925000Y-110354824D01*
X169923458Y-110386207D01*
X169918848Y-110417287D01*
X169911213Y-110447766D01*
X169900628Y-110477350D01*
X169887194Y-110505754D01*
X169871041Y-110532704D01*
X169852323Y-110557942D01*
X169831223Y-110581223D01*
X169807942Y-110602323D01*
X169782704Y-110621041D01*
X169755754Y-110637194D01*
X169727350Y-110650628D01*
X169697766Y-110661213D01*
X169667287Y-110668848D01*
X169636207Y-110673458D01*
X169604824Y-110675000D01*
X168420176Y-110675000D01*
X168388793Y-110673458D01*
X168357713Y-110668848D01*
X168327234Y-110661213D01*
X168297650Y-110650628D01*
X168269246Y-110637194D01*
X168242296Y-110621041D01*
X168217058Y-110602323D01*
X168193777Y-110581223D01*
X168172677Y-110557942D01*
X168153959Y-110532704D01*
X168137806Y-110505754D01*
X168124372Y-110477350D01*
X168113787Y-110447766D01*
X168106152Y-110417287D01*
X168101542Y-110386207D01*
X168100000Y-110354824D01*
X168100000Y-108845176D01*
X168101542Y-108813793D01*
X168106152Y-108782713D01*
X168113787Y-108752234D01*
X168124372Y-108722650D01*
X168137806Y-108694246D01*
X168153959Y-108667296D01*
X168172677Y-108642058D01*
X168193777Y-108618777D01*
X168217058Y-108597677D01*
X168242296Y-108578959D01*
X168269246Y-108562806D01*
X168297650Y-108549372D01*
X168327234Y-108538787D01*
X168357713Y-108531152D01*
X168388793Y-108526542D01*
X168420176Y-108525000D01*
X169604824Y-108525000D01*
X169636207Y-108526542D01*
X169636207Y-108526542D01*
G37*
D12*
X169012500Y-109600000D03*
D11*
G36*
X172611207Y-108526542D02*
G01*
X172642287Y-108531152D01*
X172672766Y-108538787D01*
X172702350Y-108549372D01*
X172730754Y-108562806D01*
X172757704Y-108578959D01*
X172782942Y-108597677D01*
X172806223Y-108618777D01*
X172827323Y-108642058D01*
X172846041Y-108667296D01*
X172862194Y-108694246D01*
X172875628Y-108722650D01*
X172886213Y-108752234D01*
X172893848Y-108782713D01*
X172898458Y-108813793D01*
X172900000Y-108845176D01*
X172900000Y-110354824D01*
X172898458Y-110386207D01*
X172893848Y-110417287D01*
X172886213Y-110447766D01*
X172875628Y-110477350D01*
X172862194Y-110505754D01*
X172846041Y-110532704D01*
X172827323Y-110557942D01*
X172806223Y-110581223D01*
X172782942Y-110602323D01*
X172757704Y-110621041D01*
X172730754Y-110637194D01*
X172702350Y-110650628D01*
X172672766Y-110661213D01*
X172642287Y-110668848D01*
X172611207Y-110673458D01*
X172579824Y-110675000D01*
X171395176Y-110675000D01*
X171363793Y-110673458D01*
X171332713Y-110668848D01*
X171302234Y-110661213D01*
X171272650Y-110650628D01*
X171244246Y-110637194D01*
X171217296Y-110621041D01*
X171192058Y-110602323D01*
X171168777Y-110581223D01*
X171147677Y-110557942D01*
X171128959Y-110532704D01*
X171112806Y-110505754D01*
X171099372Y-110477350D01*
X171088787Y-110447766D01*
X171081152Y-110417287D01*
X171076542Y-110386207D01*
X171075000Y-110354824D01*
X171075000Y-108845176D01*
X171076542Y-108813793D01*
X171081152Y-108782713D01*
X171088787Y-108752234D01*
X171099372Y-108722650D01*
X171112806Y-108694246D01*
X171128959Y-108667296D01*
X171147677Y-108642058D01*
X171168777Y-108618777D01*
X171192058Y-108597677D01*
X171217296Y-108578959D01*
X171244246Y-108562806D01*
X171272650Y-108549372D01*
X171302234Y-108538787D01*
X171332713Y-108531152D01*
X171363793Y-108526542D01*
X171395176Y-108525000D01*
X172579824Y-108525000D01*
X172611207Y-108526542D01*
X172611207Y-108526542D01*
G37*
D12*
X171987500Y-109600000D03*
D11*
G36*
X169736207Y-103026542D02*
G01*
X169767287Y-103031152D01*
X169797766Y-103038787D01*
X169827350Y-103049372D01*
X169855754Y-103062806D01*
X169882704Y-103078959D01*
X169907942Y-103097677D01*
X169931223Y-103118777D01*
X169952323Y-103142058D01*
X169971041Y-103167296D01*
X169987194Y-103194246D01*
X170000628Y-103222650D01*
X170011213Y-103252234D01*
X170018848Y-103282713D01*
X170023458Y-103313793D01*
X170025000Y-103345176D01*
X170025000Y-104854824D01*
X170023458Y-104886207D01*
X170018848Y-104917287D01*
X170011213Y-104947766D01*
X170000628Y-104977350D01*
X169987194Y-105005754D01*
X169971041Y-105032704D01*
X169952323Y-105057942D01*
X169931223Y-105081223D01*
X169907942Y-105102323D01*
X169882704Y-105121041D01*
X169855754Y-105137194D01*
X169827350Y-105150628D01*
X169797766Y-105161213D01*
X169767287Y-105168848D01*
X169736207Y-105173458D01*
X169704824Y-105175000D01*
X168520176Y-105175000D01*
X168488793Y-105173458D01*
X168457713Y-105168848D01*
X168427234Y-105161213D01*
X168397650Y-105150628D01*
X168369246Y-105137194D01*
X168342296Y-105121041D01*
X168317058Y-105102323D01*
X168293777Y-105081223D01*
X168272677Y-105057942D01*
X168253959Y-105032704D01*
X168237806Y-105005754D01*
X168224372Y-104977350D01*
X168213787Y-104947766D01*
X168206152Y-104917287D01*
X168201542Y-104886207D01*
X168200000Y-104854824D01*
X168200000Y-103345176D01*
X168201542Y-103313793D01*
X168206152Y-103282713D01*
X168213787Y-103252234D01*
X168224372Y-103222650D01*
X168237806Y-103194246D01*
X168253959Y-103167296D01*
X168272677Y-103142058D01*
X168293777Y-103118777D01*
X168317058Y-103097677D01*
X168342296Y-103078959D01*
X168369246Y-103062806D01*
X168397650Y-103049372D01*
X168427234Y-103038787D01*
X168457713Y-103031152D01*
X168488793Y-103026542D01*
X168520176Y-103025000D01*
X169704824Y-103025000D01*
X169736207Y-103026542D01*
X169736207Y-103026542D01*
G37*
D12*
X169112500Y-104100000D03*
D11*
G36*
X172711207Y-103026542D02*
G01*
X172742287Y-103031152D01*
X172772766Y-103038787D01*
X172802350Y-103049372D01*
X172830754Y-103062806D01*
X172857704Y-103078959D01*
X172882942Y-103097677D01*
X172906223Y-103118777D01*
X172927323Y-103142058D01*
X172946041Y-103167296D01*
X172962194Y-103194246D01*
X172975628Y-103222650D01*
X172986213Y-103252234D01*
X172993848Y-103282713D01*
X172998458Y-103313793D01*
X173000000Y-103345176D01*
X173000000Y-104854824D01*
X172998458Y-104886207D01*
X172993848Y-104917287D01*
X172986213Y-104947766D01*
X172975628Y-104977350D01*
X172962194Y-105005754D01*
X172946041Y-105032704D01*
X172927323Y-105057942D01*
X172906223Y-105081223D01*
X172882942Y-105102323D01*
X172857704Y-105121041D01*
X172830754Y-105137194D01*
X172802350Y-105150628D01*
X172772766Y-105161213D01*
X172742287Y-105168848D01*
X172711207Y-105173458D01*
X172679824Y-105175000D01*
X171495176Y-105175000D01*
X171463793Y-105173458D01*
X171432713Y-105168848D01*
X171402234Y-105161213D01*
X171372650Y-105150628D01*
X171344246Y-105137194D01*
X171317296Y-105121041D01*
X171292058Y-105102323D01*
X171268777Y-105081223D01*
X171247677Y-105057942D01*
X171228959Y-105032704D01*
X171212806Y-105005754D01*
X171199372Y-104977350D01*
X171188787Y-104947766D01*
X171181152Y-104917287D01*
X171176542Y-104886207D01*
X171175000Y-104854824D01*
X171175000Y-103345176D01*
X171176542Y-103313793D01*
X171181152Y-103282713D01*
X171188787Y-103252234D01*
X171199372Y-103222650D01*
X171212806Y-103194246D01*
X171228959Y-103167296D01*
X171247677Y-103142058D01*
X171268777Y-103118777D01*
X171292058Y-103097677D01*
X171317296Y-103078959D01*
X171344246Y-103062806D01*
X171372650Y-103049372D01*
X171402234Y-103038787D01*
X171432713Y-103031152D01*
X171463793Y-103026542D01*
X171495176Y-103025000D01*
X172679824Y-103025000D01*
X172711207Y-103026542D01*
X172711207Y-103026542D01*
G37*
D12*
X172087500Y-104100000D03*
D11*
G36*
X179736207Y-102326542D02*
G01*
X179767287Y-102331152D01*
X179797766Y-102338787D01*
X179827350Y-102349372D01*
X179855754Y-102362806D01*
X179882704Y-102378959D01*
X179907942Y-102397677D01*
X179931223Y-102418777D01*
X179952323Y-102442058D01*
X179971041Y-102467296D01*
X179987194Y-102494246D01*
X180000628Y-102522650D01*
X180011213Y-102552234D01*
X180018848Y-102582713D01*
X180023458Y-102613793D01*
X180025000Y-102645176D01*
X180025000Y-104154824D01*
X180023458Y-104186207D01*
X180018848Y-104217287D01*
X180011213Y-104247766D01*
X180000628Y-104277350D01*
X179987194Y-104305754D01*
X179971041Y-104332704D01*
X179952323Y-104357942D01*
X179931223Y-104381223D01*
X179907942Y-104402323D01*
X179882704Y-104421041D01*
X179855754Y-104437194D01*
X179827350Y-104450628D01*
X179797766Y-104461213D01*
X179767287Y-104468848D01*
X179736207Y-104473458D01*
X179704824Y-104475000D01*
X178520176Y-104475000D01*
X178488793Y-104473458D01*
X178457713Y-104468848D01*
X178427234Y-104461213D01*
X178397650Y-104450628D01*
X178369246Y-104437194D01*
X178342296Y-104421041D01*
X178317058Y-104402323D01*
X178293777Y-104381223D01*
X178272677Y-104357942D01*
X178253959Y-104332704D01*
X178237806Y-104305754D01*
X178224372Y-104277350D01*
X178213787Y-104247766D01*
X178206152Y-104217287D01*
X178201542Y-104186207D01*
X178200000Y-104154824D01*
X178200000Y-102645176D01*
X178201542Y-102613793D01*
X178206152Y-102582713D01*
X178213787Y-102552234D01*
X178224372Y-102522650D01*
X178237806Y-102494246D01*
X178253959Y-102467296D01*
X178272677Y-102442058D01*
X178293777Y-102418777D01*
X178317058Y-102397677D01*
X178342296Y-102378959D01*
X178369246Y-102362806D01*
X178397650Y-102349372D01*
X178427234Y-102338787D01*
X178457713Y-102331152D01*
X178488793Y-102326542D01*
X178520176Y-102325000D01*
X179704824Y-102325000D01*
X179736207Y-102326542D01*
X179736207Y-102326542D01*
G37*
D12*
X179112500Y-103400000D03*
D11*
G36*
X182711207Y-102326542D02*
G01*
X182742287Y-102331152D01*
X182772766Y-102338787D01*
X182802350Y-102349372D01*
X182830754Y-102362806D01*
X182857704Y-102378959D01*
X182882942Y-102397677D01*
X182906223Y-102418777D01*
X182927323Y-102442058D01*
X182946041Y-102467296D01*
X182962194Y-102494246D01*
X182975628Y-102522650D01*
X182986213Y-102552234D01*
X182993848Y-102582713D01*
X182998458Y-102613793D01*
X183000000Y-102645176D01*
X183000000Y-104154824D01*
X182998458Y-104186207D01*
X182993848Y-104217287D01*
X182986213Y-104247766D01*
X182975628Y-104277350D01*
X182962194Y-104305754D01*
X182946041Y-104332704D01*
X182927323Y-104357942D01*
X182906223Y-104381223D01*
X182882942Y-104402323D01*
X182857704Y-104421041D01*
X182830754Y-104437194D01*
X182802350Y-104450628D01*
X182772766Y-104461213D01*
X182742287Y-104468848D01*
X182711207Y-104473458D01*
X182679824Y-104475000D01*
X181495176Y-104475000D01*
X181463793Y-104473458D01*
X181432713Y-104468848D01*
X181402234Y-104461213D01*
X181372650Y-104450628D01*
X181344246Y-104437194D01*
X181317296Y-104421041D01*
X181292058Y-104402323D01*
X181268777Y-104381223D01*
X181247677Y-104357942D01*
X181228959Y-104332704D01*
X181212806Y-104305754D01*
X181199372Y-104277350D01*
X181188787Y-104247766D01*
X181181152Y-104217287D01*
X181176542Y-104186207D01*
X181175000Y-104154824D01*
X181175000Y-102645176D01*
X181176542Y-102613793D01*
X181181152Y-102582713D01*
X181188787Y-102552234D01*
X181199372Y-102522650D01*
X181212806Y-102494246D01*
X181228959Y-102467296D01*
X181247677Y-102442058D01*
X181268777Y-102418777D01*
X181292058Y-102397677D01*
X181317296Y-102378959D01*
X181344246Y-102362806D01*
X181372650Y-102349372D01*
X181402234Y-102338787D01*
X181432713Y-102331152D01*
X181463793Y-102326542D01*
X181495176Y-102325000D01*
X182679824Y-102325000D01*
X182711207Y-102326542D01*
X182711207Y-102326542D01*
G37*
D12*
X182087500Y-103400000D03*
D11*
G36*
X172111207Y-105726542D02*
G01*
X172142287Y-105731152D01*
X172172766Y-105738787D01*
X172202350Y-105749372D01*
X172230754Y-105762806D01*
X172257704Y-105778959D01*
X172282942Y-105797677D01*
X172306223Y-105818777D01*
X172327323Y-105842058D01*
X172346041Y-105867296D01*
X172362194Y-105894246D01*
X172375628Y-105922650D01*
X172386213Y-105952234D01*
X172393848Y-105982713D01*
X172398458Y-106013793D01*
X172400000Y-106045176D01*
X172400000Y-107554824D01*
X172398458Y-107586207D01*
X172393848Y-107617287D01*
X172386213Y-107647766D01*
X172375628Y-107677350D01*
X172362194Y-107705754D01*
X172346041Y-107732704D01*
X172327323Y-107757942D01*
X172306223Y-107781223D01*
X172282942Y-107802323D01*
X172257704Y-107821041D01*
X172230754Y-107837194D01*
X172202350Y-107850628D01*
X172172766Y-107861213D01*
X172142287Y-107868848D01*
X172111207Y-107873458D01*
X172079824Y-107875000D01*
X170895176Y-107875000D01*
X170863793Y-107873458D01*
X170832713Y-107868848D01*
X170802234Y-107861213D01*
X170772650Y-107850628D01*
X170744246Y-107837194D01*
X170717296Y-107821041D01*
X170692058Y-107802323D01*
X170668777Y-107781223D01*
X170647677Y-107757942D01*
X170628959Y-107732704D01*
X170612806Y-107705754D01*
X170599372Y-107677350D01*
X170588787Y-107647766D01*
X170581152Y-107617287D01*
X170576542Y-107586207D01*
X170575000Y-107554824D01*
X170575000Y-106045176D01*
X170576542Y-106013793D01*
X170581152Y-105982713D01*
X170588787Y-105952234D01*
X170599372Y-105922650D01*
X170612806Y-105894246D01*
X170628959Y-105867296D01*
X170647677Y-105842058D01*
X170668777Y-105818777D01*
X170692058Y-105797677D01*
X170717296Y-105778959D01*
X170744246Y-105762806D01*
X170772650Y-105749372D01*
X170802234Y-105738787D01*
X170832713Y-105731152D01*
X170863793Y-105726542D01*
X170895176Y-105725000D01*
X172079824Y-105725000D01*
X172111207Y-105726542D01*
X172111207Y-105726542D01*
G37*
D12*
X171487500Y-106800000D03*
D11*
G36*
X169136207Y-105726542D02*
G01*
X169167287Y-105731152D01*
X169197766Y-105738787D01*
X169227350Y-105749372D01*
X169255754Y-105762806D01*
X169282704Y-105778959D01*
X169307942Y-105797677D01*
X169331223Y-105818777D01*
X169352323Y-105842058D01*
X169371041Y-105867296D01*
X169387194Y-105894246D01*
X169400628Y-105922650D01*
X169411213Y-105952234D01*
X169418848Y-105982713D01*
X169423458Y-106013793D01*
X169425000Y-106045176D01*
X169425000Y-107554824D01*
X169423458Y-107586207D01*
X169418848Y-107617287D01*
X169411213Y-107647766D01*
X169400628Y-107677350D01*
X169387194Y-107705754D01*
X169371041Y-107732704D01*
X169352323Y-107757942D01*
X169331223Y-107781223D01*
X169307942Y-107802323D01*
X169282704Y-107821041D01*
X169255754Y-107837194D01*
X169227350Y-107850628D01*
X169197766Y-107861213D01*
X169167287Y-107868848D01*
X169136207Y-107873458D01*
X169104824Y-107875000D01*
X167920176Y-107875000D01*
X167888793Y-107873458D01*
X167857713Y-107868848D01*
X167827234Y-107861213D01*
X167797650Y-107850628D01*
X167769246Y-107837194D01*
X167742296Y-107821041D01*
X167717058Y-107802323D01*
X167693777Y-107781223D01*
X167672677Y-107757942D01*
X167653959Y-107732704D01*
X167637806Y-107705754D01*
X167624372Y-107677350D01*
X167613787Y-107647766D01*
X167606152Y-107617287D01*
X167601542Y-107586207D01*
X167600000Y-107554824D01*
X167600000Y-106045176D01*
X167601542Y-106013793D01*
X167606152Y-105982713D01*
X167613787Y-105952234D01*
X167624372Y-105922650D01*
X167637806Y-105894246D01*
X167653959Y-105867296D01*
X167672677Y-105842058D01*
X167693777Y-105818777D01*
X167717058Y-105797677D01*
X167742296Y-105778959D01*
X167769246Y-105762806D01*
X167797650Y-105749372D01*
X167827234Y-105738787D01*
X167857713Y-105731152D01*
X167888793Y-105726542D01*
X167920176Y-105725000D01*
X169104824Y-105725000D01*
X169136207Y-105726542D01*
X169136207Y-105726542D01*
G37*
D12*
X168512500Y-106800000D03*
D11*
G36*
X168956036Y-84626436D02*
G01*
X168984982Y-84630730D01*
X169013369Y-84637840D01*
X169040921Y-84647699D01*
X169067375Y-84660210D01*
X169092475Y-84675254D01*
X169115979Y-84692686D01*
X169137662Y-84712338D01*
X169157314Y-84734021D01*
X169174746Y-84757525D01*
X169189790Y-84782625D01*
X169202301Y-84809079D01*
X169212160Y-84836631D01*
X169219270Y-84865018D01*
X169223564Y-84893964D01*
X169225000Y-84923192D01*
X169225000Y-87276808D01*
X169223564Y-87306036D01*
X169219270Y-87334982D01*
X169212160Y-87363369D01*
X169202301Y-87390921D01*
X169189790Y-87417375D01*
X169174746Y-87442475D01*
X169157314Y-87465979D01*
X169137662Y-87487662D01*
X169115979Y-87507314D01*
X169092475Y-87524746D01*
X169067375Y-87539790D01*
X169040921Y-87552301D01*
X169013369Y-87562160D01*
X168984982Y-87569270D01*
X168956036Y-87573564D01*
X168926808Y-87575000D01*
X167048192Y-87575000D01*
X167018964Y-87573564D01*
X166990018Y-87569270D01*
X166961631Y-87562160D01*
X166934079Y-87552301D01*
X166907625Y-87539790D01*
X166882525Y-87524746D01*
X166859021Y-87507314D01*
X166837338Y-87487662D01*
X166817686Y-87465979D01*
X166800254Y-87442475D01*
X166785210Y-87417375D01*
X166772699Y-87390921D01*
X166762840Y-87363369D01*
X166755730Y-87334982D01*
X166751436Y-87306036D01*
X166750000Y-87276808D01*
X166750000Y-84923192D01*
X166751436Y-84893964D01*
X166755730Y-84865018D01*
X166762840Y-84836631D01*
X166772699Y-84809079D01*
X166785210Y-84782625D01*
X166800254Y-84757525D01*
X166817686Y-84734021D01*
X166837338Y-84712338D01*
X166859021Y-84692686D01*
X166882525Y-84675254D01*
X166907625Y-84660210D01*
X166934079Y-84647699D01*
X166961631Y-84637840D01*
X166990018Y-84630730D01*
X167018964Y-84626436D01*
X167048192Y-84625000D01*
X168926808Y-84625000D01*
X168956036Y-84626436D01*
X168956036Y-84626436D01*
G37*
D16*
X167987500Y-86100000D03*
D11*
G36*
X175181036Y-84626436D02*
G01*
X175209982Y-84630730D01*
X175238369Y-84637840D01*
X175265921Y-84647699D01*
X175292375Y-84660210D01*
X175317475Y-84675254D01*
X175340979Y-84692686D01*
X175362662Y-84712338D01*
X175382314Y-84734021D01*
X175399746Y-84757525D01*
X175414790Y-84782625D01*
X175427301Y-84809079D01*
X175437160Y-84836631D01*
X175444270Y-84865018D01*
X175448564Y-84893964D01*
X175450000Y-84923192D01*
X175450000Y-87276808D01*
X175448564Y-87306036D01*
X175444270Y-87334982D01*
X175437160Y-87363369D01*
X175427301Y-87390921D01*
X175414790Y-87417375D01*
X175399746Y-87442475D01*
X175382314Y-87465979D01*
X175362662Y-87487662D01*
X175340979Y-87507314D01*
X175317475Y-87524746D01*
X175292375Y-87539790D01*
X175265921Y-87552301D01*
X175238369Y-87562160D01*
X175209982Y-87569270D01*
X175181036Y-87573564D01*
X175151808Y-87575000D01*
X173273192Y-87575000D01*
X173243964Y-87573564D01*
X173215018Y-87569270D01*
X173186631Y-87562160D01*
X173159079Y-87552301D01*
X173132625Y-87539790D01*
X173107525Y-87524746D01*
X173084021Y-87507314D01*
X173062338Y-87487662D01*
X173042686Y-87465979D01*
X173025254Y-87442475D01*
X173010210Y-87417375D01*
X172997699Y-87390921D01*
X172987840Y-87363369D01*
X172980730Y-87334982D01*
X172976436Y-87306036D01*
X172975000Y-87276808D01*
X172975000Y-84923192D01*
X172976436Y-84893964D01*
X172980730Y-84865018D01*
X172987840Y-84836631D01*
X172997699Y-84809079D01*
X173010210Y-84782625D01*
X173025254Y-84757525D01*
X173042686Y-84734021D01*
X173062338Y-84712338D01*
X173084021Y-84692686D01*
X173107525Y-84675254D01*
X173132625Y-84660210D01*
X173159079Y-84647699D01*
X173186631Y-84637840D01*
X173215018Y-84630730D01*
X173243964Y-84626436D01*
X173273192Y-84625000D01*
X175151808Y-84625000D01*
X175181036Y-84626436D01*
X175181036Y-84626436D01*
G37*
D16*
X174212500Y-86100000D03*
D11*
G36*
X168236207Y-93426542D02*
G01*
X168267287Y-93431152D01*
X168297766Y-93438787D01*
X168327350Y-93449372D01*
X168355754Y-93462806D01*
X168382704Y-93478959D01*
X168407942Y-93497677D01*
X168431223Y-93518777D01*
X168452323Y-93542058D01*
X168471041Y-93567296D01*
X168487194Y-93594246D01*
X168500628Y-93622650D01*
X168511213Y-93652234D01*
X168518848Y-93682713D01*
X168523458Y-93713793D01*
X168525000Y-93745176D01*
X168525000Y-95254824D01*
X168523458Y-95286207D01*
X168518848Y-95317287D01*
X168511213Y-95347766D01*
X168500628Y-95377350D01*
X168487194Y-95405754D01*
X168471041Y-95432704D01*
X168452323Y-95457942D01*
X168431223Y-95481223D01*
X168407942Y-95502323D01*
X168382704Y-95521041D01*
X168355754Y-95537194D01*
X168327350Y-95550628D01*
X168297766Y-95561213D01*
X168267287Y-95568848D01*
X168236207Y-95573458D01*
X168204824Y-95575000D01*
X167020176Y-95575000D01*
X166988793Y-95573458D01*
X166957713Y-95568848D01*
X166927234Y-95561213D01*
X166897650Y-95550628D01*
X166869246Y-95537194D01*
X166842296Y-95521041D01*
X166817058Y-95502323D01*
X166793777Y-95481223D01*
X166772677Y-95457942D01*
X166753959Y-95432704D01*
X166737806Y-95405754D01*
X166724372Y-95377350D01*
X166713787Y-95347766D01*
X166706152Y-95317287D01*
X166701542Y-95286207D01*
X166700000Y-95254824D01*
X166700000Y-93745176D01*
X166701542Y-93713793D01*
X166706152Y-93682713D01*
X166713787Y-93652234D01*
X166724372Y-93622650D01*
X166737806Y-93594246D01*
X166753959Y-93567296D01*
X166772677Y-93542058D01*
X166793777Y-93518777D01*
X166817058Y-93497677D01*
X166842296Y-93478959D01*
X166869246Y-93462806D01*
X166897650Y-93449372D01*
X166927234Y-93438787D01*
X166957713Y-93431152D01*
X166988793Y-93426542D01*
X167020176Y-93425000D01*
X168204824Y-93425000D01*
X168236207Y-93426542D01*
X168236207Y-93426542D01*
G37*
D12*
X167612500Y-94500000D03*
D11*
G36*
X171211207Y-93426542D02*
G01*
X171242287Y-93431152D01*
X171272766Y-93438787D01*
X171302350Y-93449372D01*
X171330754Y-93462806D01*
X171357704Y-93478959D01*
X171382942Y-93497677D01*
X171406223Y-93518777D01*
X171427323Y-93542058D01*
X171446041Y-93567296D01*
X171462194Y-93594246D01*
X171475628Y-93622650D01*
X171486213Y-93652234D01*
X171493848Y-93682713D01*
X171498458Y-93713793D01*
X171500000Y-93745176D01*
X171500000Y-95254824D01*
X171498458Y-95286207D01*
X171493848Y-95317287D01*
X171486213Y-95347766D01*
X171475628Y-95377350D01*
X171462194Y-95405754D01*
X171446041Y-95432704D01*
X171427323Y-95457942D01*
X171406223Y-95481223D01*
X171382942Y-95502323D01*
X171357704Y-95521041D01*
X171330754Y-95537194D01*
X171302350Y-95550628D01*
X171272766Y-95561213D01*
X171242287Y-95568848D01*
X171211207Y-95573458D01*
X171179824Y-95575000D01*
X169995176Y-95575000D01*
X169963793Y-95573458D01*
X169932713Y-95568848D01*
X169902234Y-95561213D01*
X169872650Y-95550628D01*
X169844246Y-95537194D01*
X169817296Y-95521041D01*
X169792058Y-95502323D01*
X169768777Y-95481223D01*
X169747677Y-95457942D01*
X169728959Y-95432704D01*
X169712806Y-95405754D01*
X169699372Y-95377350D01*
X169688787Y-95347766D01*
X169681152Y-95317287D01*
X169676542Y-95286207D01*
X169675000Y-95254824D01*
X169675000Y-93745176D01*
X169676542Y-93713793D01*
X169681152Y-93682713D01*
X169688787Y-93652234D01*
X169699372Y-93622650D01*
X169712806Y-93594246D01*
X169728959Y-93567296D01*
X169747677Y-93542058D01*
X169768777Y-93518777D01*
X169792058Y-93497677D01*
X169817296Y-93478959D01*
X169844246Y-93462806D01*
X169872650Y-93449372D01*
X169902234Y-93438787D01*
X169932713Y-93431152D01*
X169963793Y-93426542D01*
X169995176Y-93425000D01*
X171179824Y-93425000D01*
X171211207Y-93426542D01*
X171211207Y-93426542D01*
G37*
D12*
X170587500Y-94500000D03*
D11*
G36*
X167786207Y-95851542D02*
G01*
X167817287Y-95856152D01*
X167847766Y-95863787D01*
X167877350Y-95874372D01*
X167905754Y-95887806D01*
X167932704Y-95903959D01*
X167957942Y-95922677D01*
X167981223Y-95943777D01*
X168002323Y-95967058D01*
X168021041Y-95992296D01*
X168037194Y-96019246D01*
X168050628Y-96047650D01*
X168061213Y-96077234D01*
X168068848Y-96107713D01*
X168073458Y-96138793D01*
X168075000Y-96170176D01*
X168075000Y-97354824D01*
X168073458Y-97386207D01*
X168068848Y-97417287D01*
X168061213Y-97447766D01*
X168050628Y-97477350D01*
X168037194Y-97505754D01*
X168021041Y-97532704D01*
X168002323Y-97557942D01*
X167981223Y-97581223D01*
X167957942Y-97602323D01*
X167932704Y-97621041D01*
X167905754Y-97637194D01*
X167877350Y-97650628D01*
X167847766Y-97661213D01*
X167817287Y-97668848D01*
X167786207Y-97673458D01*
X167754824Y-97675000D01*
X166245176Y-97675000D01*
X166213793Y-97673458D01*
X166182713Y-97668848D01*
X166152234Y-97661213D01*
X166122650Y-97650628D01*
X166094246Y-97637194D01*
X166067296Y-97621041D01*
X166042058Y-97602323D01*
X166018777Y-97581223D01*
X165997677Y-97557942D01*
X165978959Y-97532704D01*
X165962806Y-97505754D01*
X165949372Y-97477350D01*
X165938787Y-97447766D01*
X165931152Y-97417287D01*
X165926542Y-97386207D01*
X165925000Y-97354824D01*
X165925000Y-96170176D01*
X165926542Y-96138793D01*
X165931152Y-96107713D01*
X165938787Y-96077234D01*
X165949372Y-96047650D01*
X165962806Y-96019246D01*
X165978959Y-95992296D01*
X165997677Y-95967058D01*
X166018777Y-95943777D01*
X166042058Y-95922677D01*
X166067296Y-95903959D01*
X166094246Y-95887806D01*
X166122650Y-95874372D01*
X166152234Y-95863787D01*
X166182713Y-95856152D01*
X166213793Y-95851542D01*
X166245176Y-95850000D01*
X167754824Y-95850000D01*
X167786207Y-95851542D01*
X167786207Y-95851542D01*
G37*
D12*
X167000000Y-96762500D03*
D11*
G36*
X167786207Y-98826542D02*
G01*
X167817287Y-98831152D01*
X167847766Y-98838787D01*
X167877350Y-98849372D01*
X167905754Y-98862806D01*
X167932704Y-98878959D01*
X167957942Y-98897677D01*
X167981223Y-98918777D01*
X168002323Y-98942058D01*
X168021041Y-98967296D01*
X168037194Y-98994246D01*
X168050628Y-99022650D01*
X168061213Y-99052234D01*
X168068848Y-99082713D01*
X168073458Y-99113793D01*
X168075000Y-99145176D01*
X168075000Y-100329824D01*
X168073458Y-100361207D01*
X168068848Y-100392287D01*
X168061213Y-100422766D01*
X168050628Y-100452350D01*
X168037194Y-100480754D01*
X168021041Y-100507704D01*
X168002323Y-100532942D01*
X167981223Y-100556223D01*
X167957942Y-100577323D01*
X167932704Y-100596041D01*
X167905754Y-100612194D01*
X167877350Y-100625628D01*
X167847766Y-100636213D01*
X167817287Y-100643848D01*
X167786207Y-100648458D01*
X167754824Y-100650000D01*
X166245176Y-100650000D01*
X166213793Y-100648458D01*
X166182713Y-100643848D01*
X166152234Y-100636213D01*
X166122650Y-100625628D01*
X166094246Y-100612194D01*
X166067296Y-100596041D01*
X166042058Y-100577323D01*
X166018777Y-100556223D01*
X165997677Y-100532942D01*
X165978959Y-100507704D01*
X165962806Y-100480754D01*
X165949372Y-100452350D01*
X165938787Y-100422766D01*
X165931152Y-100392287D01*
X165926542Y-100361207D01*
X165925000Y-100329824D01*
X165925000Y-99145176D01*
X165926542Y-99113793D01*
X165931152Y-99082713D01*
X165938787Y-99052234D01*
X165949372Y-99022650D01*
X165962806Y-98994246D01*
X165978959Y-98967296D01*
X165997677Y-98942058D01*
X166018777Y-98918777D01*
X166042058Y-98897677D01*
X166067296Y-98878959D01*
X166094246Y-98862806D01*
X166122650Y-98849372D01*
X166152234Y-98838787D01*
X166182713Y-98831152D01*
X166213793Y-98826542D01*
X166245176Y-98825000D01*
X167754824Y-98825000D01*
X167786207Y-98826542D01*
X167786207Y-98826542D01*
G37*
D12*
X167000000Y-99737500D03*
D11*
G36*
X171211207Y-88626542D02*
G01*
X171242287Y-88631152D01*
X171272766Y-88638787D01*
X171302350Y-88649372D01*
X171330754Y-88662806D01*
X171357704Y-88678959D01*
X171382942Y-88697677D01*
X171406223Y-88718777D01*
X171427323Y-88742058D01*
X171446041Y-88767296D01*
X171462194Y-88794246D01*
X171475628Y-88822650D01*
X171486213Y-88852234D01*
X171493848Y-88882713D01*
X171498458Y-88913793D01*
X171500000Y-88945176D01*
X171500000Y-90454824D01*
X171498458Y-90486207D01*
X171493848Y-90517287D01*
X171486213Y-90547766D01*
X171475628Y-90577350D01*
X171462194Y-90605754D01*
X171446041Y-90632704D01*
X171427323Y-90657942D01*
X171406223Y-90681223D01*
X171382942Y-90702323D01*
X171357704Y-90721041D01*
X171330754Y-90737194D01*
X171302350Y-90750628D01*
X171272766Y-90761213D01*
X171242287Y-90768848D01*
X171211207Y-90773458D01*
X171179824Y-90775000D01*
X169995176Y-90775000D01*
X169963793Y-90773458D01*
X169932713Y-90768848D01*
X169902234Y-90761213D01*
X169872650Y-90750628D01*
X169844246Y-90737194D01*
X169817296Y-90721041D01*
X169792058Y-90702323D01*
X169768777Y-90681223D01*
X169747677Y-90657942D01*
X169728959Y-90632704D01*
X169712806Y-90605754D01*
X169699372Y-90577350D01*
X169688787Y-90547766D01*
X169681152Y-90517287D01*
X169676542Y-90486207D01*
X169675000Y-90454824D01*
X169675000Y-88945176D01*
X169676542Y-88913793D01*
X169681152Y-88882713D01*
X169688787Y-88852234D01*
X169699372Y-88822650D01*
X169712806Y-88794246D01*
X169728959Y-88767296D01*
X169747677Y-88742058D01*
X169768777Y-88718777D01*
X169792058Y-88697677D01*
X169817296Y-88678959D01*
X169844246Y-88662806D01*
X169872650Y-88649372D01*
X169902234Y-88638787D01*
X169932713Y-88631152D01*
X169963793Y-88626542D01*
X169995176Y-88625000D01*
X171179824Y-88625000D01*
X171211207Y-88626542D01*
X171211207Y-88626542D01*
G37*
D12*
X170587500Y-89700000D03*
D11*
G36*
X168236207Y-88626542D02*
G01*
X168267287Y-88631152D01*
X168297766Y-88638787D01*
X168327350Y-88649372D01*
X168355754Y-88662806D01*
X168382704Y-88678959D01*
X168407942Y-88697677D01*
X168431223Y-88718777D01*
X168452323Y-88742058D01*
X168471041Y-88767296D01*
X168487194Y-88794246D01*
X168500628Y-88822650D01*
X168511213Y-88852234D01*
X168518848Y-88882713D01*
X168523458Y-88913793D01*
X168525000Y-88945176D01*
X168525000Y-90454824D01*
X168523458Y-90486207D01*
X168518848Y-90517287D01*
X168511213Y-90547766D01*
X168500628Y-90577350D01*
X168487194Y-90605754D01*
X168471041Y-90632704D01*
X168452323Y-90657942D01*
X168431223Y-90681223D01*
X168407942Y-90702323D01*
X168382704Y-90721041D01*
X168355754Y-90737194D01*
X168327350Y-90750628D01*
X168297766Y-90761213D01*
X168267287Y-90768848D01*
X168236207Y-90773458D01*
X168204824Y-90775000D01*
X167020176Y-90775000D01*
X166988793Y-90773458D01*
X166957713Y-90768848D01*
X166927234Y-90761213D01*
X166897650Y-90750628D01*
X166869246Y-90737194D01*
X166842296Y-90721041D01*
X166817058Y-90702323D01*
X166793777Y-90681223D01*
X166772677Y-90657942D01*
X166753959Y-90632704D01*
X166737806Y-90605754D01*
X166724372Y-90577350D01*
X166713787Y-90547766D01*
X166706152Y-90517287D01*
X166701542Y-90486207D01*
X166700000Y-90454824D01*
X166700000Y-88945176D01*
X166701542Y-88913793D01*
X166706152Y-88882713D01*
X166713787Y-88852234D01*
X166724372Y-88822650D01*
X166737806Y-88794246D01*
X166753959Y-88767296D01*
X166772677Y-88742058D01*
X166793777Y-88718777D01*
X166817058Y-88697677D01*
X166842296Y-88678959D01*
X166869246Y-88662806D01*
X166897650Y-88649372D01*
X166927234Y-88638787D01*
X166957713Y-88631152D01*
X166988793Y-88626542D01*
X167020176Y-88625000D01*
X168204824Y-88625000D01*
X168236207Y-88626542D01*
X168236207Y-88626542D01*
G37*
D12*
X167612500Y-89700000D03*
D11*
G36*
X174536207Y-106826542D02*
G01*
X174567287Y-106831152D01*
X174597766Y-106838787D01*
X174627350Y-106849372D01*
X174655754Y-106862806D01*
X174682704Y-106878959D01*
X174707942Y-106897677D01*
X174731223Y-106918777D01*
X174752323Y-106942058D01*
X174771041Y-106967296D01*
X174787194Y-106994246D01*
X174800628Y-107022650D01*
X174811213Y-107052234D01*
X174818848Y-107082713D01*
X174823458Y-107113793D01*
X174825000Y-107145176D01*
X174825000Y-108654824D01*
X174823458Y-108686207D01*
X174818848Y-108717287D01*
X174811213Y-108747766D01*
X174800628Y-108777350D01*
X174787194Y-108805754D01*
X174771041Y-108832704D01*
X174752323Y-108857942D01*
X174731223Y-108881223D01*
X174707942Y-108902323D01*
X174682704Y-108921041D01*
X174655754Y-108937194D01*
X174627350Y-108950628D01*
X174597766Y-108961213D01*
X174567287Y-108968848D01*
X174536207Y-108973458D01*
X174504824Y-108975000D01*
X173320176Y-108975000D01*
X173288793Y-108973458D01*
X173257713Y-108968848D01*
X173227234Y-108961213D01*
X173197650Y-108950628D01*
X173169246Y-108937194D01*
X173142296Y-108921041D01*
X173117058Y-108902323D01*
X173093777Y-108881223D01*
X173072677Y-108857942D01*
X173053959Y-108832704D01*
X173037806Y-108805754D01*
X173024372Y-108777350D01*
X173013787Y-108747766D01*
X173006152Y-108717287D01*
X173001542Y-108686207D01*
X173000000Y-108654824D01*
X173000000Y-107145176D01*
X173001542Y-107113793D01*
X173006152Y-107082713D01*
X173013787Y-107052234D01*
X173024372Y-107022650D01*
X173037806Y-106994246D01*
X173053959Y-106967296D01*
X173072677Y-106942058D01*
X173093777Y-106918777D01*
X173117058Y-106897677D01*
X173142296Y-106878959D01*
X173169246Y-106862806D01*
X173197650Y-106849372D01*
X173227234Y-106838787D01*
X173257713Y-106831152D01*
X173288793Y-106826542D01*
X173320176Y-106825000D01*
X174504824Y-106825000D01*
X174536207Y-106826542D01*
X174536207Y-106826542D01*
G37*
D12*
X173912500Y-107900000D03*
D11*
G36*
X177511207Y-106826542D02*
G01*
X177542287Y-106831152D01*
X177572766Y-106838787D01*
X177602350Y-106849372D01*
X177630754Y-106862806D01*
X177657704Y-106878959D01*
X177682942Y-106897677D01*
X177706223Y-106918777D01*
X177727323Y-106942058D01*
X177746041Y-106967296D01*
X177762194Y-106994246D01*
X177775628Y-107022650D01*
X177786213Y-107052234D01*
X177793848Y-107082713D01*
X177798458Y-107113793D01*
X177800000Y-107145176D01*
X177800000Y-108654824D01*
X177798458Y-108686207D01*
X177793848Y-108717287D01*
X177786213Y-108747766D01*
X177775628Y-108777350D01*
X177762194Y-108805754D01*
X177746041Y-108832704D01*
X177727323Y-108857942D01*
X177706223Y-108881223D01*
X177682942Y-108902323D01*
X177657704Y-108921041D01*
X177630754Y-108937194D01*
X177602350Y-108950628D01*
X177572766Y-108961213D01*
X177542287Y-108968848D01*
X177511207Y-108973458D01*
X177479824Y-108975000D01*
X176295176Y-108975000D01*
X176263793Y-108973458D01*
X176232713Y-108968848D01*
X176202234Y-108961213D01*
X176172650Y-108950628D01*
X176144246Y-108937194D01*
X176117296Y-108921041D01*
X176092058Y-108902323D01*
X176068777Y-108881223D01*
X176047677Y-108857942D01*
X176028959Y-108832704D01*
X176012806Y-108805754D01*
X175999372Y-108777350D01*
X175988787Y-108747766D01*
X175981152Y-108717287D01*
X175976542Y-108686207D01*
X175975000Y-108654824D01*
X175975000Y-107145176D01*
X175976542Y-107113793D01*
X175981152Y-107082713D01*
X175988787Y-107052234D01*
X175999372Y-107022650D01*
X176012806Y-106994246D01*
X176028959Y-106967296D01*
X176047677Y-106942058D01*
X176068777Y-106918777D01*
X176092058Y-106897677D01*
X176117296Y-106878959D01*
X176144246Y-106862806D01*
X176172650Y-106849372D01*
X176202234Y-106838787D01*
X176232713Y-106831152D01*
X176263793Y-106826542D01*
X176295176Y-106825000D01*
X177479824Y-106825000D01*
X177511207Y-106826542D01*
X177511207Y-106826542D01*
G37*
D12*
X176887500Y-107900000D03*
D11*
G36*
X185036207Y-106826542D02*
G01*
X185067287Y-106831152D01*
X185097766Y-106838787D01*
X185127350Y-106849372D01*
X185155754Y-106862806D01*
X185182704Y-106878959D01*
X185207942Y-106897677D01*
X185231223Y-106918777D01*
X185252323Y-106942058D01*
X185271041Y-106967296D01*
X185287194Y-106994246D01*
X185300628Y-107022650D01*
X185311213Y-107052234D01*
X185318848Y-107082713D01*
X185323458Y-107113793D01*
X185325000Y-107145176D01*
X185325000Y-108654824D01*
X185323458Y-108686207D01*
X185318848Y-108717287D01*
X185311213Y-108747766D01*
X185300628Y-108777350D01*
X185287194Y-108805754D01*
X185271041Y-108832704D01*
X185252323Y-108857942D01*
X185231223Y-108881223D01*
X185207942Y-108902323D01*
X185182704Y-108921041D01*
X185155754Y-108937194D01*
X185127350Y-108950628D01*
X185097766Y-108961213D01*
X185067287Y-108968848D01*
X185036207Y-108973458D01*
X185004824Y-108975000D01*
X183820176Y-108975000D01*
X183788793Y-108973458D01*
X183757713Y-108968848D01*
X183727234Y-108961213D01*
X183697650Y-108950628D01*
X183669246Y-108937194D01*
X183642296Y-108921041D01*
X183617058Y-108902323D01*
X183593777Y-108881223D01*
X183572677Y-108857942D01*
X183553959Y-108832704D01*
X183537806Y-108805754D01*
X183524372Y-108777350D01*
X183513787Y-108747766D01*
X183506152Y-108717287D01*
X183501542Y-108686207D01*
X183500000Y-108654824D01*
X183500000Y-107145176D01*
X183501542Y-107113793D01*
X183506152Y-107082713D01*
X183513787Y-107052234D01*
X183524372Y-107022650D01*
X183537806Y-106994246D01*
X183553959Y-106967296D01*
X183572677Y-106942058D01*
X183593777Y-106918777D01*
X183617058Y-106897677D01*
X183642296Y-106878959D01*
X183669246Y-106862806D01*
X183697650Y-106849372D01*
X183727234Y-106838787D01*
X183757713Y-106831152D01*
X183788793Y-106826542D01*
X183820176Y-106825000D01*
X185004824Y-106825000D01*
X185036207Y-106826542D01*
X185036207Y-106826542D01*
G37*
D12*
X184412500Y-107900000D03*
D11*
G36*
X188011207Y-106826542D02*
G01*
X188042287Y-106831152D01*
X188072766Y-106838787D01*
X188102350Y-106849372D01*
X188130754Y-106862806D01*
X188157704Y-106878959D01*
X188182942Y-106897677D01*
X188206223Y-106918777D01*
X188227323Y-106942058D01*
X188246041Y-106967296D01*
X188262194Y-106994246D01*
X188275628Y-107022650D01*
X188286213Y-107052234D01*
X188293848Y-107082713D01*
X188298458Y-107113793D01*
X188300000Y-107145176D01*
X188300000Y-108654824D01*
X188298458Y-108686207D01*
X188293848Y-108717287D01*
X188286213Y-108747766D01*
X188275628Y-108777350D01*
X188262194Y-108805754D01*
X188246041Y-108832704D01*
X188227323Y-108857942D01*
X188206223Y-108881223D01*
X188182942Y-108902323D01*
X188157704Y-108921041D01*
X188130754Y-108937194D01*
X188102350Y-108950628D01*
X188072766Y-108961213D01*
X188042287Y-108968848D01*
X188011207Y-108973458D01*
X187979824Y-108975000D01*
X186795176Y-108975000D01*
X186763793Y-108973458D01*
X186732713Y-108968848D01*
X186702234Y-108961213D01*
X186672650Y-108950628D01*
X186644246Y-108937194D01*
X186617296Y-108921041D01*
X186592058Y-108902323D01*
X186568777Y-108881223D01*
X186547677Y-108857942D01*
X186528959Y-108832704D01*
X186512806Y-108805754D01*
X186499372Y-108777350D01*
X186488787Y-108747766D01*
X186481152Y-108717287D01*
X186476542Y-108686207D01*
X186475000Y-108654824D01*
X186475000Y-107145176D01*
X186476542Y-107113793D01*
X186481152Y-107082713D01*
X186488787Y-107052234D01*
X186499372Y-107022650D01*
X186512806Y-106994246D01*
X186528959Y-106967296D01*
X186547677Y-106942058D01*
X186568777Y-106918777D01*
X186592058Y-106897677D01*
X186617296Y-106878959D01*
X186644246Y-106862806D01*
X186672650Y-106849372D01*
X186702234Y-106838787D01*
X186732713Y-106831152D01*
X186763793Y-106826542D01*
X186795176Y-106825000D01*
X187979824Y-106825000D01*
X188011207Y-106826542D01*
X188011207Y-106826542D01*
G37*
D12*
X187387500Y-107900000D03*
D17*
X160720000Y-94050000D03*
X165280000Y-94050000D03*
D18*
X163000000Y-87750000D03*
D11*
G36*
X163886207Y-101426542D02*
G01*
X163917287Y-101431152D01*
X163947766Y-101438787D01*
X163977350Y-101449372D01*
X164005754Y-101462806D01*
X164032704Y-101478959D01*
X164057942Y-101497677D01*
X164081223Y-101518777D01*
X164102323Y-101542058D01*
X164121041Y-101567296D01*
X164137194Y-101594246D01*
X164150628Y-101622650D01*
X164161213Y-101652234D01*
X164168848Y-101682713D01*
X164173458Y-101713793D01*
X164175000Y-101745176D01*
X164175000Y-103254824D01*
X164173458Y-103286207D01*
X164168848Y-103317287D01*
X164161213Y-103347766D01*
X164150628Y-103377350D01*
X164137194Y-103405754D01*
X164121041Y-103432704D01*
X164102323Y-103457942D01*
X164081223Y-103481223D01*
X164057942Y-103502323D01*
X164032704Y-103521041D01*
X164005754Y-103537194D01*
X163977350Y-103550628D01*
X163947766Y-103561213D01*
X163917287Y-103568848D01*
X163886207Y-103573458D01*
X163854824Y-103575000D01*
X162670176Y-103575000D01*
X162638793Y-103573458D01*
X162607713Y-103568848D01*
X162577234Y-103561213D01*
X162547650Y-103550628D01*
X162519246Y-103537194D01*
X162492296Y-103521041D01*
X162467058Y-103502323D01*
X162443777Y-103481223D01*
X162422677Y-103457942D01*
X162403959Y-103432704D01*
X162387806Y-103405754D01*
X162374372Y-103377350D01*
X162363787Y-103347766D01*
X162356152Y-103317287D01*
X162351542Y-103286207D01*
X162350000Y-103254824D01*
X162350000Y-101745176D01*
X162351542Y-101713793D01*
X162356152Y-101682713D01*
X162363787Y-101652234D01*
X162374372Y-101622650D01*
X162387806Y-101594246D01*
X162403959Y-101567296D01*
X162422677Y-101542058D01*
X162443777Y-101518777D01*
X162467058Y-101497677D01*
X162492296Y-101478959D01*
X162519246Y-101462806D01*
X162547650Y-101449372D01*
X162577234Y-101438787D01*
X162607713Y-101431152D01*
X162638793Y-101426542D01*
X162670176Y-101425000D01*
X163854824Y-101425000D01*
X163886207Y-101426542D01*
X163886207Y-101426542D01*
G37*
D12*
X163262500Y-102500000D03*
D11*
G36*
X166861207Y-101426542D02*
G01*
X166892287Y-101431152D01*
X166922766Y-101438787D01*
X166952350Y-101449372D01*
X166980754Y-101462806D01*
X167007704Y-101478959D01*
X167032942Y-101497677D01*
X167056223Y-101518777D01*
X167077323Y-101542058D01*
X167096041Y-101567296D01*
X167112194Y-101594246D01*
X167125628Y-101622650D01*
X167136213Y-101652234D01*
X167143848Y-101682713D01*
X167148458Y-101713793D01*
X167150000Y-101745176D01*
X167150000Y-103254824D01*
X167148458Y-103286207D01*
X167143848Y-103317287D01*
X167136213Y-103347766D01*
X167125628Y-103377350D01*
X167112194Y-103405754D01*
X167096041Y-103432704D01*
X167077323Y-103457942D01*
X167056223Y-103481223D01*
X167032942Y-103502323D01*
X167007704Y-103521041D01*
X166980754Y-103537194D01*
X166952350Y-103550628D01*
X166922766Y-103561213D01*
X166892287Y-103568848D01*
X166861207Y-103573458D01*
X166829824Y-103575000D01*
X165645176Y-103575000D01*
X165613793Y-103573458D01*
X165582713Y-103568848D01*
X165552234Y-103561213D01*
X165522650Y-103550628D01*
X165494246Y-103537194D01*
X165467296Y-103521041D01*
X165442058Y-103502323D01*
X165418777Y-103481223D01*
X165397677Y-103457942D01*
X165378959Y-103432704D01*
X165362806Y-103405754D01*
X165349372Y-103377350D01*
X165338787Y-103347766D01*
X165331152Y-103317287D01*
X165326542Y-103286207D01*
X165325000Y-103254824D01*
X165325000Y-101745176D01*
X165326542Y-101713793D01*
X165331152Y-101682713D01*
X165338787Y-101652234D01*
X165349372Y-101622650D01*
X165362806Y-101594246D01*
X165378959Y-101567296D01*
X165397677Y-101542058D01*
X165418777Y-101518777D01*
X165442058Y-101497677D01*
X165467296Y-101478959D01*
X165494246Y-101462806D01*
X165522650Y-101449372D01*
X165552234Y-101438787D01*
X165582713Y-101431152D01*
X165613793Y-101426542D01*
X165645176Y-101425000D01*
X166829824Y-101425000D01*
X166861207Y-101426542D01*
X166861207Y-101426542D01*
G37*
D12*
X166237500Y-102500000D03*
D11*
G36*
X167111207Y-104176542D02*
G01*
X167142287Y-104181152D01*
X167172766Y-104188787D01*
X167202350Y-104199372D01*
X167230754Y-104212806D01*
X167257704Y-104228959D01*
X167282942Y-104247677D01*
X167306223Y-104268777D01*
X167327323Y-104292058D01*
X167346041Y-104317296D01*
X167362194Y-104344246D01*
X167375628Y-104372650D01*
X167386213Y-104402234D01*
X167393848Y-104432713D01*
X167398458Y-104463793D01*
X167400000Y-104495176D01*
X167400000Y-106004824D01*
X167398458Y-106036207D01*
X167393848Y-106067287D01*
X167386213Y-106097766D01*
X167375628Y-106127350D01*
X167362194Y-106155754D01*
X167346041Y-106182704D01*
X167327323Y-106207942D01*
X167306223Y-106231223D01*
X167282942Y-106252323D01*
X167257704Y-106271041D01*
X167230754Y-106287194D01*
X167202350Y-106300628D01*
X167172766Y-106311213D01*
X167142287Y-106318848D01*
X167111207Y-106323458D01*
X167079824Y-106325000D01*
X165895176Y-106325000D01*
X165863793Y-106323458D01*
X165832713Y-106318848D01*
X165802234Y-106311213D01*
X165772650Y-106300628D01*
X165744246Y-106287194D01*
X165717296Y-106271041D01*
X165692058Y-106252323D01*
X165668777Y-106231223D01*
X165647677Y-106207942D01*
X165628959Y-106182704D01*
X165612806Y-106155754D01*
X165599372Y-106127350D01*
X165588787Y-106097766D01*
X165581152Y-106067287D01*
X165576542Y-106036207D01*
X165575000Y-106004824D01*
X165575000Y-104495176D01*
X165576542Y-104463793D01*
X165581152Y-104432713D01*
X165588787Y-104402234D01*
X165599372Y-104372650D01*
X165612806Y-104344246D01*
X165628959Y-104317296D01*
X165647677Y-104292058D01*
X165668777Y-104268777D01*
X165692058Y-104247677D01*
X165717296Y-104228959D01*
X165744246Y-104212806D01*
X165772650Y-104199372D01*
X165802234Y-104188787D01*
X165832713Y-104181152D01*
X165863793Y-104176542D01*
X165895176Y-104175000D01*
X167079824Y-104175000D01*
X167111207Y-104176542D01*
X167111207Y-104176542D01*
G37*
D12*
X166487500Y-105250000D03*
D11*
G36*
X164136207Y-104176542D02*
G01*
X164167287Y-104181152D01*
X164197766Y-104188787D01*
X164227350Y-104199372D01*
X164255754Y-104212806D01*
X164282704Y-104228959D01*
X164307942Y-104247677D01*
X164331223Y-104268777D01*
X164352323Y-104292058D01*
X164371041Y-104317296D01*
X164387194Y-104344246D01*
X164400628Y-104372650D01*
X164411213Y-104402234D01*
X164418848Y-104432713D01*
X164423458Y-104463793D01*
X164425000Y-104495176D01*
X164425000Y-106004824D01*
X164423458Y-106036207D01*
X164418848Y-106067287D01*
X164411213Y-106097766D01*
X164400628Y-106127350D01*
X164387194Y-106155754D01*
X164371041Y-106182704D01*
X164352323Y-106207942D01*
X164331223Y-106231223D01*
X164307942Y-106252323D01*
X164282704Y-106271041D01*
X164255754Y-106287194D01*
X164227350Y-106300628D01*
X164197766Y-106311213D01*
X164167287Y-106318848D01*
X164136207Y-106323458D01*
X164104824Y-106325000D01*
X162920176Y-106325000D01*
X162888793Y-106323458D01*
X162857713Y-106318848D01*
X162827234Y-106311213D01*
X162797650Y-106300628D01*
X162769246Y-106287194D01*
X162742296Y-106271041D01*
X162717058Y-106252323D01*
X162693777Y-106231223D01*
X162672677Y-106207942D01*
X162653959Y-106182704D01*
X162637806Y-106155754D01*
X162624372Y-106127350D01*
X162613787Y-106097766D01*
X162606152Y-106067287D01*
X162601542Y-106036207D01*
X162600000Y-106004824D01*
X162600000Y-104495176D01*
X162601542Y-104463793D01*
X162606152Y-104432713D01*
X162613787Y-104402234D01*
X162624372Y-104372650D01*
X162637806Y-104344246D01*
X162653959Y-104317296D01*
X162672677Y-104292058D01*
X162693777Y-104268777D01*
X162717058Y-104247677D01*
X162742296Y-104228959D01*
X162769246Y-104212806D01*
X162797650Y-104199372D01*
X162827234Y-104188787D01*
X162857713Y-104181152D01*
X162888793Y-104176542D01*
X162920176Y-104175000D01*
X164104824Y-104175000D01*
X164136207Y-104176542D01*
X164136207Y-104176542D01*
G37*
D12*
X163512500Y-105250000D03*
D11*
G36*
X171211207Y-91026542D02*
G01*
X171242287Y-91031152D01*
X171272766Y-91038787D01*
X171302350Y-91049372D01*
X171330754Y-91062806D01*
X171357704Y-91078959D01*
X171382942Y-91097677D01*
X171406223Y-91118777D01*
X171427323Y-91142058D01*
X171446041Y-91167296D01*
X171462194Y-91194246D01*
X171475628Y-91222650D01*
X171486213Y-91252234D01*
X171493848Y-91282713D01*
X171498458Y-91313793D01*
X171500000Y-91345176D01*
X171500000Y-92854824D01*
X171498458Y-92886207D01*
X171493848Y-92917287D01*
X171486213Y-92947766D01*
X171475628Y-92977350D01*
X171462194Y-93005754D01*
X171446041Y-93032704D01*
X171427323Y-93057942D01*
X171406223Y-93081223D01*
X171382942Y-93102323D01*
X171357704Y-93121041D01*
X171330754Y-93137194D01*
X171302350Y-93150628D01*
X171272766Y-93161213D01*
X171242287Y-93168848D01*
X171211207Y-93173458D01*
X171179824Y-93175000D01*
X169995176Y-93175000D01*
X169963793Y-93173458D01*
X169932713Y-93168848D01*
X169902234Y-93161213D01*
X169872650Y-93150628D01*
X169844246Y-93137194D01*
X169817296Y-93121041D01*
X169792058Y-93102323D01*
X169768777Y-93081223D01*
X169747677Y-93057942D01*
X169728959Y-93032704D01*
X169712806Y-93005754D01*
X169699372Y-92977350D01*
X169688787Y-92947766D01*
X169681152Y-92917287D01*
X169676542Y-92886207D01*
X169675000Y-92854824D01*
X169675000Y-91345176D01*
X169676542Y-91313793D01*
X169681152Y-91282713D01*
X169688787Y-91252234D01*
X169699372Y-91222650D01*
X169712806Y-91194246D01*
X169728959Y-91167296D01*
X169747677Y-91142058D01*
X169768777Y-91118777D01*
X169792058Y-91097677D01*
X169817296Y-91078959D01*
X169844246Y-91062806D01*
X169872650Y-91049372D01*
X169902234Y-91038787D01*
X169932713Y-91031152D01*
X169963793Y-91026542D01*
X169995176Y-91025000D01*
X171179824Y-91025000D01*
X171211207Y-91026542D01*
X171211207Y-91026542D01*
G37*
D12*
X170587500Y-92100000D03*
D11*
G36*
X168236207Y-91026542D02*
G01*
X168267287Y-91031152D01*
X168297766Y-91038787D01*
X168327350Y-91049372D01*
X168355754Y-91062806D01*
X168382704Y-91078959D01*
X168407942Y-91097677D01*
X168431223Y-91118777D01*
X168452323Y-91142058D01*
X168471041Y-91167296D01*
X168487194Y-91194246D01*
X168500628Y-91222650D01*
X168511213Y-91252234D01*
X168518848Y-91282713D01*
X168523458Y-91313793D01*
X168525000Y-91345176D01*
X168525000Y-92854824D01*
X168523458Y-92886207D01*
X168518848Y-92917287D01*
X168511213Y-92947766D01*
X168500628Y-92977350D01*
X168487194Y-93005754D01*
X168471041Y-93032704D01*
X168452323Y-93057942D01*
X168431223Y-93081223D01*
X168407942Y-93102323D01*
X168382704Y-93121041D01*
X168355754Y-93137194D01*
X168327350Y-93150628D01*
X168297766Y-93161213D01*
X168267287Y-93168848D01*
X168236207Y-93173458D01*
X168204824Y-93175000D01*
X167020176Y-93175000D01*
X166988793Y-93173458D01*
X166957713Y-93168848D01*
X166927234Y-93161213D01*
X166897650Y-93150628D01*
X166869246Y-93137194D01*
X166842296Y-93121041D01*
X166817058Y-93102323D01*
X166793777Y-93081223D01*
X166772677Y-93057942D01*
X166753959Y-93032704D01*
X166737806Y-93005754D01*
X166724372Y-92977350D01*
X166713787Y-92947766D01*
X166706152Y-92917287D01*
X166701542Y-92886207D01*
X166700000Y-92854824D01*
X166700000Y-91345176D01*
X166701542Y-91313793D01*
X166706152Y-91282713D01*
X166713787Y-91252234D01*
X166724372Y-91222650D01*
X166737806Y-91194246D01*
X166753959Y-91167296D01*
X166772677Y-91142058D01*
X166793777Y-91118777D01*
X166817058Y-91097677D01*
X166842296Y-91078959D01*
X166869246Y-91062806D01*
X166897650Y-91049372D01*
X166927234Y-91038787D01*
X166957713Y-91031152D01*
X166988793Y-91026542D01*
X167020176Y-91025000D01*
X168204824Y-91025000D01*
X168236207Y-91026542D01*
X168236207Y-91026542D01*
G37*
D12*
X167612500Y-92100000D03*
D11*
G36*
X173330117Y-98301414D02*
G01*
X173358625Y-98305643D01*
X173386580Y-98312645D01*
X173413714Y-98322354D01*
X173439767Y-98334676D01*
X173464486Y-98349492D01*
X173487633Y-98366659D01*
X173508987Y-98386013D01*
X173528341Y-98407367D01*
X173545508Y-98430514D01*
X173560324Y-98455233D01*
X173572646Y-98481286D01*
X173582355Y-98508420D01*
X173589357Y-98536375D01*
X173593586Y-98564883D01*
X173595000Y-98593667D01*
X173595000Y-101406333D01*
X173593586Y-101435117D01*
X173589357Y-101463625D01*
X173582355Y-101491580D01*
X173572646Y-101518714D01*
X173560324Y-101544767D01*
X173545508Y-101569486D01*
X173528341Y-101592633D01*
X173508987Y-101613987D01*
X173487633Y-101633341D01*
X173464486Y-101650508D01*
X173439767Y-101665324D01*
X173413714Y-101677646D01*
X173386580Y-101687355D01*
X173358625Y-101694357D01*
X173330117Y-101698586D01*
X173301333Y-101700000D01*
X171198667Y-101700000D01*
X171169883Y-101698586D01*
X171141375Y-101694357D01*
X171113420Y-101687355D01*
X171086286Y-101677646D01*
X171060233Y-101665324D01*
X171035514Y-101650508D01*
X171012367Y-101633341D01*
X170991013Y-101613987D01*
X170971659Y-101592633D01*
X170954492Y-101569486D01*
X170939676Y-101544767D01*
X170927354Y-101518714D01*
X170917645Y-101491580D01*
X170910643Y-101463625D01*
X170906414Y-101435117D01*
X170905000Y-101406333D01*
X170905000Y-98593667D01*
X170906414Y-98564883D01*
X170910643Y-98536375D01*
X170917645Y-98508420D01*
X170927354Y-98481286D01*
X170939676Y-98455233D01*
X170954492Y-98430514D01*
X170971659Y-98407367D01*
X170991013Y-98386013D01*
X171012367Y-98366659D01*
X171035514Y-98349492D01*
X171060233Y-98334676D01*
X171086286Y-98322354D01*
X171113420Y-98312645D01*
X171141375Y-98305643D01*
X171169883Y-98301414D01*
X171198667Y-98300000D01*
X173301333Y-98300000D01*
X173330117Y-98301414D01*
X173330117Y-98301414D01*
G37*
D19*
X172250000Y-100000000D03*
D11*
G36*
X175674504Y-101406204D02*
G01*
X175698773Y-101409804D01*
X175722571Y-101415765D01*
X175745671Y-101424030D01*
X175767849Y-101434520D01*
X175788893Y-101447133D01*
X175808598Y-101461747D01*
X175826777Y-101478223D01*
X175843253Y-101496402D01*
X175857867Y-101516107D01*
X175870480Y-101537151D01*
X175880970Y-101559329D01*
X175889235Y-101582429D01*
X175895196Y-101606227D01*
X175898796Y-101630496D01*
X175900000Y-101655000D01*
X175900000Y-102155000D01*
X175898796Y-102179504D01*
X175895196Y-102203773D01*
X175889235Y-102227571D01*
X175880970Y-102250671D01*
X175870480Y-102272849D01*
X175857867Y-102293893D01*
X175843253Y-102313598D01*
X175826777Y-102331777D01*
X175808598Y-102348253D01*
X175788893Y-102362867D01*
X175767849Y-102375480D01*
X175745671Y-102385970D01*
X175722571Y-102394235D01*
X175698773Y-102400196D01*
X175674504Y-102403796D01*
X175650000Y-102405000D01*
X173800000Y-102405000D01*
X173775496Y-102403796D01*
X173751227Y-102400196D01*
X173727429Y-102394235D01*
X173704329Y-102385970D01*
X173682151Y-102375480D01*
X173661107Y-102362867D01*
X173641402Y-102348253D01*
X173623223Y-102331777D01*
X173606747Y-102313598D01*
X173592133Y-102293893D01*
X173579520Y-102272849D01*
X173569030Y-102250671D01*
X173560765Y-102227571D01*
X173554804Y-102203773D01*
X173551204Y-102179504D01*
X173550000Y-102155000D01*
X173550000Y-101655000D01*
X173551204Y-101630496D01*
X173554804Y-101606227D01*
X173560765Y-101582429D01*
X173569030Y-101559329D01*
X173579520Y-101537151D01*
X173592133Y-101516107D01*
X173606747Y-101496402D01*
X173623223Y-101478223D01*
X173641402Y-101461747D01*
X173661107Y-101447133D01*
X173682151Y-101434520D01*
X173704329Y-101424030D01*
X173727429Y-101415765D01*
X173751227Y-101409804D01*
X173775496Y-101406204D01*
X173800000Y-101405000D01*
X175650000Y-101405000D01*
X175674504Y-101406204D01*
X175674504Y-101406204D01*
G37*
D20*
X174725000Y-101905000D03*
D11*
G36*
X175674504Y-100136204D02*
G01*
X175698773Y-100139804D01*
X175722571Y-100145765D01*
X175745671Y-100154030D01*
X175767849Y-100164520D01*
X175788893Y-100177133D01*
X175808598Y-100191747D01*
X175826777Y-100208223D01*
X175843253Y-100226402D01*
X175857867Y-100246107D01*
X175870480Y-100267151D01*
X175880970Y-100289329D01*
X175889235Y-100312429D01*
X175895196Y-100336227D01*
X175898796Y-100360496D01*
X175900000Y-100385000D01*
X175900000Y-100885000D01*
X175898796Y-100909504D01*
X175895196Y-100933773D01*
X175889235Y-100957571D01*
X175880970Y-100980671D01*
X175870480Y-101002849D01*
X175857867Y-101023893D01*
X175843253Y-101043598D01*
X175826777Y-101061777D01*
X175808598Y-101078253D01*
X175788893Y-101092867D01*
X175767849Y-101105480D01*
X175745671Y-101115970D01*
X175722571Y-101124235D01*
X175698773Y-101130196D01*
X175674504Y-101133796D01*
X175650000Y-101135000D01*
X173800000Y-101135000D01*
X173775496Y-101133796D01*
X173751227Y-101130196D01*
X173727429Y-101124235D01*
X173704329Y-101115970D01*
X173682151Y-101105480D01*
X173661107Y-101092867D01*
X173641402Y-101078253D01*
X173623223Y-101061777D01*
X173606747Y-101043598D01*
X173592133Y-101023893D01*
X173579520Y-101002849D01*
X173569030Y-100980671D01*
X173560765Y-100957571D01*
X173554804Y-100933773D01*
X173551204Y-100909504D01*
X173550000Y-100885000D01*
X173550000Y-100385000D01*
X173551204Y-100360496D01*
X173554804Y-100336227D01*
X173560765Y-100312429D01*
X173569030Y-100289329D01*
X173579520Y-100267151D01*
X173592133Y-100246107D01*
X173606747Y-100226402D01*
X173623223Y-100208223D01*
X173641402Y-100191747D01*
X173661107Y-100177133D01*
X173682151Y-100164520D01*
X173704329Y-100154030D01*
X173727429Y-100145765D01*
X173751227Y-100139804D01*
X173775496Y-100136204D01*
X173800000Y-100135000D01*
X175650000Y-100135000D01*
X175674504Y-100136204D01*
X175674504Y-100136204D01*
G37*
D20*
X174725000Y-100635000D03*
D11*
G36*
X175674504Y-98866204D02*
G01*
X175698773Y-98869804D01*
X175722571Y-98875765D01*
X175745671Y-98884030D01*
X175767849Y-98894520D01*
X175788893Y-98907133D01*
X175808598Y-98921747D01*
X175826777Y-98938223D01*
X175843253Y-98956402D01*
X175857867Y-98976107D01*
X175870480Y-98997151D01*
X175880970Y-99019329D01*
X175889235Y-99042429D01*
X175895196Y-99066227D01*
X175898796Y-99090496D01*
X175900000Y-99115000D01*
X175900000Y-99615000D01*
X175898796Y-99639504D01*
X175895196Y-99663773D01*
X175889235Y-99687571D01*
X175880970Y-99710671D01*
X175870480Y-99732849D01*
X175857867Y-99753893D01*
X175843253Y-99773598D01*
X175826777Y-99791777D01*
X175808598Y-99808253D01*
X175788893Y-99822867D01*
X175767849Y-99835480D01*
X175745671Y-99845970D01*
X175722571Y-99854235D01*
X175698773Y-99860196D01*
X175674504Y-99863796D01*
X175650000Y-99865000D01*
X173800000Y-99865000D01*
X173775496Y-99863796D01*
X173751227Y-99860196D01*
X173727429Y-99854235D01*
X173704329Y-99845970D01*
X173682151Y-99835480D01*
X173661107Y-99822867D01*
X173641402Y-99808253D01*
X173623223Y-99791777D01*
X173606747Y-99773598D01*
X173592133Y-99753893D01*
X173579520Y-99732849D01*
X173569030Y-99710671D01*
X173560765Y-99687571D01*
X173554804Y-99663773D01*
X173551204Y-99639504D01*
X173550000Y-99615000D01*
X173550000Y-99115000D01*
X173551204Y-99090496D01*
X173554804Y-99066227D01*
X173560765Y-99042429D01*
X173569030Y-99019329D01*
X173579520Y-98997151D01*
X173592133Y-98976107D01*
X173606747Y-98956402D01*
X173623223Y-98938223D01*
X173641402Y-98921747D01*
X173661107Y-98907133D01*
X173682151Y-98894520D01*
X173704329Y-98884030D01*
X173727429Y-98875765D01*
X173751227Y-98869804D01*
X173775496Y-98866204D01*
X173800000Y-98865000D01*
X175650000Y-98865000D01*
X175674504Y-98866204D01*
X175674504Y-98866204D01*
G37*
D20*
X174725000Y-99365000D03*
D11*
G36*
X175674504Y-97596204D02*
G01*
X175698773Y-97599804D01*
X175722571Y-97605765D01*
X175745671Y-97614030D01*
X175767849Y-97624520D01*
X175788893Y-97637133D01*
X175808598Y-97651747D01*
X175826777Y-97668223D01*
X175843253Y-97686402D01*
X175857867Y-97706107D01*
X175870480Y-97727151D01*
X175880970Y-97749329D01*
X175889235Y-97772429D01*
X175895196Y-97796227D01*
X175898796Y-97820496D01*
X175900000Y-97845000D01*
X175900000Y-98345000D01*
X175898796Y-98369504D01*
X175895196Y-98393773D01*
X175889235Y-98417571D01*
X175880970Y-98440671D01*
X175870480Y-98462849D01*
X175857867Y-98483893D01*
X175843253Y-98503598D01*
X175826777Y-98521777D01*
X175808598Y-98538253D01*
X175788893Y-98552867D01*
X175767849Y-98565480D01*
X175745671Y-98575970D01*
X175722571Y-98584235D01*
X175698773Y-98590196D01*
X175674504Y-98593796D01*
X175650000Y-98595000D01*
X173800000Y-98595000D01*
X173775496Y-98593796D01*
X173751227Y-98590196D01*
X173727429Y-98584235D01*
X173704329Y-98575970D01*
X173682151Y-98565480D01*
X173661107Y-98552867D01*
X173641402Y-98538253D01*
X173623223Y-98521777D01*
X173606747Y-98503598D01*
X173592133Y-98483893D01*
X173579520Y-98462849D01*
X173569030Y-98440671D01*
X173560765Y-98417571D01*
X173554804Y-98393773D01*
X173551204Y-98369504D01*
X173550000Y-98345000D01*
X173550000Y-97845000D01*
X173551204Y-97820496D01*
X173554804Y-97796227D01*
X173560765Y-97772429D01*
X173569030Y-97749329D01*
X173579520Y-97727151D01*
X173592133Y-97706107D01*
X173606747Y-97686402D01*
X173623223Y-97668223D01*
X173641402Y-97651747D01*
X173661107Y-97637133D01*
X173682151Y-97624520D01*
X173704329Y-97614030D01*
X173727429Y-97605765D01*
X173751227Y-97599804D01*
X173775496Y-97596204D01*
X173800000Y-97595000D01*
X175650000Y-97595000D01*
X175674504Y-97596204D01*
X175674504Y-97596204D01*
G37*
D20*
X174725000Y-98095000D03*
D11*
G36*
X170724504Y-97596204D02*
G01*
X170748773Y-97599804D01*
X170772571Y-97605765D01*
X170795671Y-97614030D01*
X170817849Y-97624520D01*
X170838893Y-97637133D01*
X170858598Y-97651747D01*
X170876777Y-97668223D01*
X170893253Y-97686402D01*
X170907867Y-97706107D01*
X170920480Y-97727151D01*
X170930970Y-97749329D01*
X170939235Y-97772429D01*
X170945196Y-97796227D01*
X170948796Y-97820496D01*
X170950000Y-97845000D01*
X170950000Y-98345000D01*
X170948796Y-98369504D01*
X170945196Y-98393773D01*
X170939235Y-98417571D01*
X170930970Y-98440671D01*
X170920480Y-98462849D01*
X170907867Y-98483893D01*
X170893253Y-98503598D01*
X170876777Y-98521777D01*
X170858598Y-98538253D01*
X170838893Y-98552867D01*
X170817849Y-98565480D01*
X170795671Y-98575970D01*
X170772571Y-98584235D01*
X170748773Y-98590196D01*
X170724504Y-98593796D01*
X170700000Y-98595000D01*
X168850000Y-98595000D01*
X168825496Y-98593796D01*
X168801227Y-98590196D01*
X168777429Y-98584235D01*
X168754329Y-98575970D01*
X168732151Y-98565480D01*
X168711107Y-98552867D01*
X168691402Y-98538253D01*
X168673223Y-98521777D01*
X168656747Y-98503598D01*
X168642133Y-98483893D01*
X168629520Y-98462849D01*
X168619030Y-98440671D01*
X168610765Y-98417571D01*
X168604804Y-98393773D01*
X168601204Y-98369504D01*
X168600000Y-98345000D01*
X168600000Y-97845000D01*
X168601204Y-97820496D01*
X168604804Y-97796227D01*
X168610765Y-97772429D01*
X168619030Y-97749329D01*
X168629520Y-97727151D01*
X168642133Y-97706107D01*
X168656747Y-97686402D01*
X168673223Y-97668223D01*
X168691402Y-97651747D01*
X168711107Y-97637133D01*
X168732151Y-97624520D01*
X168754329Y-97614030D01*
X168777429Y-97605765D01*
X168801227Y-97599804D01*
X168825496Y-97596204D01*
X168850000Y-97595000D01*
X170700000Y-97595000D01*
X170724504Y-97596204D01*
X170724504Y-97596204D01*
G37*
D20*
X169775000Y-98095000D03*
D11*
G36*
X170724504Y-98866204D02*
G01*
X170748773Y-98869804D01*
X170772571Y-98875765D01*
X170795671Y-98884030D01*
X170817849Y-98894520D01*
X170838893Y-98907133D01*
X170858598Y-98921747D01*
X170876777Y-98938223D01*
X170893253Y-98956402D01*
X170907867Y-98976107D01*
X170920480Y-98997151D01*
X170930970Y-99019329D01*
X170939235Y-99042429D01*
X170945196Y-99066227D01*
X170948796Y-99090496D01*
X170950000Y-99115000D01*
X170950000Y-99615000D01*
X170948796Y-99639504D01*
X170945196Y-99663773D01*
X170939235Y-99687571D01*
X170930970Y-99710671D01*
X170920480Y-99732849D01*
X170907867Y-99753893D01*
X170893253Y-99773598D01*
X170876777Y-99791777D01*
X170858598Y-99808253D01*
X170838893Y-99822867D01*
X170817849Y-99835480D01*
X170795671Y-99845970D01*
X170772571Y-99854235D01*
X170748773Y-99860196D01*
X170724504Y-99863796D01*
X170700000Y-99865000D01*
X168850000Y-99865000D01*
X168825496Y-99863796D01*
X168801227Y-99860196D01*
X168777429Y-99854235D01*
X168754329Y-99845970D01*
X168732151Y-99835480D01*
X168711107Y-99822867D01*
X168691402Y-99808253D01*
X168673223Y-99791777D01*
X168656747Y-99773598D01*
X168642133Y-99753893D01*
X168629520Y-99732849D01*
X168619030Y-99710671D01*
X168610765Y-99687571D01*
X168604804Y-99663773D01*
X168601204Y-99639504D01*
X168600000Y-99615000D01*
X168600000Y-99115000D01*
X168601204Y-99090496D01*
X168604804Y-99066227D01*
X168610765Y-99042429D01*
X168619030Y-99019329D01*
X168629520Y-98997151D01*
X168642133Y-98976107D01*
X168656747Y-98956402D01*
X168673223Y-98938223D01*
X168691402Y-98921747D01*
X168711107Y-98907133D01*
X168732151Y-98894520D01*
X168754329Y-98884030D01*
X168777429Y-98875765D01*
X168801227Y-98869804D01*
X168825496Y-98866204D01*
X168850000Y-98865000D01*
X170700000Y-98865000D01*
X170724504Y-98866204D01*
X170724504Y-98866204D01*
G37*
D20*
X169775000Y-99365000D03*
D11*
G36*
X170724504Y-100136204D02*
G01*
X170748773Y-100139804D01*
X170772571Y-100145765D01*
X170795671Y-100154030D01*
X170817849Y-100164520D01*
X170838893Y-100177133D01*
X170858598Y-100191747D01*
X170876777Y-100208223D01*
X170893253Y-100226402D01*
X170907867Y-100246107D01*
X170920480Y-100267151D01*
X170930970Y-100289329D01*
X170939235Y-100312429D01*
X170945196Y-100336227D01*
X170948796Y-100360496D01*
X170950000Y-100385000D01*
X170950000Y-100885000D01*
X170948796Y-100909504D01*
X170945196Y-100933773D01*
X170939235Y-100957571D01*
X170930970Y-100980671D01*
X170920480Y-101002849D01*
X170907867Y-101023893D01*
X170893253Y-101043598D01*
X170876777Y-101061777D01*
X170858598Y-101078253D01*
X170838893Y-101092867D01*
X170817849Y-101105480D01*
X170795671Y-101115970D01*
X170772571Y-101124235D01*
X170748773Y-101130196D01*
X170724504Y-101133796D01*
X170700000Y-101135000D01*
X168850000Y-101135000D01*
X168825496Y-101133796D01*
X168801227Y-101130196D01*
X168777429Y-101124235D01*
X168754329Y-101115970D01*
X168732151Y-101105480D01*
X168711107Y-101092867D01*
X168691402Y-101078253D01*
X168673223Y-101061777D01*
X168656747Y-101043598D01*
X168642133Y-101023893D01*
X168629520Y-101002849D01*
X168619030Y-100980671D01*
X168610765Y-100957571D01*
X168604804Y-100933773D01*
X168601204Y-100909504D01*
X168600000Y-100885000D01*
X168600000Y-100385000D01*
X168601204Y-100360496D01*
X168604804Y-100336227D01*
X168610765Y-100312429D01*
X168619030Y-100289329D01*
X168629520Y-100267151D01*
X168642133Y-100246107D01*
X168656747Y-100226402D01*
X168673223Y-100208223D01*
X168691402Y-100191747D01*
X168711107Y-100177133D01*
X168732151Y-100164520D01*
X168754329Y-100154030D01*
X168777429Y-100145765D01*
X168801227Y-100139804D01*
X168825496Y-100136204D01*
X168850000Y-100135000D01*
X170700000Y-100135000D01*
X170724504Y-100136204D01*
X170724504Y-100136204D01*
G37*
D20*
X169775000Y-100635000D03*
D11*
G36*
X170724504Y-101406204D02*
G01*
X170748773Y-101409804D01*
X170772571Y-101415765D01*
X170795671Y-101424030D01*
X170817849Y-101434520D01*
X170838893Y-101447133D01*
X170858598Y-101461747D01*
X170876777Y-101478223D01*
X170893253Y-101496402D01*
X170907867Y-101516107D01*
X170920480Y-101537151D01*
X170930970Y-101559329D01*
X170939235Y-101582429D01*
X170945196Y-101606227D01*
X170948796Y-101630496D01*
X170950000Y-101655000D01*
X170950000Y-102155000D01*
X170948796Y-102179504D01*
X170945196Y-102203773D01*
X170939235Y-102227571D01*
X170930970Y-102250671D01*
X170920480Y-102272849D01*
X170907867Y-102293893D01*
X170893253Y-102313598D01*
X170876777Y-102331777D01*
X170858598Y-102348253D01*
X170838893Y-102362867D01*
X170817849Y-102375480D01*
X170795671Y-102385970D01*
X170772571Y-102394235D01*
X170748773Y-102400196D01*
X170724504Y-102403796D01*
X170700000Y-102405000D01*
X168850000Y-102405000D01*
X168825496Y-102403796D01*
X168801227Y-102400196D01*
X168777429Y-102394235D01*
X168754329Y-102385970D01*
X168732151Y-102375480D01*
X168711107Y-102362867D01*
X168691402Y-102348253D01*
X168673223Y-102331777D01*
X168656747Y-102313598D01*
X168642133Y-102293893D01*
X168629520Y-102272849D01*
X168619030Y-102250671D01*
X168610765Y-102227571D01*
X168604804Y-102203773D01*
X168601204Y-102179504D01*
X168600000Y-102155000D01*
X168600000Y-101655000D01*
X168601204Y-101630496D01*
X168604804Y-101606227D01*
X168610765Y-101582429D01*
X168619030Y-101559329D01*
X168629520Y-101537151D01*
X168642133Y-101516107D01*
X168656747Y-101496402D01*
X168673223Y-101478223D01*
X168691402Y-101461747D01*
X168711107Y-101447133D01*
X168732151Y-101434520D01*
X168754329Y-101424030D01*
X168777429Y-101415765D01*
X168801227Y-101409804D01*
X168825496Y-101406204D01*
X168850000Y-101405000D01*
X170700000Y-101405000D01*
X170724504Y-101406204D01*
X170724504Y-101406204D01*
G37*
D20*
X169775000Y-101905000D03*
D21*
X172830000Y-89540000D03*
X175370000Y-89540000D03*
X175370000Y-96260000D03*
X172830000Y-96260000D03*
D22*
X175050000Y-112100000D03*
X176000000Y-112100000D03*
X176950000Y-112100000D03*
X176950000Y-109900000D03*
X175050000Y-109900000D03*
X176000000Y-109900000D03*
D23*
X170200000Y-74100000D03*
X166200000Y-76600000D03*
X184700000Y-74100000D03*
X189200000Y-76600000D03*
D24*
X188140000Y-87225000D03*
D25*
X185600000Y-96375000D03*
D24*
X183060000Y-87225000D03*
M02*
