M48
; DRILL file {KiCad (5.1.4-0-10_14)} date 2020 August 02, Sunday 20:06:27
; FORMAT={-:-/ absolute / metric / decimal}
; #@! TF.CreationDate,2020-08-02T20:06:27+03:00
; #@! TF.GenerationSoftware,Kicad,Pcbnew,(5.1.4-0-10_14)
FMAT,2
METRIC
T1C0.600
T2C0.800
T3C1.000
T4C1.300
T5C1.500
T6C3.200
%
G90
G05
T1
X121.5Y-63.5
X135.75Y-69.5
X135.987Y-78.763
X160.75Y-56.25
X160.75Y-58.5
X165.75Y-75.75
T2
X135.98Y-87.95
X135.98Y-100.74
X138.52Y-87.95
X138.52Y-100.74
X141.06Y-87.95
X141.06Y-100.74
X143.6Y-87.95
X143.6Y-100.74
X146.14Y-87.95
X146.14Y-100.74
X148.68Y-87.95
X148.68Y-100.74
X151.22Y-87.95
X151.22Y-100.74
X153.76Y-87.95
X153.76Y-100.74
T3
X121.6Y-67.5
X133.0Y-67.5
T4
X131.25Y-58.75
X136.25Y-58.75
X141.25Y-58.75
X146.25Y-58.75
T5
X164.5Y-70.0
T6
X123.592Y-57.998
X123.592Y-100.998
X166.535Y-57.998
X166.535Y-100.998
T0
M30
