G04 #@! TF.GenerationSoftware,KiCad,Pcbnew,(5.1.4-0-10_14)*
G04 #@! TF.CreationDate,2021-06-10T16:54:28+03:00*
G04 #@! TF.ProjectId,smart-plug,736d6172-742d-4706-9c75-672e6b696361,rev?*
G04 #@! TF.SameCoordinates,Original*
G04 #@! TF.FileFunction,Legend,Bot*
G04 #@! TF.FilePolarity,Positive*
%FSLAX46Y46*%
G04 Gerber Fmt 4.6, Leading zero omitted, Abs format (unit mm)*
G04 Created by KiCad (PCBNEW (5.1.4-0-10_14)) date 2021-06-10 16:54:28*
%MOMM*%
%LPD*%
G04 APERTURE LIST*
%ADD10C,0.300000*%
%ADD11C,0.150000*%
G04 APERTURE END LIST*
D10*
X190278571Y-89478571D02*
X189421428Y-89478571D01*
X189850000Y-90978571D02*
X189850000Y-89478571D01*
X188921428Y-90978571D02*
X188921428Y-89478571D01*
X188278571Y-90978571D02*
X188278571Y-90192857D01*
X188350000Y-90050000D01*
X188492857Y-89978571D01*
X188707142Y-89978571D01*
X188850000Y-90050000D01*
X188921428Y-90121428D01*
X187564285Y-90978571D02*
X187564285Y-89978571D01*
X187564285Y-89478571D02*
X187635714Y-89550000D01*
X187564285Y-89621428D01*
X187492857Y-89550000D01*
X187564285Y-89478571D01*
X187564285Y-89621428D01*
X186850000Y-89978571D02*
X186850000Y-90978571D01*
X186850000Y-90121428D02*
X186778571Y-90050000D01*
X186635714Y-89978571D01*
X186421428Y-89978571D01*
X186278571Y-90050000D01*
X186207142Y-90192857D01*
X186207142Y-90978571D01*
X184850000Y-89978571D02*
X184850000Y-91192857D01*
X184921428Y-91335714D01*
X184992857Y-91407142D01*
X185135714Y-91478571D01*
X185350000Y-91478571D01*
X185492857Y-91407142D01*
X184850000Y-90907142D02*
X184992857Y-90978571D01*
X185278571Y-90978571D01*
X185421428Y-90907142D01*
X185492857Y-90835714D01*
X185564285Y-90692857D01*
X185564285Y-90264285D01*
X185492857Y-90121428D01*
X185421428Y-90050000D01*
X185278571Y-89978571D01*
X184992857Y-89978571D01*
X184850000Y-90050000D01*
X183921428Y-90978571D02*
X184064285Y-90907142D01*
X184135714Y-90764285D01*
X184135714Y-89478571D01*
X182778571Y-90907142D02*
X182921428Y-90978571D01*
X183207142Y-90978571D01*
X183350000Y-90907142D01*
X183421428Y-90764285D01*
X183421428Y-90192857D01*
X183350000Y-90050000D01*
X183207142Y-89978571D01*
X182921428Y-89978571D01*
X182778571Y-90050000D01*
X182707142Y-90192857D01*
X182707142Y-90335714D01*
X183421428Y-90478571D01*
X182064285Y-90978571D02*
X182064285Y-89978571D01*
X182064285Y-90264285D02*
X181992857Y-90121428D01*
X181921428Y-90050000D01*
X181778571Y-89978571D01*
X181635714Y-89978571D01*
X180064285Y-90907142D02*
X179850000Y-90978571D01*
X179492857Y-90978571D01*
X179350000Y-90907142D01*
X179278571Y-90835714D01*
X179207142Y-90692857D01*
X179207142Y-90550000D01*
X179278571Y-90407142D01*
X179350000Y-90335714D01*
X179492857Y-90264285D01*
X179778571Y-90192857D01*
X179921428Y-90121428D01*
X179992857Y-90050000D01*
X180064285Y-89907142D01*
X180064285Y-89764285D01*
X179992857Y-89621428D01*
X179921428Y-89550000D01*
X179778571Y-89478571D01*
X179421428Y-89478571D01*
X179207142Y-89550000D01*
X178564285Y-90978571D02*
X178564285Y-89978571D01*
X178564285Y-90121428D02*
X178492857Y-90050000D01*
X178350000Y-89978571D01*
X178135714Y-89978571D01*
X177992857Y-90050000D01*
X177921428Y-90192857D01*
X177921428Y-90978571D01*
X177921428Y-90192857D02*
X177850000Y-90050000D01*
X177707142Y-89978571D01*
X177492857Y-89978571D01*
X177350000Y-90050000D01*
X177278571Y-90192857D01*
X177278571Y-90978571D01*
X175921428Y-90978571D02*
X175921428Y-90192857D01*
X175992857Y-90050000D01*
X176135714Y-89978571D01*
X176421428Y-89978571D01*
X176564285Y-90050000D01*
X175921428Y-90907142D02*
X176064285Y-90978571D01*
X176421428Y-90978571D01*
X176564285Y-90907142D01*
X176635714Y-90764285D01*
X176635714Y-90621428D01*
X176564285Y-90478571D01*
X176421428Y-90407142D01*
X176064285Y-90407142D01*
X175921428Y-90335714D01*
X175207142Y-90978571D02*
X175207142Y-89978571D01*
X175207142Y-90264285D02*
X175135714Y-90121428D01*
X175064285Y-90050000D01*
X174921428Y-89978571D01*
X174778571Y-89978571D01*
X174492857Y-89978571D02*
X173921428Y-89978571D01*
X174278571Y-89478571D02*
X174278571Y-90764285D01*
X174207142Y-90907142D01*
X174064285Y-90978571D01*
X173921428Y-90978571D01*
X172278571Y-90978571D02*
X172278571Y-89478571D01*
X171707142Y-89478571D01*
X171564285Y-89550000D01*
X171492857Y-89621428D01*
X171421428Y-89764285D01*
X171421428Y-89978571D01*
X171492857Y-90121428D01*
X171564285Y-90192857D01*
X171707142Y-90264285D01*
X172278571Y-90264285D01*
X170564285Y-90978571D02*
X170707142Y-90907142D01*
X170778571Y-90764285D01*
X170778571Y-89478571D01*
X169350000Y-89978571D02*
X169350000Y-90978571D01*
X169992857Y-89978571D02*
X169992857Y-90764285D01*
X169921428Y-90907142D01*
X169778571Y-90978571D01*
X169564285Y-90978571D01*
X169421428Y-90907142D01*
X169350000Y-90835714D01*
X167992857Y-89978571D02*
X167992857Y-91192857D01*
X168064285Y-91335714D01*
X168135714Y-91407142D01*
X168278571Y-91478571D01*
X168492857Y-91478571D01*
X168635714Y-91407142D01*
X167992857Y-90907142D02*
X168135714Y-90978571D01*
X168421428Y-90978571D01*
X168564285Y-90907142D01*
X168635714Y-90835714D01*
X168707142Y-90692857D01*
X168707142Y-90264285D01*
X168635714Y-90121428D01*
X168564285Y-90050000D01*
X168421428Y-89978571D01*
X168135714Y-89978571D01*
X167992857Y-90050000D01*
X166278571Y-89978571D02*
X165921428Y-90978571D01*
X165564285Y-89978571D01*
X164207142Y-90978571D02*
X165064285Y-90978571D01*
X164635714Y-90978571D02*
X164635714Y-89478571D01*
X164778571Y-89692857D01*
X164921428Y-89835714D01*
X165064285Y-89907142D01*
X163564285Y-90835714D02*
X163492857Y-90907142D01*
X163564285Y-90978571D01*
X163635714Y-90907142D01*
X163564285Y-90835714D01*
X163564285Y-90978571D01*
X162564285Y-89478571D02*
X162421428Y-89478571D01*
X162278571Y-89550000D01*
X162207142Y-89621428D01*
X162135714Y-89764285D01*
X162064285Y-90050000D01*
X162064285Y-90407142D01*
X162135714Y-90692857D01*
X162207142Y-90835714D01*
X162278571Y-90907142D01*
X162421428Y-90978571D01*
X162564285Y-90978571D01*
X162707142Y-90907142D01*
X162778571Y-90835714D01*
X162850000Y-90692857D01*
X162921428Y-90407142D01*
X162921428Y-90050000D01*
X162850000Y-89764285D01*
X162778571Y-89621428D01*
X162707142Y-89550000D01*
X162564285Y-89478571D01*
D11*
X194506000Y-82084000D02*
X193256000Y-82084000D01*
X193256000Y-82084000D02*
X193256000Y-103584000D01*
X193256000Y-103584000D02*
X198256000Y-103584000D01*
X198256000Y-103584000D02*
X198256000Y-82084000D01*
X198256000Y-82084000D02*
X194506000Y-82084000D01*
M02*
