M48
; DRILL file {KiCad (5.1.4-0-10_14)} date 2021 June 10, Thursday 16:54:31
; FORMAT={-:-/ absolute / metric / decimal}
; #@! TF.CreationDate,2021-06-10T16:54:31+03:00
; #@! TF.GenerationSoftware,Kicad,Pcbnew,(5.1.4-0-10_14)
FMAT,2
METRIC
T1C0.300
T2C0.600
T3C0.800
T4C2.500
T5C4.000
%
G90
G05
T1
X181.1Y-92.4
X181.1Y-93.4
X181.1Y-94.4
X181.1Y-95.4
X181.1Y-96.4
X181.1Y-97.4
X181.1Y-98.4
X181.1Y-99.4
X181.1Y-100.4
X182.1Y-92.4
X182.1Y-93.4
X182.1Y-94.4
X182.1Y-95.4
X182.1Y-96.4
X182.1Y-97.4
X182.1Y-98.4
X182.1Y-99.4
X182.1Y-100.4
X183.1Y-92.4
X183.1Y-93.4
X183.1Y-94.4
X183.1Y-95.4
X183.1Y-96.4
X183.1Y-97.4
X183.1Y-98.4
X183.1Y-99.4
X183.1Y-100.4
X184.1Y-92.4
X184.1Y-93.4
X184.1Y-94.4
X184.1Y-95.4
X184.1Y-96.4
X184.1Y-97.4
X184.1Y-98.4
X184.1Y-99.4
X184.1Y-100.4
X185.1Y-92.4
X185.1Y-93.4
X185.1Y-94.4
X185.1Y-95.4
X185.1Y-96.4
X185.1Y-97.4
X185.1Y-98.4
X185.1Y-99.4
X185.1Y-100.4
X186.1Y-92.4
X186.1Y-93.4
X186.1Y-94.4
X186.1Y-95.4
X186.1Y-96.4
X186.1Y-97.4
X186.1Y-98.4
X186.1Y-99.4
X186.1Y-100.4
X187.1Y-92.4
X187.1Y-93.4
X187.1Y-94.4
X187.1Y-95.4
X187.1Y-96.4
X187.1Y-97.4
X187.1Y-98.4
X187.1Y-99.4
X187.1Y-100.4
X188.1Y-92.4
X188.1Y-93.4
X188.1Y-94.4
X188.1Y-95.4
X188.1Y-96.4
X188.1Y-97.4
X188.1Y-98.4
X188.1Y-99.4
X188.1Y-100.4
X189.1Y-92.4
X189.1Y-93.4
X189.1Y-94.4
X189.1Y-95.4
X189.1Y-96.4
X189.1Y-97.4
X189.1Y-98.4
X189.1Y-99.4
X189.1Y-100.4
X190.1Y-92.4
X190.1Y-93.4
X190.1Y-94.4
X190.1Y-95.4
X190.1Y-96.4
X190.1Y-97.4
X190.1Y-98.4
X190.1Y-99.4
X190.1Y-100.4
T2
X164.3Y-96.4
X175.8Y-105.837
T3
X194.541Y-83.999
X194.541Y-86.539
X194.541Y-89.079
X194.541Y-91.619
X194.541Y-94.159
X194.541Y-96.699
X194.541Y-99.239
X194.541Y-101.779
T4
X166.2Y-76.6
X170.2Y-74.1
X184.7Y-74.1
X189.2Y-76.6
T5
X177.5Y-73.1
T0
M30
