G04 #@! TF.GenerationSoftware,KiCad,Pcbnew,(5.1.4-0-10_14)*
G04 #@! TF.CreationDate,2021-06-10T11:06:10+03:00*
G04 #@! TF.ProjectId,smart-plug,736d6172-742d-4706-9c75-672e6b696361,rev?*
G04 #@! TF.SameCoordinates,Original*
G04 #@! TF.FileFunction,Legend,Top*
G04 #@! TF.FilePolarity,Positive*
%FSLAX46Y46*%
G04 Gerber Fmt 4.6, Leading zero omitted, Abs format (unit mm)*
G04 Created by KiCad (PCBNEW (5.1.4-0-10_14)) date 2021-06-10 11:06:10*
%MOMM*%
%LPD*%
G04 APERTURE LIST*
%ADD10C,0.150000*%
%ADD11C,0.120000*%
G04 APERTURE END LIST*
D10*
X158947619Y-83147619D02*
X158947619Y-83719047D01*
X157947619Y-83433333D02*
X158947619Y-83433333D01*
X157947619Y-84052380D02*
X158947619Y-84052380D01*
X157947619Y-84480952D02*
X158471428Y-84480952D01*
X158566666Y-84433333D01*
X158614285Y-84338095D01*
X158614285Y-84195238D01*
X158566666Y-84100000D01*
X158519047Y-84052380D01*
X157947619Y-84957142D02*
X158614285Y-84957142D01*
X158947619Y-84957142D02*
X158900000Y-84909523D01*
X158852380Y-84957142D01*
X158900000Y-85004761D01*
X158947619Y-84957142D01*
X158852380Y-84957142D01*
X158614285Y-85433333D02*
X157947619Y-85433333D01*
X158519047Y-85433333D02*
X158566666Y-85480952D01*
X158614285Y-85576190D01*
X158614285Y-85719047D01*
X158566666Y-85814285D01*
X158471428Y-85861904D01*
X157947619Y-85861904D01*
X158614285Y-86766666D02*
X157804761Y-86766666D01*
X157709523Y-86719047D01*
X157661904Y-86671428D01*
X157614285Y-86576190D01*
X157614285Y-86433333D01*
X157661904Y-86338095D01*
X157995238Y-86766666D02*
X157947619Y-86671428D01*
X157947619Y-86480952D01*
X157995238Y-86385714D01*
X158042857Y-86338095D01*
X158138095Y-86290476D01*
X158423809Y-86290476D01*
X158519047Y-86338095D01*
X158566666Y-86385714D01*
X158614285Y-86480952D01*
X158614285Y-86671428D01*
X158566666Y-86766666D01*
X157947619Y-87385714D02*
X157995238Y-87290476D01*
X158090476Y-87242857D01*
X158947619Y-87242857D01*
X157995238Y-88147619D02*
X157947619Y-88052380D01*
X157947619Y-87861904D01*
X157995238Y-87766666D01*
X158090476Y-87719047D01*
X158471428Y-87719047D01*
X158566666Y-87766666D01*
X158614285Y-87861904D01*
X158614285Y-88052380D01*
X158566666Y-88147619D01*
X158471428Y-88195238D01*
X158376190Y-88195238D01*
X158280952Y-87719047D01*
X157947619Y-88623809D02*
X158614285Y-88623809D01*
X158423809Y-88623809D02*
X158519047Y-88671428D01*
X158566666Y-88719047D01*
X158614285Y-88814285D01*
X158614285Y-88909523D01*
X157995238Y-89957142D02*
X157947619Y-90100000D01*
X157947619Y-90338095D01*
X157995238Y-90433333D01*
X158042857Y-90480952D01*
X158138095Y-90528571D01*
X158233333Y-90528571D01*
X158328571Y-90480952D01*
X158376190Y-90433333D01*
X158423809Y-90338095D01*
X158471428Y-90147619D01*
X158519047Y-90052380D01*
X158566666Y-90004761D01*
X158661904Y-89957142D01*
X158757142Y-89957142D01*
X158852380Y-90004761D01*
X158900000Y-90052380D01*
X158947619Y-90147619D01*
X158947619Y-90385714D01*
X158900000Y-90528571D01*
X157947619Y-90957142D02*
X158614285Y-90957142D01*
X158519047Y-90957142D02*
X158566666Y-91004761D01*
X158614285Y-91100000D01*
X158614285Y-91242857D01*
X158566666Y-91338095D01*
X158471428Y-91385714D01*
X157947619Y-91385714D01*
X158471428Y-91385714D02*
X158566666Y-91433333D01*
X158614285Y-91528571D01*
X158614285Y-91671428D01*
X158566666Y-91766666D01*
X158471428Y-91814285D01*
X157947619Y-91814285D01*
X157947619Y-92719047D02*
X158471428Y-92719047D01*
X158566666Y-92671428D01*
X158614285Y-92576190D01*
X158614285Y-92385714D01*
X158566666Y-92290476D01*
X157995238Y-92719047D02*
X157947619Y-92623809D01*
X157947619Y-92385714D01*
X157995238Y-92290476D01*
X158090476Y-92242857D01*
X158185714Y-92242857D01*
X158280952Y-92290476D01*
X158328571Y-92385714D01*
X158328571Y-92623809D01*
X158376190Y-92719047D01*
X157947619Y-93195238D02*
X158614285Y-93195238D01*
X158423809Y-93195238D02*
X158519047Y-93242857D01*
X158566666Y-93290476D01*
X158614285Y-93385714D01*
X158614285Y-93480952D01*
X158614285Y-93671428D02*
X158614285Y-94052380D01*
X158947619Y-93814285D02*
X158090476Y-93814285D01*
X157995238Y-93861904D01*
X157947619Y-93957142D01*
X157947619Y-94052380D01*
X157947619Y-95147619D02*
X158947619Y-95147619D01*
X158947619Y-95528571D01*
X158900000Y-95623809D01*
X158852380Y-95671428D01*
X158757142Y-95719047D01*
X158614285Y-95719047D01*
X158519047Y-95671428D01*
X158471428Y-95623809D01*
X158423809Y-95528571D01*
X158423809Y-95147619D01*
X157947619Y-96290476D02*
X157995238Y-96195238D01*
X158090476Y-96147619D01*
X158947619Y-96147619D01*
X158614285Y-97100000D02*
X157947619Y-97100000D01*
X158614285Y-96671428D02*
X158090476Y-96671428D01*
X157995238Y-96719047D01*
X157947619Y-96814285D01*
X157947619Y-96957142D01*
X157995238Y-97052380D01*
X158042857Y-97100000D01*
X158614285Y-98004761D02*
X157804761Y-98004761D01*
X157709523Y-97957142D01*
X157661904Y-97909523D01*
X157614285Y-97814285D01*
X157614285Y-97671428D01*
X157661904Y-97576190D01*
X157995238Y-98004761D02*
X157947619Y-97909523D01*
X157947619Y-97719047D01*
X157995238Y-97623809D01*
X158042857Y-97576190D01*
X158138095Y-97528571D01*
X158423809Y-97528571D01*
X158519047Y-97576190D01*
X158566666Y-97623809D01*
X158614285Y-97719047D01*
X158614285Y-97909523D01*
X158566666Y-98004761D01*
X158614285Y-99147619D02*
X157947619Y-99385714D01*
X158614285Y-99623809D01*
X157947619Y-100528571D02*
X157947619Y-99957142D01*
X157947619Y-100242857D02*
X158947619Y-100242857D01*
X158804761Y-100147619D01*
X158709523Y-100052380D01*
X158661904Y-99957142D01*
X158042857Y-100957142D02*
X157995238Y-101004761D01*
X157947619Y-100957142D01*
X157995238Y-100909523D01*
X158042857Y-100957142D01*
X157947619Y-100957142D01*
X158947619Y-101623809D02*
X158947619Y-101719047D01*
X158900000Y-101814285D01*
X158852380Y-101861904D01*
X158757142Y-101909523D01*
X158566666Y-101957142D01*
X158328571Y-101957142D01*
X158138095Y-101909523D01*
X158042857Y-101861904D01*
X157995238Y-101814285D01*
X157947619Y-101719047D01*
X157947619Y-101623809D01*
X157995238Y-101528571D01*
X158042857Y-101480952D01*
X158138095Y-101433333D01*
X158328571Y-101385714D01*
X158566666Y-101385714D01*
X158757142Y-101433333D01*
X158852380Y-101480952D01*
X158900000Y-101528571D01*
X158947619Y-101623809D01*
D11*
X181500000Y-106900000D02*
X178100000Y-106900000D01*
X178100000Y-106900000D02*
X178100000Y-111100000D01*
X178100000Y-111100000D02*
X181500000Y-111100000D01*
X181500000Y-111100000D02*
X181500000Y-106900000D01*
X185297936Y-104590000D02*
X186502064Y-104590000D01*
X185297936Y-106410000D02*
X186502064Y-106410000D01*
X167550000Y-78700000D02*
X174950000Y-78700000D01*
X167550000Y-78700000D02*
X167550000Y-82300000D01*
X174950000Y-82300000D02*
X174950000Y-78700000D01*
X174950000Y-82300000D02*
X167550000Y-82300000D01*
X183350000Y-83350000D02*
X183350000Y-78150000D01*
X183350000Y-78150000D02*
X176150000Y-78150000D01*
X176150000Y-83350000D02*
X183350000Y-83350000D01*
X176150000Y-78150000D02*
X176150000Y-83350000D01*
X161147936Y-100910000D02*
X162352064Y-100910000D01*
X161147936Y-99090000D02*
X162352064Y-99090000D01*
X169897936Y-108690000D02*
X171102064Y-108690000D01*
X169897936Y-110510000D02*
X171102064Y-110510000D01*
X169997936Y-103190000D02*
X171202064Y-103190000D01*
X169997936Y-105010000D02*
X171202064Y-105010000D01*
X181202064Y-102490000D02*
X179997936Y-102490000D01*
X181202064Y-104310000D02*
X179997936Y-104310000D01*
X170602064Y-107710000D02*
X169397936Y-107710000D01*
X170602064Y-105890000D02*
X169397936Y-105890000D01*
X174750000Y-83840000D02*
X166690000Y-83840000D01*
X166690000Y-83840000D02*
X166690000Y-88360000D01*
X166690000Y-88360000D02*
X174750000Y-88360000D01*
X169702064Y-93590000D02*
X168497936Y-93590000D01*
X169702064Y-95410000D02*
X168497936Y-95410000D01*
X167910000Y-97647936D02*
X167910000Y-98852064D01*
X166090000Y-97647936D02*
X166090000Y-98852064D01*
X169702064Y-90610000D02*
X168497936Y-90610000D01*
X169702064Y-88790000D02*
X168497936Y-88790000D01*
X176002064Y-106990000D02*
X174797936Y-106990000D01*
X176002064Y-108810000D02*
X174797936Y-108810000D01*
X186502064Y-106990000D02*
X185297936Y-106990000D01*
X186502064Y-108810000D02*
X185297936Y-108810000D01*
X159550000Y-90820000D02*
X159550000Y-92320000D01*
X159550000Y-92320000D02*
X159820000Y-92320000D01*
X159820000Y-92320000D02*
X159820000Y-95150000D01*
X166450000Y-90820000D02*
X166450000Y-92320000D01*
X166450000Y-92320000D02*
X166180000Y-92320000D01*
X166180000Y-92320000D02*
X166180000Y-93420000D01*
X164147936Y-101590000D02*
X165352064Y-101590000D01*
X164147936Y-103410000D02*
X165352064Y-103410000D01*
X164397936Y-106160000D02*
X165602064Y-106160000D01*
X164397936Y-104340000D02*
X165602064Y-104340000D01*
X169702064Y-93010000D02*
X168497936Y-93010000D01*
X169702064Y-91190000D02*
X168497936Y-91190000D01*
X172250000Y-97440000D02*
X170300000Y-97440000D01*
X172250000Y-97440000D02*
X174200000Y-97440000D01*
X172250000Y-102560000D02*
X170300000Y-102560000D01*
X172250000Y-102560000D02*
X175700000Y-102560000D01*
X172200000Y-95350000D02*
X176000000Y-95350000D01*
X172200000Y-91900000D02*
G75*
G02X172200000Y-93900000I0J-1000000D01*
G01*
X176000000Y-95350000D02*
X176000000Y-90450000D01*
X172200000Y-90450000D02*
X172200000Y-91900000D01*
X176000000Y-90450000D02*
X172200000Y-90450000D01*
X172200000Y-93900000D02*
X172200000Y-95350000D01*
X177610000Y-111900000D02*
X177610000Y-110100000D01*
X174390000Y-110100000D02*
X174390000Y-112550000D01*
X182210000Y-90050000D02*
X182210000Y-88950000D01*
X180400000Y-90050000D02*
X182210000Y-90050000D01*
X180400000Y-91550000D02*
X180400000Y-90050000D01*
X188990000Y-90050000D02*
X188990000Y-84925000D01*
X190800000Y-90050000D02*
X188990000Y-90050000D01*
X190800000Y-91550000D02*
X190800000Y-90050000D01*
M02*
